<?xml version="1.0" encoding="UTF-8" standalone="no"?>
<svg
   xmlns:dc="http://purl.org/dc/elements/1.1/"
   xmlns:cc="http://creativecommons.org/ns#"
   xmlns:rdf="http://www.w3.org/1999/02/22-rdf-syntax-ns#"
   xmlns:svg="http://www.w3.org/2000/svg"
   xmlns="http://www.w3.org/2000/svg"
   xmlns:xlink="http://www.w3.org/1999/xlink"
   xmlns:sodipodi="http://sodipodi.sourceforge.net/DTD/sodipodi-0.dtd"
   xmlns:inkscape="http://www.inkscape.org/namespaces/inkscape"
   width="127.47654mm"
   height="34.644482mm"
   viewBox="0 0 127.47654 34.644482"
   version="1.1"
   id="svg6398"
   inkscape:version="1.0 (4035a4f, 2020-05-01)"
   sodipodi:docname="aboutme2.svg">
  <defs
     id="defs6392">
    <linearGradient
       id="linearGradient1453"
       inkscape:collect="always">
      <stop
         id="stop1449"
         offset="0"
         style="stop-color:#f0f02f;stop-opacity:1" />
      <stop
         id="stop1451"
         offset="1"
         style="stop-color:#e8e82e;stop-opacity:1" />
    </linearGradient>
    <clipPath
       clipPathUnits="userSpaceOnUse"
       id="clipPath2431">
      <g
         style="fill:#e7b32d;fill-opacity:0.4"
         id="use2433"
         inkscape:label="Clip">
        <g
           style="fill:#e7b32d;fill-opacity:0.4"
           id="g7618">
          <path
             d="m 114.63039,44.962683 c -0.002,0.111434 -0.0118,0.22294 -0.007,0.334306 0.0122,0.295735 0.0379,0.590759 0.0575,0.886095 0.10384,1.565441 0.23241,3.131439 0.42246,4.689162 0.0698,0.571829 0.15984,1.140995 0.23976,1.711495 0.28804,1.239567 0.24542,2.527141 0.62214,3.748177 0.078,0.252754 0.19747,0.490805 0.29976,0.734738 0.0769,0.183261 0.13451,0.37688 0.23761,0.546764 0.0902,0.14865 0.22416,0.265882 0.33624,0.398822 1.15241,0.933347 3.15111,0.872686 4.23655,-0.139404 0.75752,-0.706337 1.55559,-2.004343 2.09188,-2.797908 0.50738,-0.750776 1.01117,-1.503971 1.51676,-2.255956 1.89337,-3.191947 3.99464,-6.257817 6.36858,-9.112102 0.40356,-0.485219 0.8048,-0.973841 1.24153,-1.429432 0.34365,-0.358492 0.73068,-0.672719 1.09602,-1.009076 -0.82944,-0.25695 2.64036,-1.152565 2.08278,-0.680757 -0.33621,0.284496 -1.04504,-0.139949 -1.30337,0.216754 -0.18184,0.251077 0.56001,0.286293 0.78334,0.501304 0.67502,0.649896 0.6841,1.093663 0.96185,1.97164 0.0541,0.434748 0.13796,0.866818 0.16241,1.304237 0.0504,0.902335 -0.0465,2.108655 -0.0876,3.00304 -0.21163,4.60703 0.0751,-1.571993 -0.0784,3.251604 -0.0183,0.573808 -0.0619,1.146522 -0.0929,1.719781 0.007,0.565375 -0.008,1.131465 0.0216,1.696128 0.0283,0.545457 0.10807,1.087096 0.15093,1.631601 0.0375,0.475808 0.0647,0.952402 0.09,1.429011 0.0206,0.388001 5.3e-4,0.778992 0.0477,1.164662 0.0841,0.687123 0.27108,1.102108 0.50015,1.739416 0.48053,0.615032 1.04244,1.239813 1.77696,1.560052 1.13483,0.494768 2.92481,0.17368 3.82879,-0.06139 0.37056,-0.09636 0.56637,-0.515374 0.84955,-0.773062 1.21469,-2.230335 1.06403,-1.83143 2.17772,-4.521597 0.49042,-1.18463 0.95393,-2.380327 1.41276,-3.577545 0.48038,-1.253458 0.90233,-2.529335 1.40475,-3.774125 0.46268,-1.146355 1.00796,-2.257798 1.4894,-3.396406 0.414,-0.979078 0.79775,-1.970667 1.19662,-2.956002 0.71064,-1.868247 1.37888,-3.684939 2.1666,-5.522166 0.34236,-0.798497 0.67134,-1.605532 1.08144,-2.371447 0.51532,-0.962438 1.49186,-2.390135 2.28951,-3.209994 0.30369,-0.312145 0.67367,-0.552098 1.0105,-0.828146 0.32907,-0.108977 1.31701,-0.220231 0.9872,-0.326924 -0.45738,-0.147963 -1.09068,-0.156554 -1.43042,0.183538 -0.21339,0.213606 0.54269,0.27872 0.76908,0.478478 0.29913,0.263935 0.55864,0.573839 0.79104,0.898078 0.73512,1.025612 0.89745,1.609971 1.39777,2.793841 0.1747,0.610547 0.3843,1.212176 0.52412,1.831644 0.15088,0.668502 0.23491,1.350376 0.34669,2.026516 0.25143,1.5207 0.3957,2.31495 0.52051,3.821228 0.28252,3.40953 -0.15052,-0.172344 0.28885,3.146198 0.27971,1.381289 0.42035,2.243039 0.8433,3.609864 0.19727,0.637484 0.44932,1.25671 0.67262,1.88555 0.20463,0.576263 0.38297,1.162407 0.61116,1.729751 0.49654,1.234498 0.71641,1.541764 1.34511,2.645857 0.69755,0.992047 0.42041,0.707289 1.21264,1.464125 0.14169,0.135368 0.27071,0.288607 0.43492,0.395557 0.96492,0.628473 2.80154,0.0038 3.43591,-0.260824 0.34074,-0.14215 0.34234,-0.654245 0.51352,-0.981368 0.58195,-1.034092 0.98268,-1.771224 1.61738,-2.789923 0.28108,-0.451125 0.55618,-0.907542 0.87247,-1.334712 0.2794,-0.377327 0.61013,-0.713814 0.91114,-1.074126 0.8326,-0.996593 0.32774,-0.611621 1.27882,-1.146876 -0.65444,0.0825 -1.39641,-0.08971 -1.9633,0.24751 -0.23987,0.142689 0.46673,0.320929 0.64039,0.539424 0.29121,0.366387 0.50773,0.787022 0.73781,1.194581 0.28245,0.50034 0.55376,1.007723 0.79882,1.527399 0.43983,0.932694 0.9125,2.207533 1.28548,3.17444 0.49995,1.169704 1.02497,2.334823 1.66323,3.437199 0.27551,0.475853 0.45262,0.77642 0.85587,1.140066 0.13682,0.123383 0.29925,0.215 0.44887,0.322498 1.22866,-0.158422 2.51285,-0.07723 3.686,-0.475269 0.61435,-0.208444 3.54745,-3.045505 3.78118,-3.272332 0.70551,-0.68466 1.39133,-1.389375 2.07987,-2.091097 1.21509,-1.238348 2.49603,-2.5869 3.69793,-3.845079 1.24245,-1.263213 1.41129,-1.54111 2.76458,-2.548138 0.67037,-0.498846 1.23008,-0.881901 2.0499,-1.053738 0.24731,-0.05184 1.00909,-0.04565 0.75782,-0.01886 -0.57413,0.0612 -1.15189,0.08151 -1.72785,0.122262 0.16535,0.08481 0.34732,0.142996 0.49603,0.25442 0.47288,0.354309 0.50858,0.564862 0.77777,1.086107 0.11954,0.231471 0.25131,0.457197 0.35605,0.69573 0.11173,0.254434 0.18884,0.522825 0.29231,0.780732 0.12084,0.301247 0.25363,0.597562 0.38045,0.896343 0.28472,0.808982 0.58804,1.611656 1.0047,2.363327 0.0987,0.178149 0.18486,0.367384 0.31697,0.522422 0.12307,0.144436 0.29201,0.242417 0.43802,0.363625 0.0796,0.356243 2.59866,-0.206981 2.51901,-0.563221 v 0 c -0.1416,-0.07534 -0.29796,-0.127847 -0.4248,-0.226013 -0.80764,-0.62503 -1.03538,-1.786583 -1.39986,-2.676556 -0.612,-1.781988 0.001,-0.06968 -0.66085,-1.723052 -0.10073,-0.251608 -0.17151,-0.515162 -0.28246,-0.762434 -0.13746,-0.306334 -0.58417,-1.118645 -0.82344,-1.376883 -0.17104,-0.184611 -0.39631,-0.310306 -0.59447,-0.465458 -1.01652,-0.06115 -2.03123,-0.189492 -3.04958,-0.183446 -0.49482,0.0029 -1.27869,0.449995 -1.63812,0.690414 -0.36223,0.242287 -0.70337,0.515832 -1.0366,0.796684 -1.36635,1.151623 -1.33708,1.226942 -2.59174,2.634549 -1.6206,1.844019 -1.73547,2.023367 -3.533,3.852019 -0.6843,0.69614 -1.36184,1.400672 -2.08488,2.056471 -0.70044,0.635299 -1.41324,1.262261 -2.18172,1.813324 -0.62114,0.445411 -1.60801,0.495674 -1.974,1.166683 -0.18804,0.344771 0.71755,0.319437 1.07632,0.479155 -0.14922,-0.04408 -0.31056,-0.05866 -0.44766,-0.132244 -0.65382,-0.350914 -1.08852,-1.198816 -1.44098,-1.799949 -0.79752,-1.36017 -0.56345,-0.956377 -1.27236,-2.48629 -0.22156,-0.5158 -0.45325,-1.027366 -0.66469,-1.547402 -0.22162,-0.5451 -0.40714,-1.10458 -0.63424,-1.647423 -0.32131,-0.76803 -0.96512,-2.137955 -1.38157,-2.899728 -0.18805,-0.343987 -0.22696,-0.910055 -0.60667,-1.007554 -0.97263,-0.249746 -2.00769,0.05233 -3.01153,0.0785 -0.18241,0.167925 -0.38477,0.316481 -0.54723,0.503774 -0.36571,0.421595 -1.08635,1.55207 -1.3555,1.951562 -0.30457,0.452091 -0.62943,0.890788 -0.92038,1.351772 -2.14057,3.391601 0.38223,-0.330806 -1.73067,2.730756 -0.21713,0.240073 -0.92048,0.540301 -0.65139,0.720223 0.55343,0.370038 1.33397,0.05888 1.98958,0.174532 0.14024,0.02474 -0.27396,0.126153 -0.41452,0.103323 -0.65771,-0.106834 -1.38783,-1.149803 -1.78531,-1.575176 -0.74557,-1.063953 -0.9505,-1.260338 -1.51627,-2.511825 -0.47461,-1.049835 -0.92891,-2.455002 -1.2209,-3.560079 -0.13678,-0.517631 -0.6558,-2.951856 -0.78161,-3.53535 -0.0687,-0.507232 -0.14649,-1.013306 -0.20599,-1.521695 -0.0628,-0.53652 -0.10007,-1.075791 -0.16081,-1.612546 -0.0683,-0.603885 -0.14822,-1.20642 -0.22641,-1.809109 -0.0891,-0.686785 -0.16371,-1.37581 -0.27544,-2.059276 -0.32485,-1.987156 -0.39683,-2.058443 -0.91747,-3.952272 -0.5125,-1.532091 -0.85996,-2.841844 -1.97124,-4.07466 -0.25969,-0.288084 -0.49217,-0.696904 -0.87328,-0.768927 -2.70738,-0.511651 -2.59907,-0.371715 -4.18521,0.512009 -0.83566,0.864534 -1.33515,1.297125 -1.98578,2.38706 -0.37088,0.621292 -0.6462,1.294926 -0.95859,1.947582 -0.3794,0.792623 -0.77478,1.578541 -1.11669,2.388042 -0.56811,1.345094 -1.56593,4.181112 -2.05431,5.539764 -0.98462,2.725832 -1.27313,3.58358 -2.37588,6.372259 -0.49676,1.256234 -0.9879,2.515314 -1.527,3.753969 -0.82773,1.901822 -1.95715,4.328477 -3.0888,6.133015 -0.35025,0.558501 -0.78773,1.057291 -1.1816,1.585936 -1.4612,0.855237 -1.1216,0.41633 0.80139,0.71563 0.21331,0.0332 -0.43568,0.01669 -0.64707,-0.02708 -0.7439,-0.154041 -1.2036,-0.579348 -1.66986,-1.141675 -0.11264,-0.222546 -0.24805,-0.434969 -0.33793,-0.667644 -0.24438,-0.632653 -0.36043,-1.341559 -0.44107,-2.007584 -0.0568,-0.468852 -0.084,-0.940814 -0.12376,-1.411417 -0.17354,-2.056136 -0.11926,-1.18753 -0.17897,-3.286599 -0.005,-1.624441 -0.0379,-1.752348 0.0859,-3.364407 0.0407,-0.530204 0.1214,-1.056923 0.1588,-1.58737 0.0368,-0.522367 0.0491,-1.04624 0.0638,-1.569697 0.0517,-1.837909 0.07,-1.173273 -0.15882,-2.927159 -0.26214,-1.101326 -0.21031,-1.470888 -0.9393,-2.353244 -0.24221,-0.293166 -0.48733,-0.663207 -0.85679,-0.753266 -1.07881,-0.262969 -3.10107,-0.567415 -4.35024,0.06308 -0.37848,0.191034 -0.68603,0.498337 -1.02904,0.747506 -0.56843,0.645877 -1.70616,1.921891 -2.17642,2.539934 -0.46784,0.614865 -0.88948,1.263565 -1.3292,1.898846 -0.52759,0.762233 -1.04821,1.529268 -1.57269,2.293641 -2.29607,3.346278 -1.14569,1.616847 -3.31212,4.968118 -0.99276,1.371891 -1.78971,2.601677 -2.96673,3.80343 -0.31583,0.322456 -0.65543,0.631267 -1.04096,0.865971 -0.23175,0.141086 -1.03302,0.149979 -0.77744,0.241041 0.47583,0.169534 2.79158,0.265612 1.51319,0.08154 -0.12354,-0.0793 -0.2709,-0.130161 -0.37063,-0.237886 -0.17231,-0.186132 -0.49852,-0.950431 -0.56351,-1.115611 -0.12002,-0.30508 -0.24548,-0.609825 -0.32918,-0.926801 -0.0524,-0.19831 -0.50901,-2.673543 -0.51795,-2.72153 -0.088,-0.564621 -0.1929,-1.126874 -0.26409,-1.693866 -0.12693,-1.010906 -0.22951,-2.287799 -0.21461,-3.315583 0.006,-0.439679 0.0711,-0.876763 0.0909,-1.316043 0.0589,-1.306409 -0.0574,-0.47698 0.0622,-1.220401 0,-0.37823 -2.6745,-0.37823 -2.6745,0 z"
             id="path7616"
             style="opacity:1;fill:#e7b32d;fill-opacity:0.4;stroke:none;stroke-width:1.6;stroke-linejoin:round" />
        </g>
      </g>
    </clipPath>
    <linearGradient
       gradientUnits="userSpaceOnUse"
       y2="67.516426"
       x2="129.82455"
       y1="60.180344"
       x1="75.456329"
       id="linearGradient1455"
       xlink:href="#linearGradient1453"
       inkscape:collect="always" />
  </defs>
  <sodipodi:namedview
     id="base"
     pagecolor="#ffffff"
     bordercolor="#666666"
     borderopacity="1.0"
     inkscape:pageopacity="0.0"
     inkscape:pageshadow="2"
     inkscape:zoom="1.8622177"
     inkscape:cx="144.18294"
     inkscape:cy="75.678683"
     inkscape:document-units="mm"
     inkscape:current-layer="layer1"
     inkscape:document-rotation="0"
     showgrid="false"
     inkscape:window-width="1440"
     inkscape:window-height="855"
     inkscape:window-x="0"
     inkscape:window-y="23"
     inkscape:window-maximized="0" />
  <metadata
     id="metadata6395">
    <rdf:RDF>
      <cc:Work
         rdf:about="">
        <dc:format>image/svg+xml</dc:format>
        <dc:type
           rdf:resource="http://purl.org/dc/dcmitype/StillImage" />
        <dc:title />
      </cc:Work>
    </rdf:RDF>
  </metadata>
  <g
     inkscape:label="Layer 1"
     inkscape:groupmode="layer"
     id="layer1"
     transform="translate(-46.576296,-46.933711)">
    <path
       sodipodi:nodetypes="cccccssccssscscccccccsssccsscssscssccsccccsccsscsssscsssccscscccccccccccccccscscccsccc"
       style="fill:#ffff00;fill-opacity:1;stroke:#d9d5c3;stroke-width:0.4;stroke-linejoin:round;stroke-miterlimit:4;stroke-dasharray:none;stroke-opacity:0.6;paint-order:stroke markers fill"
       id="path2362"
       d="m 79.683329,61.083889 c 0.200901,1.723858 0.0542,0.301177 0.206995,2.567835 0.04344,0.643823 0.130377,1.285326 0.144415,1.930457 0.05652,2.598238 -0.225457,1.34296 0.04978,3.875822 0.06567,0.604733 0.194716,1.200898 0.292079,1.801351 4.283666,5.915255 1.887947,3.922442 16.520762,-0.05127 1.046153,-0.284093 1.399514,-1.655948 2.109774,-2.474884 0.762914,-0.879635 1.548856,-1.739151 2.309606,-2.620661 21.35884,-19.3452 -2.72471,-6.425994 -3.331041,1.473797 -0.08437,0.97441 -0.194364,1.946427 -0.288821,2.919907 -0.08789,0.905761 -0.228675,1.80827 -0.258169,2.717807 -0.02554,0.787801 0.06275,1.575175 0.09342,2.362794 0.02413,0.620022 0.04726,1.240083 0.07089,1.860123 2.391044,6.553886 0.863746,4.558487 15.789771,0.291364 0.95052,-0.271737 0.76723,-1.822279 1.14588,-2.735487 25.9194,-44.400462 -1.19956,-7.523228 0.58526,-2.12522 2.26152,6.07788 8.17353,2.430964 15.75762,0.933311 13.62541,-16.823997 0.4031,-21.548767 0.151,-3.354115 -0.0166,0.889996 -0.16748,1.77328 -0.2031,2.662718 -0.007,0.172068 0.0115,3.435784 0.0463,3.840201 0.0384,0.446894 0.1494,0.884555 0.22411,1.326832 5.01153,0.43378 10.00968,1.533267 15.0346,1.30134 0.88321,-0.04077 1.05498,-1.423549 1.65631,-2.071717 0.67067,-0.722934 1.46467,-1.322995 2.15044,-2.031635 0.66508,-0.687269 1.18646,-1.512582 1.89788,-2.151764 20.24805,-8.643645 -3.06138,-12.164008 1.00929,-0.04134 0.0942,0.271084 0.22698,0.527589 0.35592,0.783998 0.17215,0.342331 0.165,0.978628 0.5468,1.011163 13.97213,1.190665 11.27801,3.779111 15.18685,-0.663279 0.45283,-0.573238 0.67569,-1.288111 1.08907,-1.884271 0.19815,-0.285786 0.46493,-0.518256 0.67627,-0.794447 0.17548,-0.229328 0.30342,-0.492924 0.48227,-0.719629 0.30446,-0.385909 0.51324,-0.522388 0.87783,-0.811826 0.0706,-0.05993 0.12467,-0.148332 0.21174,-0.179811 0.0725,-0.02621 0.51786,-0.06118 0.62861,0.01208 0.11892,0.07867 0.43066,0.311607 0.28814,0.316194 -35.06076,0.42171 0.59793,0.755633 1.12365,-2.077799 v 0 c -0.41695,-0.823435 -0.21494,-0.376927 -0.59014,-1.346621 -0.0722,-0.408435 0.19673,-1.192592 -0.21677,-1.225308 -17.96363,1.907577 -26.20828,3.269139 -5.75648,5.08163 0.24144,0.02054 -0.11172,0.472886 -0.19666,0.69982 -0.0248,0.06626 -0.0604,0.149581 -0.12851,0.168939 -0.34494,0.09813 -0.38153,-0.12669 -0.53217,-0.352011 0.0243,-0.258913 0.0832,-0.516886 0.0729,-0.776738 -0.007,-0.169915 -0.27441,-1.689275 -0.31575,-1.824838 -0.14325,-0.469779 -0.67192,-1.470755 -0.79325,-1.948614 -0.0793,-0.312387 -0.069,-0.640897 -0.10348,-0.961344 -0.18978,-0.121852 -0.38032,-0.242497 -0.56932,-0.365556 -0.12109,-0.07885 -0.21853,-0.264827 -0.36092,-0.240141 -0.11009,0.01908 -0.0293,0.233351 -0.0998,0.32002 -0.0423,0.05208 -0.17348,0.107201 -0.19655,0.04414 -0.29733,-0.812817 -0.007,-1.786685 -0.638,-2.516869 -4.73762,-0.06986 -9.47518,-0.276656 -14.21284,-0.209567 -0.26176,0.0037 -0.43879,0.285896 -0.6635,0.420218 -0.28331,0.169351 -0.58068,0.314935 -0.86014,0.490557 -1.56818,0.9855 -3.0008,2.175481 -4.60245,3.111398 -14.53667,9.338471 -1.28793,16.953222 0.58372,-2.448534 0.54821,-4.591973 0.13553,-1.414172 0.77272,-5.719859 0.11531,-0.779191 0.33524,-1.551682 0.33362,-2.339357 -0.002,-1.086588 0.72062,-3.029332 -0.34507,-3.24146 -12.48511,-2.4852 -11.56755,-3.32696 -14.90956,0.90579 -6.54101,13.713894 -3.11393,27.114785 -1.04144,7.743754 0.0722,-1.856613 0.39941,-3.602931 0.71778,-5.295141 0.0173,-0.648679 -0.009,-1.299972 0.052,-1.946038 0.0534,-0.568359 0.2805,-1.117176 0.2893,-1.687967 0.007,-0.472462 -0.22148,-0.924707 -0.24173,-1.396789 -0.0213,-0.496231 0.60504,-1.387693 0.11805,-1.485378 -13.85416,-2.778982 -11.62962,-5.139031 -15.20921,-0.378809 -0.10315,0.212363 -0.93958,1.934884 -0.96245,1.978569 -0.29314,0.560041 -0.62448,1.099714 -0.91208,1.662624 -1.70233,3.66837 -3.68774,7.186025 -4.61941,8.846452 -13.121843,15.184998 0.56028,14.435646 3.70544,0.237245 0.18264,-0.871241 0.36529,-1.74248 0.54793,-2.613721 0.62758,-1.396783 0.78529,-2.772616 0.93111,-4.166255 0.0613,-0.563679 0.23546,-1.125136 0.19032,-1.690344 -0.069,-0.863383 0.33184,-2.444135 -0.52851,-2.544076 -4.72304,-0.54866 -9.49355,0.552287 -14.240336,0.828433 -1.417072,1.636075 0.89316,-0.966803 -1.220999,1.118362 -0.845374,0.833783 -0.869166,1.219196 -1.677061,2.182042 -3.786615,4.51289 0.932801,-1.646438 -2.985568,3.594198 -11.239903,6.208477 0.770328,16.824527 1.178984,6.772027 0.0182,-0.63709 -0.214496,-1.271297 -0.154381,-1.905803 0.08035,-0.848057 0.655566,-1.597481 0.658351,-2.469307 0.04384,-2.107138 -14.855929,-2.416877 -14.899733,-0.309739 z" />
    <path
       style="fill:url(#linearGradient1455);fill-opacity:1;stroke-width:0.564999;stroke-linejoin:round;stroke-dasharray:0.564999, 0.56499900000000003"
       id="path1419"
       d="m 80.463555,61.662593 c 0.114662,0.669922 0.114734,1.35188 0.198842,2.024837 0.05804,0.464394 0.158816,0.922655 0.221295,1.386474 0.194053,1.440632 0.100563,1.37026 0.357643,2.774204 0.0769,0.419981 0.183782,0.833917 0.275674,1.250876 0.409242,1.356372 0.684528,2.864697 1.77731,3.87201 0.637526,0.587666 0.952336,0.640271 1.730941,0.965576 1.856314,0.0077 2.65997,0.258426 4.157451,-0.24239 0.321524,-0.10753 0.680016,-0.181285 0.931261,-0.408917 0.835457,-0.756933 1.493901,-2.324112 1.956835,-3.248762 0.372136,-0.743289 0.740688,-1.488367 1.111033,-2.23255 0.912312,-1.443909 1.605116,-3.018801 2.51533,-4.464022 0.404479,-0.642226 0.857478,-1.253222 1.314244,-1.859377 0.740127,-0.982195 1.318384,-1.707864 2.265235,-2.462586 0.271677,-0.216549 0.585592,-0.374015 0.878381,-0.561022 0.24287,-0.03447 0.97209,-0.133089 0.7286,-0.103402 -0.50593,0.06169 -1.089895,-0.0803 -1.515961,0.1994 -0.187908,0.123357 0.352806,0.296572 0.457313,0.49558 0.147474,0.280827 0.199688,0.602578 0.280458,0.909316 0.31616,1.200675 0.25408,1.121469 0.37916,2.406761 0.0433,1.577251 5.3e-4,3.155415 0.0147,4.732698 0.004,0.502742 0.0471,1.005193 0.0365,1.507844 -0.009,0.425593 -0.0717,0.848476 -0.095,1.273522 -0.0196,0.356286 -0.0225,0.713292 -0.0338,1.069939 0.04,0.336171 0.17137,1.540207 0.2584,1.889322 0.19379,0.777291 0.71955,1.914324 1.17572,2.574367 0.1792,0.259287 0.39995,0.487244 0.59993,0.730864 0.47515,0.473702 0.78097,0.873405 1.4311,1.130557 1.14138,0.451458 3.16458,0.07439 3.98256,-0.168937 0.68342,-0.2033 1.65941,-1.635686 2.01012,-2.08289 0.86917,-1.430149 0.96428,-1.498928 1.68464,-3.054643 0.25184,-0.543864 0.46201,-1.106153 0.70402,-1.654459 0.24366,-0.552041 0.52207,-1.088747 0.75287,-1.646288 0.21737,-0.525097 0.38699,-1.068783 0.59069,-1.599334 0.19982,-0.520459 0.41316,-1.035623 0.61975,-1.553434 0.19881,-0.504487 0.39052,-1.011832 0.59644,-1.513462 0.18106,-0.441087 0.40426,-0.865252 0.56437,-1.314368 0.1322,-0.370826 0.20151,-0.761213 0.31046,-1.139526 0.10338,-0.35901 0.23096,-0.711014 0.32645,-1.072201 0.11557,-0.437067 0.20302,-0.881089 0.30638,-1.321203 0.11734,-0.499665 0.23715,-0.998748 0.35572,-1.498122 0.16159,-0.524173 0.32556,-1.047618 0.48476,-1.572521 0.16,-0.527518 0.28648,-1.065916 0.47283,-1.584709 0.18315,-0.509855 0.41603,-1.000527 0.63397,-1.496504 0.43395,-0.987536 0.662,-1.507222 1.20813,-2.407693 0.17248,-0.284387 0.37102,-0.552135 0.55652,-0.828203 0.45938,-0.514386 1.02225,-1.217606 1.79687,-1.1907 0.0951,0.0033 0.37228,0.0631 0.27724,0.06853 -0.59074,0.03374 -1.18335,0.01134 -1.77503,0.01702 0.10888,0.03763 0.22406,0.06049 0.32665,0.11289 0.34588,0.176653 0.37521,0.265399 0.62943,0.55431 0.12383,0.140723 0.25818,0.272864 0.3713,0.422334 0.12237,0.161713 0.21941,0.341178 0.33343,0.508893 0.13297,0.195597 0.27162,0.387272 0.40743,0.580909 0.15818,0.344999 0.55773,1.19577 0.66938,1.531662 0.12033,0.361989 0.20032,0.736173 0.2962,1.105392 0.65609,2.526789 0.0991,0.386526 0.74209,3.212909 0.14029,0.616763 0.2974,1.229582 0.4461,1.844373 0.0593,0.566932 0.0975,1.136455 0.17776,1.700798 0.0683,0.480556 0.19486,0.951462 0.26764,1.431364 0.0591,0.389853 0.0747,0.785286 0.12782,1.176008 0.0465,0.342571 0.1277,0.679968 0.17091,1.022974 0.51071,4.05414 -0.36988,-2.074823 0.24736,2.114932 0.18504,1.467256 0.0829,0.829917 0.36006,2.314637 0.0736,0.394146 0.13234,0.791474 0.22376,1.181866 0.0876,0.374094 0.20302,0.741195 0.3128,1.109389 0.10224,0.342867 0.19437,0.689758 0.32321,1.023537 0.11624,0.301119 0.27364,0.584687 0.41046,0.87703 0.27797,0.464713 0.52265,0.969482 0.94889,1.327765 1.1243,0.945049 2.70507,0.629867 4.02119,0.388228 0.26934,-0.04945 0.46941,-0.282141 0.70411,-0.423209 0.51757,-0.439062 0.79868,-0.636107 1.2299,-1.173446 0.19779,-0.246462 0.36604,-0.515403 0.53977,-0.779382 1.06514,-1.618524 0.12774,-0.268415 1.2368,-2.017586 0.2213,-0.349013 0.46066,-0.68623 0.69099,-1.029345 0.50037,-0.65346 0.77463,-1.038456 1.31134,-1.642486 0.18982,-0.213637 0.37266,-0.436637 0.59065,-0.621448 0.29148,-0.247112 0.94039,-0.622254 1.30514,-0.781809 0.18006,-0.07877 0.37173,-0.12776 0.5576,-0.191641 0.16276,-0.0036 0.65072,-0.02134 0.48827,-0.01074 -0.54552,0.03561 -1.10286,-0.02697 -1.63779,0.08577 -0.16386,0.03453 0.32706,0.08354 0.47659,0.158953 0.34425,0.173618 0.74546,0.514383 0.98824,0.805088 0.15226,0.182303 0.26679,0.393045 0.40019,0.589567 0.50952,0.796221 0.88052,1.667073 1.12708,2.578513 0.10694,0.395311 0.1875,0.797312 0.28631,1.194732 0.0404,0.212237 0.18675,0.96073 0.21675,1.193129 0.0223,0.172979 0.0128,0.34969 0.0429,0.521477 0.034,0.193548 0.10896,0.378007 0.14872,0.570449 0.0412,0.199261 0.0414,0.406552 0.0937,0.603164 0.0572,0.214736 0.15553,0.416345 0.23329,0.62452 0.30157,0.786717 0.67896,1.583957 1.32448,2.151784 0.36579,0.32176 0.64093,0.447673 1.05837,0.680903 1.35477,0.471538 2.36485,0.498202 3.95602,0.18039 0.29403,-0.05873 0.48504,-0.353705 0.71245,-0.549105 0.72117,-0.619633 0.97045,-0.938173 1.62643,-1.654903 1.56513,-2.027442 0.23061,-0.267428 1.82518,-2.467786 0.31837,-0.439328 0.65093,-0.868307 0.96679,-1.309444 0.27273,-0.380888 0.52278,-0.777786 0.79875,-1.156327 0.44523,-0.610709 0.97742,-1.245003 1.45696,-1.830755 0.68466,-0.794401 1.47393,-1.483295 2.29879,-2.126562 0.23374,-0.182281 1.00079,-0.769517 1.30313,-0.914885 0.22717,-0.109227 0.47768,-0.161155 0.71652,-0.241733 -0.40662,-0.167944 1.62614,-0.209128 1.21729,-0.177627 -0.47022,0.03623 -0.95862,-0.05115 -1.41282,0.07584 -0.19694,0.05506 0.40305,0.08009 0.59409,0.153064 0.32379,0.123682 0.78788,0.438619 1.07366,0.619472 0.72418,0.569896 0.34043,0.215616 0.92675,0.87367 0.14555,0.163356 0.30504,0.314722 0.44115,0.486022 0.13381,0.168403 0.24046,0.356811 0.36685,0.530858 0.52942,0.729082 0.28515,0.252327 0.59239,1.007547 0.33368,0.522043 0.19125,0.26987 0.43721,0.750835 0.039,0.312844 2.25118,0.03682 2.21214,-0.276023 v 0 c -0.26266,-0.482473 -0.12232,-0.226411 -0.42161,-0.767865 -0.24175,-0.425228 -0.35341,-0.641719 -0.63708,-1.052998 -0.13117,-0.19018 -0.2827,-0.365862 -0.41234,-0.557089 -0.12137,-0.179024 -0.20531,-0.383422 -0.34001,-0.552648 -0.15972,-0.200675 -0.82615,-0.798484 -1.01027,-0.967445 -0.54338,-0.417267 -0.53081,-0.447881 -1.15954,-0.761821 -0.19669,-0.09821 -0.38634,-0.23947 -0.60496,-0.262737 -0.69076,-0.07352 -2.37317,-0.232264 -3.37011,0.01774 -0.22562,0.05658 -0.43935,0.15298 -0.65902,0.22947 -0.21264,0.110636 -0.43142,0.21018 -0.6379,0.331908 -1.40708,0.829513 -2.5428,2.048347 -3.65054,3.2264 -0.4533,0.623982 -0.919,1.238971 -1.36657,1.867073 -0.27096,0.380262 -0.52483,0.772547 -0.79713,1.151852 -0.91752,1.278068 -1.00565,1.338469 -1.96399,2.589235 -0.28566,0.372827 -0.56575,0.749892 -0.84862,1.124839 -0.53707,0.554921 -0.97289,1.078706 -1.63025,1.494282 -0.23111,0.146105 -0.97596,0.19146 -0.74645,0.340074 0.40267,0.260741 0.95719,0.06609 1.43526,0.105947 0.38151,0.03181 -1.61465,-0.07696 -1.13759,-0.158001 -0.24009,-0.106363 -0.8126,-0.348774 -1.02177,-0.490064 -0.65579,-0.443 -1.04079,-1.163759 -1.28801,-1.891676 -0.0781,-0.192508 -0.1692,-0.380222 -0.23422,-0.577524 -0.23655,-0.717921 -0.24999,-1.491812 -0.3944,-2.229873 -0.0419,-0.213904 -0.0914,-0.426233 -0.1371,-0.639349 -0.0291,-0.213848 -0.0434,-0.430218 -0.0872,-0.641542 -0.0992,-0.478665 -0.244,-0.793715 -0.41281,-1.253316 -0.26581,-0.723676 -0.5387,-1.442018 -0.95186,-2.099113 -0.24568,-0.382879 -0.53905,-0.884713 -0.86098,-1.217054 -0.0627,-0.06473 -0.88093,-0.755742 -1.03978,-0.777473 -2.16307,-0.295921 -1.89041,-0.322677 -3.08231,0.06131 -0.19107,0.08809 -0.38832,0.163862 -0.57321,0.264272 -0.44946,0.244085 -0.93183,0.575434 -1.30023,0.928204 -0.71041,0.680263 -1.28358,1.569379 -1.83862,2.372266 -1.38199,1.957531 -0.0977,0.107254 -1.41809,2.101972 -0.15849,0.239434 -0.90712,1.349012 -1.14761,1.61481 -0.18629,0.205884 -0.93288,0.821871 -1.1687,1.019943 -1.16345,0.528353 -0.71164,0.19462 0.76088,0.421268 0.19039,0.0293 -0.38925,0.03964 -0.5779,7.93e-4 -0.44921,-0.09275 -0.8854,-0.374865 -1.18138,-0.718543 -0.16997,-0.197362 -0.27623,-0.441657 -0.41435,-0.662486 -0.14534,-0.272744 -0.31417,-0.534217 -0.43603,-0.818232 -0.0952,-0.221795 -0.62912,-1.872873 -0.67139,-2.060066 -0.0865,-0.383001 -0.10438,-0.778487 -0.17027,-1.165564 -0.45807,-2.690897 -0.0164,0.354322 -0.38164,-2.290307 -0.0466,-0.358238 -0.0931,-0.716476 -0.13972,-1.074715 -0.034,-0.347778 -0.0571,-0.69679 -0.10188,-1.043335 -0.0447,-0.345539 -0.11238,-0.687715 -0.16654,-1.031897 -0.22748,-1.445666 -0.45858,-2.89102 -0.78679,-4.318423 -0.11771,-0.618626 -0.24426,-1.235636 -0.35314,-1.85588 -0.2319,-1.321183 -0.27013,-1.997613 -0.60483,-3.263087 -0.10222,-0.386477 -0.25367,-0.758259 -0.37436,-1.139371 -0.41907,-1.323328 -0.0785,-0.424478 -0.57536,-1.633758 -0.0301,-0.05183 -0.63368,-1.096241 -0.68976,-1.179905 -0.11039,-0.16468 -0.23955,-0.315983 -0.36144,-0.472341 -0.10405,-0.133475 -0.19888,-0.275279 -0.31635,-0.397119 -0.22144,-0.229703 -0.49394,-0.407565 -0.75167,-0.591395 -0.79618,-0.03585 -1.59164,-0.09536 -2.38853,-0.107553 -0.13687,-0.0021 -0.27425,0.02602 -0.40553,0.0648 -0.36283,0.10716 -0.49095,0.238143 -0.78435,0.484267 -0.67992,0.570373 -0.44129,0.341058 -0.98396,1.114138 -0.49045,0.851064 -0.62661,1.045609 -1.05766,1.989767 -0.20409,0.447045 -0.38322,0.905071 -0.57518,1.357461 -0.21448,0.505474 -0.4571,0.999869 -0.64414,1.516129 -0.38022,1.049471 -0.58028,2.158835 -1.00525,3.194224 -0.41452,1.448896 -0.42431,1.411183 -0.74989,2.807271 -0.0813,0.348719 -0.13466,0.704107 -0.22889,1.049561 -0.36835,1.350352 -0.95357,2.633475 -1.43272,3.944483 -0.30257,0.773171 -0.92497,2.377892 -1.24427,3.135607 -0.23138,0.549064 -0.48436,1.088801 -0.71993,1.636078 -0.23305,0.541424 -0.43208,1.097907 -0.68588,1.629917 -0.63037,1.321325 -0.94427,1.730078 -1.71876,2.935168 -0.34623,0.367157 -0.65163,0.777645 -1.03869,1.101471 -0.31677,0.265022 -1.08,0.237789 -1.05484,0.650036 0.0233,0.381056 0.86579,-0.01569 1.1114,0.276585 0.18691,0.222414 -0.58795,0.07208 -0.87151,0.0089 -0.56875,-0.126772 -1.00216,-0.572415 -1.42598,-0.922967 -0.39701,-0.47929 -0.7529,-0.86379 -1.05648,-1.413936 -0.0573,-0.103894 -0.66116,-1.51537 -0.69226,-1.623945 -0.0917,-0.320173 -0.21418,-1.481807 -0.25,-1.785946 -0.0525,-2.339435 -0.0187,0.310467 0.0399,-2.339832 0.0111,-0.503681 -5.3e-4,-1.007609 -0.002,-1.51141 -0.002,-0.562145 -0.006,-1.124282 -0.009,-1.686422 -0.0236,-0.540323 -0.0666,-1.080145 -0.071,-1.620967 -0.004,-0.491186 0.0308,-0.98192 0.0462,-1.472879 -0.0657,-1.064895 -0.0511,-1.505388 -0.26949,-2.53288 -0.076,-0.3578 -0.15023,-0.720623 -0.29207,-1.057795 -0.12776,-0.303707 -0.19724,-0.741434 -0.5093,-0.847148 -1.985977,-0.672757 -2.151286,-0.473216 -3.426532,0.05707 -0.279033,0.224123 -0.577988,0.425482 -0.837097,0.672369 -1.359151,1.29504 -2.33752,2.901903 -3.308535,4.489883 -1.556888,2.546105 -1.114298,1.806646 -2.478892,4.488841 -0.416721,0.732681 -0.818814,1.473878 -1.250164,2.198043 -0.527352,0.885338 -1.240319,2.205662 -2.142204,2.868212 -0.250444,0.183982 -0.574742,0.241721 -0.875083,0.321515 -0.327211,0.08693 -0.949357,-0.158017 -1.000199,0.176707 -0.04824,0.31756 0.639254,0.06354 0.958884,0.0953 -0.309824,-0.07128 -0.634638,-0.09491 -0.929468,-0.213852 -0.452019,-0.182353 -1.110501,-0.710779 -1.394068,-1.10079 -0.183949,-0.252999 -0.293717,-0.552699 -0.425773,-0.83626 -0.50264,-1.079295 -0.408988,-0.934593 -0.740524,-2.1144 -0.288319,-1.679367 -0.120766,-0.826602 -0.507762,-2.557286 -0.282969,-1.569225 -0.389332,-3.173692 -0.353142,-4.766221 0,-0.327427 -2.315257,-0.327427 -2.315257,0 z" />
    <text
       xml:space="preserve"
       style="font-style:normal;font-weight:normal;font-size:15.875px;line-height:1.25;font-family:sans-serif;fill:#333333;fill-opacity:1;stroke:none;stroke-width:0.264583"
       x="45.143555"
       y="68.933685"
       id="text2508"><tspan
         sodipodi:role="line"
         id="tspan2506"
         x="45.143555"
         y="68.933685"
         style="font-style:italic;font-variant:normal;font-weight:500;font-stretch:normal;font-size:15.875px;font-family:Courier;-inkscape-font-specification:'Courier, Medium Italic';font-variant-ligatures:normal;font-variant-caps:normal;font-variant-numeric:normal;font-variant-east-asian:normal;fill:#333333;fill-opacity:1;stroke-width:0.264583">about me</tspan></text>
  </g>
</svg>
