<?xml version="1.0" encoding="UTF-8" standalone="no"?>
<svg
   xmlns:dc="http://purl.org/dc/elements/1.1/"
   xmlns:cc="http://creativecommons.org/ns#"
   xmlns:rdf="http://www.w3.org/1999/02/22-rdf-syntax-ns#"
   xmlns:svg="http://www.w3.org/2000/svg"
   xmlns="http://www.w3.org/2000/svg"
   xmlns:sodipodi="http://sodipodi.sourceforge.net/DTD/sodipodi-0.dtd"
   xmlns:inkscape="http://www.inkscape.org/namespaces/inkscape"
   width="34.380753mm"
   height="9.876441mm"
   viewBox="0 0 34.380753 9.876441"
   version="1.1"
   id="svg1528"
   inkscape:version="1.0 (4035a4f, 2020-05-01)"
   sodipodi:docname="aboutme1.svg">
  <defs
     id="defs1522" />
  <sodipodi:namedview
     fit-margin-bottom="0"
     fit-margin-right="0"
     fit-margin-left="0"
     fit-margin-top="0"
     id="base"
     pagecolor="#ffffff"
     bordercolor="#666666"
     borderopacity="1.0"
     inkscape:pageopacity="0.0"
     inkscape:pageshadow="2"
     inkscape:zoom="5.4793257"
     inkscape:cx="100.10355"
     inkscape:cy="18.663353"
     inkscape:document-units="mm"
     inkscape:current-layer="layer1"
     inkscape:document-rotation="0"
     showgrid="false"
     inkscape:window-width="1252"
     inkscape:window-height="855"
     inkscape:window-x="0"
     inkscape:window-y="23"
     inkscape:window-maximized="0" />
  <metadata
     id="metadata1525">
    <rdf:RDF>
      <cc:Work
         rdf:about="">
        <dc:format>image/svg+xml</dc:format>
        <dc:type
           rdf:resource="http://purl.org/dc/dcmitype/StillImage" />
        <dc:title />
      </cc:Work>
    </rdf:RDF>
  </metadata>
  <g
     transform="translate(-86.375103,-106.94273)"
     inkscape:label="Layer 1"
     inkscape:groupmode="layer"
     id="layer1">
    <path
       sodipodi:nodetypes="ccsccccccsccccscsscccsccccccsscccccccccccccccsccccccsscccccccccccccccssccccccccccccccccccccccccccccccsccccccccccccc"
       inkscape:export-ydpi="399.64999"
       inkscape:export-xdpi="399.64999"
       inkscape:export-filename="/Users/alexandratran/website/site/images/aboutme1.svg.png"
       style="fill:#ffff00;fill-opacity:1;stroke:#d9d5c3;stroke-width:0.3;stroke-linejoin:round;stroke-miterlimit:4;stroke-dasharray:none;stroke-opacity:0.6;paint-order:stroke markers fill"
       id="path2342"
       d="m 91.194438,109.35622 c -0.0037,0.11677 -0.02711,0.23398 -0.01083,0.35031 0.130212,0.93046 0.205173,0.24445 0.239563,1.32233 0.0085,0.26642 -0.04906,0.53231 -0.04977,0.79879 -3.19e-4,0.11366 0.08253,1.34074 0.09232,1.48889 0.01127,0.77151 -0.02486,0.3873 0.0842,1.05095 0.2613,1.59009 -0.08518,1.11068 6.125776,0.5323 0.415221,-0.0387 0.27844,-0.50467 0.420047,-0.75646 0.153772,-0.27343 0.310726,-0.54613 0.46609,-0.81918 1.509406,-2.38958 -0.36163,0.52461 1.316542,-1.93253 0.461184,-0.67525 0.636984,-1.11285 1.212204,-1.74434 0.30705,-0.33708 0.89056,-0.79369 1.28194,-1.11189 -1.44495,-0.15355 1.03062,-0.31871 0.73746,-0.30734 -1.70748,0.0662 -3.411,0.18046 -5.12074,0.21574 -0.06272,10e-4 0.03398,-0.14449 0.06952,-0.11152 0.164346,0.15246 0.300728,0.80581 0.325481,0.89604 0.164807,0.69897 0.358171,1.39112 0.256961,2.10119 -0.03508,0.24612 -0.156774,0.48556 -0.1836,0.7321 -0.02621,0.24089 0.02922,0.48277 0.02513,0.72422 -0.0042,0.24529 -0.03324,0.49015 -0.04985,0.73522 -0.04961,1.27171 0.01686,0.16118 -0.116425,1.35872 -0.02011,0.18073 -0.01793,0.36239 -0.04378,0.54281 -0.02018,0.14086 -0.05384,0.28098 -0.09419,0.42007 -0.0302,0.10412 -0.110244,0.20295 -0.117238,0.30873 -0.0063,0.0957 0.05209,0.18856 0.07813,0.28284 1.996731,0.0992 3.988981,0.34859 5.990171,0.29776 0.26448,-0.007 0.21242,-0.30943 0.33649,-0.45846 0.14181,-0.17035 0.32375,-0.32653 0.46025,-0.49862 0.17475,-0.22035 0.30138,-0.45519 0.47201,-0.67684 0.19984,-0.25959 0.42688,-0.51031 0.63874,-0.766 0.21631,-0.26106 0.4305,-0.52283 0.64576,-0.78424 0.50062,-0.69001 1.13953,-1.33074 1.7517,-1.98066 2.88503,-1.76102 -3.33331,-0.55494 -4.45288,-0.51502 0.007,-0.0394 -0.0135,-0.15138 0.0205,-0.1182 0.21475,0.20978 0.15109,0.54147 0.14752,0.75749 -0.0266,1.61254 -0.0288,-0.45281 -0.0193,1.24652 -0.37828,0.98089 -0.16781,0.26524 -0.28906,1.20163 -0.0217,0.16736 -0.0827,0.33252 -0.0923,0.50034 -0.008,0.15051 0.0422,0.3006 0.0376,0.45118 -0.0208,0.69427 -0.15648,0.11289 0.0451,0.72926 0.0151,0.096 -0.002,0.19616 0.0451,0.28783 0.78009,1.52507 3.28699,0.48057 6.1883,0.1907 0.24169,-0.0242 0.24072,-0.27153 0.36293,-0.40663 0.62489,-0.69077 0.2813,-0.26343 0.84538,-1.04467 0.56755,-0.988 0.1113,-0.26369 0.8497,-1.25356 0.15747,-0.21108 0.27992,-0.43306 0.4554,-0.63828 0.17502,-0.20468 0.4073,-0.38753 0.59337,-0.5882 0.77202,-0.83268 0.0586,-0.25357 1.03027,-0.95254 0.17339,-0.11128 0.35547,-0.21733 0.52016,-0.33387 0.12016,-0.0851 0.31267,-0.34992 0.5997,-0.32829 0.11802,0.009 0.41882,0.11873 0.30014,0.12264 -5.30078,-1.10401 -6.71433,1.58965 -4.91497,3.79092 0.10342,0.53322 6.01848,0.0671 5.91506,-0.46613 v 0 c -0.001,-0.0256 0.0195,-0.0557 -0.003,-0.0768 -0.0435,-0.0404 -0.12578,-0.0574 -0.17931,-0.0926 -0.1521,-0.10006 -0.13202,-0.13017 -0.19266,-0.27017 -0.0998,-0.22419 -0.0686,-0.1358 -0.14285,-0.38876 -0.0242,-0.0824 -0.0723,-0.16368 -0.0699,-0.24748 0.003,-0.0932 0.0676,-0.18182 0.0855,-0.27435 0.0323,-0.16774 0.0307,-0.47927 0.0339,-0.64449 0.0337,-0.11644 0.091,-0.2311 0.10098,-0.34933 0.007,-0.0878 -0.0888,-0.67506 -0.0861,-0.75691 0.004,-0.12448 0.0695,-0.24621 0.0715,-0.37071 0.004,-0.25701 -0.098,-0.39781 -0.21606,-0.63892 -0.6713,-1.55658 -0.044,-0.58385 -5.9969,-0.38563 -0.32231,0.0107 -0.45361,0.36235 -0.59094,0.47142 -1.45349,1.15445 0.54032,-0.67765 -0.89466,0.68545 -0.31566,0.35713 -0.65227,0.70692 -0.9523,1.06949 -1.31713,1.59161 0.39378,-0.38321 -0.95843,1.27596 -0.1761,0.21607 -0.38523,0.42064 -0.56728,0.6347 -0.1652,0.19425 -0.31615,0.39328 -0.47423,0.58992 -0.23903,0.34519 -0.32704,0.58334 -0.76055,0.84092 -0.0974,0.0579 -0.48697,0.1148 -0.35388,0.1183 1.62664,0.0427 6.03523,-0.76595 5.30558,0.3273 -0.0193,0.0289 -0.0758,-0.0401 -0.11374,-0.0601 -0.0534,-0.0778 -0.12862,-0.15098 -0.16037,-0.2335 -0.039,-0.10138 -0.0317,-0.20777 -0.0494,-0.31154 -0.0229,-0.13415 -0.0759,-0.26728 -0.0719,-0.4022 0.1362,-0.911 0.76731,-4.67339 0.23202,-4.74442 -1.95734,-0.1701 -3.94984,0.0576 -5.92477,0.0865 -0.0764,0.0973 -0.14838,0.19598 -0.22921,0.29177 -0.0962,0.11396 -0.21114,0.22141 -0.30157,0.33726 -1.18017,1.51198 0.69616,-0.78741 -0.67385,1.03124 -0.36092,0.4791 -0.87116,0.90962 -1.15263,1.41505 -0.62828,0.72842 -1.24879,1.45004 -2.064476,2.10274 -0.177706,0.14219 -0.350291,0.29074 -0.569554,0.407 -0.09304,0.0494 -0.462292,0.0654 -0.342573,0.0767 1.885773,0.1775 3.786353,0.2838 5.679533,0.42571 -0.35113,0.0594 -0.14523,0.0636 -0.12536,-0.24882 0.009,-0.14004 -0.0196,-0.28019 -0.0164,-0.42033 0.0142,-0.63516 0.11015,-1.27058 0.0495,-1.90651 0.0104,-0.25026 0.0209,-0.50052 0.0313,-0.75078 0.0487,-0.2465 0.12693,-0.49134 0.14586,-0.73949 0.0189,-0.24754 -0.0296,-0.49538 -0.0327,-0.7432 -0.003,-0.24936 0.007,-0.49872 0.0138,-0.74804 0.0282,-1.01664 0.10964,-0.47349 -0.18757,-1.46087 0.0163,-0.39606 0.0791,-0.86561 -0.0639,-1.26083 -0.0846,-0.23368 0.004,-0.64827 -0.36867,-0.67998 -5.236938,-0.44528 -5.071775,-0.68514 -6.730389,0.84338 -0.136236,0.18148 -0.264076,0.36562 -0.408705,0.54444 -0.187942,0.23236 -0.423732,0.44934 -0.588672,0.6887 -0.188168,0.27307 -0.281805,0.5699 -0.467305,0.8437 -0.217537,0.32111 -0.495258,0.62424 -0.739401,0.93747 -0.902458,1.15783 -0.607349,0.76553 -1.396528,1.90975 -0.219919,0.24024 -0.389368,0.5024 -0.659755,0.72072 -0.120473,0.0973 -0.678453,0.18456 -0.486672,0.20492 1.834199,0.19485 3.70315,0.21867 5.553919,0.33337 0.08615,0.005 -0.20395,0.037 -0.259552,-0.005 -0.321215,-0.2443 -0.268192,-0.65092 -0.295134,-0.9267 -0.221097,-1.13887 -0.08787,-0.21913 -0.128093,-1.44774 -0.0087,-0.26646 -0.05297,-0.53227 -0.05498,-0.79879 -0.0043,-0.56685 0.103932,-1.11641 0.2587,-1.67264 0,-0.53065 -5.886624,-0.53065 -5.886624,0 z" />
    <text
       inkscape:export-ydpi="399.64999"
       inkscape:export-xdpi="399.64999"
       inkscape:export-filename="/Users/alexandratran/website/site/images/aboutme1.svg.png"
       xml:space="preserve"
       style="font-style:normal;font-weight:normal;font-size:7.35371px;line-height:1.25;font-family:sans-serif;fill:#333333;fill-opacity:1;stroke:none;stroke-width:0.264584"
       x="85.890358"
       y="114.2869"
       id="text2380"><tspan
         sodipodi:role="line"
         id="tspan2378"
         x="85.890358"
         y="114.2869"
         style="font-style:normal;font-variant:normal;font-weight:normal;font-stretch:normal;font-size:7.35371px;font-family:Courier;-inkscape-font-specification:Courier;fill:#333333;fill-opacity:1;stroke-width:0.264584">about me</tspan></text>
  </g>
</svg>
