<?xml version="1.0" encoding="UTF-8" standalone="no"?>
<svg
   xmlns:dc="http://purl.org/dc/elements/1.1/"
   xmlns:cc="http://creativecommons.org/ns#"
   xmlns:rdf="http://www.w3.org/1999/02/22-rdf-syntax-ns#"
   xmlns:svg="http://www.w3.org/2000/svg"
   xmlns="http://www.w3.org/2000/svg"
   xmlns:xlink="http://www.w3.org/1999/xlink"
   xmlns:sodipodi="http://sodipodi.sourceforge.net/DTD/sodipodi-0.dtd"
   xmlns:inkscape="http://www.inkscape.org/namespaces/inkscape"
   width="151.71011mm"
   height="68.346336mm"
   viewBox="0 0 151.71011 68.346336"
   version="1.1"
   id="svg8"
   sodipodi:docname="alexandratran.svg"
   inkscape:version="1.0 (4035a4f, 2020-05-01)"
   inkscape:export-filename="/Users/alexandratran/website/alexandratran.png"
   inkscape:export-xdpi="181.35628"
   inkscape:export-ydpi="181.35628">
  <defs
     id="defs2">
    <linearGradient
       id="linearGradient853"
       inkscape:collect="always">
      <stop
         style="stop-color:#f0ec2e;stop-opacity:1"
         offset="0"
         id="stop851" />
      <stop
         style="stop-color:#e8e52d;stop-opacity:1"
         offset="1"
         id="stop849" />
    </linearGradient>
    <rect
       x="27.191969"
       y="117.50815"
       width="61.958843"
       height="0"
       id="rect1121" />
    <rect
       x="33.407276"
       y="115.56587"
       width="23.307402"
       height="18.063236"
       id="rect1115" />
    <rect
       x="19.617064"
       y="138.67905"
       width="95.754578"
       height="16.897867"
       id="rect1109" />
    <linearGradient
       gradientUnits="userSpaceOnUse"
       y2="144.48172"
       x2="104.57703"
       y1="131.14069"
       x1="39.25034"
       id="linearGradient855"
       xlink:href="#linearGradient853"
       inkscape:collect="always" />
  </defs>
  <sodipodi:namedview
     id="base"
     pagecolor="#ffffff"
     bordercolor="#666666"
     borderopacity="1.0"
     inkscape:pageopacity="0.0"
     inkscape:pageshadow="2"
     inkscape:zoom="2.2410476"
     inkscape:cx="202.58383"
     inkscape:cy="134.06685"
     inkscape:document-units="mm"
     inkscape:current-layer="layer1"
     inkscape:document-rotation="0"
     showgrid="false"
     inkscape:snap-global="false"
     inkscape:window-width="1440"
     inkscape:window-height="900"
     inkscape:window-x="0"
     inkscape:window-y="0"
     inkscape:window-maximized="0" />
  <metadata
     id="metadata5">
    <rdf:RDF>
      <cc:Work
         rdf:about="">
        <dc:format>image/svg+xml</dc:format>
        <dc:type
           rdf:resource="http://purl.org/dc/dcmitype/StillImage" />
      </cc:Work>
    </rdf:RDF>
  </metadata>
  <g
     inkscape:label="Layer 1"
     inkscape:groupmode="layer"
     id="layer1"
     transform="translate(-17.597711,-111.50624)">
    <path
       sodipodi:nodetypes="csscsccsscsscccccccccccssscsssccccccccccccssccsccssscsscsssccsccssccsscccccsccssscsssccscscccsccsscccsccscssccscccc"
       style="fill:#ffff00;fill-opacity:1;stroke:#d9d5c3;stroke-width:0.3;stroke-miterlimit:4;stroke-dasharray:none;stroke-opacity:0.6;paint-order:stroke markers fill"
       id="path901"
       d="m 67.845259,115.06778 c -1.002186,0.98624 -2.197415,1.77021 -3.165956,2.79039 -1.771476,1.86592 -3.767918,4.63671 -5.073267,6.79842 -1.261467,2.08905 -3.158185,6.04949 -4.238162,8.2384 -1.94932,6.12689 -0.829508,1.99713 -2.002774,7.94667 -0.225949,1.14576 -0.559495,2.27081 -0.737295,3.42503 1.358747,11.96724 -9.685925,13.83349 -0.205997,-0.3319 0.789845,-1.19124 1.389872,-2.49862 2.127125,-3.7231 0.755788,-1.25526 1.636885,-2.43474 2.350852,-3.71425 1.210781,-2.16987 2.15872,-4.62924 3.10905,-6.92188 1.217523,-1.58247 1.454031,-3.60567 2.339496,-5.33323 0.363234,-0.70867 0.876578,-1.32983 1.325002,-1.98792 0.364284,-0.5346 0.821026,-1.01261 1.112957,-1.58992 0.470996,-1.20535 1.949292,-4.07923 2.748269,-4.14791 5.067818,-0.24814 10.152737,-0.59103 15.2186,-0.30572 0.43787,0.0247 0.34825,0.80598 0.552696,1.19398 1.700171,3.00779 1.084053,9.34028 0.472411,11.80888 -6.136463,43.66676 -11.102318,22.0898 -0.200925,5.94176 0.299972,-0.44241 0.375066,-1.32289 0.90958,-1.32062 15.691189,0.0667 14.339527,-3.35112 15.414505,3.95274 -0.02874,0.7955 -0.09274,3.80448 -0.299079,4.59348 -0.982128,1.48214 -0.884625,2.91183 -1.048558,4.4556 -5.279026,32.95171 -3.293773,6.97905 1.139912,-3.56878 0.569769,-1.34764 1.359669,-2.59552 1.921499,-3.94649 0.45097,-1.08441 0.63639,-2.26925 1.11034,-3.34382 0.50293,-1.14025 1.2557,-2.15532 1.80792,-3.27254 0.6381,-1.29099 1.17319,-2.63038 1.7598,-3.94557 1.66229,-2.43079 2.70012,-5.20334 4.17206,-7.73675 0.60416,-1.03984 1.28375,-2.03579 1.98673,-3.01155 0.55197,-0.76616 1.26629,-1.41243 1.77407,-2.20857 0.3162,-0.49578 0.0947,-1.53076 0.67423,-1.63017 4.94323,-0.8479 10.00592,-0.70661 15.00888,-1.05992 0.39685,0.74723 0.97452,1.42365 1.19053,2.24168 0.14438,3.20012 0.38046,6.31188 0.28766,7.5874 -0.21808,2.90104 -0.36624,2.77943 -1.28229,5.53206 -0.7854,4.64795 -0.80243,3.57971 -2.08328,7.7024 -2.46458,7.33649 -2.60712,9.02214 -5.9507,19.17554 -2.39921,22.0422 -12.21975,17.61462 -3.09701,-1.57029 0.58997,-1.23535 1.31999,-2.40276 1.87206,-3.6555 1.78932,-5.09256 3.50078,-10.54636 7.02316,-13.75567 0.17702,-0.16645 0.32927,-0.35741 0.4939,-0.53612 5.00126,0.1267 10.02057,-0.0631 15.00376,0.3801 0.35467,0.0315 0.26582,0.66068 0.40154,0.98988 0.18472,0.44806 0.44923,0.87 0.55977,1.34188 0.10156,0.43347 0.0809,0.88895 0.0671,1.33395 -0.0562,1.81529 -0.18239,1.68888 -0.82913,3.50873 -0.25232,1.41959 -0.31082,2.86784 -0.55473,4.28844 -0.14489,0.84386 -0.33986,1.67852 -0.52986,2.51338 -1.87398,37.35517 -15.39252,24.4464 -2.68532,-1.79293 0.34015,-2.08235 15.06465,0.32291 14.7245,2.40527 v 0 c -0.30429,0.24546 -0.64518,0.45145 -0.91286,0.73639 -0.71775,0.76405 -1.12388,1.78805 -1.87562,2.52438 -1.65828,5.01882 0.72542,-1.85339 -1.60481,3.6462 -0.29591,0.69838 -0.49806,1.43423 -0.69558,2.16655 -0.65628,2.43327 -0.97333,4.94909 -1.3126,7.43969 -0.21236,0.83265 -0.4208,1.6663 -0.63708,2.49794 -0.19906,0.76547 -0.42965,1.523 -0.60892,2.29336 -0.75154,3.22952 -0.0905,1.29595 -1.06193,4.37343 -0.23199,0.73499 0.008,2.0283 -0.74597,2.18855 -4.94389,1.05091 -10.07788,0.78891 -15.11683,1.18337 -0.4872,-0.37072 -1.05392,-0.65544 -1.46162,-1.11215 -0.33488,-0.37514 -0.47282,-0.88772 -0.71638,-1.32767 -1.67037,-3.43472 -1.38907,-6.17565 -1.50872,-6.82151 -0.16387,-0.73092 -0.40605,-1.44859 -0.49161,-2.19275 -0.1542,-1.34128 0.0562,-2.81753 0.21661,-4.14452 0.27424,-2.26856 0.60733,-4.53558 1.27965,-6.72707 11.13609,-21.64357 7.07356,-11.24833 -0.65051,8.34689 -2.36244,6.00864 -0.0928,0.57015 -2.42368,6.10392 -0.35325,0.83867 -0.15818,2.45891 -1.06659,2.5131 -15.82026,0.94373 -14.83107,3.38067 -15.97247,-3.23152 -0.0209,-0.67893 0.0228,-1.36297 -0.0629,-2.0368 0.36833,-9.03048 1.0072,-14.15415 2.99869,-21.89872 0.14201,-0.53489 0.356,-1.0481 0.54341,-1.56883 0.49411,-1.37298 0.8181,-2.16061 1.3696,-3.56058 1.68446,-5.35692 -0.38476,0.85601 1.85005,-4.67803 1.27776,-3.1641 0.41472,-1.57305 1.3145,-4.74713 7.49329,-22.68056 11.24537,-19.49244 -0.0879,4.57361 -0.53677,1.12895 -1.17033,2.2093 -1.75197,3.31581 -0.69162,1.31575 -1.35021,2.64918 -2.06777,3.95097 -0.86561,1.57039 -1.8558,3.07179 -2.68081,4.66389 -0.87089,1.68065 -1.60154,3.43035 -2.40232,5.14553 -0.84893,1.64359 -1.85535,3.21497 -2.54681,4.93077 -0.5441,1.35014 -0.67578,2.83584 -1.13921,4.21575 -0.35675,1.0623 -0.23798,2.78622 -1.31556,3.09371 -4.893885,1.39647 -10.100202,1.34157 -15.182134,1.61392 -1.933811,-0.28127 -3.550722,-3.86606 -3.895772,-5.6341 -0.09136,-0.4758 -0.145108,-0.95813 -0.228632,-1.43537 -0.38609,-2.206 -0.26039,-0.77219 -0.333375,-3.02529 0.0039,-1.79119 -0.062,-0.93954 0.184481,-2.64982 0.05743,-0.39853 0.05621,-0.81027 0.173842,-1.19534 4.830658,-23.51813 20.62983,-5.22264 -0.258837,5.22638 -13.660924,4.78786 -11.483639,5.72204 -17.073205,1.28691 -0.339656,-4.38615 0.309544,1.60394 -0.704194,-2.35286 -0.09925,-0.3874 0.06242,-0.80127 0.02545,-1.19948 -0.485647,-1.97225 0.320947,-3.74861 0.668991,-5.56112 0.424524,-2.29979 -0.03182,-1.59105 0.251719,-3.992 1.05056,-8.8959 -0.311351,4.818 1.30288,-4.55767 0.128545,-0.7466 -0.04743,-1.51443 -0.07115,-2.27165 0.246743,-0.61319 0.513382,-1.21874 0.740225,-1.83957 9.039646,-23.43206 14.255827,-27.36698 -0.476012,2.70594 -0.610378,1.27694 -0.626956,2.79271 -1.27967,4.04853 -1.251252,2.40743 -3.664016,4.07962 -4.744186,6.614 -0.07749,0.0936 -3.106549,3.9571 -3.732207,4.01774 -6.526511,0.63248 -13.788249,4.09128 -16.927642,-1.62346 -0.448011,-0.81553 -0.520798,-2.35595 -0.61677,-3.19723 -0.0349,-3.67311 -0.14755,-0.50387 0.51635,-4.75456 0.447778,-2.86696 0.249881,-4.03148 1.209628,-6.89805 4.724127,-14.11 -1.157669,6.61722 2.910644,-8.29141 0.637855,-1.44525 1.218218,-2.91727 1.91357,-4.33575 2.535041,-5.17137 2.035442,-3.11155 4.152513,-8.27311 0.467027,-1.13864 0.7248,-2.35807 1.220388,-3.48459 2.400393,-5.45626 0.568571,0.0347 1.628553,-3.31109 0.392964,-2.1631 15.688371,0.61557 15.295406,2.77867 z" />
    <path
       style="fill:url(#linearGradient855);fill-opacity:1;stroke:none;stroke-width:0.565;stroke-linejoin:round;stroke-dasharray:none;stroke-opacity:1;stroke-miterlimit:4;stroke-dashoffset:0"
       id="path1467"
       d="m 50.39769,113.6008 c -0.374301,1.55214 0.256548,-0.93383 -0.772028,2.0816 -0.300564,0.88115 -0.51558,1.7894 -0.795409,2.67736 -1.145701,3.63557 -1.417994,3.8934 -2.291252,7.82458 -0.333139,1.49971 -0.554302,3.02211 -0.831453,4.53317 -0.693169,3.51244 -1.122537,5.28465 -1.517253,8.79648 -0.276648,2.46136 -0.341437,4.56584 -0.335116,7.02153 0.0024,0.9352 -0.0149,1.87312 0.06598,2.80482 0.06713,0.77352 0.251296,1.53239 0.376944,2.29859 0.430789,1.52058 0.690446,3.28882 1.816391,4.50623 1.451811,1.56975 3.31426,0.98255 5.526828,0.71391 0.464489,-0.0564 0.81362,-0.46233 1.22043,-0.6935 0.370134,-0.26149 0.779105,-0.47525 1.110401,-0.78447 1.146744,-1.07033 1.815798,-2.89116 2.329706,-4.30484 0.283816,-0.78074 0.531167,-1.57425 0.796751,-2.36138 0.314079,-0.85992 0.628155,-1.71985 0.942234,-2.57978 1.928286,-4.43523 0.460888,-1.14066 2.492274,-5.49349 1.018813,-2.1831 1.168585,-2.78755 2.462231,-4.76269 0.32816,-0.50104 1.902423,-2.53109 2.365968,-3.13335 0.312026,-0.28183 1.200401,-1.23608 1.790488,-1.32869 0.25381,-0.0398 1.002758,0.11131 0.752197,0.16811 -0.844044,0.19134 -1.81352,-0.14576 -2.584579,0.24728 -0.309804,0.15793 0.576688,0.39951 0.810109,0.65726 0.319243,0.35251 0.555792,0.7719 0.833689,1.15784 0.801338,1.3847 1.024802,1.65942 1.633265,3.19366 0.254942,0.64283 0.441888,1.31075 0.678934,1.9604 0.268734,0.7365 0.587097,1.45485 0.838226,2.19754 0.606944,1.79496 0.932617,3.20112 1.403035,5.03097 0.788758,3.50282 0.123579,0.86936 1.081556,3.9845 0.160687,0.52253 0.258715,1.06491 0.449443,1.57723 0.177643,0.47718 0.44568,0.91587 0.651994,1.38136 0.188317,0.42489 0.306541,0.88229 0.531529,1.28895 0.22443,0.40566 0.538612,0.75472 0.807919,1.13209 0.60358,0.88442 0.672036,1.11573 1.481629,1.80462 0.244544,0.20809 0.472408,0.51069 0.791141,0.54956 1.370698,0.16717 2.785539,0.30928 4.142232,0.0521 0.699389,-0.13257 1.723978,-2.30186 1.908318,-2.63218 1.723972,-3.23141 0.365802,-0.56545 1.929109,-3.99436 0.326147,-0.71536 0.678868,-1.41833 1.011666,-2.13062 0.316352,-0.67709 0.583808,-1.37814 0.935749,-2.03744 0.323366,-0.60577 0.727567,-1.16481 1.086231,-1.75037 0.290415,-0.47414 0.573974,-0.95244 0.86096,-1.42866 0.531172,-0.50757 1.206571,-1.31698 1.987957,-1.5343 0.262456,-0.073 1.083225,-0.0102 0.816107,0.0433 -0.863626,0.17291 -1.88881,-0.16798 -2.623026,0.31851 -0.328821,0.21787 0.492996,0.62813 0.645007,0.99212 0.262908,0.62952 0.392028,1.3069 0.588041,1.96035 0.943359,4.62128 0.136658,0.22294 0.749933,5.10872 0.103044,0.82092 0.309118,1.62778 0.391276,2.45105 0.07227,0.72414 0.02008,1.4561 0.07108,2.18205 0.14298,2.03577 0.266049,2.3303 0.660802,4.33301 0.471352,2.13694 0.831709,4.38225 2.001218,6.27805 0.13883,0.22504 0.21571,0.59128 0.476642,0.6341 1.348642,0.22129 2.732248,0.0777 4.098374,0.1166 0.313423,-0.46733 0.673068,-0.90677 0.940269,-1.40197 0.387993,-0.71908 0.711633,-1.47233 1.019083,-2.22935 1.07717,-2.65224 1.8909,-5.21162 2.70518,-7.9721 1.94986,-7.01348 0.95052,-3.5524 2.99387,-10.38446 0.56024,-1.58858 1.15017,-3.167 1.68074,-4.76574 0.53393,-1.60889 0.95385,-3.2549 1.51222,-4.85547 1.32223,-3.79016 2.00794,-5.1108 3.67591,-8.66905 0.53251,-1.13598 1.01464,-2.29789 1.61242,-3.40092 0.49491,-0.91324 1.10659,-1.7582 1.65989,-2.6373 0.84368,-1.22425 1.30693,-2.30126 2.67056,-2.98867 0.34411,-0.17346 1.49088,-0.35069 1.1402,-0.19093 -0.66354,0.30227 -1.84459,-0.0582 -2.09587,0.62629 -0.24735,0.67374 0.90588,1.13027 1.21282,1.77903 0.5212,1.10161 0.83583,2.28958 1.25374,3.43437 0.89302,4.62893 1.40402,6.82271 1.92137,11.74944 0.25311,2.41034 0.37498,4.83292 0.51873,7.25225 0.13269,2.23333 0.26893,4.46774 0.31055,6.70462 0.0348,1.86973 -0.0628,3.73961 -0.0815,5.60958 -0.0148,1.48626 -0.0127,2.97263 -0.019,4.45894 -0.01,2.69128 -0.16049,3.63528 0.31861,6.15445 0.24501,1.28836 0.56181,2.38997 1.38513,3.41956 0.22249,0.27822 0.47416,0.66576 0.83033,0.67285 1.42211,0.0283 2.81909,-0.38147 4.22864,-0.57221 0.58662,-1.47727 0.80565,-1.913 1.23181,-3.54514 0.2008,-0.76904 0.32391,-1.55657 0.51066,-2.32914 0.19703,-0.81509 0.4316,-1.62068 0.64044,-2.43282 0.20371,-0.79221 0.37694,-1.5924 0.59719,-2.38016 0.21243,-0.75981 0.46691,-1.50724 0.70037,-2.26085 0.70112,-2.06076 0.54638,-1.78231 1.39874,-3.65547 0.47202,-1.0373 0.96615,-2.10562 1.88012,-2.83776 0.17777,-0.1424 0.39098,-0.23378 0.58647,-0.35067 0.15746,-0.0389 0.3106,-0.12829 0.4724,-0.1168 0.19208,0.0137 0.73711,0.16658 0.54586,0.18912 -0.91259,0.10755 -1.85404,-0.10533 -2.75581,0.0713 -0.24043,0.0471 0.44671,0.20591 0.65113,0.34096 0.57556,0.38026 0.79548,0.67346 1.27186,1.17654 0.23172,0.25802 0.49952,0.48771 0.69515,0.77406 0.19396,0.2839 0.30275,0.61753 0.4633,0.92157 0.18239,0.3454 0.39681,0.67403 0.56533,1.0264 0.2278,0.47634 0.69949,1.71762 0.84297,2.22948 0.0986,0.35177 0.15181,0.71472 0.22771,1.07208 0.1592,0.86081 0.32526,1.72135 0.53912,2.57061 0.0579,0.22974 0.13396,0.45483 0.18643,0.68587 0.0838,0.36894 0.13455,0.74465 0.2091,1.11557 0.13227,0.37647 0.30766,0.73413 0.4811,1.09242 0.0392,0.0809 0.0629,0.17066 0.1151,0.24382 0.0621,0.0871 0.27022,0.25946 0.36166,0.33812 0.14764,0.49567 3.65254,-0.54833 3.5049,-1.044 v 0 c -0.27329,0.067 -0.36351,-8e-4 -0.52175,-0.23662 -0.23848,-0.35526 -0.15441,-0.21748 -0.33222,-0.66196 -0.37976,-1.43842 -0.79791,-2.86951 -1.09354,-4.32762 -0.48707,-1.48558 -0.26076,-0.72481 -0.67485,-2.28352 -0.4853,-1.48257 -1.21635,-2.89924 -2.11374,-4.17095 -0.30528,-0.34287 -0.94156,-1.07829 -1.29537,-1.39829 -0.20704,-0.18725 -0.38602,-0.46192 -0.65998,-0.51555 -1.3233,-0.25901 -2.67847,-0.33509 -4.02524,-0.40151 -0.22753,-0.0112 -0.45757,0.0695 -0.66186,0.17035 -0.17421,0.086 -0.29687,0.25063 -0.4453,0.37595 -0.44899,0.44521 -0.74092,0.69404 -1.10027,1.25123 -0.21387,0.33163 -0.37861,0.69252 -0.56299,1.04141 -0.23688,0.44822 -0.51047,0.87995 -0.70074,1.34986 -0.49144,1.21373 -0.6497,2.54725 -1.24726,3.7251 -2.46573,8.69353 1.1753,-4.2794 -1.21255,4.6958 -0.21658,0.81407 -0.50049,1.60911 -0.72147,2.42201 -0.38623,1.42079 -0.55995,2.78513 -1.22282,4.11558 -0.19861,0.39862 -0.52565,0.71906 -0.78847,1.0786 0.84853,0.16809 1.69386,0.35316 2.54557,0.50428 0.2792,0.0495 -0.61132,-0.0152 -0.82697,-0.19937 -0.36814,-0.31432 -0.58807,-0.77442 -0.81461,-1.20222 -0.31733,-0.59924 -0.61896,-1.21539 -0.81015,-1.86595 -0.44358,-1.50938 -0.75879,-4.65436 -0.93352,-6.05292 -0.34226,-9.43406 0.0597,0.93756 -0.46264,-10.07121 -0.51389,-10.82995 -0.01,-2.64646 -0.72742,-13.98524 -0.14244,-2.25059 -0.23208,-4.5056 -0.44406,-6.75071 -0.16292,-1.72552 -0.45336,-3.43662 -0.68004,-5.15493 -0.0122,-0.0491 -1.08362,-5.38956 -1.9457,-5.86942 -1.39951,-0.77899 -4.07118,-1.43899 -5.63056,-0.26132 -1.08201,0.81715 -1.74569,2.19728 -2.41943,3.29703 -0.49818,0.89897 -1.04396,1.77314 -1.49453,2.69689 -0.72512,1.4866 -2.64654,6.20336 -3.17091,7.56005 -0.77897,2.01537 -2.75658,7.47861 -3.40898,9.48448 -0.51544,1.58476 -0.95828,3.19222 -1.43742,4.78834 -0.68629,2.26248 -2.45418,8.17668 -3.22161,10.35002 -0.53826,1.52435 -1.172669,3.01308 -1.774794,4.51335 -0.783826,1.95299 -1.309108,3.67221 -2.632033,5.30117 -0.269788,0.3322 -0.671894,0.53022 -1.007843,0.79532 0.920623,0.13023 1.832089,0.39458 2.761869,0.3907 0.232003,-10e-4 -0.411448,-0.23019 -0.569698,-0.39985 -0.612,-0.6561 -0.846034,-1.38824 -1.163254,-2.22274 -0.757992,-1.99406 -0.573622,-1.55249 -1.035516,-3.72875 -0.117006,-0.7058 -0.24784,-1.40943 -0.351014,-2.11737 -0.229566,-1.57521 -0.324044,-2.76988 -0.529474,-4.34989 -0.107013,-0.82305 -0.240263,-1.64253 -0.348147,-2.46547 -0.226869,-1.73056 -0.399698,-3.468 -0.654267,-5.19507 -0.14973,-0.71502 -0.252904,-1.4414 -0.449191,-2.14506 -0.141375,-0.50681 -0.08308,-1.25491 -0.560763,-1.47551 -1.296945,-0.59895 -3.4808,-1.24126 -4.910579,-0.32897 -0.682376,0.43539 -1.454232,1.33016 -1.978062,1.87889 -0.273153,0.50504 -0.5432,1.01177 -0.81946,1.51512 -0.330187,0.60161 -0.699468,1.18266 -0.99985,1.79969 -0.325469,0.66856 -0.560707,1.37807 -0.875172,2.05188 -0.332912,0.71333 -0.727864,1.39642 -1.065935,2.10732 -1.631276,3.43025 -0.116644,0.69802 -1.977742,3.86204 -0.357881,0.44721 -0.659606,0.94584 -1.07364,1.34163 -0.252208,0.24109 -1.208479,0.38605 -0.895955,0.54117 0.755695,0.37512 1.67401,0.29055 2.517253,0.26361 0.281472,-0.009 -0.542168,-0.17192 -0.782293,-0.31905 -0.90583,-0.55504 -0.89245,-0.74529 -1.462202,-1.61519 -0.28943,-0.35118 -0.6283,-0.66688 -0.868291,-1.05354 -0.232791,-0.37506 -0.346498,-0.81231 -0.536982,-1.21053 -0.213881,-0.44713 -0.481304,-0.86862 -0.675674,-1.32457 -0.211262,-0.49558 -0.364575,-1.01396 -0.538581,-1.52381 -0.559623,-1.63975 -0.73102,-2.2355 -1.267333,-3.95809 -0.892254,-3.36434 -0.427397,-1.67732 -1.395661,-5.06076 -0.1992,-0.74823 -0.31609,-1.5187 -0.549931,-2.25683 -0.216945,-0.68479 -0.533353,-1.334 -0.799082,-2.00138 -0.938995,-2.35831 -0.398012,-1.20492 -1.541422,-3.34643 -0.01236,-0.021 -1.234144,-2.21127 -1.497677,-2.29488 -0.617688,-0.19597 -3.613354,-1.06771 -4.988473,-0.32018 -0.559477,0.30414 -1.420137,1.26429 -1.803426,1.65472 -0.322384,0.47491 -0.670462,0.93336 -0.967153,1.42473 -0.13866,0.22965 -2.234207,4.11046 -2.237345,4.1164 -0.810461,1.53431 -1.941224,3.73317 -2.652014,5.30472 -0.418793,0.92596 -0.789692,1.87283 -1.184537,2.80924 -0.353007,0.85745 -0.728311,1.70604 -1.059022,2.57233 -1.111072,2.9104 -0.370813,1.66469 -1.774422,4.1577 -0.297321,0.52808 -0.917679,1.57457 -1.44331,1.97934 -0.348131,0.26808 -0.774655,0.41493 -1.161982,0.62239 -1.210482,0.45374 -2.587439,0.76091 0.938872,0.72405 0.316124,-0.003 -0.641988,-0.11948 -0.898091,-0.30483 -1.242928,-0.89953 -1.582214,-2.80457 -2.180069,-4.09253 -0.255029,-1.6267 -0.554688,-3.32561 -0.656733,-4.9675 -0.183205,-2.94777 -0.03793,-3.90224 0.25532,-6.94262 0.422672,-4.38219 0.458825,-4.27138 1.090568,-8.75797 0.403746,-1.49241 0.81113,-2.98383 1.211239,-4.47721 0.378081,-1.41118 0.674393,-2.84618 1.123325,-4.23644 0.3839,-1.18886 0.890939,-2.33478 1.371042,-3.48816 0.69555,-1.67096 1.475708,-3.29829 2.338321,-4.88814 0.02172,-0.52597 -3.697454,-0.67962 -3.719184,-0.15364 z" />
    <path
       style="fill:#333333;fill-opacity:1;stroke-width:1"
       d="m 120.80138,153.56305 c -0.24879,-0.21989 -0.43158,-0.82266 -0.66657,-2.19819 -0.11099,-0.6497 -0.46492,-2.14777 -0.7865,-3.32905 l -0.5847,-2.14778 h -1.7207 -1.72069 l -0.11825,0.85911 c -0.065,0.47251 -0.20004,1.51946 -0.29999,2.32654 -0.24949,2.01458 -0.52865,3.02423 -0.85885,3.1063 -0.56797,0.14116 -1.61158,-0.38258 -1.74075,-0.8736 -0.15936,-0.60582 -0.1222,-0.88462 0.28634,-2.14845 0.18236,-0.56412 0.51242,-2.15884 0.73348,-3.54383 0.5618,-3.51987 1.04965,-6.39231 1.24269,-7.31689 0.509,-2.43793 0.83853,-4.51645 0.83853,-5.28894 0,-1.20722 0.37032,-1.83251 1.08527,-1.83251 0.70603,0 1.57545,0.92851 1.9509,2.08351 0.97511,2.99965 1.72974,6.59399 2.06521,9.83665 0.24725,2.38991 0.8617,5.25061 1.59793,7.43952 0.5608,1.66734 0.62736,1.97484 0.52194,2.41124 -0.148,0.61268 -0.37001,0.77416 -1.06434,0.77416 -0.32032,0 -0.66275,-0.071 -0.76095,-0.15779 z m -2.3585,-10.27102 c 0.0537,-0.0693 0.002,-0.57675 -0.1141,-1.12759 -0.11648,-0.55083 -0.34249,-1.72639 -0.50226,-2.61235 -0.58948,-3.26886 -0.77917,-3.62939 -0.99125,-1.88406 -0.0613,0.50466 -0.29737,1.87173 -0.52454,3.03794 -0.50336,2.58415 -0.45613,2.71212 1.00097,2.71212 0.56843,0 1.07746,-0.0567 1.13118,-0.12606 z m 40.78039,10.18032 c -0.26901,-0.16788 -0.49875,-0.78548 -0.89338,-2.40171 -0.29218,-1.19665 -0.57166,-2.32069 -0.62106,-2.49789 -0.0494,-0.17719 -0.12167,-0.61199 -0.16061,-0.96621 -0.0784,-0.7128 -0.34233,-1.2335 -0.54386,-1.07274 -0.0718,0.0573 -0.77934,0.15086 -1.57237,0.20804 -0.79304,0.0572 -1.50334,0.15296 -1.57844,0.21287 -0.0751,0.0599 -0.18688,0.62886 -0.2484,1.26434 -0.0615,0.63547 -0.21914,1.67574 -0.35028,2.31169 -0.13114,0.63596 -0.23932,1.4166 -0.24041,1.73475 -0.004,1.04911 -1.31527,1.65865 -2.04041,0.94817 -0.37386,-0.3663 -0.36716,-0.94865 0.031,-2.69267 0.17719,-0.77621 0.51671,-2.95769 0.75446,-4.84773 0.23776,-1.89005 0.46539,-3.62975 0.50584,-3.866 0.47882,-2.79647 0.90044,-5.93109 0.99666,-7.40983 0.13368,-2.05452 0.36469,-2.57733 1.13882,-2.57733 0.87177,0 2.27254,1.6352 2.27254,2.65287 0,0.20412 0.13916,0.72971 0.30924,1.16799 0.17007,0.43827 0.4403,1.37676 0.6005,2.08552 0.16021,0.70877 0.50476,2.15852 0.76568,3.22167 0.26092,1.06315 0.58519,2.5129 0.7206,3.22166 0.82605,4.32375 1.33163,6.5583 1.69258,7.48093 0.36031,0.92098 0.29326,1.38435 -0.25306,1.749 -0.5631,0.37583 -0.7801,0.38809 -1.28562,0.0726 z m -2.50105,-9.38709 c 0.13677,-0.17652 -0.13871,-1.47489 -0.62003,-2.92234 -0.11784,-0.35438 -0.34356,-1.21101 -0.5016,-1.90362 -0.36122,-1.58305 -0.55665,-1.38558 -0.85872,0.86771 -0.12389,0.92414 -0.29645,2.11941 -0.38347,2.65616 -0.22403,1.38183 -0.22256,1.37061 -0.2008,1.5397 0.0272,0.21128 2.38616,-0.007 2.56462,-0.23761 z m -68.910499,8.51141 c -0.507987,-0.34841 -1.329738,-2.73693 -2.160273,-6.27908 -0.36007,-1.53566 -0.933057,-3.66196 -1.273307,-4.72511 -0.340251,-1.06315 -0.772376,-2.44041 -0.960278,-3.06058 -0.187903,-0.62017 -0.39865,-1.12758 -0.46833,-1.12758 -0.138723,0 -0.06861,8.36262 0.101742,12.13506 0.09999,2.2143 0.08494,2.3881 -0.239706,2.76731 -0.262972,0.30717 -0.494136,0.37368 -0.959814,0.27614 -0.337377,-0.0707 -0.67875,-0.21281 -0.758603,-0.31588 -0.07985,-0.10307 -0.179768,-4.27144 -0.222033,-9.26305 -0.04227,-4.99162 -0.112204,-9.1495 -0.155417,-9.23975 -0.04322,-0.0902 -0.119541,-0.58874 -0.169613,-1.10777 -0.05007,-0.51902 -0.130214,-1.10459 -0.178089,-1.30128 -0.118193,-0.48556 0.528053,-1.03845 1.213793,-1.03845 0.4443,0 0.704633,0.21292 1.378661,1.12759 0.457013,0.62017 0.874351,1.3692 0.927417,1.66452 0.109007,0.60664 1.431057,5.02643 1.89521,6.33594 0.167481,0.47251 0.465239,1.39069 0.661688,2.04039 0.196448,0.6497 0.421342,1.37458 0.499764,1.61083 0.259153,0.78072 0.65565,2.58774 0.769576,3.50732 0.10944,0.88336 0.300628,1.28368 0.455055,0.95282 0.142351,-0.30498 0.285201,-3.35856 0.369413,-7.89658 0.13135,-7.07829 0.196845,-8.72564 0.355021,-8.9298 0.08105,-0.10461 0.383419,-0.25113 0.671936,-0.32561 0.427193,-0.11028 0.60703,-0.029 0.96871,0.43783 0.371365,0.47932 0.428811,0.70318 0.350616,1.36636 -0.243246,2.06302 -0.428005,4.96749 -0.521803,8.20294 -0.117525,4.05388 -0.439309,9.44366 -0.675935,11.32171 -0.07279,0.57772 -0.187623,0.7263 -0.704572,0.91161 -0.757676,0.2716 -0.701728,0.27389 -1.170829,-0.0479 z m 79.052079,-0.24868 c -0.17871,-0.29323 -0.32882,-0.90615 -0.34394,-1.40436 -0.0148,-0.48623 -0.14111,-1.16924 -0.28076,-1.51782 -0.13966,-0.34858 -0.26194,-0.70728 -0.27174,-0.79711 -0.0627,-0.57477 -1.21023,-4.07532 -1.85635,-5.66276 -0.31758,-0.78026 -0.63412,-1.65011 -0.70342,-1.933 -0.1551,-0.63311 -0.89345,-1.9104 -1.10432,-1.9104 -0.0851,0 -0.11803,0.36243 -0.0732,0.80541 0.44725,4.42162 0.47048,5.22965 0.16294,5.66826 -0.15395,0.21957 -0.46291,0.39921 -0.68658,0.39921 -0.50958,0 -1.5301,-0.6116 -1.56393,-0.93727 -0.0289,-0.27839 -0.0881,-0.62333 -0.1339,-0.78095 -0.0406,-0.13964 -0.0929,-0.93205 -0.31875,-4.8325 -0.10261,-1.77191 -0.23424,-3.73547 -0.29252,-4.36345 -0.31875,-3.43487 2.22951,-3.31269 3.65592,0.17529 0.68819,1.68283 1.13534,2.67461 1.35565,3.00689 0.31669,0.47763 2.08166,5.19777 2.08596,5.57856 0.002,0.1803 0.15013,0.56945 0.3291,0.86477 l 0.32541,0.53694 0.012,-1.50344 c 0.023,-2.88433 0.0126,-10.74013 -0.0144,-10.89997 -0.0705,-0.41814 -0.0406,-0.95764 0.0788,-1.41858 0.1121,-0.43296 0.20639,-0.48636 0.65501,-0.37091 0.28823,0.0742 0.72723,0.39842 0.97556,0.72055 l 0.45149,0.58569 -0.23032,4.51033 c -0.13464,2.63647 -0.20765,6.81339 -0.17573,10.05375 l 0.0546,5.54341 -0.41141,0.20189 c -0.72484,0.3557 -1.34145,0.2389 -1.68111,-0.31843 z M 55.140269,152.19528 c -0.626346,-0.2961 -0.677385,-0.67948 -0.200624,-1.507 0.22798,-0.39571 0.690208,-1.39602 1.027172,-2.22292 0.336966,-0.82689 1.639181,-3.27291 2.893809,-5.43561 1.25463,-2.16269 2.325714,-4.11341 2.380186,-4.33493 0.06409,-0.26062 -0.09953,-0.76786 -0.4636,-1.43727 -0.309453,-0.56898 -0.809113,-1.66274 -1.110357,-2.43057 -0.301244,-0.76783 -0.762119,-1.81018 -1.024167,-2.31635 -0.679555,-1.3126 -0.753922,-1.85753 -0.308461,-2.26025 0.200462,-0.18122 0.487264,-0.29736 0.637338,-0.25807 0.561823,0.14706 1.113742,0.50253 1.385749,0.8925 0.293421,0.42068 1.630033,3.75032 1.636465,4.07662 0.002,0.10324 0.137793,0.4127 0.301685,0.68768 0.337728,0.56664 0.399871,0.51101 1.038344,-0.92952 0.763598,-1.72283 1.292528,-3.24009 1.407546,-4.03762 0.161497,-1.11981 0.488067,-1.49774 1.138178,-1.31718 1.642001,0.45605 1.81207,1.24699 0.769828,3.58026 -0.366086,0.81956 -0.665612,1.53228 -0.665612,1.58381 0,0.11659 -0.928232,1.86201 -1.539976,2.89573 -0.251271,0.4246 -0.456859,0.87729 -0.456859,1.00599 0,0.1287 0.623973,1.521 1.386606,3.094 0.762633,1.57301 1.735311,3.68949 2.161507,4.70331 0.426197,1.01381 0.964277,2.12529 1.195732,2.46994 1.589854,2.3674 1.560703,3.29722 -0.103722,3.30843 -0.51868,0.004 -1.24754,-0.68498 -1.405588,-1.32771 -0.06226,-0.25318 -0.430369,-1.14467 -0.818025,-1.98109 -0.387657,-0.83642 -1.221,-2.70731 -1.851875,-4.15754 -1.149804,-2.64311 -1.806893,-3.89988 -1.934066,-3.69916 -0.823076,1.29908 -3.641313,6.10666 -3.903036,6.65811 -0.568824,1.1985 -1.548353,3.73498 -1.549241,4.01174 -0.0026,0.80144 -1.037618,1.15141 -2.024936,0.68467 z m 22.63049,-0.34717 c -0.135069,-0.20672 -0.377863,-1.14906 -0.539541,-2.09408 -0.313147,-1.83038 -1.044367,-5.30083 -1.267094,-6.01377 -0.07381,-0.23626 -0.219966,-0.86448 -0.324797,-1.39606 -0.10483,-0.53157 -0.255164,-1.29243 -0.334074,-1.69078 -0.07891,-0.39836 -0.205454,-0.80069 -0.281209,-0.89406 -0.07576,-0.0934 -0.922621,-0.20237 -1.881924,-0.24221 l -1.744186,-0.0725 -0.504861,1.50345 c -0.6456,1.92254 -0.700437,2.02706 -1.189382,2.267 -0.476014,0.23359 -1.503505,-0.22732 -1.656896,-0.74326 -0.08335,-0.28035 1.719252,-5.0464 2.115664,-5.59378 0.08127,-0.11222 0.147766,-0.35996 0.147766,-0.55052 0,-0.35602 2.014515,-5.62824 2.349779,-6.14965 0.252726,-0.39304 1.541254,-0.37038 2.152891,0.0379 0.620272,0.414 1.046592,1.57916 1.490716,4.07424 0.398088,2.23644 0.610476,3.01272 1.028344,3.75861 0.231326,0.41291 0.267454,0.68697 0.156403,1.18643 -0.112107,0.50421 -0.01491,1.20082 0.434508,3.11428 0.318404,1.35563 0.680457,2.99636 0.804562,3.64606 0.58173,3.04541 0.842608,4.22441 1.030522,4.6573 0.289857,0.66773 0.252608,1.09276 -0.118221,1.34892 -0.519565,0.3589 -1.591704,0.27083 -1.86897,-0.15353 z m -3.25686,-14.87335 c -0.07162,-0.97113 -0.623806,-3.29231 -0.801378,-3.36871 -0.193029,-0.083 -1.13025,2.06945 -1.30102,2.98803 -0.09129,0.49105 -0.04797,0.60263 0.267733,0.68967 0.207151,0.0571 0.526402,0.14674 0.709445,0.19916 0.183043,0.0524 0.520009,0.0804 0.748813,0.0621 0.337773,-0.027 0.40856,-0.13424 0.376407,-0.57021 z m 18.586062,14.85504 c -0.373426,-0.39028 -0.375179,-0.41667 -0.17793,-2.6792 0.123392,-1.41535 0.188848,-5.12777 0.171983,-9.75408 -0.01498,-4.10797 -0.02681,-7.73551 -0.02629,-8.06121 0.0012,-0.78242 0.312629,-1.23344 0.851597,-1.23344 0.241081,0 0.66749,-0.0848 0.947573,-0.1885 0.501554,-0.18566 1.940129,0.0801 3.21902,0.59471 1.546133,0.62212 3.753466,3.32107 4.335626,5.30127 0.36305,1.2349 0.55556,1.56187 0.38073,4.89598 -0.29134,5.55631 -0.7846,7.28753 -1.53628,8.25773 -0.97152,1.25395 -3.938775,2.83136 -5.326046,2.83136 -0.540341,0 -1.028717,0.0966 -1.08528,0.21478 -0.174214,0.36383 -1.349953,0.24362 -1.754698,-0.1794 z m 4.333895,-2.7281 c 1.845671,-0.98113 2.263291,-1.53689 2.668824,-3.55163 0.47515,-2.36065 0.62934,-7.89195 0.25921,-9.29907 -0.399553,-1.51895 -1.246802,-2.73524 -2.401569,-3.44762 -0.855069,-0.52749 -1.107614,-0.58999 -1.880295,-0.46533 l -0.892562,0.144 -0.0022,8.5286 c -0.0015,5.51648 0.05734,8.58433 0.166403,8.6864 0.292157,0.27341 0.629185,0.17705 2.082197,-0.59535 z m 38.920204,2.53164 c -0.01,-0.0886 -0.0466,-1.41754 -0.0815,-2.9532 -0.0348,-1.53566 -0.0929,-3.85526 -0.12903,-5.15466 -0.0361,-1.29941 -0.11543,-4.1989 -0.17623,-6.44333 -0.0608,-2.24443 -0.14346,-5.14393 -0.18368,-6.44333 -0.0402,-1.29941 -0.11223,-4.3922 -0.16001,-6.87289 -0.0478,-2.48068 -0.13082,-5.22319 -0.18453,-6.09446 l -0.0976,-1.58414 -1.27346,0.1342 c -0.70041,0.0738 -1.4325,0.17471 -1.62687,0.22423 -0.19437,0.0495 -1.42992,0.12208 -2.74565,0.16126 -2.181,0.065 -2.43204,0.0333 -2.84291,-0.3583 -0.24786,-0.23626 -0.52435,-0.69377 -0.61441,-1.0167 -0.29035,-1.0411 0.14142,-1.206 2.95044,-1.12679 2.55148,0.0719 5.23723,-0.16602 6.1214,-0.54236 0.54438,-0.23171 7.41639,-0.30316 9.08967,-0.0945 1.54789,0.19302 2.50619,1.10473 2.12571,2.02235 -0.26416,0.63708 -0.77378,0.71503 -2.77369,0.42429 -2.04603,-0.29744 -4.31476,-0.41151 -5.29946,-0.26645 l -0.66561,0.0981 0.0271,5.08355 c 0.0149,2.79595 0.0697,6.19502 0.12181,7.55349 0.0521,1.35847 0.13336,4.06467 0.18054,6.01378 0.20876,8.624 0.28437,11.10889 0.35944,11.81277 0.0441,0.41345 0.11524,1.09 0.15811,1.50344 0.0429,0.41345 0.15654,1.06617 0.2526,1.4505 0.26786,1.07163 0.055,1.89236 -0.594,2.28983 -0.56693,0.34724 -1.90527,0.47109 -1.93811,0.17937 z m -100.308126,-0.646 c -0.383081,-0.49444 -0.476062,-0.84041 -0.562806,-2.09408 -0.05715,-0.82598 -0.300176,-2.46828 -0.540053,-3.64956 -0.239876,-1.18128 -0.570436,-2.92098 -0.734576,-3.866 -0.404748,-2.33029 -0.45109,-2.43587 -1.146998,-2.613 -0.796545,-0.20274 -5.155163,-0.16733 -8.096078,0.0658 l -2.329641,0.18466 -0.346246,1.28866 c -0.190435,0.70877 -0.392979,1.43364 -0.450097,1.61084 -0.08509,0.26395 -0.644376,3.19141 -0.86461,4.52559 -0.03064,0.18559 -0.174903,0.85552 -0.320594,1.48873 -0.145691,0.63322 -0.266557,1.35122 -0.268593,1.59557 -0.01368,1.6419 -2.05072,2.12543 -2.669296,0.6336 -0.182875,-0.44104 -0.164636,-0.64568 0.1271,-1.42602 0.403771,-1.08001 1.136937,-4.01258 1.289689,-5.15859 0.121695,-0.91299 0.816304,-3.73887 1.199586,-4.88027 0.243735,-0.72583 2.48584,-6.68536 3.676692,-9.77266 0.318954,-0.8269 0.976647,-2.7599 1.461539,-4.29556 0.484892,-1.53566 1.189196,-3.70923 1.565121,-4.83016 0.375924,-1.12093 0.722609,-2.45858 0.770409,-2.97256 0.107874,-1.15989 0.348215,-1.67305 0.929005,-1.98356 0.578035,-0.30903 1.333781,-0.0929 1.854987,0.5306 0.331784,0.39688 0.432745,0.7868 0.531131,2.05129 0.172685,2.21939 1.344223,7.84025 1.949244,9.35217 0.141812,0.35438 0.309794,0.95577 0.373292,1.33641 0.0635,0.38064 0.361182,1.68541 0.661521,2.8995 0.300339,1.21408 0.721499,2.96102 0.935912,3.88207 0.348876,1.49868 0.45552,1.7223 1.014842,2.12805 0.824408,0.59804 0.898491,0.94151 0.38902,1.80364 l -0.424071,0.71762 0.412018,1.99268 c 0.226611,1.09598 0.497009,2.36718 0.600888,2.82488 0.103877,0.45771 0.217259,0.98928 0.251959,1.18128 0.0347,0.19199 0.175079,0.73568 0.311954,1.20819 0.136873,0.47251 0.252147,1.07087 0.256164,1.32969 0.004,0.25881 0.08104,0.52939 0.17116,0.60128 0.09012,0.0719 0.158418,0.34338 0.15177,0.60332 -0.0066,0.25993 0.03886,0.68113 0.101133,0.93599 0.165419,0.67705 -0.427278,1.36222 -1.178373,1.36222 -0.427855,0 -0.724238,-0.16654 -1.054104,-0.5923 z m -5.630814,-14.4938 c 1.682969,0.0318 2.787249,-0.0284 2.787249,-0.15194 0,-0.17699 -1.977518,-7.9386 -2.985169,-11.71656 -0.18904,-0.70876 -0.461161,-1.8444 -0.604711,-2.52363 -0.143551,-0.67924 -0.352439,-1.23497 -0.464193,-1.23497 -0.111755,0 -0.457553,0.89401 -0.768441,1.98669 -0.680513,2.3918 -1.163218,3.86119 -2.38127,7.24874 -0.318561,0.88596 -0.735489,2.04576 -0.926507,2.57734 -0.191018,0.53157 -0.60631,1.59043 -0.922871,2.35301 -0.316561,0.76258 -0.532089,1.47731 -0.478952,1.58828 0.05978,0.12486 0.832521,0.12909 2.027115,0.0111 1.061775,-0.10487 3.184763,-0.167 4.71775,-0.13806 z m 19.094737,14.79022 c -1.374067,-0.22181 -2.764916,-0.25678 -5.6577,-0.14228 -1.706439,0.0675 -1.990206,0.0251 -2.620846,-0.39174 -0.88545,-0.58532 -0.911346,-0.76999 -0.465158,-3.31728 0.200188,-1.14289 0.261812,-3.06716 0.282003,-8.80589 0.01421,-4.03888 -0.0285,-7.65484 -0.09491,-8.03546 -0.09944,-0.56992 -0.0488,-0.78491 0.286991,-1.21831 0.345506,-0.44595 0.493408,-0.49981 0.96902,-0.35291 1.172202,0.36207 1.141298,0.29458 1.169904,2.55471 0.01441,1.13911 0.02145,2.20188 0.01563,2.36172 -0.0058,0.15984 -0.06069,3.41454 -0.121932,7.23268 -0.0786,4.90035 -0.05742,7.07212 0.072,7.38424 0.196722,0.47444 0.01685,0.46063 6.997014,0.53727 1.413761,0.0155 1.834568,0.0956 2.204839,0.41975 0.536813,0.4699 0.597067,1.19558 0.14328,1.72563 -0.3419,0.39937 -0.946347,0.40846 -3.180133,0.0479 z m 55.260753,-0.75869 c -0.29157,-0.37632 -0.31896,-0.78024 -0.33139,-4.88619 -0.0167,-5.52151 -0.12511,-8.97105 -0.37116,-11.81053 -0.2326,-2.6842 -0.14282,-3.29722 0.48274,-3.29612 0.24994,4.3e-4 0.68489,0.18218 0.96654,0.40387 0.46103,0.36286 0.5772,0.37382 1.16482,0.10982 0.85747,-0.38523 2.79001,-0.38409 3.36503,0.002 0.89585,0.60148 1.69737,2.20675 1.69737,3.39944 0,1.15015 -0.41229,2.87938 -0.90554,3.79806 l -0.45717,0.85148 0.34855,0.48288 c 0.1917,0.26559 0.34855,0.55543 0.34855,0.6441 0,0.0887 0.29912,0.6073 0.66472,1.15252 0.69522,1.03677 0.87221,1.60409 0.89963,2.88356 l -0.33769,0.29673 -0.54623,0.47225 h -0.90043 l -0.65086,-1.61083 c -0.35798,-0.88596 -0.81812,-1.83153 -1.02255,-2.10126 l -0.37169,-0.49043 -0.90587,0.51745 c -0.49823,0.2846 -1.03619,0.57439 -1.19546,0.64397 -0.26556,0.11602 -0.28162,0.44316 -0.19361,3.94322 0.0528,2.09919 0.13426,3.8967 0.18108,3.99447 0.0468,0.0978 -0.0462,0.36496 -0.20659,0.59377 -0.38176,0.54448 -1.30301,0.54758 -1.72277,0.006 z m 2.42305,-11.38729 c 0.87305,-0.68711 1.21915,-1.14618 1.73141,-2.29655 0.56007,-1.25772 0.6457,-2.58146 0.22111,-3.41786 -0.34894,-0.68735 -0.62858,-0.66763 -1.86792,0.13171 l -1.025,0.6611 v 2.66795 c 0,2.92126 0.0228,2.97584 0.9404,2.25365 z m 34.58599,11.05931 -0.49985,-0.29376 0.0365,-2.00765 c 0.12828,-7.05432 0.0303,-11.65405 -0.3023,-14.18681 -0.20884,-1.59047 0.006,-2.10355 0.87969,-2.10355 0.33867,0 0.66204,0.0966 0.71861,0.21478 0.16114,0.33652 0.58539,0.25543 1.66402,-0.31807 1.21985,-0.64858 1.86622,-0.67236 2.88121,-0.106 2.04115,1.13895 2.25529,4.41302 0.47664,7.28758 l -0.59222,0.95713 1.65404,2.13488 c 0.90972,1.17419 1.65404,2.26572 1.65404,2.42562 0,0.40279 -0.60431,1.14464 -0.95681,1.17458 -1.07349,0.0912 -1.57599,-0.26662 -2.27636,-1.62082 -0.30966,-0.59875 -0.79718,-1.37563 -1.08339,-1.7264 -0.47583,-0.58319 -0.55193,-0.61188 -0.88915,-0.33517 -0.20283,0.16643 -0.64132,0.47469 -0.97442,0.68502 l -0.60564,0.38242 0.0469,2.63747 c 0.0258,1.45061 0.0966,2.97574 0.15731,3.38919 0.0716,0.48722 0.0338,0.8857 -0.10741,1.13249 -0.28729,0.50217 -1.25571,0.64479 -1.88141,0.27707 z m 3.85197,-12.84391 c 0.73697,-1.56584 0.94998,-2.51332 0.73167,-3.25444 -0.28589,-0.97054 -1.04939,-0.70345 -2.29496,0.80283 -0.53768,0.65023 -0.54081,0.66599 -0.54081,2.72386 0,1.13842 0.0463,2.12963 0.10293,2.20269 0.2026,0.26151 1.42451,-1.24968 2.00117,-2.47494 z m -93.542517,6.79014 c -0.575586,-0.21463 -1.550014,-0.29905 -3.161656,-0.2739 -3.84783,0.06 -3.717785,0.13511 -3.62826,-2.09458 0.19253,-4.79518 0.236151,-10.19849 0.09047,-11.20592 -0.149482,-1.03368 -0.132314,-1.18358 0.178344,-1.55714 0.403281,-0.48493 1.10177,-0.53085 1.836674,-0.12073 1.250095,0.69763 2.359872,0.87706 5.132402,0.82979 2.709019,-0.0462 3.553632,0.1 3.830971,0.66294 0.24343,0.49414 0.127564,1.2142 -0.243671,1.51431 -0.475663,0.38454 -0.988348,0.40142 -3.95207,0.13011 -3.999246,-0.3661 -4.154267,-0.36854 -4.347235,-0.0684 -0.293332,0.45619 -0.393779,3.52678 -0.122764,3.75281 0.124699,0.104 1.108322,0.17927 2.185833,0.16726 2.097171,-0.0234 2.783375,0.24132 2.783375,1.07357 0,0.81774 -0.448324,0.98458 -2.854125,1.06214 l -2.304366,0.0743 -0.02509,1.10699 c -0.02351,1.037 0.0215,2.34868 0.08348,2.4332 0.01514,0.0207 1.112705,0.0945 2.43902,0.16413 1.326316,0.0696 2.598686,0.17343 2.82749,0.2307 0.228804,0.0573 0.678092,0.14562 0.998418,0.19636 0.844679,0.13378 1.098462,0.30111 1.293144,0.8526 0.234488,0.66426 0.04342,0.98282 -0.727992,1.21379 -0.857145,0.25663 -1.31358,0.22815 -2.312383,-0.14429 z"
       id="path1469"
       sodipodi:nodetypes="sssccccssssssssssssssscsssssssssssssscssssssssssssssscsssssccsssssssssssssssssssssssssssscccsssssscsssssssssscsccsscsscsccssssssssssscssssssssssscsssssssssssssccsssssscsssssssssscssssssssscscssssscsssssssccsssccssssccsscsscssssccsssssssccsssssscsssssssssssssssssssssscsssssscsssscsssssssssscsccsssssssssscssscsssssssscsssscccsscsssscccsssscssscssscssscssssssscscsssssscsccsssssssscsssscscssssscc" />
    <text
       xml:space="preserve"
       id="text1107"
       style="font-style:normal;font-weight:normal;font-size:10.58329999999999949px;line-height:1.25;font-family:sans-serif;white-space:pre;shape-inside:url(#rect1109);fill:#000000;fill-opacity:1;stroke:none;" />
    <text
       xml:space="preserve"
       id="text1113"
       style="font-style:normal;font-weight:normal;font-size:10.58329999999999949px;line-height:1.25;font-family:sans-serif;white-space:pre;shape-inside:url(#rect1115);fill:#000000;fill-opacity:1;stroke:none;" />
    <text
       xml:space="preserve"
       id="text1119"
       style="font-style:normal;font-weight:normal;font-size:10.58329999999999949px;line-height:1.25;font-family:sans-serif;white-space:pre;shape-inside:url(#rect1121);fill:#000000;fill-opacity:1;stroke:none;" />
    <text
       xml:space="preserve"
       style="font-style:normal;font-weight:normal;font-size:4.93889px;line-height:1.25;font-family:sans-serif;letter-spacing:-0.0370417px;word-spacing:-0.79375px;fill:#000000;fill-opacity:1;stroke:none;stroke-width:0.264583"
       x="17.709187"
       y="159.52612"
       id="text1127"><tspan
         sodipodi:role="line"
         x="17.709187"
         y="159.52612"
         style="font-style:normal;font-variant:normal;font-weight:normal;font-stretch:normal;font-size:4.93889px;font-family:Courier;-inkscape-font-specification:Courier;fill:#333333;fill-opacity:1;stroke-width:0.264583"
         id="tspan36"
         dx="0 0 0 0 0 0 0 0 0 0 0 0 0 0 0 0 0 0 0 0 0 0 0 0 0 0 0 0 0 0 0 0 0 0 0 0 0.07">crypto/tech/philosophy generalist<tspan
   style="font-size:4.93889px"
   id="tspan877"
   dx="-0.07">   </tspan><tspan
   style="font-style:italic;font-size:4.93889px"
   id="tspan983">live and let live</tspan></tspan></text>
  </g>
</svg>
