<?xml version="1.0" encoding="UTF-8" standalone="no"?>
<svg
   xmlns:dc="http://purl.org/dc/elements/1.1/"
   xmlns:cc="http://creativecommons.org/ns#"
   xmlns:rdf="http://www.w3.org/1999/02/22-rdf-syntax-ns#"
   xmlns:svg="http://www.w3.org/2000/svg"
   xmlns="http://www.w3.org/2000/svg"
   xmlns:sodipodi="http://sodipodi.sourceforge.net/DTD/sodipodi-0.dtd"
   xmlns:inkscape="http://www.inkscape.org/namespaces/inkscape"
   width="19.993692mm"
   height="10.76204mm"
   viewBox="0 0 19.993693 10.76204"
   version="1.1"
   id="svg11351"
   inkscape:version="1.0 (4035a4f, 2020-05-01)"
   sodipodi:docname="links1.svg">
  <defs
     id="defs11345" />
  <sodipodi:namedview
     id="base"
     pagecolor="#ffffff"
     bordercolor="#666666"
     borderopacity="1.0"
     inkscape:pageopacity="0.0"
     inkscape:pageshadow="2"
     inkscape:zoom="14.627472"
     inkscape:cx="26.679778"
     inkscape:cy="21.382607"
     inkscape:document-units="mm"
     inkscape:current-layer="layer1"
     inkscape:document-rotation="0"
     showgrid="false"
     inkscape:window-width="1440"
     inkscape:window-height="855"
     inkscape:window-x="0"
     inkscape:window-y="23"
     inkscape:window-maximized="0" />
  <metadata
     id="metadata11348">
    <rdf:RDF>
      <cc:Work
         rdf:about="">
        <dc:format>image/svg+xml</dc:format>
        <dc:type
           rdf:resource="http://purl.org/dc/dcmitype/StillImage" />
        <dc:title />
      </cc:Work>
    </rdf:RDF>
  </metadata>
  <g
     inkscape:label="Layer 1"
     inkscape:groupmode="layer"
     id="layer1"
     transform="translate(-118.43954,-175.88337)">
    <path
       sodipodi:nodetypes="ccssscssscsccccsssccsscssscssccssscssscsssscssscsccsscccccscsscsssccsccssccccssccsscssscsscccccssscscscsssccscccssccc"
       style="fill:#ffff00;stroke:#d9d5c3;stroke-width:0.3;stroke-linejoin:round;stroke-miterlimit:4;stroke-dasharray:none;stroke-opacity:0.6;paint-order:stroke markers fill"
       id="path2346"
       d="m 118.59075,178.73515 0.12561,0.31458 c 0.0784,0.17263 0.16443,0.34155 0.23534,0.5179 0.33161,0.82474 0.13291,0.52549 0.55108,1.34591 0.1197,0.23482 0.26185,0.4557 0.38714,0.68715 0.12176,0.22491 0.23594,0.45446 0.35391,0.68168 0.18241,0.3031 0.44434,0.74298 0.63996,1.05265 0.0713,0.11286 0.0918,0.33976 0.21875,0.33495 1.28355,-0.0486 2.60509,-0.0607 3.82611,-0.48826 0.14323,-0.0502 -0.1923,-1.71063 -0.19235,-1.71096 -0.009,-0.8994 -0.28093,-1.78384 -0.18402,-2.68752 0.0252,-0.23481 0.10535,-0.45901 0.16189,-0.68743 0.79064,-1.68987 1.46669,-0.79652 -2.3379,-0.65886 -0.0721,0.002 0.14938,-0.0285 0.21651,-8e-5 0.31344,0.13284 0.40472,0.38677 0.59121,0.67295 0.30006,0.66832 0.37556,1.4097 0.49502,2.13122 0.0457,0.27617 0.11326,0.54937 0.13538,0.82887 0.0207,0.26096 -0.007,0.52377 -0.008,0.78569 -8.2e-4,0.23435 0.002,0.46872 0.002,0.70308 -4.3e-4,0.21409 -0.01,0.42837 -0.001,0.64227 0.0355,0.89249 0.0743,0.32318 0.0613,1.15505 -0.006,0.35633 -0.059,0.45499 0.004,0.79445 0.025,0.13444 0.0737,0.2625 0.11057,0.39376 0.0572,0.11863 0.0834,0.26169 0.17164,0.35591 0.32703,0.34918 0.72804,0.56812 1.19675,0.57441 1.32879,0.0178 2.66487,0.065 3.98579,-0.0913 0.31155,-0.0368 0.9242,-0.891 1.0739,-1.07671 0.43389,-0.69782 0.69845,-1.47921 0.8651,-2.29485 0.0562,-0.27487 0.0728,-0.55811 0.13192,-0.83226 0.0805,-0.37283 0.31767,-1.1127 0.43464,-1.49023 2.21612,-1.77332 -3.02886,-1.3117 -2.67087,-0.76772 0.016,0.11549 0.0439,0.22979 0.0481,0.34647 0.0131,0.36619 -0.0436,0.73204 -0.0411,1.09849 0.002,0.22395 0.0319,0.44705 0.032,0.67101 2e-4,1.24023 -0.0977,0.12187 0.0433,1.3073 0.038,1.62074 -0.0588,-0.44055 0.1549,1.02161 0.018,0.12353 -0.0376,0.25129 -0.0183,0.37461 0.0163,0.10406 0.086,0.19001 0.12198,0.28819 0.0742,0.20233 0.0615,0.20736 0.0794,0.41454 0.86665,1.50552 0.25072,0.68805 4.01141,-0.0627 0.11141,-0.0222 0.0825,-0.22678 0.11685,-0.34271 0.037,-0.12488 0.0491,-0.25852 0.0969,-0.37909 0.0702,-0.17699 0.17688,-0.33493 0.2549,-0.5081 0.0941,-0.20878 0.17395,-0.42458 0.26093,-0.63687 0.14361,-0.23477 0.29305,-0.46554 0.43083,-0.7043 0.14017,-0.24286 0.24881,-0.50702 0.40274,-0.74009 0.15256,-0.231 0.33571,-0.43717 0.51315,-0.64669 0.34886,-0.41196 0.73794,-0.78249 1.1033,-1.17699 0.0936,0.0811 0.222,-0.22727 0.33813,-0.17663 0.0531,0.0232 0.16033,0.14555 0.10302,0.14795 -0.57873,0.0241 -4.19865,0.86923 -3.54248,-0.25695 -0.004,0.0215 -0.0185,0.0432 -0.013,0.0645 0.0115,0.0443 0.0517,0.0765 0.0614,0.12134 0.0162,0.0748 0.009,0.15337 0.0147,0.22995 0.018,0.24215 0.0328,0.48368 0.0462,0.7262 -0.002,0.0758 -0.005,0.15162 -0.007,0.22741 0.004,0.076 0.0139,0.1518 0.0128,0.2279 -0.008,0.6045 -0.0399,-0.18329 -0.0137,0.46304 0.004,0.0883 0.0183,0.17636 0.0152,0.26471 -0.004,0.0993 -0.0233,0.19711 -0.035,0.29566 0.018,0.10553 0.0471,0.20958 0.054,0.31662 0.007,0.10282 -0.012,0.20577 -0.0141,0.30881 -0.006,0.30422 -4.3e-4,0.27898 0.0278,0.57347 -2.1e-4,0.56878 3.74635,0.57025 3.74654,0.002 v 0 c 0.008,-0.0918 0.0226,-0.18317 0.0249,-0.27536 0.008,-0.31419 -0.0886,-0.61724 0.031,-0.92222 -0.0147,-0.18749 -0.043,-0.37436 -0.0437,-0.56252 -0.003,-0.64995 0.029,0.1419 0.0605,-0.47444 0.0107,-0.20858 -0.0321,-0.28529 -0.0919,-0.48107 -0.0257,-0.34161 -0.0339,-0.1682 0.0309,-0.51985 -0.002,-0.0957 -0.0474,-0.18521 -0.06,-0.28002 -0.0125,-0.094 -0.006,-0.18984 -0.015,-0.28433 -0.0435,-0.48341 -0.0435,-0.14805 -0.0342,-0.49624 -0.0124,-0.14595 0.007,-0.50776 -0.23728,-0.52868 -5.67666,0.41888 -2.79347,-1.93888 -5.05572,1.85389 -0.4803,0.73931 -1.04155,1.41919 -1.44834,2.21267 -0.4904,1.09965 -0.079,0.26914 -0.63357,1.18876 -0.0614,0.10188 -0.098,0.22103 -0.16817,0.31614 -0.0373,0.0505 -0.2076,0.11345 -0.14749,0.11151 4.85969,-0.39081 3.34922,0.71802 3.12085,-1.37301 -0.0768,-0.40823 -0.16927,-0.77479 -0.14893,-1.19828 0.0104,-0.21551 0.0803,-0.42349 0.10256,-0.63795 0.06,-0.57695 0.006,-1.16309 0.0856,-1.73884 1.57074,-2.29234 -0.33512,-1.02112 -4.26467,-1.23359 -0.13662,-0.008 0.2337,0.49604 0.15649,0.61727 -0.0775,0.12164 -1.52421,0.10301 -1.58179,0.23676 -0.15636,0.36314 -0.49305,-0.4574 -0.70372,-0.1139 -0.13427,0.51253 1.44233,2.24058 1.30298,2.75152 -0.073,0.26779 -0.37494,-0.42948 -0.44965,-0.16225 -0.0637,0.22774 0.10975,1.42351 0.0345,1.64715 -0.25603,0.71269 -0.44208,1.0653 -1.04028,1.41763 -0.16039,0.0719 -0.67921,0.12061 -0.50595,0.13546 3.8659,0.0266 1.64818,1.13145 1.65905,-1.21815 -0.001,-0.64042 -0.0284,-0.60856 -0.15495,-1.25043 0.004,-0.24247 1.93869,-2.61832 1.93333,-2.86074 -0.0115,-0.52064 -1.99592,0.95176 -2.04849,0.43826 -0.0306,-0.29908 -0.0493,-0.60036 -0.10066,-0.89612 -0.0206,-0.11845 -0.35013,-1.4152 -0.38359,-1.54777 -0.0955,-0.22054 -0.18744,-0.44289 -0.28651,-0.66161 -0.0687,-0.15162 -0.37331,-0.93441 -0.64937,-0.95839 -1.68384,0.44663 -3.1905,0.0722 -4.15214,0.33007 -0.15704,0.0421 -0.18695,0.26879 -0.28042,0.40319 -0.11717,0.31329 -0.34982,0.88411 -0.38726,1.21259 -0.0302,0.26455 0.0182,0.53294 0.014,0.79943 -0.005,0.30402 -0.0427,0.60709 -0.0411,0.91116 0.004,0.64197 0.0832,1.2296 0.15161,1.86563 -0.008,0.26805 -0.0194,0.536 -0.0232,0.80414 -0.001,0.10663 -0.0917,0.31304 0.007,0.31981 1.20743,0.0824 2.41913,-0.0654 3.62899,-0.0715 0.0918,-4.2e-4 -0.186,0.0928 -0.27064,0.0546 -0.363,-0.16362 -0.49965,-0.57674 -0.67146,-0.90598 -0.55184,-0.82372 -0.30714,-0.38757 -0.71963,-1.27879 -0.13791,-0.29795 -0.44815,-0.9317 -0.54476,-1.26519 -0.0686,-0.23683 -0.0505,-0.49592 -0.13253,-0.73033 -0.0334,-0.5853 -3.88884,-0.33152 -3.8554,0.2538 z" />
    <text
       xml:space="preserve"
       style="font-style:normal;font-weight:normal;font-size:6.9878px;line-height:0.85;font-family:sans-serif;fill:#333333;fill-opacity:1;stroke:none;stroke-width:0.264583"
       x="118.10105"
       y="182.95566"
       id="text2380-5-4"><tspan
         id="tspan2404-5"
         sodipodi:role="line"
         x="118.10105"
         y="182.95566"
         style="font-style:normal;font-variant:normal;font-weight:normal;font-stretch:normal;font-size:6.9878px;font-family:Courier;-inkscape-font-specification:Courier;fill:#333333;fill-opacity:1;stroke-width:0.264583">links</tspan></text>
  </g>
</svg>
