<?xml version="1.0" encoding="UTF-8" standalone="no"?>
<svg
   xmlns:dc="http://purl.org/dc/elements/1.1/"
   xmlns:cc="http://creativecommons.org/ns#"
   xmlns:rdf="http://www.w3.org/1999/02/22-rdf-syntax-ns#"
   xmlns:svg="http://www.w3.org/2000/svg"
   xmlns="http://www.w3.org/2000/svg"
   xmlns:sodipodi="http://sodipodi.sourceforge.net/DTD/sodipodi-0.dtd"
   xmlns:inkscape="http://www.inkscape.org/namespaces/inkscape"
   sodipodi:docname="resume1.svg"
   inkscape:version="1.0 (4035a4f, 2020-05-01)"
   id="svg10109"
   version="1.1"
   viewBox="0 0 26.585018 11.183158"
   height="11.183158mm"
   width="26.585018mm">
  <defs
     id="defs10103" />
  <sodipodi:namedview
     inkscape:window-maximized="0"
     inkscape:window-y="0"
     inkscape:window-x="0"
     inkscape:window-height="900"
     inkscape:window-width="1440"
     showgrid="false"
     inkscape:document-rotation="0"
     inkscape:current-layer="layer1"
     inkscape:document-units="mm"
     inkscape:cy="21.133527"
     inkscape:cx="50.239404"
     inkscape:zoom="10.917725"
     inkscape:pageshadow="2"
     inkscape:pageopacity="0.0"
     borderopacity="1.0"
     bordercolor="#666666"
     pagecolor="#ffffff"
     id="base" />
  <metadata
     id="metadata10106">
    <rdf:RDF>
      <cc:Work
         rdf:about="">
        <dc:format>image/svg+xml</dc:format>
        <dc:type
           rdf:resource="http://purl.org/dc/dcmitype/StillImage" />
        <dc:title />
      </cc:Work>
    </rdf:RDF>
  </metadata>
  <g
     transform="translate(-135.63011,-26.158426)"
     id="layer1"
     inkscape:groupmode="layer"
     inkscape:label="Layer 1">
    <path
       d="m 138.24771,28.61716 c 0.007,0.10332 0.0147,0.20664 0.0221,0.30996 0.0396,0.17446 0.10014,0.34612 0.11881,0.52338 0.0231,0.21959 0,0.44121 0.006,0.66172 0.007,0.25582 0.0222,0.51142 0.0331,0.76714 0.0108,0.25277 0.0129,0.50595 0.032,0.75832 0.0143,0.18841 0.0454,0.3755 0.0681,0.56325 0.94795,1.82231 0.38382,1.2871 4.91693,-0.27082 0.10035,-0.0345 0.64711,-1.60116 0.6588,-1.62515 0.22248,-0.45679 0.71384,-1.11838 1.01359,-1.54246 0.51125,-0.61736 0.39297,-0.54059 0.98836,-1.02618 0.12274,-0.10009 0.23892,-0.21147 0.38321,-0.28471 0.10055,-0.051 0.22178,-0.10083 0.33482,-0.0797 0.0973,0.0182 0.31728,0.18134 0.21793,0.18294 -1.37802,0.0221 -2.75505,-0.08 -4.13257,-0.11997 0.0469,0.0161 0.11806,0.008 0.14073,0.0482 0.0594,0.10554 0.0568,0.23104 0.0819,0.34718 0.18755,0.86997 0.0461,0.12862 0.10235,1.07248 0.0118,0.19782 0.0496,0.39375 0.068,0.59117 0.0205,0.22004 0.0324,0.44065 0.0487,0.66099 -0.024,0.24627 -0.0765,0.49165 -0.072,0.73884 0.005,0.26838 0.0932,0.53187 0.1,0.80022 0.007,0.26506 -0.0531,0.52852 -0.0594,0.79358 -0.006,0.24644 0.02,0.49271 0.0231,0.73919 0.005,0.43537 -0.006,0.87078 -0.007,1.30618 0.15276,0.30129 0.033,0.62925 0.0972,0.93786 0.025,0.12019 0.096,0.2288 0.14249,0.34368 0.073,0.18031 0.12162,0.3691 0.20925,0.54406 0.05,0.0998 0.11715,0.19198 0.17573,0.28796 1.51213,-0.10848 3.04724,-0.0656 4.53638,-0.32545 0.192,-0.0335 0.14055,-0.32908 0.18952,-0.49935 0.0644,-0.2239 0.0819,-0.45756 0.14981,-0.68061 0.0851,-0.27934 0.20827,-0.54816 0.30846,-0.82341 0.2269,-0.62339 0.4418,-1.25485 0.65795,-1.88122 0.11406,-0.30793 0.20729,-0.62274 0.34216,-0.92378 0.1758,-0.39238 0.64205,-1.18021 0.88309,-1.56211 0.003,-0.005 0.76184,-1.14729 0.79992,-1.19555 0.13181,-0.16708 0.29153,-0.31484 0.4373,-0.47226 0.55547,-0.57733 0.12924,-0.18706 0.72724,-0.62164 0.0633,-0.046 0.10905,-0.11219 0.17945,-0.14894 0.0577,-0.0301 0.12829,-0.0583 0.19348,-0.0457 0.0576,0.0112 0.18824,0.10672 0.12936,0.10825 -1.38695,0.036 -2.77506,-0.002 -4.16259,-0.003 0.009,-0.0685 0.0232,-0.13668 0.0259,-0.20562 8.5e-4,-0.0225 -0.0194,0.0425 -0.0203,0.065 -0.005,0.10966 0.0207,0.2205 0.004,0.3292 -0.026,0.16882 -0.0918,0.33078 -0.13126,0.49746 -0.26669,1.1254 0.009,0.19439 -0.3937,1.42466 -0.27874,0.98396 -0.20781,0.68551 -0.43478,1.67834 -0.0626,0.27389 -0.14354,0.54521 -0.18271,0.8226 -0.0378,0.26792 -0.027,0.53964 -0.0477,0.80908 -0.13531,1.76505 -0.029,-0.12951 -0.11361,1.55289 0.16516,0.79196 0.0553,0.50026 0.3838,1.20819 0.0756,0.16286 0.14309,0.32945 0.23489,0.4854 0.0791,0.13445 0.10893,0.3601 0.27619,0.38285 4.60519,0.62647 3.77376,1.36596 5.03641,-0.2845 0.11685,-0.21439 0.24578,-0.4238 0.35054,-0.64319 0.11162,-0.23374 0.19828,-0.47651 0.29785,-0.71462 1.03447,-2.47365 -0.40389,0.98665 0.61665,-1.51835 0.46208,-1.13422 0.18373,-0.33854 0.53515,-1.43107 0.0892,-0.19963 0.15369,-0.4097 0.2676,-0.59889 0.10776,-0.17898 0.2559,-0.33597 0.39284,-0.49801 0.25773,-0.30501 0.58977,-0.68458 0.95524,-0.8954 0.0752,-0.0434 0.16235,-0.0668 0.24352,-0.10028 1.43505,0.46739 0.94281,0.2843 -3.92554,0.18607 -0.0623,-0.002 0.0334,-0.3526 0.12555,-0.15415 0.022,0.0474 0.12571,0.56479 0.12669,0.56954 0.006,0.12436 0.0117,0.24872 0.0176,0.37307 0.0364,0.12833 0.0983,0.25292 0.10934,0.385 0.0108,0.12929 -0.0504,0.25729 -0.0449,0.38684 0.005,0.128 0.0608,0.2507 0.0774,0.37792 0.0956,0.73226 -0.0858,0.009 0.12981,0.74445 0.0446,0.12122 0.0892,0.24245 0.13383,0.36368 0.0572,0.11474 0.12523,0.22557 0.17157,0.3442 0.0391,0.10009 0.0464,0.20858 0.0837,0.30923 0.0929,0.25104 0.2451,0.46817 0.41976,0.67738 0.12142,0.5594 4.52003,-0.21265 4.39862,-0.77205 v 0 c -0.0463,-0.0193 -0.0966,-0.0323 -0.13903,-0.0578 -0.18983,-0.11406 -0.26901,-0.32994 -0.36264,-0.50501 -0.0486,-0.091 -0.11386,-0.17618 -0.14609,-0.27288 -0.0319,-0.0959 -0.0293,-0.19842 -0.044,-0.29762 -0.10194,-0.23705 -0.19246,-0.39724 -0.21565,-0.65594 -0.0105,-0.11743 0.0262,-0.23553 0.0176,-0.35308 -0.009,-0.12372 -0.0477,-0.24426 -0.0706,-0.36654 -0.0914,-0.48828 -0.0601,-0.29501 -0.11699,-0.80179 -0.0448,-0.34992 -0.0761,-0.85585 -0.18142,-1.18862 -0.053,-0.16753 -0.0118,-0.47127 -0.2045,-0.48913 -4.12616,-0.38262 -3.48566,-0.88711 -4.70544,0.26384 -0.17464,0.19137 -0.36715,0.37031 -0.52661,0.57211 -0.10277,0.13007 -0.18656,0.27145 -0.27856,0.40787 -0.36509,0.54141 -0.72442,1.08471 -0.90219,1.70516 -0.55468,1.53881 0.0724,-0.14926 -0.58325,1.45118 -0.35259,0.86073 -0.527,1.67891 -1.33296,2.31535 -1.50006,-0.26126 0.34952,0.0678 3.57269,0.26452 0.0785,0.005 -0.14933,-0.0476 -0.21657,-0.0843 -0.1225,-0.0669 -0.26146,-0.12336 -0.34972,-0.2249 -0.17339,-0.1995 -0.27959,-0.72079 -0.3367,-0.93117 -0.0359,-0.21278 -0.10223,-0.42318 -0.10773,-0.63834 -0.006,-0.23963 0.0454,-0.47768 0.0731,-0.71608 0.12574,-1.08072 0.29899,-2.16758 0.76459,-3.17871 0.0683,-0.25824 0.12029,-0.52041 0.20485,-0.77472 0.49983,-1.50326 0.0991,0.0595 0.45616,-1.28835 0.046,-0.1738 0.11251,-0.34595 0.12364,-0.52433 0.022,-0.35316 -0.11822,-0.63926 -0.23445,-0.96643 -1.48135,-0.0359 -2.96257,-0.13913 -4.44406,-0.10795 -0.0914,0.002 -0.0993,0.13806 -0.15283,0.20465 -0.32914,0.40928 -0.7573,0.75196 -1.01337,1.20937 -1.04433,1.54057 0.34101,-0.54136 -0.70208,1.16268 -0.14259,0.23294 -0.33522,0.44077 -0.46185,0.68106 -0.13059,0.24776 -0.19058,0.52136 -0.30568,0.77526 -0.89088,1.9653 -0.0138,-0.26456 -0.79411,1.81268 -0.13384,0.31771 -0.2757,0.63279 -0.40154,0.95314 -0.12079,0.30753 -0.20288,0.62738 -0.33817,0.92998 -0.12174,0.27229 -0.29168,0.52513 -0.43106,0.79049 -0.0958,0.18244 -0.16539,0.37637 -0.27445,0.55269 -0.0451,0.0728 -0.27618,0.18449 -0.18357,0.18779 1.4105,0.0503 2.82304,-0.0289 4.23457,-0.0433 -0.0192,0.0542 -0.004,0.13312 -0.0576,0.16258 -0.15834,0.0862 -0.21878,-0.089 -0.26211,-0.15503 -0.0496,-0.0755 -0.11336,-0.14452 -0.15124,-0.22539 -0.11624,-0.2482 -0.17079,-0.57525 -0.2278,-0.83144 -0.0272,-1.4549 0.0217,0.35692 -0.0739,-1.23146 -0.0145,-0.24171 -0.013,-0.48399 -0.0198,-0.72597 -0.008,-0.26486 -0.0326,-0.52975 -0.0232,-0.79457 0.01,-0.2685 0.075,-0.53413 0.0795,-0.80273 0.004,-0.24921 -0.0355,-0.49744 -0.0533,-0.74616 0.021,-0.33477 0.0735,-0.94965 0.0436,-1.29435 -0.0179,-0.20651 -0.0968,-0.4069 -0.10792,-0.61379 -0.0107,-0.19838 0.0554,-0.39631 0.0427,-0.5946 -0.0241,-0.37771 -0.22167,-0.73609 -0.21051,-1.11908 -1.48913,-0.12364 -2.97271,-0.32735 -4.46738,-0.37091 -0.14884,-0.005 -0.25409,0.14197 -0.36624,0.23006 -0.11157,0.0877 -0.20556,0.19216 -0.30099,0.29407 -0.46343,0.49488 -0.8461,1.04603 -1.24099,1.58485 -0.16425,0.26442 -0.34331,0.52184 -0.49276,0.79327 -0.46326,0.84138 -0.34822,0.85916 -0.85504,1.67457 -0.13688,0.22023 -0.7372,0.58202 -0.46231,0.6325 3.93849,0.72323 4.30347,-1.26152 3.73455,0.61701 -0.20256,-0.62678 -0.13303,-0.29325 -0.17198,-1.1312 -0.0152,-0.32622 -0.0492,-1.06077 -0.0265,-1.40272 0.0117,-0.17565 0.0505,-0.34899 0.0765,-0.52338 0.0154,-0.10339 0.0319,-0.20664 0.0479,-0.30996 0,-0.57811 -4.5458,-0.57811 -4.5458,0 z"
       id="path2350"
       style="fill:#ffff00;stroke:#d9d5c3;stroke-width:0.3;stroke-linejoin:round;stroke-opacity:0.60000002;stroke-miterlimit:4;stroke-dasharray:none;paint-order:stroke markers fill" />
    <text
       xml:space="preserve"
       style="font-style:normal;font-weight:normal;font-size:7.62017px;line-height:0.85;font-family:sans-serif;fill:#333333;fill-opacity:1;stroke:none;stroke-width:0.264583"
       x="135.22455"
       y="33.353519"
       id="text2380-5-4-0"><tspan
         id="tspan2404-5-4"
         sodipodi:role="line"
         x="135.22455"
         y="33.353519"
         style="font-style:normal;font-variant:normal;font-weight:normal;font-stretch:normal;font-size:7.62017px;font-family:Courier;-inkscape-font-specification:Courier;fill:#333333;fill-opacity:1;stroke-width:0.264583">résumé</tspan></text>
  </g>
</svg>
