<?xml version="1.0" encoding="UTF-8" standalone="no"?>
<svg
   xmlns:dc="http://purl.org/dc/elements/1.1/"
   xmlns:cc="http://creativecommons.org/ns#"
   xmlns:rdf="http://www.w3.org/1999/02/22-rdf-syntax-ns#"
   xmlns:svg="http://www.w3.org/2000/svg"
   xmlns="http://www.w3.org/2000/svg"
   xmlns:sodipodi="http://sodipodi.sourceforge.net/DTD/sodipodi-0.dtd"
   xmlns:inkscape="http://www.inkscape.org/namespaces/inkscape"
   width="34.380753mm"
   height="9.876441mm"
   viewBox="0 0 34.380753 9.876441"
   version="1.1"
   id="svg1528"
   inkscape:version="1.0 (4035a4f, 2020-05-01)"
   sodipodi:docname="aboutme1.svg">
  <defs
     id="defs1522" />
  <sodipodi:namedview
     fit-margin-bottom="0"
     fit-margin-right="0"
     fit-margin-left="0"
     fit-margin-top="0"
     id="base"
     pagecolor="#ffffff"
     bordercolor="#666666"
     borderopacity="1.0"
     inkscape:pageopacity="0.0"
     inkscape:pageshadow="2"
     inkscape:zoom="0.35"
     inkscape:cx="-190.74279"
     inkscape:cy="181.52128"
     inkscape:document-units="mm"
     inkscape:current-layer="layer1"
     inkscape:document-rotation="0"
     showgrid="false"
     inkscape:window-width="1252"
     inkscape:window-height="855"
     inkscape:window-x="0"
     inkscape:window-y="23"
     inkscape:window-maximized="0" />
  <metadata
     id="metadata1525">
    <rdf:RDF>
      <cc:Work
         rdf:about="">
        <dc:format>image/svg+xml</dc:format>
        <dc:type
           rdf:resource="http://purl.org/dc/dcmitype/StillImage" />
        <dc:title></dc:title>
      </cc:Work>
    </rdf:RDF>
  </metadata>
  <g
     transform="translate(-86.375103,-106.94273)"
     inkscape:label="Layer 1"
     inkscape:groupmode="layer"
     id="layer1">
    <g
       id="g1507"
       transform="translate(71.59015,93.897247)">
      <path
         d="m 19.852518,15.508294 c -0.0036,0.11449 -0.02658,0.229411 -0.01062,0.343471 0.127667,0.912276 0.201164,0.239669 0.234882,1.296487 0.0083,0.261211 -0.0481,0.521913 -0.0488,0.783178 -3.13e-4,0.111448 0.08092,1.314539 0.09052,1.459804 0.01105,0.75643 -0.02437,0.379726 0.08256,1.030414 0.256194,1.559018 -0.08352,1.088977 6.006079,0.521895 0.407108,-0.03791 0.272999,-0.494806 0.411839,-0.741678 0.150768,-0.268083 0.304655,-0.535449 0.456983,-0.803174 1.479907,-2.342886 -0.354564,0.514363 1.290817,-1.894764 0.452169,-0.662055 0.624536,-1.091107 1.188515,-1.710257 0.301044,-0.330494 0.87317,-0.77818 1.256892,-1.090165 -1.416714,-0.150555 1.010472,-0.31248 0.723048,-0.301331 -1.674114,0.06494 -3.344346,0.176933 -5.020678,0.211521 -0.06149,0.0013 0.03332,-0.141661 0.06816,-0.109339 0.161135,0.149481 0.294852,0.790071 0.319121,0.878526 0.161587,0.685323 0.351172,1.363937 0.25194,2.060143 -0.03439,0.241307 -0.153711,0.47607 -0.180012,0.71779 -0.0257,0.23618 0.02865,0.473335 0.02464,0.71007 -0.0041,0.240494 -0.03259,0.480568 -0.04888,0.720852 -0.04864,1.246852 0.01653,0.158026 -0.11415,1.332169 -0.01972,0.177193 -0.01758,0.35531 -0.04293,0.532211 -0.01979,0.138107 -0.05279,0.275489 -0.09235,0.411859 -0.02961,0.102084 -0.10809,0.198979 -0.114948,0.302701 -0.0062,0.09377 0.05107,0.184868 0.0766,0.277302 1.95771,0.09731 3.911031,0.34178 5.873125,0.291943 0.259307,-0.0066 0.208267,-0.303379 0.329908,-0.449501 0.139037,-0.167018 0.317435,-0.320143 0.451261,-0.488881 0.17134,-0.216035 0.295486,-0.44629 0.462785,-0.663608 0.195939,-0.254519 0.418543,-0.500339 0.626262,-0.751033 0.212084,-0.255957 0.422092,-0.512612 0.633139,-0.768916 0.49084,-0.676528 1.117267,-1.304736 1.717476,-1.941955 0.0024,-0.0026 0.577525,-0.661008 0.685601,-0.710713 0.0798,-0.0367 0.196172,0.01005 0.294257,0.01508 -1.781912,0.06355 -3.563822,0.127109 -5.345734,0.190663 0.0067,-0.03863 -0.01322,-0.148439 0.02011,-0.115891 0.210557,0.205677 0.14814,0.530887 0.144644,0.742675 -0.02609,1.581043 -0.02822,-0.443954 -0.0189,1.222175 -0.370879,0.961718 -0.164533,0.260051 -0.283407,1.178141 -0.02125,0.164092 -0.08105,0.326029 -0.0905,0.490568 -0.0085,0.147565 0.04135,0.294727 0.03693,0.442363 -0.02038,0.680709 -0.153426,0.110684 0.04415,0.715011 0.01476,0.09407 -0.0017,0.19232 0.04424,0.282199 0.764852,1.495272 3.222761,0.471185 6.067381,0.186979 0.236971,-0.02367 0.236016,-0.266228 0.355836,-0.398681 0.612685,-0.677276 0.2758,-0.258279 0.82886,-1.024263 0.556461,-0.968688 0.109118,-0.258532 0.833102,-1.22906 0.154384,-0.206959 0.274444,-0.424597 0.446502,-0.625813 0.171597,-0.200675 0.399341,-0.379955 0.581768,-0.576712 0.756943,-0.816409 0.05752,-0.248609 1.010134,-0.933911 0.170001,-0.109118 0.348534,-0.21309 0.510002,-0.327353 0.117815,-0.08337 0.306559,-0.343082 0.587979,-0.321884 0.115713,0.0087 0.410642,0.11641 0.29428,0.120252 -5.382787,0.177736 -5.465298,1.156075 -5.262198,-0.09969 0.272619,0.0048 0.178171,0.290282 0.184171,0.360222 0.08435,0.983229 0.08006,-0.426362 -0.111363,0.640496 -0.01987,0.110779 0.02778,0.222297 0.04168,0.333445 0.0076,0.109655 0.04365,0.220013 0.02275,0.328965 -0.02061,0.107505 -0.127507,0.203696 -0.145527,0.31139 -0.01723,0.102925 0.03836,0.205902 0.04165,0.30939 0.0032,0.09994 -0.03225,0.199788 -0.02227,0.299546 0.117068,1.170472 0.06836,-0.599035 0.08389,0.557088 0.119411,0.224411 0.171835,0.466767 0.348334,0.676003 0.101399,0.522798 5.900875,0.06577 5.799477,-0.457025 v 0 c -0.0011,-0.02509 0.01907,-0.05458 -0.0032,-0.07527 -0.04272,-0.03962 -0.123319,-0.05627 -0.175796,-0.09079 -0.14913,-0.09812 -0.129448,-0.127623 -0.188905,-0.264886 -0.09795,-0.219817 -0.06733,-0.133154 -0.140056,-0.381161 -0.02369,-0.08078 -0.07094,-0.160486 -0.06848,-0.242654 0.0028,-0.0914 0.06629,-0.178259 0.08378,-0.26899 0.03169,-0.164459 0.03006,-0.469903 0.03317,-0.631893 0.03299,-0.114168 0.08922,-0.226583 0.09899,-0.342506 0.0072,-0.08607 -0.08712,-0.661872 -0.08441,-0.742125 0.0042,-0.122036 0.06823,-0.241399 0.07009,-0.363459 0.0039,-0.251984 -0.09611,-0.390036 -0.211847,-0.626437 -0.658176,-1.526163 -0.0431,-0.572442 -5.879716,-0.378093 -0.316013,0.01052 -0.444754,0.35527 -0.579393,0.462209 -1.425092,1.1319 0.529762,-0.664404 -0.877177,0.672058 -0.309504,0.350151 -0.639528,0.693103 -0.933704,1.048585 -1.291389,1.560517 0.386092,-0.375717 -0.939699,1.25103 -0.172659,0.211854 -0.377695,0.412422 -0.556192,0.622302 -0.161972,0.190448 -0.309976,0.38559 -0.464964,0.578385 -0.234362,0.338452 -0.320651,0.57194 -0.745689,0.824498 -0.09553,0.05676 -0.47745,0.112558 -0.346966,0.115988 1.594849,0.04194 5.917299,-0.750976 5.201918,0.320898 -0.01891,0.02833 -0.07435,-0.03929 -0.111521,-0.05894 -0.05241,-0.07631 -0.12611,-0.148033 -0.157243,-0.228942 -0.03824,-0.09939 -0.0311,-0.203708 -0.04839,-0.305445 -0.02235,-0.131529 -0.07443,-0.262066 -0.07052,-0.39434 0.0048,-0.162765 0.06984,-0.322589 0.09652,-0.484492 0.0887,-0.538378 0.07954,-0.623652 0.115181,-1.180044 0.109717,-0.687963 0.09982,-0.598247 0.191645,-1.28333 0.04815,-0.359203 0.1279,-0.733075 0.04717,-1.094857 -0.04606,-0.206377 0.101047,-0.580837 -0.222979,-0.608996 -1.919086,-0.166775 -3.872662,0.05653 -5.808993,0.0848 -0.07491,0.09536 -0.145485,0.192147 -0.224736,0.286066 -0.09428,0.111734 -0.207021,0.217083 -0.295683,0.330672 -1.157106,1.482434 0.682566,-0.772022 -0.66068,1.01109 -0.353862,0.469739 -0.854137,0.891845 -1.130109,1.387395 -0.615997,0.714191 -1.224385,1.421718 -2.024134,2.061656 -0.174234,0.139418 -0.343446,0.285063 -0.558425,0.399053 -0.09122,0.04837 -0.453259,0.06409 -0.335879,0.07514 1.848924,0.174035 3.712367,0.278266 5.56855,0.417399 -0.344256,0.05821 -0.142388,0.0624 -0.12291,-0.243954 0.0087,-0.137306 -0.0192,-0.274721 -0.01613,-0.412124 0.01389,-0.622747 0.108005,-1.245742 0.04849,-1.86926 0.01022,-0.245368 0.02047,-0.490736 0.03069,-0.736105 0.04767,-0.24168 0.124453,-0.481743 0.143012,-0.725038 0.01852,-0.242704 -0.02902,-0.485703 -0.03212,-0.728684 -0.0031,-0.244483 0.0067,-0.48897 0.01347,-0.733424 0.02772,-0.996768 0.107489,-0.464238 -0.18391,-1.432318 0.01602,-0.38833 0.07761,-0.848701 -0.06257,-1.236194 -0.08289,-0.229114 0.0042,-0.6356 -0.36147,-0.666689 -5.134606,-0.436581 -4.97267,-0.671759 -6.598875,0.826896 -0.133574,0.177931 -0.258916,0.358472 -0.400719,0.533797 -0.18427,0.227826 -0.415453,0.440567 -0.57717,0.675247 -0.184491,0.267731 -0.276298,0.558762 -0.458174,0.827219 -0.213286,0.314823 -0.48558,0.612039 -0.724953,0.919149 -0.884824,1.135204 -0.595481,0.750563 -1.36924,1.872428 -0.215622,0.235546 -0.38176,0.492589 -0.646863,0.706639 -0.118119,0.09537 -0.665196,0.180951 -0.477163,0.200925 1.798359,0.191038 3.630791,0.214385 5.445396,0.326843 0.08447,0.0052 -0.199965,0.03632 -0.25448,-0.0051 -0.314939,-0.239522 -0.262952,-0.638202 -0.289367,-0.908588 -0.216777,-1.116617 -0.08615,-0.214847 -0.12559,-1.419449 -0.0085,-0.261254 -0.05193,-0.521872 -0.05391,-0.783178 -0.0042,-0.555783 0.101901,-1.094598 0.253645,-1.639958 0,-0.520286 -5.7716,-0.520286 -5.7716,0 z"
         id="path2342"
         style="fill:#ffff00;fill-opacity:1;stroke:none;stroke-width:1.6;stroke-linejoin:round"
         inkscape:export-filename="/Users/alexandratran/website/site/images/aboutme1.svg.png"
         inkscape:export-xdpi="399.64999"
         inkscape:export-ydpi="399.64999" />
      <path
         d="m 20.632246,16.166758 c -0.06755,0.855843 -0.01992,1.714275 0.0069,2.570778 0.04456,0.885969 -0.01396,-0.0052 0.0676,0.72227 0.05936,0.529506 -0.03413,-0.0277 0.04558,0.351051 0.0061,0.02906 0.0016,0.06085 0.01356,0.08805 0.01558,0.03562 0.04453,0.06375 0.06679,0.09562 0.472921,0.13347 0.210995,0.07673 1.159659,0.04783 0.393734,-0.01199 0.841769,-0.162389 1.163437,-0.385232 0.146249,-0.10132 0.267465,-0.234693 0.401197,-0.352039 0.385498,-0.419228 0.265375,-0.270386 0.589254,-0.686847 0.06808,-0.08754 0.137664,-0.174032 0.201877,-0.264449 0.04777,-0.06726 0.0879,-0.139659 0.133805,-0.208206 0.137161,-0.204814 0.08013,-0.07881 0.14657,-0.259553 0.0079,-0.0263 0.01192,-0.05412 0.02379,-0.07889 0.01881,-0.03922 0.0431,-0.07568 0.06761,-0.111624 0.205803,-0.30178 0.253237,-0.354189 0.529658,-0.655294 0.384447,-0.418777 0.372493,-0.390781 0.789259,-0.76892 0.293395,-0.234887 0.404612,-0.336035 0.707293,-0.536077 0.08518,-0.0563 0.171129,-0.112325 0.262554,-0.157791 0.06085,-0.03026 0.260038,-0.06844 0.192084,-0.0683 -0.822461,0.0018 -0.734163,-0.11528 -0.606285,0.403979 0.04352,0.739813 0.09116,1.479325 0.150689,2.218043 0.01992,0.247081 0.04407,0.493811 0.0635,0.740931 0.06542,0.832159 -0.0034,0.360658 0.129885,1.082019 0.05711,0.122325 0.09297,0.257039 0.171314,0.366975 0.172026,0.24137 0.400254,0.337348 0.672967,0.428903 0.406582,0.136496 0.842894,0.177795 1.264894,0.239582 0.359804,-0.01848 0.731533,0.03828 1.079417,-0.05541 0.259446,-0.06988 0.973067,-0.888683 1.063156,-0.98746 0.555056,-0.608587 0.883956,-1.006077 1.428752,-1.627334 0.21696,-0.247412 0.43665,-0.49242 0.654974,-0.738632 0.05303,-0.511473 0.82121,-0.568722 0.967664,-1.011835 0.03561,-0.107724 -0.348898,0.0014 -0.321604,0.111436 0.0446,0.179946 0.307414,0.212027 0.435093,0.346445 0.440606,0.463858 0.474365,0.642608 0.743892,1.202596 0.356792,0.763277 0.487561,1.607224 0.845119,2.369888 0.188341,0.401726 0.410191,0.72727 0.646001,1.098859 0.130072,0.175072 0.352814,0.511833 0.547428,0.65367 0.389214,0.283671 0.944441,-0.04119 1.267134,-0.27496 0.177803,-0.128805 0.203778,-0.388988 0.302307,-0.585197 0.123142,-0.245217 0.241777,-0.492671 0.362667,-0.739007 0.366073,-0.800885 0.35851,-0.84748 0.817701,-1.599985 0.139838,-0.229162 0.29525,-0.448451 0.443474,-0.672284 0.118748,-0.179321 0.229414,-0.364351 0.357437,-0.537172 0.101522,-0.137047 0.222353,-0.25873 0.330099,-0.390939 0.07333,-0.08998 0.142003,-0.183646 0.213006,-0.275472 0.110641,-0.08394 0.232302,-0.258539 0.380572,-0.295913 0.0098,-0.0025 0.0195,0.0051 0.02924,0.0077 0.03553,-0.118837 -0.804764,-0.370114 -0.840301,-0.251277 v 0 c -0.09933,0.146008 -0.23549,0.262705 -0.332921,0.410725 -0.30769,0.403922 -0.159209,0.193346 -0.477844,0.691536 -0.116259,0.181769 -0.236913,0.360825 -0.348051,0.54577 -0.135752,0.225907 -0.263867,0.456338 -0.392405,0.686427 -0.390122,0.698345 -0.48499,0.89021 -0.858822,1.601894 -0.127125,0.242024 -0.242093,0.490835 -0.381373,0.726073 -0.110142,0.186022 -0.400509,0.322283 -0.365664,0.535641 0.02963,0.181437 0.362248,0.117624 0.493387,0.246463 0.0549,0.05394 -0.159813,0.04197 -0.230585,0.01172 -0.183928,-0.07858 -0.510078,-0.486996 -0.611553,-0.601602 -0.28883,-0.437647 -0.399854,-0.574811 -0.63196,-1.061673 -0.09495,-0.199157 -0.18481,-0.401654 -0.254763,-0.610904 -0.06509,-0.194697 -0.09031,-0.40086 -0.149214,-0.597515 -0.144776,-0.483316 -0.261083,-0.709968 -0.464865,-1.17744 -0.267974,-0.550911 -0.341242,-0.76363 -0.709781,-1.26473 -0.127446,-0.173288 -0.21415,-0.429904 -0.420946,-0.489126 -0.366311,-0.104905 -0.779283,-0.07418 -1.142358,0.04143 -0.427618,0.136161 -0.388363,0.968754 -0.854981,1.03999 -0.525163,0.612379 -0.812369,0.959174 -1.372881,1.560503 -0.246631,0.264593 -0.491461,0.531576 -0.753972,0.780421 -0.214838,0.203654 -0.437163,0.401117 -0.676388,0.575477 -0.147883,0.107784 -0.436806,0.08917 -0.47963,0.267089 -0.03171,0.13174 0.269027,0.03269 0.403541,0.04904 -0.126566,-0.0093 -0.253603,-0.01363 -0.379698,-0.02797 -0.255446,-0.02904 -0.63785,-0.09561 -0.885446,-0.158066 -0.253882,-0.06404 -0.447942,-0.105198 -0.63162,-0.301816 -0.0808,-0.08649 -0.128872,-0.19858 -0.193309,-0.29787 -0.04292,-0.151686 -0.09956,-0.300146 -0.128762,-0.45506 -0.05473,-0.290283 -0.110372,-1.084601 -0.130227,-1.344927 -0.05653,-0.74117 -0.1125,-1.484057 -0.08169,-2.228098 -0.0105,-0.162084 0.104444,-0.397381 -0.03151,-0.486256 -0.394308,-0.257765 -0.770405,-0.232583 -1.095375,-0.0242 -0.08284,0.05312 -0.159642,0.115228 -0.236657,0.176485 -0.05983,0.04759 -0.656277,0.550112 -0.672608,0.563849 -0.757841,0.679709 -0.08067,0.04831 -0.793355,0.784535 -0.288469,0.297994 -0.418269,0.374644 -0.648288,0.685938 -0.0441,0.05968 -0.07512,0.137918 -0.104641,0.208013 -0.0078,0.03154 -0.01089,0.06458 -0.02326,0.0946 -0.02023,0.04907 -0.04885,0.09425 -0.07387,0.141058 -0.03549,0.06639 -0.06853,0.134224 -0.107654,0.198542 -0.206098,0.338815 -0.457355,0.644586 -0.758984,0.903576 -0.347874,0.279794 -0.386644,0.365779 -0.817427,0.49962 -0.139792,0.04343 -0.286908,0.0598 -0.432128,0.07824 -0.106864,0.01357 -0.430087,0.0093 -0.322686,0.01763 0.488221,0.03787 0.743973,-0.07219 0.440197,0.04115 -0.01617,0.01172 -0.02923,0.04037 -0.04852,0.03518 -0.0186,-0.005 -0.01308,-0.03627 -0.02093,-0.05385 -0.01782,-0.0399 -0.04193,-0.07714 -0.05603,-0.118497 -0.09979,-0.292729 -0.109466,-0.609135 -0.15639,-0.911579 -0.01915,-0.163184 -0.04859,-0.325487 -0.05747,-0.48955 -0.0097,-0.179978 -0.0026,-0.36053 0.0018,-0.540718 0.0049,-0.205117 0.03262,-0.791226 0.06236,-1.012633 0.02181,-0.162404 0.07906,-0.318628 0.09678,-0.481963 0.0047,-0.122642 -0.862525,-0.155753 -0.867207,-0.03311 z"
         id="path2412"
         style="fill:#e7b32d;fill-opacity:0.5;stroke:none;stroke-width:1.6;stroke-linejoin:round"
         inkscape:export-filename="/Users/alexandratran/website/site/images/aboutme1.svg.png"
         inkscape:export-xdpi="399.64999"
         inkscape:export-ydpi="399.64999" />
      <text
         id="text2380"
         y="20.389654"
         x="14.300211"
         style="font-style:normal;font-weight:normal;font-size:7.35371px;line-height:1.25;font-family:sans-serif;fill:#333333;fill-opacity:1;stroke:none;stroke-width:0.264584"
         xml:space="preserve"
         inkscape:export-filename="/Users/alexandratran/website/site/images/aboutme1.svg.png"
         inkscape:export-xdpi="399.64999"
         inkscape:export-ydpi="399.64999"><tspan
           style="font-style:normal;font-variant:normal;font-weight:normal;font-stretch:normal;font-size:7.35371px;font-family:Courier;-inkscape-font-specification:Courier;fill:#333333;fill-opacity:1;stroke-width:0.264584"
           y="20.389654"
           x="14.300211"
           id="tspan2378"
           sodipodi:role="line">about me</tspan></text>
    </g>
  </g>
</svg>
