<?xml version="1.0" encoding="UTF-8" standalone="no"?>
<svg
   xmlns:dc="http://purl.org/dc/elements/1.1/"
   xmlns:cc="http://creativecommons.org/ns#"
   xmlns:rdf="http://www.w3.org/1999/02/22-rdf-syntax-ns#"
   xmlns:svg="http://www.w3.org/2000/svg"
   xmlns="http://www.w3.org/2000/svg"
   xmlns:sodipodi="http://sodipodi.sourceforge.net/DTD/sodipodi-0.dtd"
   xmlns:inkscape="http://www.inkscape.org/namespaces/inkscape"
   sodipodi:docname="aboutme2.svg"
   inkscape:version="1.0 (4035a4f, 2020-05-01)"
   id="svg6398"
   version="1.1"
   viewBox="0 0 127.47654 34.644482"
   height="34.644482mm"
   width="127.47654mm">
  <defs
     id="defs6392">
    <clipPath
       id="clipPath2431"
       clipPathUnits="userSpaceOnUse">
      <g
         inkscape:label="Clip"
         id="use2433"
         style="fill:#e7b32d;fill-opacity:0.4">
        <g
           id="g7618"
           style="fill:#e7b32d;fill-opacity:0.4">
          <path
             style="opacity:1;fill:#e7b32d;fill-opacity:0.4;stroke:none;stroke-width:1.6;stroke-linejoin:round"
             id="path7616"
             d="m 114.63039,44.962683 c -0.002,0.111434 -0.0118,0.22294 -0.007,0.334306 0.0122,0.295735 0.0379,0.590759 0.0575,0.886095 0.10384,1.565441 0.23241,3.131439 0.42246,4.689162 0.0698,0.571829 0.15984,1.140995 0.23976,1.711495 0.28804,1.239567 0.24542,2.527141 0.62214,3.748177 0.078,0.252754 0.19747,0.490805 0.29976,0.734738 0.0769,0.183261 0.13451,0.37688 0.23761,0.546764 0.0902,0.14865 0.22416,0.265882 0.33624,0.398822 1.15241,0.933347 3.15111,0.872686 4.23655,-0.139404 0.75752,-0.706337 1.55559,-2.004343 2.09188,-2.797908 0.50738,-0.750776 1.01117,-1.503971 1.51676,-2.255956 1.89337,-3.191947 3.99464,-6.257817 6.36858,-9.112102 0.40356,-0.485219 0.8048,-0.973841 1.24153,-1.429432 0.34365,-0.358492 0.73068,-0.672719 1.09602,-1.009076 -0.82944,-0.25695 2.64036,-1.152565 2.08278,-0.680757 -0.33621,0.284496 -1.04504,-0.139949 -1.30337,0.216754 -0.18184,0.251077 0.56001,0.286293 0.78334,0.501304 0.67502,0.649896 0.6841,1.093663 0.96185,1.97164 0.0541,0.434748 0.13796,0.866818 0.16241,1.304237 0.0504,0.902335 -0.0465,2.108655 -0.0876,3.00304 -0.21163,4.60703 0.0751,-1.571993 -0.0784,3.251604 -0.0183,0.573808 -0.0619,1.146522 -0.0929,1.719781 0.007,0.565375 -0.008,1.131465 0.0216,1.696128 0.0283,0.545457 0.10807,1.087096 0.15093,1.631601 0.0375,0.475808 0.0647,0.952402 0.09,1.429011 0.0206,0.388001 5.3e-4,0.778992 0.0477,1.164662 0.0841,0.687123 0.27108,1.102108 0.50015,1.739416 0.48053,0.615032 1.04244,1.239813 1.77696,1.560052 1.13483,0.494768 2.92481,0.17368 3.82879,-0.06139 0.37056,-0.09636 0.56637,-0.515374 0.84955,-0.773062 1.21469,-2.230335 1.06403,-1.83143 2.17772,-4.521597 0.49042,-1.18463 0.95393,-2.380327 1.41276,-3.577545 0.48038,-1.253458 0.90233,-2.529335 1.40475,-3.774125 0.46268,-1.146355 1.00796,-2.257798 1.4894,-3.396406 0.414,-0.979078 0.79775,-1.970667 1.19662,-2.956002 0.71064,-1.868247 1.37888,-3.684939 2.1666,-5.522166 0.34236,-0.798497 0.67134,-1.605532 1.08144,-2.371447 0.51532,-0.962438 1.49186,-2.390135 2.28951,-3.209994 0.30369,-0.312145 0.67367,-0.552098 1.0105,-0.828146 0.32907,-0.108977 1.31701,-0.220231 0.9872,-0.326924 -0.45738,-0.147963 -1.09068,-0.156554 -1.43042,0.183538 -0.21339,0.213606 0.54269,0.27872 0.76908,0.478478 0.29913,0.263935 0.55864,0.573839 0.79104,0.898078 0.73512,1.025612 0.89745,1.609971 1.39777,2.793841 0.1747,0.610547 0.3843,1.212176 0.52412,1.831644 0.15088,0.668502 0.23491,1.350376 0.34669,2.026516 0.25143,1.5207 0.3957,2.31495 0.52051,3.821228 0.28252,3.40953 -0.15052,-0.172344 0.28885,3.146198 0.27971,1.381289 0.42035,2.243039 0.8433,3.609864 0.19727,0.637484 0.44932,1.25671 0.67262,1.88555 0.20463,0.576263 0.38297,1.162407 0.61116,1.729751 0.49654,1.234498 0.71641,1.541764 1.34511,2.645857 0.69755,0.992047 0.42041,0.707289 1.21264,1.464125 0.14169,0.135368 0.27071,0.288607 0.43492,0.395557 0.96492,0.628473 2.80154,0.0038 3.43591,-0.260824 0.34074,-0.14215 0.34234,-0.654245 0.51352,-0.981368 0.58195,-1.034092 0.98268,-1.771224 1.61738,-2.789923 0.28108,-0.451125 0.55618,-0.907542 0.87247,-1.334712 0.2794,-0.377327 0.61013,-0.713814 0.91114,-1.074126 0.8326,-0.996593 0.32774,-0.611621 1.27882,-1.146876 -0.65444,0.0825 -1.39641,-0.08971 -1.9633,0.24751 -0.23987,0.142689 0.46673,0.320929 0.64039,0.539424 0.29121,0.366387 0.50773,0.787022 0.73781,1.194581 0.28245,0.50034 0.55376,1.007723 0.79882,1.527399 0.43983,0.932694 0.9125,2.207533 1.28548,3.17444 0.49995,1.169704 1.02497,2.334823 1.66323,3.437199 0.27551,0.475853 0.45262,0.77642 0.85587,1.140066 0.13682,0.123383 0.29925,0.215 0.44887,0.322498 1.22866,-0.158422 2.51285,-0.07723 3.686,-0.475269 0.61435,-0.208444 3.54745,-3.045505 3.78118,-3.272332 0.70551,-0.68466 1.39133,-1.389375 2.07987,-2.091097 1.21509,-1.238348 2.49603,-2.5869 3.69793,-3.845079 1.24245,-1.263213 1.41129,-1.54111 2.76458,-2.548138 0.67037,-0.498846 1.23008,-0.881901 2.0499,-1.053738 0.24731,-0.05184 1.00909,-0.04565 0.75782,-0.01886 -0.57413,0.0612 -1.15189,0.08151 -1.72785,0.122262 0.16535,0.08481 0.34732,0.142996 0.49603,0.25442 0.47288,0.354309 0.50858,0.564862 0.77777,1.086107 0.11954,0.231471 0.25131,0.457197 0.35605,0.69573 0.11173,0.254434 0.18884,0.522825 0.29231,0.780732 0.12084,0.301247 0.25363,0.597562 0.38045,0.896343 0.28472,0.808982 0.58804,1.611656 1.0047,2.363327 0.0987,0.178149 0.18486,0.367384 0.31697,0.522422 0.12307,0.144436 0.29201,0.242417 0.43802,0.363625 0.0796,0.356243 2.59866,-0.206981 2.51901,-0.563221 v 0 c -0.1416,-0.07534 -0.29796,-0.127847 -0.4248,-0.226013 -0.80764,-0.62503 -1.03538,-1.786583 -1.39986,-2.676556 -0.612,-1.781988 0.001,-0.06968 -0.66085,-1.723052 -0.10073,-0.251608 -0.17151,-0.515162 -0.28246,-0.762434 -0.13746,-0.306334 -0.58417,-1.118645 -0.82344,-1.376883 -0.17104,-0.184611 -0.39631,-0.310306 -0.59447,-0.465458 -1.01652,-0.06115 -2.03123,-0.189492 -3.04958,-0.183446 -0.49482,0.0029 -1.27869,0.449995 -1.63812,0.690414 -0.36223,0.242287 -0.70337,0.515832 -1.0366,0.796684 -1.36635,1.151623 -1.33708,1.226942 -2.59174,2.634549 -1.6206,1.844019 -1.73547,2.023367 -3.533,3.852019 -0.6843,0.69614 -1.36184,1.400672 -2.08488,2.056471 -0.70044,0.635299 -1.41324,1.262261 -2.18172,1.813324 -0.62114,0.445411 -1.60801,0.495674 -1.974,1.166683 -0.18804,0.344771 0.71755,0.319437 1.07632,0.479155 -0.14922,-0.04408 -0.31056,-0.05866 -0.44766,-0.132244 -0.65382,-0.350914 -1.08852,-1.198816 -1.44098,-1.799949 -0.79752,-1.36017 -0.56345,-0.956377 -1.27236,-2.48629 -0.22156,-0.5158 -0.45325,-1.027366 -0.66469,-1.547402 -0.22162,-0.5451 -0.40714,-1.10458 -0.63424,-1.647423 -0.32131,-0.76803 -0.96512,-2.137955 -1.38157,-2.899728 -0.18805,-0.343987 -0.22696,-0.910055 -0.60667,-1.007554 -0.97263,-0.249746 -2.00769,0.05233 -3.01153,0.0785 -0.18241,0.167925 -0.38477,0.316481 -0.54723,0.503774 -0.36571,0.421595 -1.08635,1.55207 -1.3555,1.951562 -0.30457,0.452091 -0.62943,0.890788 -0.92038,1.351772 -2.14057,3.391601 0.38223,-0.330806 -1.73067,2.730756 -0.21713,0.240073 -0.92048,0.540301 -0.65139,0.720223 0.55343,0.370038 1.33397,0.05888 1.98958,0.174532 0.14024,0.02474 -0.27396,0.126153 -0.41452,0.103323 -0.65771,-0.106834 -1.38783,-1.149803 -1.78531,-1.575176 -0.74557,-1.063953 -0.9505,-1.260338 -1.51627,-2.511825 -0.47461,-1.049835 -0.92891,-2.455002 -1.2209,-3.560079 -0.13678,-0.517631 -0.6558,-2.951856 -0.78161,-3.53535 -0.0687,-0.507232 -0.14649,-1.013306 -0.20599,-1.521695 -0.0628,-0.53652 -0.10007,-1.075791 -0.16081,-1.612546 -0.0683,-0.603885 -0.14822,-1.20642 -0.22641,-1.809109 -0.0891,-0.686785 -0.16371,-1.37581 -0.27544,-2.059276 -0.32485,-1.987156 -0.39683,-2.058443 -0.91747,-3.952272 -0.5125,-1.532091 -0.85996,-2.841844 -1.97124,-4.07466 -0.25969,-0.288084 -0.49217,-0.696904 -0.87328,-0.768927 -2.70738,-0.511651 -2.59907,-0.371715 -4.18521,0.512009 -0.83566,0.864534 -1.33515,1.297125 -1.98578,2.38706 -0.37088,0.621292 -0.6462,1.294926 -0.95859,1.947582 -0.3794,0.792623 -0.77478,1.578541 -1.11669,2.388042 -0.56811,1.345094 -1.56593,4.181112 -2.05431,5.539764 -0.98462,2.725832 -1.27313,3.58358 -2.37588,6.372259 -0.49676,1.256234 -0.9879,2.515314 -1.527,3.753969 -0.82773,1.901822 -1.95715,4.328477 -3.0888,6.133015 -0.35025,0.558501 -0.78773,1.057291 -1.1816,1.585936 -1.4612,0.855237 -1.1216,0.41633 0.80139,0.71563 0.21331,0.0332 -0.43568,0.01669 -0.64707,-0.02708 -0.7439,-0.154041 -1.2036,-0.579348 -1.66986,-1.141675 -0.11264,-0.222546 -0.24805,-0.434969 -0.33793,-0.667644 -0.24438,-0.632653 -0.36043,-1.341559 -0.44107,-2.007584 -0.0568,-0.468852 -0.084,-0.940814 -0.12376,-1.411417 -0.17354,-2.056136 -0.11926,-1.18753 -0.17897,-3.286599 -0.005,-1.624441 -0.0379,-1.752348 0.0859,-3.364407 0.0407,-0.530204 0.1214,-1.056923 0.1588,-1.58737 0.0368,-0.522367 0.0491,-1.04624 0.0638,-1.569697 0.0517,-1.837909 0.07,-1.173273 -0.15882,-2.927159 -0.26214,-1.101326 -0.21031,-1.470888 -0.9393,-2.353244 -0.24221,-0.293166 -0.48733,-0.663207 -0.85679,-0.753266 -1.07881,-0.262969 -3.10107,-0.567415 -4.35024,0.06308 -0.37848,0.191034 -0.68603,0.498337 -1.02904,0.747506 -0.56843,0.645877 -1.70616,1.921891 -2.17642,2.539934 -0.46784,0.614865 -0.88948,1.263565 -1.3292,1.898846 -0.52759,0.762233 -1.04821,1.529268 -1.57269,2.293641 -2.29607,3.346278 -1.14569,1.616847 -3.31212,4.968118 -0.99276,1.371891 -1.78971,2.601677 -2.96673,3.80343 -0.31583,0.322456 -0.65543,0.631267 -1.04096,0.865971 -0.23175,0.141086 -1.03302,0.149979 -0.77744,0.241041 0.47583,0.169534 2.79158,0.265612 1.51319,0.08154 -0.12354,-0.0793 -0.2709,-0.130161 -0.37063,-0.237886 -0.17231,-0.186132 -0.49852,-0.950431 -0.56351,-1.115611 -0.12002,-0.30508 -0.24548,-0.609825 -0.32918,-0.926801 -0.0524,-0.19831 -0.50901,-2.673543 -0.51795,-2.72153 -0.088,-0.564621 -0.1929,-1.126874 -0.26409,-1.693866 -0.12693,-1.010906 -0.22951,-2.287799 -0.21461,-3.315583 0.006,-0.439679 0.0711,-0.876763 0.0909,-1.316043 0.0589,-1.306409 -0.0574,-0.47698 0.0622,-1.220401 0,-0.37823 -2.6745,-0.37823 -2.6745,0 z" />
        </g>
      </g>
    </clipPath>
  </defs>
  <sodipodi:namedview
     inkscape:window-maximized="0"
     inkscape:window-y="23"
     inkscape:window-x="0"
     inkscape:window-height="855"
     inkscape:window-width="1440"
     showgrid="false"
     inkscape:document-rotation="0"
     inkscape:current-layer="layer1"
     inkscape:document-units="mm"
     inkscape:cy="33.121362"
     inkscape:cx="248.10067"
     inkscape:zoom="2.2721597"
     inkscape:pageshadow="2"
     inkscape:pageopacity="0.0"
     borderopacity="1.0"
     bordercolor="#666666"
     pagecolor="#ffffff"
     id="base" />
  <metadata
     id="metadata6395">
    <rdf:RDF>
      <cc:Work
         rdf:about="">
        <dc:format>image/svg+xml</dc:format>
        <dc:type
           rdf:resource="http://purl.org/dc/dcmitype/StillImage" />
        <dc:title />
      </cc:Work>
    </rdf:RDF>
  </metadata>
  <g
     transform="translate(-46.576296,-46.933711)"
     id="layer1"
     inkscape:groupmode="layer"
     inkscape:label="Layer 1">
    <path
       d="m 79.947169,61.101585 c 0.19978,1.714246 0.0539,0.299498 0.20584,2.553517 0.0432,0.640232 0.12965,1.278158 0.14361,1.919692 0.0562,2.58375 -0.2242,1.335472 0.0495,3.85421 0.0653,0.601361 0.19363,1.194202 0.29045,1.791306 4.25978,5.882271 1.87742,3.90057 16.42864,-0.05098 1.04032,-0.282509 1.39171,-1.646714 2.09801,-2.461083 0.75866,-0.874731 1.540221,-1.729454 2.296731,-2.606048 0.72306,-0.837845 1.39587,-1.719355 2.14172,-2.536976 0.69519,-0.762084 1.452,-1.465594 2.178,-2.198389 1.40218,-1.436938 1.9495,-2.103451 3.48634,-3.30529 0.47007,-0.36761 0.98605,-0.672482 1.47405,-1.015943 0.29444,-0.207232 1.19876,-0.922801 1.63712,-1.094057 0.16059,-0.06274 0.34181,-0.04548 0.51271,-0.06823 -4.52846,0.294561 -9.05404,1.130095 -13.585381,0.883682 -0.55139,-0.02998 -0.24874,-1.084326 -0.25776,-1.636466 -0.002,-0.151144 0.22073,0.236177 0.23734,0.386426 0.056,0.506495 0.0196,1.020956 -0.0257,1.528522 -0.0635,0.712084 -0.19995,1.415768 -0.29993,2.123652 -0.0652,0.862726 -0.13039,1.725457 -0.19559,2.588184 -0.6667,4.861533 -0.19871,0.996648 -0.61539,5.810464 -0.0839,0.968976 -0.19328,1.935573 -0.28721,2.903625 -0.0874,0.90071 -0.2274,1.798187 -0.25673,2.702652 -0.0254,0.783408 0.0624,1.566392 0.0929,2.349619 0.024,0.616564 0.047,1.233168 0.0705,1.84975 2.377711,6.517341 0.85893,4.533069 15.701721,0.28974 0.94522,-0.270222 0.76295,-1.812118 1.13949,-2.720234 1.17602,-2.83627 1.82773,-4.640588 3.29449,-7.415287 0.70741,-1.338207 1.52768,-2.613636 2.29151,-3.920453 4.26603,-6.739197 0.15298,-0.443571 4.30922,-6.290619 1.69441,-2.383722 0.91458,-1.802393 2.82591,-3.628386 0.33665,-0.321625 0.67173,-0.658323 1.07341,-0.893752 0.2447,-0.143417 0.54841,-0.145007 0.82262,-0.217511 -0.22975,5.408941 0.22776,1.051489 -13.84127,0.0035 -0.0718,-0.0053 -0.0401,-0.275704 1.8e-4,-0.21603 0.56121,0.830869 0.41601,1.124255 0.46177,2.219497 0.0253,0.605378 0.037,1.21125 0.0554,1.816873 0.0533,0.78241 0.18505,1.563412 0.1598,2.347227 -0.0296,0.91835 -0.23117,1.823254 -0.32356,2.737424 -0.0309,0.30621 -0.41283,4.986986 -0.46583,5.408705 -0.48374,3.849492 -0.42952,0.854562 -0.3451,4.361466 0.0878,0.524658 0.0779,1.075415 0.26345,1.573977 2.24891,6.043989 8.12795,2.417408 15.66975,0.928106 0.76015,-0.150112 0.49417,-1.474793 0.84647,-2.164909 0.42792,-0.838271 1.00633,-1.591122 1.48469,-2.401673 0.52636,-0.891908 1.01926,-1.803154 1.52889,-2.704729 0.964,-1.697586 1.83269,-3.449527 3.14107,-4.926047 0.55496,-0.626274 1.2377,-1.126546 1.86473,-1.680647 0.45077,-0.398341 0.85827,-0.857787 1.36847,-1.176488 0.48262,-0.301477 1.05056,-0.437719 1.57378,-0.66144 0.32086,-0.137197 0.63893,-0.28085 0.9584,-0.421275 6.0184,-0.179445 -8.4534,0.649007 -12.67573,0.435282 -0.38247,-0.01937 -0.20381,-1.505378 -0.0693,-1.146812 0.41156,1.097108 0.241,3.270088 0.22094,4.239185 -0.0209,1.009291 -0.0513,2.018361 -0.077,3.02754 -0.0371,1.070859 -0.10853,2.14108 -0.11115,3.212576 -0.002,1.011844 0.11477,2.022356 0.0959,3.034025 -0.0165,0.885034 -0.16655,1.763392 -0.20197,2.647871 -0.007,0.171108 0.0114,3.416625 0.046,3.818787 0.0382,0.444402 0.14857,0.879623 0.22286,1.319434 4.98359,0.431361 9.95387,1.524717 14.95077,1.294083 0.87828,-0.04054 1.0491,-1.415611 1.64707,-2.060165 0.66693,-0.718902 1.45651,-1.315617 2.13845,-2.020306 0.66137,-0.683437 1.17985,-1.504148 1.8873,-2.139765 1.08456,-0.97442 3.57028,-2.482516 4.83813,-3.285294 2.19986,-1.27975 1.53019,-1.02467 3.77041,-1.847453 0.4363,-0.160242 0.87105,-0.330898 1.32208,-0.443198 0.32339,-0.08052 0.65815,-0.1505 0.99093,-0.132718 0.18374,0.0098 0.6933,0.210728 0.50931,0.212881 -4.43224,0.05189 -8.86499,-0.0421 -13.29749,-0.06316 0.65399,1.525863 -0.40972,-1.62342 -0.25831,-1.232072 0.22382,0.578496 0.31675,1.123977 0.68994,1.650704 0.12813,0.180856 0.34435,0.279191 0.51397,0.421875 0.13308,0.111954 0.26269,0.227979 0.39404,0.341969 0.23724,0.08859 0.58597,0.190675 0.74475,0.401651 0.20521,0.272663 0.16921,0.795163 0.20376,1.091099 0.13217,0.82754 0.0797,0.417764 0.15949,1.229069 0.21831,0.515773 0.24006,1.088379 0.42265,1.613535 0.0937,0.269572 0.22572,0.524647 0.35394,0.779626 0.17119,0.340423 0.16408,0.973171 0.54375,1.005525 13.89422,1.184026 11.21512,3.758038 15.10216,-0.65958 0.45031,-0.570042 0.67193,-1.280929 1.083,-1.873765 0.19705,-0.284192 0.46234,-0.515366 0.6725,-0.790017 0.1745,-0.228049 0.30173,-0.490175 0.47958,-0.715616 0.30276,-0.383757 0.51038,-0.519475 0.87294,-0.807299 0.0702,-0.0596 0.12397,-0.147505 0.21056,-0.178808 0.0721,-0.02606 0.51497,-0.06084 0.6251,0.01201 0.11826,0.07823 0.42826,0.30987 0.28653,0.314431 -14.03949,0.451638 -12.78469,4.595087 -14.03831,-0.645618 0.0998,-0.316619 0.002,-0.243834 0.15854,-0.328631 0.15443,2.120919 15.15159,1.028954 14.99716,-1.091964 v 0 c -0.41463,-0.818843 -0.21374,-0.374825 -0.58685,-1.339112 -0.0718,-0.406157 0.19563,-1.185942 -0.21556,-1.218475 -4.78149,-0.378304 -9.59528,-0.09338 -14.38917,0.06298 -0.21904,0.0071 -0.38113,0.240977 -0.50353,0.422767 -0.0857,0.127275 -0.006,0.321077 -0.0857,0.452274 -0.21146,0.348673 -0.69965,0.47417 -0.83706,0.892138 -0.26859,0.655962 -0.20052,0.630234 -0.71557,1.216025 -0.1905,0.216659 -0.42458,0.39222 -0.6153,0.608681 -0.1197,0.135848 -0.69231,0.974807 -0.9095,1.103554 -0.1749,0.103685 -0.39633,0.09108 -0.59449,0.136617 -3.9711,-2.77082 -1.70211,-1.086448 12.92594,0.158258 0.24009,0.02043 -0.1111,0.470249 -0.19557,0.695918 -0.0247,0.06589 -0.0601,0.148746 -0.12779,0.167997 -0.34302,0.09758 -0.3794,-0.125984 -0.5292,-0.350049 0.0242,-0.257469 0.0827,-0.514003 0.0725,-0.772406 -0.007,-0.168968 -0.27288,-1.679856 -0.31399,-1.814663 -0.14245,-0.467159 -0.66817,-1.462554 -0.78883,-1.937748 -0.0789,-0.310645 -0.0686,-0.637323 -0.1029,-0.955984 -0.18872,-0.121172 -0.3782,-0.241144 -0.56614,-0.363517 -0.12042,-0.07841 -0.21732,-0.26335 -0.35891,-0.238802 -0.10948,0.01897 -0.0291,0.23205 -0.0992,0.318235 -0.0421,0.05179 -0.17252,0.106604 -0.19546,0.04389 -0.29567,-0.808284 -0.007,-1.776722 -0.63444,-2.502834 -4.7112,-0.06947 -9.42235,-0.275114 -14.13359,-0.208399 -0.2603,0.0037 -0.43634,0.284302 -0.6598,0.417875 -0.28173,0.168407 -0.57744,0.313179 -0.85534,0.487822 -1.55944,0.980004 -2.98407,2.16335 -4.57679,3.094048 -2.83459,2.367201 -1.44346,1.108941 -4.16324,3.785966 -0.84078,0.718277 -1.76993,1.326197 -2.65061,1.994966 -0.74722,0.56742 -1.42072,1.244032 -2.23303,1.713559 -0.51215,0.296029 -2.26464,0.426368 -1.6866,0.55205 4.15256,0.902896 8.41166,1.216443 12.61749,1.824665 -0.1905,-0.154276 -0.44366,-0.25367 -0.57151,-0.462825 -0.56751,-0.9284 -0.59782,-2.232864 -0.68263,-3.237252 -0.24148,-2.860014 -0.33998,-5.745414 -0.0494,-8.60601 0.54515,-4.566367 0.13477,-1.406286 0.76841,-5.687964 0.11466,-0.774846 0.33337,-1.543029 0.33176,-2.326312 -0.002,-1.080529 0.7166,-3.01244 -0.34315,-3.223385 -12.41549,-2.471343 -11.50305,-3.308409 -14.82642,0.900739 -0.91546,0.775362 -1.16503,0.934411 -2.01571,1.920611 -0.44789,0.519253 -0.8486,1.07741 -1.27589,1.613747 -0.54124,0.679373 -1.13727,1.3178 -1.62967,2.033368 -0.53266,0.77407 -0.95862,1.616376 -1.43794,2.424567 -0.61724,0.862857 -1.23449,1.725716 -1.85174,2.588573 -0.97837,1.515827 -2.0132,3.326103 -3.32407,4.617008 -0.38416,0.378314 -1.87279,0.855662 -1.33649,0.911119 4.15559,0.429697 8.3878,-0.291148 12.53082,0.246404 0.45458,0.05898 0.0708,1.091324 -0.31526,1.338545 -0.27633,0.176978 -0.47335,-0.454604 -0.71002,-0.681908 -0.002,-0.566938 0.024,-1.134742 -0.007,-1.700815 -0.0408,-0.734846 -0.21007,-1.462045 -0.20894,-2.198021 0.002,-1.129199 0.43672,-4.359246 0.54628,-5.412624 0.0972,-0.934661 0.12941,-1.876308 0.25564,-2.807496 0.11195,-0.825929 0.30542,-1.638747 0.45813,-2.458119 0.0172,-0.645062 -0.009,-1.292723 0.0517,-1.935187 0.0531,-0.565189 0.27894,-1.110946 0.28769,-1.678554 0.007,-0.469828 -0.22024,-0.919551 -0.24038,-1.389001 -0.0212,-0.493464 0.60166,-1.379955 0.11739,-1.477095 -13.77691,-2.763486 -11.56477,-5.110375 -15.1244,-0.376697 -0.10258,0.211179 -0.93434,1.924095 -0.95708,1.967536 -0.29151,0.556919 -0.621,1.093582 -0.907,1.653353 -0.38499,0.753537 -0.72919,1.527296 -1.1053,2.285306 -1.75762,3.542327 -1.38785,2.764428 -3.48835,6.511817 -2.271,4.226242 -1.92798,3.791376 -4.54454,7.840006 -0.6833,1.057275 -1.33011,2.144302 -2.11278,3.130277 -0.53038,0.668143 -2.646401,1.64744 -1.809011,1.810219 12.131681,2.358263 13.927921,-3.911775 11.704301,1.906675 -0.49921,-1.431224 -0.70933,-1.736825 -0.73146,-3.459076 -0.0109,-0.851413 0.14281,-1.696982 0.2086,-2.545921 0.21934,-2.830237 0.42769,-5.652384 0.96967,-8.446257 0.18162,-0.866383 0.36325,-1.732764 0.54487,-2.599147 0.24203,-0.749657 0.55426,-1.48018 0.72608,-2.248972 0.13847,-0.619572 0.13114,-1.262925 0.19984,-1.894051 0.061,-0.560536 0.23415,-1.118862 0.18926,-1.680919 -0.0686,-0.858568 0.32999,-2.430506 -0.52556,-2.52989 -4.69671,-0.5456 -9.44062,0.549208 -14.160931,0.823814 -1.40917,1.626952 0.88818,-0.961412 -1.21419,1.112126 -0.84066,0.829133 -0.86432,1.212397 -1.66771,2.169874 -3.7655,4.487726 0.9276,-1.637257 -2.96892,3.574157 -2.90197,3.513042 -0.82079,1.155681 -4.31509,4.658946 -0.78852,0.790552 -1.47801,1.68645 -2.33695,2.399865 -0.80721,0.670442 -3.65615,1.4992 -2.63188,1.727112 11.43676,2.544834 12.90665,-3.798533 10.83482,2.240309 -0.18216,-0.222694 -0.47038,-0.390623 -0.54646,-0.668083 -0.38592,-1.407496 0.12733,-2.200939 0.16797,-3.623884 0.0181,-0.633538 -0.2133,-1.264208 -0.15352,-1.895176 0.0799,-0.843328 0.65191,-1.588573 0.65468,-2.455538 0.0436,-2.095388 -14.77309,-2.4034 -14.81665,-0.308012 z"
       id="path2362"
       style="fill:#ffff00;fill-opacity:1;stroke:none;stroke-width:1.6;stroke-linejoin:round" />
    <path
       d="m 80.463555,61.662593 c 0.114662,0.669922 0.114734,1.35188 0.198842,2.024837 0.05804,0.464394 0.158816,0.922655 0.221295,1.386474 0.194053,1.440632 0.100563,1.37026 0.357643,2.774204 0.0769,0.419981 0.183782,0.833917 0.275674,1.250876 0.409242,1.356372 0.684528,2.864697 1.77731,3.87201 0.637526,0.587666 0.952336,0.640271 1.730941,0.965576 1.856314,0.0077 2.65997,0.258426 4.157451,-0.24239 0.321524,-0.10753 0.680016,-0.181285 0.931261,-0.408917 0.835457,-0.756933 1.493901,-2.324112 1.956835,-3.248762 0.372136,-0.743289 0.740688,-1.488367 1.111033,-2.23255 0.912312,-1.443909 1.605116,-3.018801 2.51533,-4.464022 0.404479,-0.642226 0.857478,-1.253222 1.314244,-1.859377 0.740127,-0.982195 1.318384,-1.707864 2.265235,-2.462586 0.271677,-0.216549 0.585592,-0.374015 0.878381,-0.561022 0.24287,-0.03447 0.97209,-0.133089 0.7286,-0.103402 -0.50593,0.06169 -1.089895,-0.0803 -1.515961,0.1994 -0.187908,0.123357 0.352806,0.296572 0.457313,0.49558 0.147474,0.280827 0.199688,0.602578 0.280458,0.909316 0.31616,1.200675 0.25408,1.121469 0.37916,2.406761 0.0433,1.577251 5.3e-4,3.155415 0.0147,4.732698 0.004,0.502742 0.0471,1.005193 0.0365,1.507844 -0.009,0.425593 -0.0717,0.848476 -0.095,1.273522 -0.0196,0.356286 -0.0225,0.713292 -0.0338,1.069939 0.04,0.336171 0.17137,1.540207 0.2584,1.889322 0.19379,0.777291 0.71955,1.914324 1.17572,2.574367 0.1792,0.259287 0.39995,0.487244 0.59993,0.730864 0.47515,0.473702 0.78097,0.873405 1.4311,1.130557 1.14138,0.451458 3.16458,0.07439 3.98256,-0.168937 0.68342,-0.2033 1.65941,-1.635686 2.01012,-2.08289 0.86917,-1.430149 0.96428,-1.498928 1.68464,-3.054643 0.25184,-0.543864 0.46201,-1.106153 0.70402,-1.654459 0.24366,-0.552041 0.52207,-1.088747 0.75287,-1.646288 0.21737,-0.525097 0.38699,-1.068783 0.59069,-1.599334 0.19982,-0.520459 0.41316,-1.035623 0.61975,-1.553434 0.19881,-0.504487 0.39052,-1.011832 0.59644,-1.513462 0.18106,-0.441087 0.40426,-0.865252 0.56437,-1.314368 0.1322,-0.370826 0.20151,-0.761213 0.31046,-1.139526 0.10338,-0.35901 0.23096,-0.711014 0.32645,-1.072201 0.11557,-0.437067 0.20302,-0.881089 0.30638,-1.321203 0.11734,-0.499665 0.23715,-0.998748 0.35572,-1.498122 0.16159,-0.524173 0.32556,-1.047618 0.48476,-1.572521 0.16,-0.527518 0.28648,-1.065916 0.47283,-1.584709 0.18315,-0.509855 0.41603,-1.000527 0.63397,-1.496504 0.43395,-0.987536 0.662,-1.507222 1.20813,-2.407693 0.17248,-0.284387 0.37102,-0.552135 0.55652,-0.828203 0.45938,-0.514386 1.02225,-1.217606 1.79687,-1.1907 0.0951,0.0033 0.37228,0.0631 0.27724,0.06853 -0.59074,0.03374 -1.18335,0.01134 -1.77503,0.01702 0.10888,0.03763 0.22406,0.06049 0.32665,0.11289 0.34588,0.176653 0.37521,0.265399 0.62943,0.55431 0.12383,0.140723 0.25818,0.272864 0.3713,0.422334 0.12237,0.161713 0.21941,0.341178 0.33343,0.508893 0.13297,0.195597 0.27162,0.387272 0.40743,0.580909 0.15818,0.344999 0.55773,1.19577 0.66938,1.531662 0.12033,0.361989 0.20032,0.736173 0.2962,1.105392 0.65609,2.526789 0.0991,0.386526 0.74209,3.212909 0.14029,0.616763 0.2974,1.229582 0.4461,1.844373 0.0593,0.566932 0.0975,1.136455 0.17776,1.700798 0.0683,0.480556 0.19486,0.951462 0.26764,1.431364 0.0591,0.389853 0.0747,0.785286 0.12782,1.176008 0.0465,0.342571 0.1277,0.679968 0.17091,1.022974 0.51071,4.05414 -0.36988,-2.074823 0.24736,2.114932 0.18504,1.467256 0.0829,0.829917 0.36006,2.314637 0.0736,0.394146 0.13234,0.791474 0.22376,1.181866 0.0876,0.374094 0.20302,0.741195 0.3128,1.109389 0.10224,0.342867 0.19437,0.689758 0.32321,1.023537 0.11624,0.301119 0.27364,0.584687 0.41046,0.87703 0.27797,0.464713 0.52265,0.969482 0.94889,1.327765 1.1243,0.945049 2.70507,0.629867 4.02119,0.388228 0.26934,-0.04945 0.46941,-0.282141 0.70411,-0.423209 0.51757,-0.439062 0.79868,-0.636107 1.2299,-1.173446 0.19779,-0.246462 0.36604,-0.515403 0.53977,-0.779382 1.06514,-1.618524 0.12774,-0.268415 1.2368,-2.017586 0.2213,-0.349013 0.46066,-0.68623 0.69099,-1.029345 0.50037,-0.65346 0.77463,-1.038456 1.31134,-1.642486 0.18982,-0.213637 0.37266,-0.436637 0.59065,-0.621448 0.29148,-0.247112 0.94039,-0.622254 1.30514,-0.781809 0.18006,-0.07877 0.37173,-0.12776 0.5576,-0.191641 0.16276,-0.0036 0.65072,-0.02134 0.48827,-0.01074 -0.54552,0.03561 -1.10286,-0.02697 -1.63779,0.08577 -0.16386,0.03453 0.32706,0.08354 0.47659,0.158953 0.34425,0.173618 0.74546,0.514383 0.98824,0.805088 0.15226,0.182303 0.26679,0.393045 0.40019,0.589567 0.50952,0.796221 0.88052,1.667073 1.12708,2.578513 0.10694,0.395311 0.1875,0.797312 0.28631,1.194732 0.0404,0.212237 0.18675,0.96073 0.21675,1.193129 0.0223,0.172979 0.0128,0.34969 0.0429,0.521477 0.034,0.193548 0.10896,0.378007 0.14872,0.570449 0.0412,0.199261 0.0414,0.406552 0.0937,0.603164 0.0572,0.214736 0.15553,0.416345 0.23329,0.62452 0.30157,0.786717 0.67896,1.583957 1.32448,2.151784 0.36579,0.32176 0.64093,0.447673 1.05837,0.680903 1.35477,0.471538 2.36485,0.498202 3.95602,0.18039 0.29403,-0.05873 0.48504,-0.353705 0.71245,-0.549105 0.72117,-0.619633 0.97045,-0.938173 1.62643,-1.654903 1.56513,-2.027442 0.23061,-0.267428 1.82518,-2.467786 0.31837,-0.439328 0.65093,-0.868307 0.96679,-1.309444 0.27273,-0.380888 0.52278,-0.777786 0.79875,-1.156327 0.44523,-0.610709 0.97742,-1.245003 1.45696,-1.830755 0.68466,-0.794401 1.47393,-1.483295 2.29879,-2.126562 0.23374,-0.182281 1.00079,-0.769517 1.30313,-0.914885 0.22717,-0.109227 0.47768,-0.161155 0.71652,-0.241733 -0.40662,-0.167944 1.62614,-0.209128 1.21729,-0.177627 -0.47022,0.03623 -0.95862,-0.05115 -1.41282,0.07584 -0.19694,0.05506 0.40305,0.08009 0.59409,0.153064 0.32379,0.123682 0.78788,0.438619 1.07366,0.619472 0.72418,0.569896 0.34043,0.215616 0.92675,0.87367 0.14555,0.163356 0.30504,0.314722 0.44115,0.486022 0.13381,0.168403 0.24046,0.356811 0.36685,0.530858 0.52942,0.729082 0.28515,0.252327 0.59239,1.007547 0.33368,0.522043 0.19125,0.26987 0.43721,0.750835 0.039,0.312844 2.25118,0.03682 2.21214,-0.276023 v 0 c -0.26266,-0.482473 -0.12232,-0.226411 -0.42161,-0.767865 -0.24175,-0.425228 -0.35341,-0.641719 -0.63708,-1.052998 -0.13117,-0.19018 -0.2827,-0.365862 -0.41234,-0.557089 -0.12137,-0.179024 -0.20531,-0.383422 -0.34001,-0.552648 -0.15972,-0.200675 -0.82615,-0.798484 -1.01027,-0.967445 -0.54338,-0.417267 -0.53081,-0.447881 -1.15954,-0.761821 -0.19669,-0.09821 -0.38634,-0.23947 -0.60496,-0.262737 -0.69076,-0.07352 -2.37317,-0.232264 -3.37011,0.01774 -0.22562,0.05658 -0.43935,0.15298 -0.65902,0.22947 -0.21264,0.110636 -0.43142,0.21018 -0.6379,0.331908 -1.40708,0.829513 -2.5428,2.048347 -3.65054,3.2264 -0.4533,0.623982 -0.919,1.238971 -1.36657,1.867073 -0.27096,0.380262 -0.52483,0.772547 -0.79713,1.151852 -0.91752,1.278068 -1.00565,1.338469 -1.96399,2.589235 -0.28566,0.372827 -0.56575,0.749892 -0.84862,1.124839 -0.53707,0.554921 -0.97289,1.078706 -1.63025,1.494282 -0.23111,0.146105 -0.97596,0.19146 -0.74645,0.340074 0.40267,0.260741 0.95719,0.06609 1.43526,0.105947 0.38151,0.03181 -1.61465,-0.07696 -1.13759,-0.158001 -0.24009,-0.106363 -0.8126,-0.348774 -1.02177,-0.490064 -0.65579,-0.443 -1.04079,-1.163759 -1.28801,-1.891676 -0.0781,-0.192508 -0.1692,-0.380222 -0.23422,-0.577524 -0.23655,-0.717921 -0.24999,-1.491812 -0.3944,-2.229873 -0.0419,-0.213904 -0.0914,-0.426233 -0.1371,-0.639349 -0.0291,-0.213848 -0.0434,-0.430218 -0.0872,-0.641542 -0.0992,-0.478665 -0.244,-0.793715 -0.41281,-1.253316 -0.26581,-0.723676 -0.5387,-1.442018 -0.95186,-2.099113 -0.24568,-0.382879 -0.53905,-0.884713 -0.86098,-1.217054 -0.0627,-0.06473 -0.88093,-0.755742 -1.03978,-0.777473 -2.16307,-0.295921 -1.89041,-0.322677 -3.08231,0.06131 -0.19107,0.08809 -0.38832,0.163862 -0.57321,0.264272 -0.44946,0.244085 -0.93183,0.575434 -1.30023,0.928204 -0.71041,0.680263 -1.28358,1.569379 -1.83862,2.372266 -1.38199,1.957531 -0.0977,0.107254 -1.41809,2.101972 -0.15849,0.239434 -0.90712,1.349012 -1.14761,1.61481 -0.18629,0.205884 -0.93288,0.821871 -1.1687,1.019943 -1.16345,0.528353 -0.71164,0.19462 0.76088,0.421268 0.19039,0.0293 -0.38925,0.03964 -0.5779,7.93e-4 -0.44921,-0.09275 -0.8854,-0.374865 -1.18138,-0.718543 -0.16997,-0.197362 -0.27623,-0.441657 -0.41435,-0.662486 -0.14534,-0.272744 -0.31417,-0.534217 -0.43603,-0.818232 -0.0952,-0.221795 -0.62912,-1.872873 -0.67139,-2.060066 -0.0865,-0.383001 -0.10438,-0.778487 -0.17027,-1.165564 -0.45807,-2.690897 -0.0164,0.354322 -0.38164,-2.290307 -0.0466,-0.358238 -0.0931,-0.716476 -0.13972,-1.074715 -0.034,-0.347778 -0.0571,-0.69679 -0.10188,-1.043335 -0.0447,-0.345539 -0.11238,-0.687715 -0.16654,-1.031897 -0.22748,-1.445666 -0.45858,-2.89102 -0.78679,-4.318423 -0.11771,-0.618626 -0.24426,-1.235636 -0.35314,-1.85588 -0.2319,-1.321183 -0.27013,-1.997613 -0.60483,-3.263087 -0.10222,-0.386477 -0.25367,-0.758259 -0.37436,-1.139371 -0.41907,-1.323328 -0.0785,-0.424478 -0.57536,-1.633758 -0.0301,-0.05183 -0.63368,-1.096241 -0.68976,-1.179905 -0.11039,-0.16468 -0.23955,-0.315983 -0.36144,-0.472341 -0.10405,-0.133475 -0.19888,-0.275279 -0.31635,-0.397119 -0.22144,-0.229703 -0.49394,-0.407565 -0.75167,-0.591395 -0.79618,-0.03585 -1.59164,-0.09536 -2.38853,-0.107553 -0.13687,-0.0021 -0.27425,0.02602 -0.40553,0.0648 -0.36283,0.10716 -0.49095,0.238143 -0.78435,0.484267 -0.67992,0.570373 -0.44129,0.341058 -0.98396,1.114138 -0.49045,0.851064 -0.62661,1.045609 -1.05766,1.989767 -0.20409,0.447045 -0.38322,0.905071 -0.57518,1.357461 -0.21448,0.505474 -0.4571,0.999869 -0.64414,1.516129 -0.38022,1.049471 -0.58028,2.158835 -1.00525,3.194224 -0.41452,1.448896 -0.42431,1.411183 -0.74989,2.807271 -0.0813,0.348719 -0.13466,0.704107 -0.22889,1.049561 -0.36835,1.350352 -0.95357,2.633475 -1.43272,3.944483 -0.30257,0.773171 -0.92497,2.377892 -1.24427,3.135607 -0.23138,0.549064 -0.48436,1.088801 -0.71993,1.636078 -0.23305,0.541424 -0.43208,1.097907 -0.68588,1.629917 -0.63037,1.321325 -0.94427,1.730078 -1.71876,2.935168 -0.34623,0.367157 -0.65163,0.777645 -1.03869,1.101471 -0.31677,0.265022 -1.08,0.237789 -1.05484,0.650036 0.0233,0.381056 0.86579,-0.01569 1.1114,0.276585 0.18691,0.222414 -0.58795,0.07208 -0.87151,0.0089 -0.56875,-0.126772 -1.00216,-0.572415 -1.42598,-0.922967 -0.39701,-0.47929 -0.7529,-0.86379 -1.05648,-1.413936 -0.0573,-0.103894 -0.66116,-1.51537 -0.69226,-1.623945 -0.0917,-0.320173 -0.21418,-1.481807 -0.25,-1.785946 -0.0525,-2.339435 -0.0187,0.310467 0.0399,-2.339832 0.0111,-0.503681 -5.3e-4,-1.007609 -0.002,-1.51141 -0.002,-0.562145 -0.006,-1.124282 -0.009,-1.686422 -0.0236,-0.540323 -0.0666,-1.080145 -0.071,-1.620967 -0.004,-0.491186 0.0308,-0.98192 0.0462,-1.472879 -0.0657,-1.064895 -0.0511,-1.505388 -0.26949,-2.53288 -0.076,-0.3578 -0.15023,-0.720623 -0.29207,-1.057795 -0.12776,-0.303707 -0.19724,-0.741434 -0.5093,-0.847148 -1.985977,-0.672757 -2.151286,-0.473216 -3.426532,0.05707 -0.279033,0.224123 -0.577988,0.425482 -0.837097,0.672369 -1.359151,1.29504 -2.33752,2.901903 -3.308535,4.489883 -1.556888,2.546105 -1.114298,1.806646 -2.478892,4.488841 -0.416721,0.732681 -0.818814,1.473878 -1.250164,2.198043 -0.527352,0.885338 -1.240319,2.205662 -2.142204,2.868212 -0.250444,0.183982 -0.574742,0.241721 -0.875083,0.321515 -0.327211,0.08693 -0.949357,-0.158017 -1.000199,0.176707 -0.04824,0.31756 0.639254,0.06354 0.958884,0.0953 -0.309824,-0.07128 -0.634638,-0.09491 -0.929468,-0.213852 -0.452019,-0.182353 -1.110501,-0.710779 -1.394068,-1.10079 -0.183949,-0.252999 -0.293717,-0.552699 -0.425773,-0.83626 -0.50264,-1.079295 -0.408988,-0.934593 -0.740524,-2.1144 -0.288319,-1.679367 -0.120766,-0.826602 -0.507762,-2.557286 -0.282969,-1.569225 -0.389332,-3.173692 -0.353142,-4.766221 0,-0.327427 -2.315257,-0.327427 -2.315257,0 z"
       id="path1419"
       style="fill:#e7b32d;fill-opacity:0.4;stroke-width:0.564999;stroke-linejoin:round;stroke-dasharray:0.564999, 0.564999" />
    <text
       id="text2508"
       y="68.933685"
       x="45.143555"
       style="font-style:normal;font-weight:normal;font-size:15.875px;line-height:1.25;font-family:sans-serif;fill:#333333;fill-opacity:1;stroke:none;stroke-width:0.264583"
       xml:space="preserve"><tspan
         style="font-style:italic;font-variant:normal;font-weight:500;font-stretch:normal;font-size:15.875px;font-family:Courier;-inkscape-font-specification:'Courier, Medium Italic';font-variant-ligatures:normal;font-variant-caps:normal;font-variant-numeric:normal;font-variant-east-asian:normal;fill:#333333;fill-opacity:1;stroke-width:0.264583"
         y="68.933685"
         x="45.143555"
         id="tspan2506"
         sodipodi:role="line">about me</tspan></text>
  </g>
</svg>
