<?xml version="1.0" encoding="UTF-8" standalone="no"?>
<svg
   xmlns:dc="http://purl.org/dc/elements/1.1/"
   xmlns:cc="http://creativecommons.org/ns#"
   xmlns:rdf="http://www.w3.org/1999/02/22-rdf-syntax-ns#"
   xmlns:svg="http://www.w3.org/2000/svg"
   xmlns="http://www.w3.org/2000/svg"
   xmlns:sodipodi="http://sodipodi.sourceforge.net/DTD/sodipodi-0.dtd"
   xmlns:inkscape="http://www.inkscape.org/namespaces/inkscape"
   sodipodi:docname="links1.svg"
   inkscape:version="1.0 (4035a4f, 2020-05-01)"
   id="svg11351"
   version="1.1"
   viewBox="0 0 19.842657 11.645004"
   height="11.645004mm"
   width="19.842657mm">
  <defs
     id="defs11345" />
  <sodipodi:namedview
     inkscape:window-maximized="0"
     inkscape:window-y="23"
     inkscape:window-x="0"
     inkscape:window-height="855"
     inkscape:window-width="1252"
     showgrid="false"
     inkscape:document-rotation="0"
     inkscape:current-layer="layer1"
     inkscape:document-units="mm"
     inkscape:cy="-100.85084"
     inkscape:cx="-48.216336"
     inkscape:zoom="0.35"
     inkscape:pageshadow="2"
     inkscape:pageopacity="0.0"
     borderopacity="1.0"
     bordercolor="#666666"
     pagecolor="#ffffff"
     id="base" />
  <metadata
     id="metadata11348">
    <rdf:RDF>
      <cc:Work
         rdf:about="">
        <dc:format>image/svg+xml</dc:format>
        <dc:type
           rdf:resource="http://purl.org/dc/dcmitype/StillImage" />
        <dc:title></dc:title>
      </cc:Work>
    </rdf:RDF>
  </metadata>
  <g
     transform="translate(-118.59057,-174.85012)"
     id="layer1"
     inkscape:groupmode="layer"
     inkscape:label="Layer 1">
    <g
       transform="translate(101.77188,-44.097759)"
       id="g11329">
      <g
         id="g2461"
         transform="matrix(0.54660347,0,0,0.78781341,5.1863721,84.09096)"
         style="stroke-width:1.52387">
        <path
           d="m 21.281424,175.84639 0.229799,0.41001 c 0.143514,0.225 0.300819,0.44515 0.430543,0.67499 0.606682,1.07491 0.243166,0.68489 1.008198,1.75415 0.218982,0.30606 0.479047,0.59394 0.70827,0.89559 0.222758,0.29313 0.431642,0.59231 0.647463,0.88846 0.333713,0.39503 0.812918,0.96833 1.170794,1.37194 0.130418,0.14709 0.167969,0.44281 0.400202,0.43654 2.34823,-0.0634 4.765954,-0.0791 6.999795,-0.63635 0.262032,-0.0654 -0.351807,-2.22952 -0.351914,-2.22994 -0.01613,-1.17222 -0.513945,-2.32493 -0.336659,-3.50272 0.04606,-0.30603 0.192735,-0.59824 0.296182,-0.89595 0.279916,-0.80556 0.05253,-0.51698 0.700663,-1.01761 -0.433855,-0.41254 1.255648,-0.007 0.942295,0.01 -1.969581,0.1058 -3.946894,0.0957 -5.920105,0.14876 -0.131953,0.003 0.273295,-0.0372 0.396105,-1.1e-4 0.573431,0.17313 0.740424,0.50409 1.081614,0.87708 0.548943,0.87103 0.687074,1.8373 0.905626,2.77767 0.08365,0.35994 0.207204,0.71601 0.247667,1.08028 0.03778,0.34013 -0.01223,0.68266 -0.01393,1.02402 -0.0015,0.30544 0.0029,0.61089 0.0043,0.91634 -7.89e-4,0.27903 -0.01782,0.55831 -0.0022,0.83709 0.06496,1.1632 0.135841,0.42121 0.112223,1.50541 -0.01012,0.46441 -0.108042,0.59299 0.0073,1.03542 0.04568,0.17522 0.134858,0.34213 0.202286,0.51319 0.10467,0.15462 0.15259,0.34108 0.31401,0.46387 0.598294,0.4551 1.331933,0.74045 2.189426,0.74864 2.431001,0.0232 4.875329,0.0846 7.291918,-0.11892 0.569977,-0.048 1.690818,-1.16126 1.964681,-1.4033 0.793799,-0.9095 1.277801,-1.92789 1.58268,-2.99094 0.102746,-0.35825 0.133106,-0.7274 0.241347,-1.08471 0.147199,-0.48591 0.581169,-1.4502 0.795172,-1.94225 0.565837,-0.21044 0.293262,-0.89824 0.726236,-1.17985 0.144617,-0.0941 0.399211,-0.15506 0.560277,-0.0782 0.15959,0.0761 0.336467,0.41255 0.148426,0.41637 -6.124267,0.12463 -7.698278,-1.64311 -6.321199,-0.15893 0.02934,0.15052 0.0804,0.29949 0.08802,0.45157 0.0239,0.47726 -0.07971,0.95408 -0.07515,1.43169 0.0028,0.29188 0.05841,0.58264 0.05848,0.87454 3.79e-4,1.61643 -0.178695,0.15883 0.07924,1.70385 0.06951,2.11235 -0.107519,-0.57419 0.283382,1.33148 0.03302,0.161 -0.06883,0.32751 -0.03355,0.48824 0.02977,0.13562 0.157284,0.24764 0.223168,0.3756 0.135786,0.26371 0.112557,0.27026 0.145228,0.54028 1.585515,1.9622 0.458673,0.89677 7.33878,-0.0817 0.203821,-0.029 0.150958,-0.29557 0.213777,-0.44666 0.06767,-0.16276 0.08987,-0.33694 0.17735,-0.49408 0.128418,-0.23068 0.323611,-0.43652 0.466347,-0.66222 0.172077,-0.27211 0.318232,-0.55337 0.477349,-0.83006 0.262735,-0.30597 0.536129,-0.60674 0.788204,-0.91791 0.256432,-0.31654 0.455184,-0.66082 0.736798,-0.96459 0.27911,-0.30107 0.614185,-0.56977 0.938802,-0.84285 0.638236,-0.53692 1.350053,-1.01983 2.018465,-1.53401 0.171318,0.10571 0.406138,-0.29619 0.618597,-0.2302 0.09721,0.0302 0.29333,0.1897 0.18848,0.19282 -1.05878,0.0314 -7.681348,1.1329 -6.480897,-0.33489 -0.0079,0.028 -0.03391,0.0564 -0.02383,0.084 0.02112,0.0578 0.09455,0.0997 0.112324,0.15815 0.02966,0.0975 0.01649,0.19989 0.02693,0.2997 0.03297,0.31559 0.05994,0.63039 0.08449,0.94647 -0.0042,0.0988 -0.0085,0.1976 -0.01278,0.29639 0.0078,0.099 0.02542,0.19785 0.02348,0.29703 -0.01535,0.78785 -0.07299,-0.23889 -0.02513,0.60348 0.0065,0.11511 0.03347,0.22987 0.02776,0.34501 -0.0064,0.12938 -0.04265,0.2569 -0.06397,0.38534 0.0329,0.13755 0.08624,0.27315 0.09871,0.41266 0.01197,0.13401 -0.02191,0.26819 -0.02586,0.40249 -0.01167,0.39649 -7.89e-4,0.3636 0.05093,0.74741 -3.8e-4,0.7413 6.853863,0.74322 6.854218,0.002 v 0 c 0.01517,-0.11963 0.04127,-0.23874 0.04549,-0.35889 0.01435,-0.40949 -0.162079,-0.80447 0.05676,-1.20195 -0.02693,-0.24436 -0.0787,-0.48792 -0.08002,-0.73315 -0.0046,-0.8471 0.05297,0.18494 0.110702,-0.61835 0.01954,-0.27184 -0.05881,-0.37183 -0.168085,-0.62699 -0.04693,-0.44523 -0.06207,-0.21923 0.05648,-0.67753 -0.0033,-0.1248 -0.08669,-0.24139 -0.109723,-0.36496 -0.02283,-0.12249 -0.01182,-0.24742 -0.02738,-0.37057 -0.07963,-0.63005 -0.07966,-0.19297 -0.06254,-0.64676 -0.02264,-0.19023 0.01232,-0.66179 -0.434099,-0.68905 -18.433868,-1.1257 -5.057762,-1.56712 -6.959723,0.16454 -0.09019,0.0821 -0.218746,0.13424 -0.328118,0.20136 -0.09963,0.10573 -0.199262,0.21147 -0.298892,0.3172 -0.293853,0.27063 -0.779254,0.70933 -1.028072,0.97999 -0.224602,0.2443 -0.411163,0.50817 -0.634546,0.75313 -0.878685,0.96357 -1.905484,1.84967 -2.649706,2.88383 -0.897173,1.43321 -0.144539,0.35078 -1.1591,1.54935 -0.112385,0.13277 -0.179232,0.28807 -0.307668,0.41203 -0.06832,0.0659 -0.379785,0.14786 -0.269822,0.14534 6.917306,-0.15808 6.914795,-2.01714 6.671734,0.18505 -0.20288,-0.0374 -0.06068,0.007 -0.265337,-0.17099 -0.488678,-0.42536 -0.195533,-0.0398 -0.392565,-0.64781 -0.33654,-1.03844 -0.117935,0.0485 -0.304309,-1.15574 -0.140485,-0.53206 -0.309673,-1.00981 -0.272452,-1.56175 0.01895,-0.28088 0.146814,-0.55195 0.18762,-0.83146 0.10978,-0.75195 0.01103,-1.51587 0.156677,-2.26627 -0.610609,-2.39673 -0.703839,-1.31545 -7.802129,-1.60777 -0.249908,-0.0103 0.427549,0.64651 0.286294,0.80451 -0.141731,0.15853 -2.788495,0.13425 -2.893853,0.30858 -0.28605,0.47328 -0.902009,-0.59615 -1.287431,-0.14845 -0.245638,0.66798 2.638707,2.92019 2.383782,3.58613 -0.133601,0.34901 -0.68595,-0.55977 -0.82263,-0.21147 -0.116475,0.29682 0.200789,1.85529 0.06319,2.14677 -0.331962,0.70317 -0.486426,0.82216 -0.989742,1.4368 -0.304475,0.13694 -0.587482,0.30672 -0.913425,0.41083 -0.293432,0.0937 -1.242616,0.1572 -0.92563,0.17656 1.697823,0.1037 3.40779,0.0102 5.108647,0.0789 0.27982,0.0113 -0.557314,0.0502 -0.831614,0.0939 -0.209814,0.0335 -0.403524,0.12681 -0.617416,0.13737 -0.09623,0.005 -0.174596,-0.0627 -0.261893,-0.094 -0.05902,-0.0544 -0.135526,-0.1 -0.177065,-0.16309 -0.347608,-0.52817 -0.183642,-1.07764 -0.185439,-1.64075 -0.0027,-0.83468 -0.05192,-0.79316 -0.283484,-1.62973 0.0066,-0.31602 3.546803,-3.41252 3.536983,-3.72848 -0.02109,-0.67856 -3.651491,1.24045 -3.747666,0.5712 -0.05602,-0.38979 -0.0901,-0.78246 -0.184152,-1.16794 -0.03767,-0.15437 -0.640563,-1.84447 -0.701778,-2.01725 -0.174721,-0.28743 -0.342918,-0.57723 -0.524164,-0.86228 -0.125648,-0.19761 -0.682967,-1.21786 -1.188002,-1.24911 -3.013146,-0.1864 -5.729847,-1.12683 -7.596256,0.4302 -0.193152,0.16114 -0.342021,0.35032 -0.513031,0.52548 -0.214363,0.40833 -0.639983,1.15229 -0.708487,1.58041 -0.05517,0.34479 0.03334,0.69459 0.02563,1.0419 -0.0088,0.39626 -0.07814,0.79124 -0.07511,1.18754 0.0064,0.8367 0.152214,1.60258 0.277376,2.43153 -0.01416,0.34936 -0.03555,0.69858 -0.04245,1.04806 -0.0027,0.13897 -0.167866,0.408 0.01349,0.41682 2.208959,0.10745 4.425749,-0.0853 6.639148,-0.0932 0.167931,-5.4e-4 -0.340284,0.12093 -0.495125,0.0712 -0.6641,-0.21324 -0.9141,-0.75169 -1.228427,-1.18078 -1.009575,-1.07358 -0.561896,-0.50514 -1.316542,-1.66669 -0.252296,-0.38833 -0.819886,-1.21431 -0.996629,-1.64896 -0.125513,-0.30867 -0.09235,-0.64633 -0.242454,-0.95185 -0.06117,-0.76285 -7.114557,-0.43208 -7.053389,0.33077 z"
           id="path2346"
           style="opacity:1;fill:#ffff00;stroke:none;stroke-width:2.43822;stroke-linejoin:round"
           sodipodi:nodetypes="ccssscssscsscccccsssccsscssscsscscccssscssscsssscssscsccsscccccscsscsssccsccssccsccsscsscccscsscssscssscsssccccscssscscscsssccscccssccc" />
        <path
           d="m 22.888295,177.582 c 0.300117,0.47922 0.07151,0.13028 0.489715,0.70801 0.126505,0.17476 0.24441,0.35584 0.375992,0.52681 0.155582,0.20216 0.324154,0.39398 0.485027,0.59195 0.666034,0.81963 0.259179,0.35258 0.941194,1.10021 0.147739,0.13809 0.285713,0.28743 0.443217,0.41427 0.655241,0.52767 1.420363,0.74162 2.295335,0.43725 0.372401,-0.12954 1.133422,-1.8698 1.137454,-1.87784 0.491599,-1.10184 0.939559,-2.22263 1.42725,-3.32615 0.233767,-0.52895 0.486825,-1.04923 0.721222,-1.57791 0.265941,-0.59982 0.699334,-1.70539 1.040157,-2.3205 0.117512,-0.21207 0.273457,-0.40045 0.410189,-0.60067 0.126862,-0.0572 0.519125,-0.15837 0.380592,-0.17164 -0.244732,-0.0234 -0.555755,-0.0402 -0.724389,0.13871 -0.09884,0.10485 0.234738,0.17252 0.325535,0.28441 0.134419,0.16563 0.243742,0.35138 0.343472,0.53995 0.250555,0.47374 0.435726,1.02258 0.621847,1.52143 0.07574,0.31098 0.15598,0.6209 0.227211,0.93295 0.08427,0.36918 0.174265,0.73748 0.239252,1.11053 0.09862,0.56614 0.232553,1.77573 0.282861,2.35381 0.02918,0.33535 0.03684,0.67237 0.06775,1.00756 0.02703,0.29303 0.07069,0.58428 0.106032,0.87643 0.09944,0.29346 0.174156,0.59651 0.29832,0.8804 0.133186,0.30451 0.29958,0.5941 0.471096,0.87879 0.392067,0.65078 0.665522,1.00178 1.190291,1.54442 0.488321,0.50495 0.647057,0.5984 1.180627,1.00879 0.447574,0.25235 0.558297,0.34421 1.024734,0.5049 0.130098,0.0448 0.261691,0.0985 0.399118,0.10542 0.471647,0.0238 0.949746,0.0568 1.416667,-0.0139 0.296727,-0.0449 0.802563,-0.63425 0.945221,-0.77763 0.712459,-0.80356 0.499216,-0.52639 1.139772,-1.39697 0.161007,-0.21883 0.307922,-0.44815 0.476015,-0.66158 0.08647,-0.10979 0.618651,-0.73293 0.803669,-0.83045 0.112831,-0.0595 0.25209,-0.039 0.378134,-0.0585 -0.208848,0.0421 -0.535474,-0.0663 -0.626549,0.12628 -0.07303,0.15443 0.31764,0.13181 0.459481,0.22703 0.270714,0.18173 0.608176,0.55146 0.824055,0.7885 0.389097,0.42725 0.341792,0.38423 0.677529,0.82435 0.138584,0.17958 0.356167,0.49352 0.552345,0.62866 0.529235,0.36455 1.290272,0.16218 1.831255,-0.0221 0.31896,-0.10866 1.005414,-1.10712 1.137081,-1.28073 0.201766,-0.2668 0.407517,-0.53063 0.605303,-0.80039 0.496147,-0.67671 0.662424,-0.98594 1.226397,-1.63568 0.440751,-0.50777 1.151123,-1.20912 1.667367,-1.64127 0.276619,-0.23155 0.575601,-0.435 0.863402,-0.6525 0.261456,-0.16309 0.509494,-0.34996 0.784365,-0.48925 0.384207,-0.19471 0.906063,-0.36371 1.346615,-0.39927 0.158888,-0.0128 0.614074,-0.057 0.477544,0.0252 -0.377021,0.22718 -0.983046,-0.0871 -0.362156,0.18172 0.21142,0.21191 0.117573,0.10257 0.28485,0.32512 0.02532,0.16031 1.15888,-0.0187 1.133565,-0.17902 v 0 c -0.222234,-0.2844 -0.0971,-0.14273 -0.380746,-0.42024 -0.610542,-0.47254 -0.230902,-0.25722 -1.640176,-0.30525 -0.158469,-0.005 -0.318267,0.008 -0.474295,0.0363 -0.207613,0.0376 -0.416409,0.082 -0.61232,0.1603 -0.473125,0.18914 -1.026816,0.59156 -1.435621,0.86176 -0.639162,0.52016 -1.123905,0.88876 -1.712169,1.47939 -0.217199,0.21807 -1.318143,1.46687 -1.520438,1.72371 -0.402283,0.51075 -0.712867,1.09055 -1.162929,1.56583 -0.219043,0.23773 -0.41801,0.49565 -0.657124,0.71318 -0.175567,0.15971 -0.57548,0.17525 -0.580337,0.41255 -0.004,0.19648 0.387246,0.08 0.568711,0.15544 0.0966,0.0402 -0.215112,-0.004 -0.310182,-0.048 -0.22216,-0.10206 -0.451072,-0.4029 -0.599874,-0.57097 -0.113585,-0.13321 -0.229864,-0.26417 -0.340759,-0.39963 -0.396092,-0.48384 -0.303194,-0.42229 -0.742267,-0.88641 -0.129324,-0.13669 -0.651569,-0.68279 -0.868948,-0.7316 -0.471754,-0.10593 -0.964332,-0.0718 -1.446498,-0.10762 -0.122536,0.0625 -0.259657,0.10231 -0.367607,0.18758 -0.192397,0.15199 -0.613934,0.72971 -0.730811,0.88626 -0.515551,0.69059 -0.983546,1.42443 -1.640607,1.99524 -0.190606,0.14201 -0.366228,0.30673 -0.571812,0.42602 -0.133937,0.0777 -0.540475,0.0443 -0.43648,0.15907 0.142118,0.1568 0.420788,0.0636 0.632311,0.057 0.135737,-0.004 -0.270089,-0.0333 -0.40233,-0.0642 -0.546921,-0.12778 -0.532189,-0.16051 -1.057077,-0.42117 -0.204073,-0.13156 -0.419505,-0.24699 -0.612225,-0.39469 -0.218024,-0.1671 -0.419629,-0.35528 -0.616413,-0.54693 -0.225636,-0.21975 -0.452363,-0.4406 -0.649657,-0.68611 -0.382085,-0.47547 -0.732304,-1.08695 -0.974257,-1.646 -0.117335,-0.27112 -0.198472,-0.5565 -0.297707,-0.83475 -0.04691,-0.28838 -0.100801,-0.5757 -0.140724,-0.86513 -0.152794,-1.10768 -0.09567,-1.00791 -0.236574,-2.17713 -0.132789,-1.10189 -0.307684,-2.20126 -0.550389,-3.28447 -0.226782,-0.67355 -0.296556,-0.93309 -0.579752,-1.57528 -0.09092,-0.20618 -0.179142,-0.41519 -0.296921,-0.60729 -0.09499,-0.15492 -0.16279,-0.37893 -0.337788,-0.42791 -0.447585,-0.12529 -0.933318,-0.12385 -1.393222,-0.0566 -0.138245,0.0202 -0.193305,0.20177 -0.289957,0.30266 -0.102576,0.21373 -0.215127,0.42295 -0.307726,0.64119 -0.140584,0.33132 -0.259726,0.67135 -0.391327,1.00634 -0.173953,0.44282 -0.349221,0.88512 -0.525327,1.32708 -0.613037,1.53848 -0.674524,1.74478 -1.405573,3.27815 -0.256109,0.53718 -0.532056,1.06468 -0.798086,1.59702 -0.245232,0.38932 -0.443982,0.81214 -0.735696,1.16796 -0.164721,0.20093 -1.293023,0.69637 2.65e-4,0.53567 0.146627,-0.0182 -0.293404,-0.0531 -0.428834,-0.11218 -0.34108,-0.14879 -0.613704,-0.41564 -0.892987,-0.64925 -0.105667,-0.11624 -0.894297,-0.98135 -0.967178,-1.07204 -0.150899,-0.18776 -0.279209,-0.39261 -0.419973,-0.58809 -0.125279,-0.17397 -0.261118,-0.34061 -0.378149,-0.52024 -0.06803,-0.10442 -0.267565,-0.48228 -0.352753,-0.64213 -0.01212,-0.16599 -1.185863,-0.0803 -1.173746,0.0857 z"
           id="path2416"
           style="opacity:1;fill:#e7b32d;fill-opacity:0.501961;stroke:none;stroke-width:2.43822;stroke-linejoin:round" />
      </g>
      <text
         xml:space="preserve"
         style="font-style:normal;font-weight:normal;font-size:6.9878px;line-height:0.85;font-family:sans-serif;fill:#333333;fill-opacity:1;stroke:none;stroke-width:0.264583"
         x="16.32917"
         y="227.05342"
         id="text2380-5-4"><tspan
           id="tspan2404-5"
           sodipodi:role="line"
           x="16.32917"
           y="227.05342"
           style="font-style:normal;font-variant:normal;font-weight:normal;font-stretch:normal;font-size:6.9878px;font-family:Courier;-inkscape-font-specification:Courier;fill:#333333;fill-opacity:1;stroke-width:0.264583">links</tspan></text>
    </g>
  </g>
</svg>
