<?xml version="1.0" encoding="UTF-8" standalone="no"?>
<svg
   xmlns:dc="http://purl.org/dc/elements/1.1/"
   xmlns:cc="http://creativecommons.org/ns#"
   xmlns:rdf="http://www.w3.org/1999/02/22-rdf-syntax-ns#"
   xmlns:svg="http://www.w3.org/2000/svg"
   xmlns="http://www.w3.org/2000/svg"
   xmlns:xlink="http://www.w3.org/1999/xlink"
   xmlns:sodipodi="http://sodipodi.sourceforge.net/DTD/sodipodi-0.dtd"
   xmlns:inkscape="http://www.inkscape.org/namespaces/inkscape"
   width="122.32979mm"
   height="32.642437mm"
   viewBox="0 0 122.32979 32.642437"
   version="1.1"
   id="svg11973"
   inkscape:version="1.0 (4035a4f, 2020-05-01)"
   sodipodi:docname="links2.svg">
  <defs
     id="defs11967">
    <linearGradient
       id="linearGradient3140"
       inkscape:collect="always">
      <stop
         id="stop3136"
         offset="0"
         style="stop-color:#f0f02f;stop-opacity:1" />
      <stop
         id="stop3138"
         offset="1"
         style="stop-color:#e3e32d;stop-opacity:1" />
    </linearGradient>
    <linearGradient
       gradientUnits="userSpaceOnUse"
       y2="265.15448"
       x2="301.03906"
       y1="259.95731"
       x1="228.3969"
       id="linearGradient3142"
       xlink:href="#linearGradient3140"
       inkscape:collect="always" />
  </defs>
  <sodipodi:namedview
     id="base"
     pagecolor="#ffffff"
     bordercolor="#666666"
     borderopacity="1.0"
     inkscape:pageopacity="0.0"
     inkscape:pageshadow="2"
     inkscape:zoom="2.0363696"
     inkscape:cx="255.1401"
     inkscape:cy="54.216279"
     inkscape:document-units="mm"
     inkscape:current-layer="layer1"
     inkscape:document-rotation="0"
     showgrid="false"
     inkscape:window-width="1440"
     inkscape:window-height="855"
     inkscape:window-x="0"
     inkscape:window-y="23"
     inkscape:window-maximized="0" />
  <metadata
     id="metadata11970">
    <rdf:RDF>
      <cc:Work
         rdf:about="">
        <dc:format>image/svg+xml</dc:format>
        <dc:type
           rdf:resource="http://purl.org/dc/dcmitype/StillImage" />
        <dc:title />
      </cc:Work>
    </rdf:RDF>
  </metadata>
  <g
     inkscape:label="Layer 1"
     inkscape:groupmode="layer"
     id="layer1"
     transform="translate(-210.22201,-249.01807)">
    <path
       style="fill:#ffff00;stroke:#d9d5c3;stroke-width:0.4;stroke-linejoin:round;stroke-opacity:0.60000002;stroke-miterlimit:4;stroke-dasharray:none;paint-order:stroke markers fill"
       id="path2374"
       d="m 243.40096,267.05733 c 0.11308,-0.46754 0.15862,-0.95549 0.33946,-1.40261 0.49947,-1.23494 1.41057,-2.49557 2.16106,-3.58408 0.77374,-1.12223 1.22634,-1.88271 2.25953,-2.77235 0.338,-0.29103 0.74221,-0.50067 1.11331,-0.751 0.20216,-0.14903 0.3592,-0.39063 0.60646,-0.4471 0.26298,-0.0601 1.06963,0.10708 0.80014,0.12586 -3.86328,0.26929 -7.72851,0.61114 -11.60175,0.62707 -0.20903,8.7e-4 0.10135,-0.39505 0.18616,-0.58014 0.0177,-0.0384 0.0804,-0.0974 0.11042,-0.0669 0.18346,0.18746 0.3005,0.42682 0.45075,0.64023 0.0171,0.3608 0.0342,0.7216 0.0514,1.08239 0.13201,0.39327 0.35694,0.76801 0.39597,1.17981 0.039,0.41116 -0.19939,0.81618 -0.16778,1.22792 0.0339,0.44116 0.33098,0.83892 0.36032,1.28038 -0.24712,1.78875 -0.23213,0.89505 -0.0483,2.68105 -0.14892,0.82706 -0.043,1.67344 -0.1467,2.50307 -0.0488,0.3901 -0.22683,0.76291 -0.24023,1.15564 -0.0147,0.42966 0.0909,0.85561 0.15705,1.2807 0.24606,1.57909 0.21013,1.25478 0.73829,2.77676 0.51379,0.78643 0.72725,1.7263 1.22253,2.52123 2.67632,4.29547 7.68648,2.26855 13.77698,2.01417 0.32996,-0.0138 2.52684,-3.16674 2.59232,-3.25722 0.46255,-0.70739 0.9484,-1.40098 1.38766,-2.12218 0.47526,-0.78026 0.89774,-1.58963 1.3546,-2.38013 0.47338,-0.81906 0.95236,-1.63509 1.43608,-2.44848 0.46434,-0.78077 0.92622,-1.5631 1.40798,-2.33392 0.45143,-0.72228 0.97291,-1.40401 1.39121,-2.14478 0.36377,-0.64425 0.63339,-1.33436 0.95009,-2.00154 0.83155,-1.41573 1.20434,-2.15616 2.19436,-3.44734 0.34852,-0.45451 0.78002,-0.84635 1.1201,-1.30683 0.252,-0.34121 0.37427,-0.76627 0.64993,-1.08984 0.34576,-0.40586 1.18456,-0.90779 1.65317,-1.2095 0.30078,-0.20867 0.84646,-0.52115 1.20439,-0.19292 0.088,0.0806 0.29437,0.3045 0.17346,0.30898 -12.22386,0.45249 -12.45973,3.92597 -11.83511,-0.58176 0.004,-0.0719 -0.0512,-0.25285 0.012,-0.21572 0.0852,0.0497 0.0487,0.18803 0.0902,0.2756 0.64215,1.35347 0.16523,-0.16352 0.33083,1.66457 0.2394,2.64253 0.45074,0.27291 -0.0726,3.26208 -0.33747,1.68818 -0.28255,3.42198 -0.71872,5.09423 -0.37458,1.43611 -0.69472,1.25173 -0.50171,2.8927 0.0832,0.70739 0.33572,1.38629 0.50358,2.07943 0.23799,0.7107 0.47599,1.42139 0.71398,2.13208 0.19207,0.6972 0.34982,1.40415 0.57622,2.09161 0.51663,1.5687 0.81374,1.93973 1.38851,3.41605 0.82449,2.11774 -10e-4,0.42199 0.90196,2.15578 3.29517,4.10803 1.46331,2.37929 13.59192,-0.0529 0.59819,-0.11996 0.43481,-1.10748 0.60629,-1.67551 0.21063,-0.69766 0.3351,-1.41769 0.53874,-2.1173 0.73266,-2.51701 0.95768,-2.90507 1.95587,-5.43291 0.87519,-3.1668 2.56874,-6.0082 4.2686,-8.81124 0.4826,-0.79578 1.01729,-1.56151 1.48966,-2.36302 1.78747,-3.03295 0.2075,-0.92306 2.25241,-3.40811 1.79609,-2.14871 -0.0615,-0.11187 1.74861,-1.65203 0.11469,-0.0976 0.12615,-0.30167 0.26584,-0.36112 0.17456,-0.0743 0.41846,-0.10493 0.57193,0.004 0.12242,0.0874 0.20176,0.43935 0.0498,0.43923 -4.0982,-0.003 -8.19059,-0.29942 -12.2859,-0.44913 0.0287,-0.12354 0.0137,-0.47616 0.0859,-0.37063 0.21624,0.31584 0.21093,1.57886 0.21503,1.81431 0.007,0.4101 0.0514,0.82378 -0.004,1.23048 -0.0623,0.46186 -0.23831,0.90261 -0.34552,1.35667 -0.11216,0.47495 -0.20829,0.95329 -0.31244,1.42994 -0.2018,1.61357 -0.68633,3.18102 -0.80001,4.80701 -0.0351,0.50086 0.0437,1.00637 -0.007,1.50602 -0.49839,4.96545 -0.15146,-1.89297 -0.33725,2.6787 0.14223,2.18636 -0.071,0.10202 0.3528,2.12612 0.0668,0.31881 0.0221,0.66026 0.13268,0.96742 1.65188,4.58884 10.86925,1.85512 13.4413,1.67133 0.65722,-0.047 0.68697,-1.08973 1.03045,-1.63459 0.40292,-0.54661 0.82495,-1.08046 1.20879,-1.63984 0.4223,-0.61546 0.77228,-1.27649 1.2084,-1.88286 0.47933,-0.66647 1.03579,-1.27791 1.53451,-1.93088 0.49154,-0.64358 0.93688,-1.31979 1.43575,-1.95806 1.3493,-1.72635 1.78434,-2.12592 3.26606,-3.71668 0.51469,-0.48664 1.0073,-0.99619 1.54405,-1.45992 0.5705,-0.4929 1.46356,-1.39896 2.42151,-1.16556 0.30104,0.0733 0.97482,0.62183 0.66458,0.63202 -13.8079,0.4535 -14.97731,0.85658 -11.16357,-0.35914 0.27672,0.28946 0.44932,0.39511 0.49432,0.8584 0.028,0.28868 -0.10145,0.57779 -0.0763,0.8667 0.0299,0.34058 0.22867,0.65717 0.23941,0.99882 0.011,0.34383 -0.11735,0.67852 -0.17597,1.01779 0.0278,0.34871 0.0559,0.69741 0.0838,1.04613 0.17191,0.70833 -0.21656,1.3801 -0.19989,2.07439 0.008,0.34875 0.14665,0.68312 0.21224,1.02613 0.0607,0.31703 0.0781,0.64291 0.16641,0.95378 0.16725,0.58833 0.58988,1.3462 0.8603,1.8772 0.19481,0.35479 0.30343,0.76875 0.58443,1.06435 0.25583,0.26913 0.59241,0.60158 0.96861,0.56941 4.41592,-0.37757 8.88385,-0.68908 13.17194,-1.77848 0.58651,-0.149 2.38357,-3.86156 2.55758,-4.14766 0.47014,-0.77292 1.02504,-1.49442 1.53755,-2.24164 6.20855,-8.40735 -2.91528,3.88323 3.09065,-4.00361 0.42761,-0.56151 0.75945,-1.19182 1.22367,-1.72535 0.11615,-0.13354 2.26815,-2.12363 2.61188,-2.33934 0.37715,-0.23668 0.82646,-0.34204 1.23967,-0.51307 0.25521,0.0294 0.53151,-0.0146 0.76561,0.0882 0.23035,0.10106 0.81434,0.48806 0.56154,0.4941 -3.6759,0.0879 -7.3513,-0.21275 -11.02818,-0.24372 -0.16429,-0.002 0.32969,0.0663 0.46628,0.15478 0.79995,0.51805 0.78594,0.75516 1.266,1.59551 0.94164,1.91213 1.50025,3.97346 1.9291,6.04334 0.56523,2.72824 -0.0571,0.0974 0.55084,2.57342 0.0403,0.34169 0.0829,0.68312 0.12095,1.02506 0.0989,0.89004 0.0288,0.81083 0.29866,1.63364 0.0764,0.23284 0.16734,0.4613 0.26553,0.68634 0.0944,0.21633 0.2653,0.40607 0.31171,0.6366 0.0416,0.20632 -0.0381,0.4188 -0.0571,0.6282 0.12228,0.79842 0.0301,0.41327 0.26984,1.15694 0.10763,1.7513 12.88991,1.01361 12.78222,-0.73769 v 0 c -0.009,-0.86137 0.064,-0.44294 -0.22017,-1.25552 -0.097,-0.19969 -0.19421,-0.39938 -0.29133,-0.59907 -0.0327,-0.2078 -0.0172,-0.42834 -0.098,-0.62341 -0.1009,-0.24358 -0.31935,-0.42768 -0.43569,-0.66473 -0.39472,-0.80425 -0.3598,-1.72231 -0.49323,-2.581 -0.5542,-1.66358 -0.22884,-0.80441 -0.99723,-2.56989 -0.9147,-2.64182 0.0242,-0.47278 -0.65407,-3.24984 -0.14386,-0.58899 -0.39771,-1.14755 -0.59658,-1.72132 -0.13069,-0.54762 -0.26145,-1.09523 -0.39218,-1.64285 -0.31567,-0.89779 -0.64499,-1.97843 -1.13509,-2.81234 -0.23862,-0.40598 -0.36652,-1.06715 -0.84301,-1.139 -4.12884,-0.62259 -8.32639,-0.75651 -12.50319,-0.87348 -0.41274,-0.0116 -0.78701,0.26896 -1.12998,0.49168 -0.33843,0.21978 -0.58999,0.54454 -0.88499,0.81681 -0.31634,0.31334 -0.65484,0.60703 -0.94906,0.94001 -0.34911,0.39511 -0.65255,0.82605 -0.97732,1.24018 -0.4014,0.51182 -0.79884,1.02655 -1.20121,1.53766 -0.47409,0.60224 -1.00394,1.16617 -1.42816,1.80236 -0.43523,0.6527 -0.76129,1.36794 -1.14194,2.05191 -0.481,0.6985 -0.96202,1.397 -1.44302,2.09551 -0.36567,0.4607 -2.79061,3.54417 -3.26831,4.04 -0.45777,0.47515 -2.17177,1.19819 -1.50786,1.29155 14.75266,2.07442 13.2965,-2.09835 9.96973,0.44439 -0.15336,0.11721 -0.28059,0.26336 -0.42089,0.39504 -0.11214,-0.023 -0.24623,-6.9e-4 -0.33659,-0.0691 -0.43205,-0.32712 -0.42702,-0.66166 -0.53151,-1.14989 -0.0572,-0.26755 -0.12562,-0.53391 -0.15743,-0.8054 -0.0627,-0.5346 -0.0368,-1.33495 -0.0316,-1.86222 0.0491,-0.43056 0.21789,-1.75693 0.19613,-2.18941 -0.0198,-0.39178 -0.15686,-0.77159 -0.18649,-1.16278 -0.0301,-0.39779 0.0315,-0.79836 0.008,-1.19656 -0.0527,-0.88522 -0.21132,-1.49362 -0.39077,-2.35714 -2.71867,-4.62803 -0.70431,-1.96216 -13.2582,-2.05409 -0.39817,-0.003 -0.5943,0.51358 -0.88991,0.77205 -0.34689,0.30331 -0.73132,0.57134 -1.03758,0.91327 -0.34256,0.38246 -0.59775,0.83084 -0.89664,1.24627 -0.47431,0.50684 -0.94863,1.01369 -1.42293,1.52053 -3.19811,4.25589 0.57297,-0.60428 -3.31031,3.85396 -0.55225,0.634 -1.03539,1.32161 -1.55043,1.98438 -0.49187,0.63294 -0.92995,1.30798 -1.47024,1.90271 -0.52253,0.57522 -1.14241,1.06006 -1.70791,1.59578 -0.3954,0.37458 -0.78313,0.75668 -1.1747,1.13502 -0.36009,-0.0432 -1.44236,-0.15245 -1.08027,-0.12965 3.88758,0.24477 7.78779,0.3678 11.65845,0.79568 0.21425,0.0237 -0.25023,0.38724 -0.45821,0.44246 -0.62863,0.1669 -0.60772,-1.47018 -0.58715,-1.63396 -0.34351,-1.72626 -0.18881,-0.41372 -0.0897,-2.31901 0.0239,-0.4624 -0.0166,-0.92693 0.0154,-1.38888 0.0353,-0.51031 0.0892,-1.02096 0.18591,-1.52377 0.20378,-1.05974 0.62628,-2.07309 0.77407,-3.14578 0.0505,-0.30787 0.43186,-2.66771 0.50916,-3.00531 0.11281,-0.49234 0.34077,-0.95963 0.41304,-1.45905 0.0654,-0.45158 -0.0249,-0.91244 -0.004,-1.36797 0.10785,-2.32526 0.26433,0.0233 -0.0671,-2.80335 -4.2813,-0.2674 -8.55403,-0.75477 -12.84394,-0.80218 -0.2488,-0.003 -0.20042,0.44153 -0.3124,0.6568 -0.0896,0.17226 -0.21117,0.32855 -0.29182,0.50491 -0.0958,0.20977 -0.11006,0.45491 -0.23587,0.64926 -1.36137,2.10228 -0.16517,-0.65124 -1.17494,2.04192 -0.318,0.52808 -0.65971,1.0434 -0.95395,1.58425 -0.95786,1.76063 -1.27017,2.64181 -2.10122,4.52264 -1.34737,3.04937 -2.71751,6.09472 -4.36363,9.0073 -1.96045,4.46563 -0.4653,1.35077 -2.697,5.36026 -0.31333,0.56293 -0.505,1.19618 -0.89782,1.71017 -0.18988,0.24846 -1.11805,0.49625 -0.7993,0.51041 11.65112,0.51734 13.16831,-3.53869 11.41439,0.55968 -0.79441,-0.36541 -0.97965,-0.32915 -1.48845,-1.18451 -0.25933,-0.43598 -0.36594,-0.94331 -0.59156,-1.39654 -0.29054,-0.58368 -0.68195,-1.1182 -0.95472,-1.70986 -0.82467,-1.7886 -0.71469,-1.92508 -1.0112,-3.81513 -0.0688,-0.52633 -0.18047,-1.04905 -0.20645,-1.579 -0.0191,-0.38718 0.0488,-0.77378 0.0721,-1.16074 0.13229,-2.19344 0.28051,-4.39397 0.90113,-6.52161 0.0502,-0.6231 0.0615,-1.2503 0.15081,-1.86929 0.0815,-0.56577 0.28733,-1.11096 0.36054,-1.67781 0.18246,-1.41294 0.0256,-1.37072 -0.0957,-2.64337 -0.0295,-0.30898 0.0276,-0.62861 -0.0501,-0.92961 -0.0841,-0.32531 -0.28487,-0.61133 -0.42732,-0.91699 -0.13638,-0.34276 -0.031,-1.00043 -0.4092,-1.02828 -8.25245,-0.6079 -9.40123,-2.4587 -12.7681,0.48695 -0.15247,0.13338 -0.3123,0.26078 -0.44681,0.41119 -0.13096,0.14646 -0.23052,0.31672 -0.34577,0.47509 -0.17526,0.19028 -0.3505,0.38056 -0.52576,0.57084 -0.70681,1.22416 -0.14001,0.27418 -1.0462,1.68401 -0.2547,0.39627 -0.49328,0.80231 -0.75573,1.1938 -0.32825,0.48965 -0.71786,0.94142 -1.01587,1.44889 -0.32767,0.55796 -0.55178,1.16784 -0.85577,1.73823 -0.34031,0.63852 -0.71755,1.25793 -1.07631,1.88689 -1.12204,2.13628 -1.01793,1.89806 -2.10267,4.13332 -0.37347,0.76958 -0.66626,1.57922 -1.10556,2.31545 -0.48495,0.81267 -1.11247,1.5373 -1.65681,2.31385 -2.07026,2.95342 -0.72184,1.40763 -3.15721,3.82543 -0.43636,0.32229 -0.7988,0.77143 -1.30907,0.96688 -0.33699,0.12905 -1.44682,-0.0807 -1.08589,-0.0496 3.6206,0.31129 7.24372,0.59433 10.86566,0.89048 0.22882,0.0187 -0.47945,0.0385 -0.68629,-0.0581 -0.31387,-0.14661 -0.62551,-0.35403 -0.80965,-0.64064 -0.19729,-0.30709 -0.18491,-0.70091 -0.27737,-1.05137 -0.20415,-0.35535 -0.47529,-0.68169 -0.61245,-1.06605 -0.12214,-0.34229 -0.0964,-0.71836 -0.15219,-1.07649 -0.0534,-0.34307 -0.15429,-0.68054 -0.17547,-1.02689 -0.0742,-1.21391 0.3924,-2.40344 0.0992,-3.61669 0.17999,-2.82274 0.0846,0.10645 -0.10708,-2.77004 -0.0307,-0.46191 0.001,-0.92577 0.008,-1.3886 0.0187,-1.37683 0.11335,-2.75998 -0.0989,-4.12934 -0.21829,-0.69258 -0.62825,-2.05957 -0.92274,-2.73511 -0.17144,-0.39321 -0.15838,-1.12596 -0.59867,-1.14165 -11.82778,-0.42166 -10.08339,-2.11585 -13.77704,2.14126 -0.47394,0.59961 -1.52266,1.90616 -1.90281,2.48407 -0.35812,0.54442 -0.63061,1.13856 -0.98424,1.68574 -0.41579,0.64337 -0.90847,1.23817 -1.32205,1.88288 -2.65982,4.1463 0.40724,-0.18286 -2.19302,3.39605 -0.18963,1.73735 12.49086,3.03644 12.68049,1.29909 z" />
    <path
       style="fill:url(#linearGradient3142);fill-opacity:1;stroke-width:0.564999;stroke-linejoin:round;stroke-dasharray:0.564999, 0.56499900000000003"
       id="path1465"
       d="m 234.24799,265.59406 c 0.0571,-0.14549 0.0989,-0.29912 0.17135,-0.43648 0.17654,-0.33481 0.56451,-0.855 0.78412,-1.14104 0.14408,-0.18766 0.28434,-0.37973 0.44301,-0.55322 0.16348,-0.17875 0.34881,-0.33269 0.52139,-0.50122 0.17479,-0.17069 0.34713,-0.34424 0.52068,-0.51638 0.81254,-0.80157 1.70655,-1.48945 2.6996,-2.00742 0.60772,-0.31698 0.78597,-0.36349 1.40372,-0.59508 0.17436,-0.0525 0.34447,-0.12554 0.52308,-0.15736 0.14767,-0.0263 0.59843,-0.0204 0.44881,-0.0157 -0.61596,0.0191 -1.23354,0.006 -1.84781,0.059 -0.10563,0.009 0.21132,0.033 0.31071,0.0726 0.35236,0.14041 0.31745,0.17688 0.54645,0.48213 0.91696,1.29455 0.99973,2.94871 1.14324,4.5073 0.0389,0.81228 0.15082,1.61831 0.19963,2.42965 0.0207,0.34358 0.0229,0.68817 0.0325,1.03231 0.009,0.30728 -0.0347,0.62068 0.0221,0.92193 0.10317,0.54665 0.64016,1.79419 0.83489,2.27491 0.64787,1.34295 1.30199,2.83844 2.48075,3.75188 0.53393,0.41375 1.14448,0.64691 1.74353,0.91538 0.25296,0.0817 0.49932,0.19254 0.75885,0.24516 1.01072,0.20487 3.3343,-0.0459 3.74766,-0.127 0.29565,-0.0581 0.51985,-0.3275 0.76117,-0.52042 0.61089,-0.4884 1.18287,-1.12192 1.72638,-1.68473 2.02154,-2.61263 3.65296,-5.53094 5.31643,-8.41129 0.16672,-0.26827 1.40038,-2.23787 1.5937,-2.6047 0.18653,-0.35396 0.31686,-0.73931 0.4905,-1.10079 0.17917,-0.37296 0.38157,-0.73245 0.56748,-1.10155 0.20688,-0.41072 0.39264,-0.83395 0.61084,-1.23781 0.25036,-0.46336 0.52928,-0.9081 0.79393,-1.36213 0.27393,-0.46998 1.28463,-2.22121 1.58929,-2.67527 0.27798,-0.41431 0.58492,-0.80542 0.8899,-1.19708 0.51546,-0.66192 1.00977,-1.27633 1.64066,-1.81246 0.24723,-0.2101 0.52518,-0.37446 0.78778,-0.5617 0.26914,-0.11976 0.52928,-0.26641 0.80742,-0.35931 0.22193,-0.0741 0.91696,-0.12443 0.685,-0.13918 -0.52942,-0.0336 -1.06485,-0.005 -1.58923,0.0817 -0.16368,0.0266 0.33095,0.0421 0.48826,0.0977 0.47062,0.16602 0.47695,0.26537 0.81978,0.64167 0.4089,0.81071 0.7639,1.64597 0.90078,2.56499 0.0122,0.0822 0.16309,1.80179 0.16454,1.81807 0.0227,0.37261 0.0619,0.74448 0.0683,1.11783 0.008,0.42448 -0.0261,0.84877 -0.0274,1.27333 -0.002,0.57332 0.0123,1.14657 0.0175,1.71987 0.006,0.66913 0.005,1.33838 0.0163,2.00742 0.012,0.69063 0.0582,1.38068 0.0548,2.07143 -0.003,0.62749 -0.05,1.25386 -0.0749,1.88079 0.008,0.5526 -0.0202,1.10706 0.0226,1.6578 0.042,0.53991 0.14111,1.07319 0.23102,1.60628 0.19222,1.13958 0.3086,1.73738 0.70812,2.79821 0.14524,0.38562 0.29374,0.77449 0.50039,1.12608 0.20198,0.34366 0.47785,0.62992 0.71677,0.94487 0.26182,0.25347 0.48943,0.55519 0.78544,0.76038 1.31451,0.91114 3.67117,0.84318 5.03671,0.0524 0.46781,-0.27091 1.20711,-1.03673 1.58407,-1.40237 0.69622,-0.87465 1.25279,-1.86343 1.69815,-2.90928 0.28807,-0.67649 0.63768,-1.74064 0.89797,-2.42041 0.16555,-0.43238 0.34605,-0.85797 0.51908,-1.28696 0.66575,-1.33455 1.25293,-2.71088 1.99387,-4.00122 0.23658,-0.412 0.49452,-0.80933 0.74628,-1.21075 0.23338,-0.37211 0.45909,-0.75039 0.70908,-1.10976 0.23347,-0.33562 0.49335,-0.64895 0.74004,-0.97342 0.68774,-0.74391 1.37572,-1.52768 2.28433,-1.96182 0.23524,-0.11239 0.4825,-0.21037 0.73788,-0.2445 0.26818,-0.0359 1.07704,-0.006 0.80995,0.0377 -0.49165,0.0816 -0.9938,0.0502 -1.49069,0.0752 0.69371,0.172 1.20868,0.62555 1.70561,1.15112 0.19102,0.20202 0.38942,0.39957 0.55034,0.63001 0.12703,0.18191 0.73209,1.37324 0.8207,1.5452 0.53248,0.9128 0.7582,1.96612 0.96734,3.00641 0.047,0.23347 0.077,0.47137 0.13792,0.70105 0.0703,0.26508 0.16992,0.5201 0.25489,0.78014 0.0612,0.29334 0.0976,0.594 0.18367,0.88002 0.17466,0.58066 0.5078,1.2569 0.79952,1.77582 0.14828,0.26377 0.29148,0.53422 0.4759,0.77007 0.18766,0.23999 0.40123,0.45904 0.6334,0.64856 0.23401,0.19104 0.50433,0.32402 0.75651,0.48602 0.27124,0.10429 0.532,0.24848 0.81373,0.31287 1.18581,0.27103 3.72585,-0.15363 4.28417,-0.27916 0.4311,-0.0969 0.79825,-0.40462 1.17616,-0.64816 0.99017,-0.63809 1.49429,-1.1407 2.39085,-1.92785 1.50718,-1.74263 2.84365,-3.6474 4.19927,-5.52636 0.30371,-0.42097 0.59065,-0.85643 0.90855,-1.26506 0.30423,-0.39108 0.63757,-0.75478 0.95636,-1.13215 0.65286,-0.49094 1.0964,-1.22071 1.69254,-1.7747 0.23166,-0.2153 0.49233,-0.39203 0.74805,-0.573 0.41201,-0.29159 0.7115,-0.49052 1.19058,-0.60487 0.16798,-0.0401 0.34275,-0.0328 0.51411,-0.0492 -0.58749,0.0263 -1.1801,-0.008 -1.7625,0.0788 -0.16649,0.0249 0.33757,0.0439 0.49359,0.11137 0.16429,0.071 0.30827,0.18865 0.45338,0.29785 0.19643,0.14782 0.39491,0.29566 0.56978,0.47212 0.43104,0.43494 0.7151,0.91621 1.05988,1.43006 0.1638,0.30736 0.89791,1.66962 1.01933,1.96231 0.0838,0.20185 0.70322,2.15937 0.74665,2.3343 0.10173,0.40987 0.15568,0.83179 0.23504,1.24734 0.0756,0.39573 0.15319,0.79103 0.22979,1.18653 0.328,1.76336 0.11556,0.48717 0.3312,2.13176 0.0331,0.2524 0.17243,1.12756 0.18956,1.43835 0.0453,0.82222 -0.0964,0.12391 0.0731,0.80272 0.01,0.32225 -0.01,0.1753 0.0456,0.44257 0.007,0.36833 2.42444,0.31868 2.41793,-0.0496 v 0 c 0.027,-0.29641 0.0349,-0.13635 -0.052,-0.47756 0.007,-0.1204 0.0338,-0.2414 0.0208,-0.3612 -0.0171,-0.15737 -0.0767,-0.30601 -0.1101,-0.46032 -0.0447,-0.20626 -0.0844,-0.41376 -0.12428,-0.62117 -0.18841,-0.97981 -0.3974,-1.95872 -0.46149,-2.96002 -0.0816,-0.40485 -0.16515,-0.80927 -0.24477,-1.21459 -0.0838,-0.42671 -0.14662,-0.85853 -0.24557,-1.28148 -0.0994,-0.42515 -0.2243,-0.84309 -0.34907,-1.26042 -0.11843,-0.39615 -0.22417,-0.79874 -0.38031,-1.17942 -0.15349,-0.37419 -0.36622,-0.71681 -0.54541,-1.0775 -0.16403,-0.33015 -0.32281,-0.66328 -0.48421,-0.99493 -0.17059,-0.28768 -0.32597,-0.58651 -0.51177,-0.86303 -0.35954,-0.5351 -0.64763,-0.83072 -1.0962,-1.26951 -0.18122,-0.17727 -0.71673,-0.71803 -1.00807,-0.74396 -0.9267,-0.0824 -1.8597,9.2e-4 -2.78955,0.002 -0.2043,0.084 -1.02126,0.41419 -1.15141,0.49745 -0.20287,0.12981 -0.36644,0.32034 -0.55069,0.47912 -0.24336,0.20971 -0.50189,0.40008 -0.7321,0.62635 -0.11979,0.11774 -1.62367,1.81221 -1.6454,1.83661 -0.33166,0.38551 -0.683,0.75243 -0.99501,1.15651 -0.31776,0.41153 -0.59638,0.85637 -0.89165,1.28689 -1.2883,1.87838 -2.56407,3.7877 -4.16015,5.38475 -0.70994,0.5854 -1.54579,1.33567 -2.35697,1.77221 -0.39984,0.21517 -1.13983,0.0442 -1.25474,0.50946 -0.0937,0.37931 0.89873,-0.11551 1.07219,0.22968 0.2674,0.53211 -1.85354,-0.20673 -1.68266,-0.0987 -0.46707,-0.2578 -0.92601,-0.46329 -1.30816,-0.87041 -0.18728,-0.19951 -0.32774,-0.44513 -0.47362,-0.68139 -0.47262,-0.76548 -0.81623,-1.59495 -0.98309,-2.49935 -0.0632,-0.28724 -0.25953,-1.16869 -0.31648,-1.47146 -0.0434,-0.2308 -0.0558,-0.46886 -0.11524,-0.69548 -0.0668,-0.25488 -0.18309,-0.49189 -0.2618,-0.74277 -0.47556,-1.51591 0.0353,-0.21183 -0.61683,-1.74096 -0.14692,-0.29757 -0.66374,-1.36649 -0.85139,-1.66239 -0.45645,-0.71975 -1.07609,-1.40212 -1.76155,-1.86933 -0.20466,-0.1395 -0.4314,-0.23727 -0.6471,-0.35591 -0.98184,-0.0467 -1.96275,-0.14577 -2.94553,-0.13993 -0.25572,9.2e-4 -0.50684,0.0846 -0.75228,0.16188 -0.29642,0.0933 -0.5951,0.19313 -0.86818,0.34852 -0.90361,0.51419 -1.51704,1.44793 -2.23899,2.18959 -1.56323,2.29685 0.18605,-0.31503 -1.37832,2.15947 -0.26166,0.41389 -0.56477,0.79753 -0.80955,1.22325 -0.24809,0.43147 -0.43847,0.89856 -0.666,1.343 -1.07812,2.10584 -0.41016,0.61719 -1.29251,2.73567 -0.14697,0.36333 -0.87013,2.14972 -1.02431,2.53608 -0.14979,0.37539 -0.27921,0.76065 -0.44498,1.12816 -0.44141,0.97858 -0.99774,1.90408 -1.70486,2.68359 -0.48794,0.41746 -0.9493,0.87613 -1.53602,1.13787 -0.2767,0.12343 -1.08305,0.022 -0.86866,0.24722 0.29164,0.30641 0.8196,0.2146 1.21723,0.119 0.61199,-0.14714 -2.53664,-0.0425 -1.72783,-0.80135 -0.20747,-0.27888 -0.44206,-0.53668 -0.62242,-0.83664 -0.31404,-0.52224 -0.81108,-1.72314 -0.96881,-2.287 -0.13055,-0.46672 -0.20163,-0.95063 -0.28548,-1.42963 -0.0894,-0.51107 -0.18145,-1.02272 -0.23426,-1.53968 -0.0555,-0.54386 -0.0602,-1.09237 -0.0904,-1.63855 -0.0287,-3.41654 -0.0181,-0.32074 0.0176,-3.94919 0.007,-0.66778 -0.0121,-1.33592 0.007,-2.00343 0.03,-1.06762 0.15188,-1.96366 0.13306,-3.01832 -0.007,-0.38027 -0.0522,-0.75861 -0.0783,-1.13791 -0.04,-1.38268 0.0179,-0.5929 -0.15138,-1.90051 -0.033,-0.25528 -0.13955,-1.26082 -0.22426,-1.52967 -0.0149,-0.0472 -0.61316,-1.30832 -0.63837,-1.36162 -0.29237,-0.42988 -0.4377,-0.74446 -0.87713,-1.01633 -0.18894,-0.1169 -0.39411,-0.23629 -0.61171,-0.24815 -1.48874,-0.0811 -2.38588,-0.2513 -3.56242,0.33341 -0.26775,0.13307 -0.51616,0.30727 -0.77423,0.46091 -0.26508,0.2183 -0.54427,0.41804 -0.79525,0.6549 -0.96654,0.91217 -1.73263,2.03983 -2.47968,3.15576 -0.29596,0.4421 -0.59825,0.88006 -0.87231,1.33825 -0.26615,0.44495 -0.498,0.91266 -0.74699,1.36898 -0.68357,1.22889 -1.38079,2.45335 -2.02486,3.70716 -0.18326,0.35675 -0.34299,0.72738 -0.53217,1.08052 -0.2183,0.40751 -0.45972,0.80013 -0.68958,1.20018 -0.2457,0.47081 -0.49139,0.94161 -0.73709,1.41242 -0.33227,0.52417 -0.67177,1.04311 -0.99683,1.57251 -0.60706,0.98864 -1.15982,2.01538 -1.77435,2.99865 -0.80569,1.28913 -1.68444,2.53479 -2.66503,3.6756 -0.61905,0.64876 -0.9216,1.0582 -1.66377,1.51089 -0.24124,0.14713 -0.99545,0.1744 -0.76767,0.34462 0.38757,0.28961 0.94919,0.0242 1.40953,0.13503 0.45936,0.11057 -1.8281,0.0323 -1.40057,-0.19375 -0.58978,-0.18243 -1.2129,-0.33295 -1.75033,-0.67305 -0.48353,-0.30597 -1.05185,-0.92327 -1.36941,-1.40579 -0.21493,-0.32655 -0.89176,-1.74962 -1.04695,-2.06885 -0.18239,-0.36489 -0.40888,-0.70795 -0.54714,-1.0947 -0.1127,-0.31522 -0.13544,-0.65966 -0.19838,-0.99057 -0.24939,-1.3112 -0.11151,-0.48858 -0.20315,-1.91966 -0.16676,-2.60444 -0.048,0.25392 -0.14132,-2.44256 -0.045,-0.38798 -0.0942,-0.77543 -0.13491,-1.16396 -0.0957,-0.91365 -0.0536,-1.02474 -0.25513,-1.89627 -0.0575,-0.24835 -0.13999,-0.48918 -0.21344,-0.73258 -0.0618,-0.20473 -0.10961,-0.4157 -0.19224,-0.61171 -0.0766,-0.18178 -0.18867,-0.34373 -0.283,-0.51559 -0.34338,-0.48689 -0.22067,-0.37858 -0.66016,-0.74867 -0.11307,-0.0952 -0.20535,-0.25819 -0.34823,-0.27273 -1.8969,-0.19312 -2.28571,-0.25667 -3.62629,0.29992 -0.23369,0.0934 -0.47241,0.17343 -0.70105,0.28041 -0.60314,0.28225 -0.93048,0.50741 -1.49069,0.88583 -0.25438,0.17184 -0.5147,0.33497 -0.75683,0.52625 -0.44205,0.34921 -0.81295,0.7962 -1.27706,1.11613 -0.28963,0.2933 -0.7832,0.77951 -1.04913,1.10235 -0.15701,0.19059 -0.2944,0.39896 -0.44155,0.59848 -0.15372,0.20843 -0.32015,0.40668 -0.46105,0.62538 -0.22133,0.34354 -0.37008,0.73706 -0.60133,1.07432 -0.0379,0.37671 2.43497,0.66579 2.47292,0.28908 z" />
    <text
       xml:space="preserve"
       style="font-style:normal;font-weight:normal;font-size:15.875px;line-height:1.25;font-family:sans-serif;letter-spacing:-0.264583px;word-spacing:-2.64583px;fill:#333333;fill-opacity:1;stroke:none;stroke-width:0.264583"
       x="208.68381"
       y="268.86386"
       id="text2508-7-3"><tspan
         sodipodi:role="line"
         id="tspan2506-0-0"
         x="208.68381"
         y="268.86386"
         style="font-style:italic;font-variant:normal;font-weight:500;font-stretch:normal;font-size:15.875px;font-family:Courier;-inkscape-font-specification:'Courier, Medium Italic';font-variant-ligatures:normal;font-variant-caps:normal;font-variant-numeric:normal;font-variant-east-asian:normal;fill:#333333;fill-opacity:1;stroke-width:0.264583">links</tspan></text>
  </g>
</svg>
