<?xml version="1.0" encoding="UTF-8" standalone="no"?>
<svg
   xmlns:dc="http://purl.org/dc/elements/1.1/"
   xmlns:cc="http://creativecommons.org/ns#"
   xmlns:rdf="http://www.w3.org/1999/02/22-rdf-syntax-ns#"
   xmlns:svg="http://www.w3.org/2000/svg"
   xmlns="http://www.w3.org/2000/svg"
   xmlns:sodipodi="http://sodipodi.sourceforge.net/DTD/sodipodi-0.dtd"
   xmlns:inkscape="http://www.inkscape.org/namespaces/inkscape"
   width="122.32979mm"
   height="32.642437mm"
   viewBox="0 0 122.32979 32.642437"
   version="1.1"
   id="svg11973"
   inkscape:version="1.0 (4035a4f, 2020-05-01)"
   sodipodi:docname="links2.svg">
  <defs
     id="defs11967" />
  <sodipodi:namedview
     id="base"
     pagecolor="#ffffff"
     bordercolor="#666666"
     borderopacity="1.0"
     inkscape:pageopacity="0.0"
     inkscape:pageshadow="2"
     inkscape:zoom="2.0363696"
     inkscape:cx="241.63568"
     inkscape:cy="57.162699"
     inkscape:document-units="mm"
     inkscape:current-layer="layer1"
     inkscape:document-rotation="0"
     showgrid="false"
     inkscape:window-width="1440"
     inkscape:window-height="900"
     inkscape:window-x="0"
     inkscape:window-y="0"
     inkscape:window-maximized="0" />
  <metadata
     id="metadata11970">
    <rdf:RDF>
      <cc:Work
         rdf:about="">
        <dc:format>image/svg+xml</dc:format>
        <dc:type
           rdf:resource="http://purl.org/dc/dcmitype/StillImage" />
        <dc:title />
      </cc:Work>
    </rdf:RDF>
  </metadata>
  <g
     inkscape:label="Layer 1"
     inkscape:groupmode="layer"
     id="layer1"
     transform="translate(-210.22201,-249.01807)">
    <path
       style="fill:#ffff00;stroke:none;stroke-width:1.6;stroke-linejoin:round"
       id="path2374"
       d="m 243.40096,267.05733 c 0.11308,-0.46754 0.15862,-0.95549 0.33946,-1.40261 0.49947,-1.23494 1.41057,-2.49557 2.16106,-3.58408 0.77374,-1.12223 1.22634,-1.88271 2.25953,-2.77235 0.338,-0.29103 0.74221,-0.50067 1.11331,-0.751 0.20216,-0.14903 0.3592,-0.39063 0.60646,-0.4471 0.26298,-0.0601 1.06963,0.10708 0.80014,0.12586 -3.86328,0.26929 -7.72851,0.61114 -11.60175,0.62707 -0.20903,8.7e-4 0.10135,-0.39505 0.18616,-0.58014 0.0177,-0.0384 0.0804,-0.0974 0.11042,-0.0669 0.18346,0.18746 0.3005,0.42682 0.45075,0.64023 0.0171,0.3608 0.0342,0.7216 0.0514,1.08239 0.13201,0.39327 0.35694,0.76801 0.39597,1.17981 0.039,0.41116 -0.19939,0.81618 -0.16778,1.22792 0.0339,0.44116 0.33098,0.83892 0.36032,1.28038 -0.24712,1.78875 -0.23213,0.89505 -0.0483,2.68105 -0.14892,0.82706 -0.043,1.67344 -0.1467,2.50307 -0.0488,0.3901 -0.22683,0.76291 -0.24023,1.15564 -0.0147,0.42966 0.0909,0.85561 0.15705,1.2807 0.24606,1.57909 0.21013,1.25478 0.73829,2.77676 0.51379,0.78643 0.72725,1.7263 1.22253,2.52123 2.67632,4.29547 7.68648,2.26855 13.77698,2.01417 0.32996,-0.0138 2.52684,-3.16674 2.59232,-3.25722 0.46255,-0.70739 0.9484,-1.40098 1.38766,-2.12218 0.47526,-0.78026 0.89774,-1.58963 1.3546,-2.38013 0.47338,-0.81906 0.95236,-1.63509 1.43608,-2.44848 0.46434,-0.78077 0.92622,-1.5631 1.40798,-2.33392 0.45143,-0.72228 0.97291,-1.40401 1.39121,-2.14478 0.36377,-0.64425 0.63339,-1.33436 0.95009,-2.00154 0.83155,-1.41573 1.20434,-2.15616 2.19436,-3.44734 0.34852,-0.45451 0.78002,-0.84635 1.1201,-1.30683 0.252,-0.34121 0.37427,-0.76627 0.64993,-1.08984 0.34576,-0.40586 1.18456,-0.90779 1.65317,-1.2095 0.30078,-0.20867 0.84646,-0.52115 1.20439,-0.19292 0.088,0.0806 0.29437,0.3045 0.17346,0.30898 -12.22386,0.45249 -12.45973,3.92597 -11.83511,-0.58176 0.004,-0.0719 -0.0512,-0.25285 0.012,-0.21572 0.0852,0.0497 0.0487,0.18803 0.0902,0.2756 0.64215,1.35347 0.16523,-0.16352 0.33083,1.66457 0.2394,2.64253 0.45074,0.27291 -0.0726,3.26208 -0.33747,1.68818 -0.28255,3.42198 -0.71872,5.09423 -0.37458,1.43611 -0.69472,1.25173 -0.50171,2.8927 0.0832,0.70739 0.33572,1.38629 0.50358,2.07943 0.23799,0.7107 0.47599,1.42139 0.71398,2.13208 0.19207,0.6972 0.34982,1.40415 0.57622,2.09161 0.51663,1.5687 0.81374,1.93973 1.38851,3.41605 0.82449,2.11774 -10e-4,0.42199 0.90196,2.15578 3.29517,4.10803 1.46331,2.37929 13.59192,-0.0529 0.59819,-0.11996 0.43481,-1.10748 0.60629,-1.67551 0.21063,-0.69766 0.3351,-1.41769 0.53874,-2.1173 0.73266,-2.51701 0.95768,-2.90507 1.95587,-5.43291 0.87519,-3.1668 2.56874,-6.0082 4.2686,-8.81124 0.4826,-0.79578 1.01729,-1.56151 1.48966,-2.36302 1.78747,-3.03295 0.2075,-0.92306 2.25241,-3.40811 1.79609,-2.14871 -0.0615,-0.11187 1.74861,-1.65203 0.11469,-0.0976 0.12615,-0.30167 0.26584,-0.36112 0.17456,-0.0743 0.41846,-0.10493 0.57193,0.004 0.12242,0.0874 0.20176,0.43935 0.0498,0.43923 -4.0982,-0.003 -8.19059,-0.29942 -12.2859,-0.44913 0.0287,-0.12354 0.0137,-0.47616 0.0859,-0.37063 0.21624,0.31584 0.21093,1.57886 0.21503,1.81431 0.007,0.4101 0.0514,0.82378 -0.004,1.23048 -0.0623,0.46186 -0.23831,0.90261 -0.34552,1.35667 -0.11216,0.47495 -0.20829,0.95329 -0.31244,1.42994 -0.2018,1.61357 -0.68633,3.18102 -0.80001,4.80701 -0.0351,0.50086 0.0437,1.00637 -0.007,1.50602 -0.49839,4.96545 -0.15146,-1.89297 -0.33725,2.6787 0.14223,2.18636 -0.071,0.10202 0.3528,2.12612 0.0668,0.31881 0.0221,0.66026 0.13268,0.96742 1.65188,4.58884 10.86925,1.85512 13.4413,1.67133 0.65722,-0.047 0.68697,-1.08973 1.03045,-1.63459 0.40292,-0.54661 0.82495,-1.08046 1.20879,-1.63984 0.4223,-0.61546 0.77228,-1.27649 1.2084,-1.88286 0.47933,-0.66647 1.03579,-1.27791 1.53451,-1.93088 0.49154,-0.64358 0.93688,-1.31979 1.43575,-1.95806 1.3493,-1.72635 1.78434,-2.12592 3.26606,-3.71668 0.51469,-0.48664 1.0073,-0.99619 1.54405,-1.45992 0.5705,-0.4929 1.46356,-1.39896 2.42151,-1.16556 0.30104,0.0733 0.97482,0.62183 0.66458,0.63202 -13.8079,0.4535 -14.97731,0.85658 -11.16357,-0.35914 0.27672,0.28946 0.44932,0.39511 0.49432,0.8584 0.028,0.28868 -0.10145,0.57779 -0.0763,0.8667 0.0299,0.34058 0.22867,0.65717 0.23941,0.99882 0.011,0.34383 -0.11735,0.67852 -0.17597,1.01779 0.0278,0.34871 0.0559,0.69741 0.0838,1.04613 0.17191,0.70833 -0.21656,1.3801 -0.19989,2.07439 0.008,0.34875 0.14665,0.68312 0.21224,1.02613 0.0607,0.31703 0.0781,0.64291 0.16641,0.95378 0.16725,0.58833 0.58988,1.3462 0.8603,1.8772 0.19481,0.35479 0.30343,0.76875 0.58443,1.06435 0.25583,0.26913 0.59241,0.60158 0.96861,0.56941 4.41592,-0.37757 8.88385,-0.68908 13.17194,-1.77848 0.58651,-0.149 2.38357,-3.86156 2.55758,-4.14766 0.47014,-0.77292 1.02504,-1.49442 1.53755,-2.24164 6.20855,-8.40735 -2.91528,3.88323 3.09065,-4.00361 0.42761,-0.56151 0.75945,-1.19182 1.22367,-1.72535 0.11615,-0.13354 2.26815,-2.12363 2.61188,-2.33934 0.37715,-0.23668 0.82646,-0.34204 1.23967,-0.51307 0.25521,0.0294 0.53151,-0.0146 0.76561,0.0882 0.23035,0.10106 0.81434,0.48806 0.56154,0.4941 -3.6759,0.0879 -7.3513,-0.21275 -11.02818,-0.24372 -0.16429,-0.002 0.32969,0.0663 0.46628,0.15478 0.79995,0.51805 0.78594,0.75516 1.266,1.59551 0.94164,1.91213 1.50025,3.97346 1.9291,6.04334 0.56523,2.72824 -0.0571,0.0974 0.55084,2.57342 0.0403,0.34169 0.0829,0.68312 0.12095,1.02506 0.0989,0.89004 0.0288,0.81083 0.29866,1.63364 0.0764,0.23284 0.16734,0.4613 0.26553,0.68634 0.0944,0.21633 0.2653,0.40607 0.31171,0.6366 0.0416,0.20632 -0.0381,0.4188 -0.0571,0.6282 0.12228,0.79842 0.0301,0.41327 0.26984,1.15694 0.10763,1.7513 12.88991,1.01361 12.78222,-0.73769 v 0 c -0.009,-0.86137 0.064,-0.44294 -0.22017,-1.25552 -0.097,-0.19969 -0.19421,-0.39938 -0.29133,-0.59907 -0.0327,-0.2078 -0.0172,-0.42834 -0.098,-0.62341 -0.1009,-0.24358 -0.31935,-0.42768 -0.43569,-0.66473 -0.39472,-0.80425 -0.3598,-1.72231 -0.49323,-2.581 -0.5542,-1.66358 -0.22884,-0.80441 -0.99723,-2.56989 -0.9147,-2.64182 0.0242,-0.47278 -0.65407,-3.24984 -0.14386,-0.58899 -0.39771,-1.14755 -0.59658,-1.72132 -0.13069,-0.54762 -0.26145,-1.09523 -0.39218,-1.64285 -0.31567,-0.89779 -0.64499,-1.97843 -1.13509,-2.81234 -0.23862,-0.40598 -0.36652,-1.06715 -0.84301,-1.139 -4.12884,-0.62259 -8.32639,-0.75651 -12.50319,-0.87348 -0.41274,-0.0116 -0.78701,0.26896 -1.12998,0.49168 -0.33843,0.21978 -0.58999,0.54454 -0.88499,0.81681 -0.31634,0.31334 -0.65484,0.60703 -0.94906,0.94001 -0.34911,0.39511 -0.65255,0.82605 -0.97732,1.24018 -0.4014,0.51182 -0.79884,1.02655 -1.20121,1.53766 -0.47409,0.60224 -1.00394,1.16617 -1.42816,1.80236 -0.43523,0.6527 -0.76129,1.36794 -1.14194,2.05191 -0.481,0.6985 -0.96202,1.397 -1.44302,2.09551 -0.36567,0.4607 -2.79061,3.54417 -3.26831,4.04 -0.45777,0.47515 -2.17177,1.19819 -1.50786,1.29155 14.75266,2.07442 13.2965,-2.09835 9.96973,0.44439 -0.15336,0.11721 -0.28059,0.26336 -0.42089,0.39504 -0.11214,-0.023 -0.24623,-6.9e-4 -0.33659,-0.0691 -0.43205,-0.32712 -0.42702,-0.66166 -0.53151,-1.14989 -0.0572,-0.26755 -0.12562,-0.53391 -0.15743,-0.8054 -0.0627,-0.5346 -0.0368,-1.33495 -0.0316,-1.86222 0.0491,-0.43056 0.21789,-1.75693 0.19613,-2.18941 -0.0198,-0.39178 -0.15686,-0.77159 -0.18649,-1.16278 -0.0301,-0.39779 0.0315,-0.79836 0.008,-1.19656 -0.0527,-0.88522 -0.21132,-1.49362 -0.39077,-2.35714 -2.71867,-4.62803 -0.70431,-1.96216 -13.2582,-2.05409 -0.39817,-0.003 -0.5943,0.51358 -0.88991,0.77205 -0.34689,0.30331 -0.73132,0.57134 -1.03758,0.91327 -0.34256,0.38246 -0.59775,0.83084 -0.89664,1.24627 -0.47431,0.50684 -0.94863,1.01369 -1.42293,1.52053 -3.19811,4.25589 0.57297,-0.60428 -3.31031,3.85396 -0.55225,0.634 -1.03539,1.32161 -1.55043,1.98438 -0.49187,0.63294 -0.92995,1.30798 -1.47024,1.90271 -0.52253,0.57522 -1.14241,1.06006 -1.70791,1.59578 -0.3954,0.37458 -0.78313,0.75668 -1.1747,1.13502 -0.36009,-0.0432 -1.44236,-0.15245 -1.08027,-0.12965 3.88758,0.24477 7.78779,0.3678 11.65845,0.79568 0.21425,0.0237 -0.25023,0.38724 -0.45821,0.44246 -0.62863,0.1669 -0.60772,-1.47018 -0.58715,-1.63396 -0.34351,-1.72626 -0.18881,-0.41372 -0.0897,-2.31901 0.0239,-0.4624 -0.0166,-0.92693 0.0154,-1.38888 0.0353,-0.51031 0.0892,-1.02096 0.18591,-1.52377 0.20378,-1.05974 0.62628,-2.07309 0.77407,-3.14578 0.0505,-0.30787 0.43186,-2.66771 0.50916,-3.00531 0.11281,-0.49234 0.34077,-0.95963 0.41304,-1.45905 0.0654,-0.45158 -0.0249,-0.91244 -0.004,-1.36797 0.10785,-2.32526 0.26433,0.0233 -0.0671,-2.80335 -4.2813,-0.2674 -8.55403,-0.75477 -12.84394,-0.80218 -0.2488,-0.003 -0.20042,0.44153 -0.3124,0.6568 -0.0896,0.17226 -0.21117,0.32855 -0.29182,0.50491 -0.0958,0.20977 -0.11006,0.45491 -0.23587,0.64926 -1.36137,2.10228 -0.16517,-0.65124 -1.17494,2.04192 -0.318,0.52808 -0.65971,1.0434 -0.95395,1.58425 -0.95786,1.76063 -1.27017,2.64181 -2.10122,4.52264 -1.34737,3.04937 -2.71751,6.09472 -4.36363,9.0073 -1.96045,4.46563 -0.4653,1.35077 -2.697,5.36026 -0.31333,0.56293 -0.505,1.19618 -0.89782,1.71017 -0.18988,0.24846 -1.11805,0.49625 -0.7993,0.51041 11.65112,0.51734 13.16831,-3.53869 11.41439,0.55968 -0.79441,-0.36541 -0.97965,-0.32915 -1.48845,-1.18451 -0.25933,-0.43598 -0.36594,-0.94331 -0.59156,-1.39654 -0.29054,-0.58368 -0.68195,-1.1182 -0.95472,-1.70986 -0.82467,-1.7886 -0.71469,-1.92508 -1.0112,-3.81513 -0.0688,-0.52633 -0.18047,-1.04905 -0.20645,-1.579 -0.0191,-0.38718 0.0488,-0.77378 0.0721,-1.16074 0.13229,-2.19344 0.28051,-4.39397 0.90113,-6.52161 0.0502,-0.6231 0.0615,-1.2503 0.15081,-1.86929 0.0815,-0.56577 0.28733,-1.11096 0.36054,-1.67781 0.18246,-1.41294 0.0256,-1.37072 -0.0957,-2.64337 -0.0295,-0.30898 0.0276,-0.62861 -0.0501,-0.92961 -0.0841,-0.32531 -0.28487,-0.61133 -0.42732,-0.91699 -0.13638,-0.34276 -0.031,-1.00043 -0.4092,-1.02828 -8.25245,-0.6079 -9.40123,-2.4587 -12.7681,0.48695 -0.15247,0.13338 -0.3123,0.26078 -0.44681,0.41119 -0.13096,0.14646 -0.23052,0.31672 -0.34577,0.47509 -0.17526,0.19028 -0.3505,0.38056 -0.52576,0.57084 -0.70681,1.22416 -0.14001,0.27418 -1.0462,1.68401 -0.2547,0.39627 -0.49328,0.80231 -0.75573,1.1938 -0.32825,0.48965 -0.71786,0.94142 -1.01587,1.44889 -0.32767,0.55796 -0.55178,1.16784 -0.85577,1.73823 -0.34031,0.63852 -0.71755,1.25793 -1.07631,1.88689 -1.12204,2.13628 -1.01793,1.89806 -2.10267,4.13332 -0.37347,0.76958 -0.66626,1.57922 -1.10556,2.31545 -0.48495,0.81267 -1.11247,1.5373 -1.65681,2.31385 -2.07026,2.95342 -0.72184,1.40763 -3.15721,3.82543 -0.43636,0.32229 -0.7988,0.77143 -1.30907,0.96688 -0.33699,0.12905 -1.44682,-0.0807 -1.08589,-0.0496 3.6206,0.31129 7.24372,0.59433 10.86566,0.89048 0.22882,0.0187 -0.47945,0.0385 -0.68629,-0.0581 -0.31387,-0.14661 -0.62551,-0.35403 -0.80965,-0.64064 -0.19729,-0.30709 -0.18491,-0.70091 -0.27737,-1.05137 -0.20415,-0.35535 -0.47529,-0.68169 -0.61245,-1.06605 -0.12214,-0.34229 -0.0964,-0.71836 -0.15219,-1.07649 -0.0534,-0.34307 -0.15429,-0.68054 -0.17547,-1.02689 -0.0742,-1.21391 0.3924,-2.40344 0.0992,-3.61669 0.17999,-2.82274 0.0846,0.10645 -0.10708,-2.77004 -0.0307,-0.46191 0.001,-0.92577 0.008,-1.3886 0.0187,-1.37683 0.11335,-2.75998 -0.0989,-4.12934 -0.21829,-0.69258 -0.62825,-2.05957 -0.92274,-2.73511 -0.17144,-0.39321 -0.15838,-1.12596 -0.59867,-1.14165 -11.82778,-0.42166 -10.08339,-2.11585 -13.77704,2.14126 -0.47394,0.59961 -1.52266,1.90616 -1.90281,2.48407 -0.35812,0.54442 -0.63061,1.13856 -0.98424,1.68574 -0.41579,0.64337 -0.90847,1.23817 -1.32205,1.88288 -2.65982,4.1463 0.40724,-0.18286 -2.19302,3.39605 -0.18963,1.73735 12.49086,3.03644 12.68049,1.29909 z" />
    <path
       d="m 235.67527,266.01306 c 0.0562,-0.0722 0.12095,-0.13859 0.16857,-0.21675 0.34865,-0.57228 0.16201,-0.4627 0.6426,-1.09577 0.66586,-0.87712 1.53774,-1.52376 2.40103,-2.18917 0.92251,-0.6415 0.8258,-0.63377 1.83157,-1.1027 0.26577,-0.12391 0.53153,-0.25375 0.81293,-0.33621 0.24143,-0.0707 0.99664,-0.12286 0.74508,-0.12036 -2.13144,0.0212 -1.90775,8.8e-4 -0.92208,0.368 0.20559,0.17722 0.44067,0.32511 0.61677,0.53166 0.62097,0.72837 0.99403,1.55018 1.35363,2.43229 0.433,1.06215 0.75843,2.12105 1.02658,3.23443 0.11132,0.46222 0.1889,0.93192 0.28336,1.39789 0.53785,1.1758 0.85331,2.46179 1.56891,3.5543 0.20608,0.31461 0.4495,0.60485 0.70441,0.88138 0.22926,0.24872 0.45931,0.50747 0.74408,0.69002 0.28533,0.1829 0.62624,0.2594 0.93936,0.3891 1.05873,0.0197 2.12022,0.1381 3.17619,0.0592 0.34636,-0.0259 0.66604,-0.20934 0.97431,-0.36935 1.48878,-0.77274 2.39161,-2.21707 3.30851,-3.55172 0.84696,-1.40317 1.53686,-2.89076 2.33012,-4.32362 0.34335,-0.62021 0.70742,-1.22874 1.05552,-1.84629 0.35443,-0.6288 0.66502,-1.28342 1.05203,-1.89271 0.39824,-0.62696 0.86653,-1.20657 1.2998,-1.80986 1.05502,-1.3945 1.99529,-2.92125 3.32506,-4.08493 0.29934,-0.26196 1.24991,-0.94135 1.72631,-1.03504 0.19883,-0.0391 0.40047,0.0622 0.60071,0.0934 -0.5395,0.0682 -1.19744,-0.13952 -1.6185,0.2046 -0.22493,0.18382 0.44862,0.37653 0.62484,0.60747 0.24414,0.31996 0.4528,0.66911 0.62633,1.03225 0.64293,1.34542 0.88391,2.85377 1.167,4.30131 0.28969,1.35784 0.43089,2.73983 0.50535,4.12424 0.0326,0.60654 0.0161,1.23815 0.1233,1.84019 0.0603,0.33867 0.16475,0.66797 0.24713,1.00196 0.10852,0.35541 0.19679,0.71764 0.32556,1.06622 0.14111,0.38197 0.31115,0.75289 0.48287,1.12211 0.47636,1.02423 1.0299,2.09592 1.79084,2.94373 0.25322,0.28213 0.55353,0.51817 0.83029,0.77725 0.30731,0.21219 0.57931,0.488 0.92193,0.63658 0.41251,0.17889 0.85883,0.30604 1.3078,0.33038 2.02054,0.10953 3.24984,0.22236 4.93591,-0.48952 1.02948,-0.43465 1.60413,-0.90941 2.51324,-1.54552 0.83259,-0.7494 1.65206,-1.46091 2.42787,-2.27314 0.44106,-0.46177 0.83151,-0.97024 1.27355,-1.43107 0.4892,-0.50999 1.02257,-0.97602 1.5184,-1.47957 3.123,-3.17167 -0.37372,0.21556 2.6235,-2.65112 1.20938,-0.94581 2.3016,-2.28545 3.86468,-2.66216 0.22675,-0.0546 0.92994,-0.0749 0.69716,-0.0601 -0.57773,0.0368 -1.15475,0.084 -1.73212,0.12602 0.18477,0.096 0.38822,0.1624 0.55432,0.28798 0.35045,0.26496 0.91063,0.92461 1.15196,1.27533 0.14606,0.21227 0.2419,0.45585 0.38302,0.67144 1.0604,1.61989 -0.0877,-0.34399 0.76804,1.16025 0.76999,0.73342 1.58392,1.39129 2.53839,1.87163 0.34909,0.17569 0.69913,0.36263 1.07633,0.46485 1.50245,0.40716 3.56919,0.0527 4.89835,-0.0246 0.47384,-0.22931 0.96556,-0.42485 1.42151,-0.68793 0.47651,-0.27496 0.92013,-0.60378 1.36882,-0.92213 0.4652,-0.33007 0.93592,-0.65498 1.37207,-1.02259 0.4111,-0.34648 0.77954,-0.74066 1.16486,-1.1156 1.41821,-1.37998 0.92868,-0.87428 2.17918,-2.33306 1.04602,-1.15221 0.79992,-0.91094 1.83908,-1.94824 0.23754,-0.23712 0.45625,-0.49606 0.71898,-0.70491 0.24374,-0.19376 1.09789,-0.68142 1.42953,-0.81847 0.20599,-0.0851 0.42547,-0.13299 0.6382,-0.19948 0.20716,-0.0243 0.83004,-0.0715 0.62147,-0.073 -0.59989,-0.004 -1.20307,-0.008 -1.79854,0.0647 -0.17249,0.0211 0.34863,0.0363 0.51308,0.0924 0.24738,0.0845 0.84412,0.44806 1.02464,0.60929 0.15292,0.13657 0.26555,0.31247 0.39833,0.4687 0.87413,0.9508 1.24186,2.19808 1.67516,3.38413 0.48522,1.32818 0.25391,0.65382 0.67663,1.96238 0.12735,0.81185 0.45877,1.56724 0.65523,2.36064 0.0832,0.33592 0.11413,0.68358 0.20117,1.01851 0.0322,0.12368 0.082,0.24207 0.12297,0.36311 0.0198,0.4078 0.005,0.21587 0.0404,0.57604 0.0204,0.36256 2.58405,0.21837 2.56366,-0.14418 v 0 c 0.0149,-0.36193 0.0319,-0.17122 -0.0731,-0.56972 -0.0565,-0.12657 -0.13021,-0.24677 -0.16944,-0.3797 -0.0442,-0.14985 -0.0476,-0.30896 -0.079,-0.462 -0.039,-0.19006 -0.0795,-0.38009 -0.13211,-0.56685 -0.22536,-0.80067 -0.52332,-1.58233 -0.76497,-2.37794 -0.45936,-1.64243 -0.0557,-0.31252 -0.66078,-1.99397 -0.1236,-0.34342 -0.22335,-0.69527 -0.35197,-1.03684 -0.33634,-0.89321 -0.72813,-1.77711 -1.23547,-2.58712 -0.14538,-0.1845 -0.27501,-0.38257 -0.43612,-0.55352 -0.20873,-0.22147 -0.7782,-0.69064 -1.05343,-0.84849 -1.22405,-0.702 -2.80854,-0.50515 -4.10345,-0.0494 -0.46455,0.21602 -0.91848,0.40258 -1.33787,0.70722 -0.23729,0.17236 -0.44676,0.38032 -0.66228,0.57923 -0.90368,0.83402 -1.7286,1.74683 -2.49304,2.70971 -0.7649,0.8038 -1.4101,1.49821 -2.20824,2.27067 -0.37665,0.36454 -0.74639,0.73827 -1.15144,1.07096 -0.42549,0.34949 -0.8762,0.66849 -1.33568,0.9719 -0.44926,0.29666 -0.90143,0.5953 -1.38766,0.82641 -0.46487,0.22096 -0.96842,0.34908 -1.45263,0.52362 0.30909,0.0613 1.21291,0.0508 0.92727,0.1838 -0.36773,0.17127 -0.81731,0.0257 -1.21596,-0.0493 -0.37698,-0.0709 -0.73215,-0.23305 -1.08493,-0.38369 -0.8981,-0.38348 -1.69821,-0.92154 -2.38377,-1.61605 -0.11515,-0.15692 -0.73564,-0.99936 -0.81778,-1.12534 -0.98572,-1.51176 0.22388,0.16202 -0.94325,-1.45726 -0.18276,-0.25355 -0.34529,-0.52491 -0.55988,-0.75216 -0.19125,-0.20253 -0.4322,-0.35154 -0.64831,-0.52732 -0.99715,-0.036 -1.99392,-0.13196 -2.99143,-0.10808 -0.5628,0.0135 -1.017,0.33729 -1.46372,0.62505 -1.10592,0.71236 -2.14566,1.52204 -3.05834,2.47341 -1.10146,1.10264 -1.51915,1.50815 -2.62085,2.66643 -1.40144,1.47343 -1.34809,1.48535 -2.7562,2.90067 -0.40251,0.40457 -0.79726,0.81846 -1.2268,1.1942 -0.39488,0.34543 -0.82843,0.64398 -1.24265,0.96597 -1.098,0.74339 -1.18778,0.90498 -2.44948,1.35503 -0.40936,0.14602 -0.94526,0.0389 -1.25878,0.3399 -0.19292,0.1852 1.0626,0.11575 0.79539,0.10498 -1.39772,-0.0564 -1.00516,0.0126 -2.07948,-0.65923 -0.26351,-0.22876 -0.55037,-0.43312 -0.79054,-0.68627 -0.43913,-0.46287 -0.90716,-1.21386 -1.23555,-1.7506 -0.207,-0.33833 -0.42781,-0.66999 -0.60257,-1.02604 -0.27541,-0.56112 -0.57061,-1.49529 -0.77241,-2.0928 -0.16651,-0.74813 -0.2549,-1.02965 -0.3262,-1.77915 -0.0308,-0.32355 -0.018,-0.65053 -0.0539,-0.97355 -0.044,-0.39599 -0.14308,-0.78463 -0.18561,-1.18078 -0.30421,-2.83369 0.19213,-4.8e-4 -0.40905,-3.00153 -0.093,-0.45598 -0.52907,-2.63927 -0.66057,-3.10689 -0.13121,-0.46659 -0.29553,-0.92417 -0.47718,-1.37353 -0.15404,-0.38108 -0.741,-1.82239 -1.2933,-2.01436 -0.93969,-0.32661 -1.9666,-0.30213 -2.94989,-0.4532 -0.23027,0.0624 -0.475,0.0854 -0.6908,0.18705 -0.46835,0.22066 -1.28887,0.92992 -1.6105,1.24519 -1.27647,1.25118 -2.24122,2.75583 -3.30309,4.18197 -0.41104,0.61358 -0.83756,1.21706 -1.2331,1.84073 -1.00067,1.5778 -1.25975,2.14981 -2.18359,3.75515 -0.31131,0.54095 -0.6429,1.07012 -0.95125,1.61276 -0.25586,0.45026 -0.4941,0.91033 -0.74115,1.36549 -0.24567,0.42529 -0.49134,0.85058 -0.73702,1.27587 -0.69223,0.91383 -1.41797,2.04667 -2.39609,2.69266 -0.28239,0.1865 -0.59477,0.32834 -0.91214,0.44583 -0.28403,0.10515 -1.13103,0.0461 -0.88197,0.21837 0.37399,0.25875 0.90647,0.0748 1.35971,0.11216 -0.28635,-0.0652 -0.59159,-0.0744 -0.85906,-0.19568 -0.28863,-0.13091 -0.54111,-0.33604 -0.77787,-0.54672 -0.2604,-0.23171 -0.50329,-0.48808 -0.70474,-0.77254 -0.70744,-0.99899 -1.03383,-2.31555 -1.54116,-3.41411 -0.11731,-0.44396 -0.69663,-2.65254 -0.80967,-3.00847 -0.18229,-0.57399 -0.40285,-1.13515 -0.611,-1.70028 -0.39507,-1.07264 -0.58828,-1.76252 -1.23024,-2.6885 -0.18044,-0.26028 -0.42633,-0.46846 -0.63949,-0.70269 -0.24642,-0.14447 -0.45625,-0.39464 -0.73925,-0.43343 -0.99173,-0.13591 -2.00191,-0.12333 -3.00194,-0.0793 -0.25206,0.0111 -0.48345,0.14718 -0.71683,0.24304 -0.97944,0.4023 -1.88049,0.97511 -2.74335,1.58148 -0.31174,0.25446 -0.63713,0.49303 -0.9352,0.76336 -0.74673,0.67725 -1.36156,1.46043 -1.9479,2.275 -0.12011,0.16687 -0.24985,0.32796 -0.35305,0.50579 -0.0577,0.0995 -0.0845,0.21397 -0.12675,0.32096 -0.0249,0.35691 2.49889,0.53278 2.52376,0.17587 z"
       id="path2059"
       style="fill:#e7b32d;fill-opacity:0.4;stroke-width:0.564999;stroke-linejoin:round;stroke-dasharray:0.564999, 0.564999" />
    <text
       xml:space="preserve"
       style="font-style:normal;font-weight:normal;font-size:15.875px;line-height:1.25;font-family:sans-serif;letter-spacing:-0.264583px;word-spacing:-2.64583px;fill:#333333;fill-opacity:1;stroke:none;stroke-width:0.264583"
       x="208.68381"
       y="268.86386"
       id="text2508-7-3"><tspan
         sodipodi:role="line"
         id="tspan2506-0-0"
         x="208.68381"
         y="268.86386"
         style="font-style:italic;font-variant:normal;font-weight:500;font-stretch:normal;font-size:15.875px;font-family:Courier;-inkscape-font-specification:'Courier, Medium Italic';font-variant-ligatures:normal;font-variant-caps:normal;font-variant-numeric:normal;font-variant-east-asian:normal;fill:#333333;fill-opacity:1;stroke-width:0.264583">links</tspan></text>
  </g>
</svg>
