<?xml version="1.0" encoding="UTF-8" standalone="no"?>
<svg
   xmlns:dc="http://purl.org/dc/elements/1.1/"
   xmlns:cc="http://creativecommons.org/ns#"
   xmlns:rdf="http://www.w3.org/1999/02/22-rdf-syntax-ns#"
   xmlns:svg="http://www.w3.org/2000/svg"
   xmlns="http://www.w3.org/2000/svg"
   xmlns:sodipodi="http://sodipodi.sourceforge.net/DTD/sodipodi-0.dtd"
   xmlns:inkscape="http://www.inkscape.org/namespaces/inkscape"
   sodipodi:docname="resume1.svg"
   inkscape:version="1.0 (4035a4f, 2020-05-01)"
   id="svg10109"
   version="1.1"
   viewBox="0 0 26.585018 11.183158"
   height="11.183158mm"
   width="26.585018mm">
  <defs
     id="defs10103" />
  <sodipodi:namedview
     inkscape:window-maximized="0"
     inkscape:window-y="23"
     inkscape:window-x="0"
     inkscape:window-height="855"
     inkscape:window-width="1252"
     showgrid="false"
     inkscape:document-rotation="0"
     inkscape:current-layer="layer1"
     inkscape:document-units="mm"
     inkscape:cy="461.13351"
     inkscape:cx="-112.61775"
     inkscape:zoom="0.35"
     inkscape:pageshadow="2"
     inkscape:pageopacity="0.0"
     borderopacity="1.0"
     bordercolor="#666666"
     pagecolor="#ffffff"
     id="base" />
  <metadata
     id="metadata10106">
    <rdf:RDF>
      <cc:Work
         rdf:about="">
        <dc:format>image/svg+xml</dc:format>
        <dc:type
           rdf:resource="http://purl.org/dc/dcmitype/StillImage" />
        <dc:title></dc:title>
      </cc:Work>
    </rdf:RDF>
  </metadata>
  <g
     transform="translate(-135.63011,-26.158426)"
     id="layer1"
     inkscape:groupmode="layer"
     inkscape:label="Layer 1">
    <g
       transform="translate(118.83321,-115.41975)"
       id="g10088">
      <path
         style="fill:#ffff00;stroke:none;stroke-width:1.6;stroke-linejoin:round"
         id="path2350"
         d="m 19.414504,144.03691 c 0.0073,0.10332 0.01471,0.20664 0.02206,0.30996 0.0396,0.17446 0.100136,0.34612 0.118811,0.52338 0.02313,0.21959 -1e-6,0.44121 0.006,0.66172 0.007,0.25582 0.02222,0.51142 0.03312,0.76714 0.01078,0.25277 0.01285,0.50595 0.03196,0.75832 0.01426,0.18841 0.04542,0.3755 0.06812,0.56325 0.947948,1.82231 0.383814,1.2871 4.916926,-0.27082 0.100346,-0.0345 0.647112,-1.60116 0.658796,-1.62515 0.222481,-0.45679 0.713844,-1.11838 1.013595,-1.54246 0.511252,-0.61736 0.392966,-0.54059 0.988362,-1.02618 0.122733,-0.10009 0.238912,-0.21147 0.383207,-0.28471 0.100545,-0.051 0.22178,-0.10083 0.334822,-0.0797 0.0973,0.0182 0.317277,0.18134 0.217923,0.18294 -1.37802,0.0221 -2.755046,-0.08 -4.132569,-0.11997 0.04691,0.0161 0.11806,0.008 0.140736,0.0482 0.05943,0.10554 0.05684,0.23104 0.08188,0.34718 0.187547,0.86997 0.04612,0.12862 0.102346,1.07248 0.01178,0.19782 0.04957,0.39375 0.06796,0.59117 0.0205,0.22004 0.03245,0.44065 0.04867,0.66099 -0.024,0.24627 -0.07649,0.49165 -0.07199,0.73884 0.0049,0.26838 0.09315,0.53187 0.09998,0.80022 0.0068,0.26506 -0.0531,0.52852 -0.05938,0.79358 -0.0059,0.24644 0.02001,0.49271 0.02307,0.73919 0.0054,0.43537 -0.0059,0.87078 -0.0073,1.30618 0.15276,0.30129 0.033,0.62925 0.09719,0.93786 0.02499,0.12019 0.09598,0.2288 0.142495,0.34368 0.07299,0.18031 0.121612,0.3691 0.209249,0.54406 0.05,0.0998 0.11715,0.19198 0.175725,0.28796 1.512129,-0.10848 3.047239,-0.0656 4.536386,-0.32545 0.191996,-0.0335 0.140549,-0.32908 0.189516,-0.49935 0.06439,-0.2239 0.08185,-0.45756 0.149813,-0.68061 0.08511,-0.27934 0.208264,-0.54816 0.308454,-0.82341 0.226903,-0.62339 0.441801,-1.25485 0.657954,-1.88122 0.114055,-0.30793 0.207289,-0.62274 0.342163,-0.92378 0.175796,-0.39238 0.64205,-1.18021 0.883089,-1.56211 0.0031,-0.005 0.76184,-1.14729 0.799916,-1.19555 0.131807,-0.16708 0.291535,-0.31484 0.437303,-0.47226 0.555465,-0.57733 0.129238,-0.18706 0.727242,-0.62164 0.06331,-0.046 0.10905,-0.11219 0.179448,-0.14894 0.05767,-0.0301 0.128288,-0.0583 0.193477,-0.0457 0.05758,0.0112 0.188241,0.10672 0.129365,0.10825 -1.386953,0.036 -2.77506,-0.002 -4.162589,-0.003 0.0086,-0.0685 0.02318,-0.13668 0.02594,-0.20562 8.49e-4,-0.0225 -0.01939,0.0425 -0.02032,0.065 -0.0046,0.10966 0.02069,0.2205 0.0039,0.3292 -0.026,0.16882 -0.09176,0.33078 -0.131262,0.49746 -0.266697,1.1254 0.0091,0.19439 -0.393698,1.42466 -0.278748,0.98396 -0.207819,0.68551 -0.434782,1.67834 -0.06261,0.27389 -0.143547,0.54521 -0.182713,0.8226 -0.03783,0.26792 -0.02702,0.53964 -0.04767,0.80908 -0.135311,1.76505 -0.02903,-0.12951 -0.113609,1.55289 0.165157,0.79196 0.05531,0.50026 0.383802,1.20819 0.07556,0.16286 0.143092,0.32945 0.234891,0.4854 0.07914,0.13445 0.108931,0.3601 0.276188,0.38285 4.60519,0.62647 3.773758,1.36596 5.036412,-0.2845 0.116846,-0.21439 0.245776,-0.4238 0.350538,-0.64319 0.111622,-0.23374 0.198275,-0.47651 0.297852,-0.71462 1.034471,-2.47365 -0.403893,0.98665 0.61665,-1.51835 0.462081,-1.13422 0.183724,-0.33854 0.535141,-1.43107 0.0892,-0.19963 0.153697,-0.4097 0.267609,-0.59889 0.107761,-0.17898 0.2559,-0.33597 0.392835,-0.49801 0.257733,-0.30501 0.589775,-0.68458 0.955239,-0.8954 0.07515,-0.0434 0.162348,-0.0668 0.243521,-0.10028 1.435054,0.46739 0.942814,0.2843 -3.925534,0.18607 -0.06226,-0.002 0.03345,-0.3526 0.125541,-0.15415 0.02198,0.0474 0.125712,0.56479 0.126699,0.56954 0.0059,0.12436 0.01173,0.24872 0.01758,0.37307 0.03644,0.12833 0.09831,0.25292 0.109331,0.385 0.01078,0.12929 -0.05044,0.25729 -0.04494,0.38684 0.0054,0.128 0.06083,0.2507 0.07743,0.37792 0.09558,0.73226 -0.08579,0.009 0.129811,0.74445 0.04461,0.12122 0.08922,0.24245 0.133833,0.36368 0.05719,0.11474 0.125234,0.22557 0.171573,0.3442 0.0391,0.10009 0.0464,0.20858 0.08366,0.30923 0.09293,0.25104 0.245099,0.46817 0.41976,0.67738 0.121416,0.5594 4.52003,-0.21265 4.398615,-0.77205 v 0 c -0.04635,-0.0193 -0.09658,-0.0323 -0.139032,-0.0578 -0.189827,-0.11406 -0.269006,-0.32994 -0.362631,-0.50501 -0.04865,-0.091 -0.113869,-0.17618 -0.146094,-0.27288 -0.03195,-0.0959 -0.02935,-0.19842 -0.04401,-0.29762 -0.101943,-0.23705 -0.19246,-0.39724 -0.215649,-0.65594 -0.01053,-0.11743 0.02622,-0.23553 0.01757,-0.35308 -0.0091,-0.12372 -0.04769,-0.24426 -0.07058,-0.36654 -0.09138,-0.48828 -0.06012,-0.29501 -0.116988,-0.80179 -0.04483,-0.34992 -0.07612,-0.85585 -0.181429,-1.18862 -0.05301,-0.16753 -0.01182,-0.47127 -0.204495,-0.48913 -4.126162,-0.38262 -3.485656,-0.88711 -4.705441,0.26384 -0.174637,0.19137 -0.367149,0.37031 -0.526607,0.57211 -0.102768,0.13007 -0.186561,0.27145 -0.278561,0.40787 -0.365092,0.54141 -0.724421,1.08471 -0.902191,1.70516 -0.554679,1.53881 0.07235,-0.14926 -0.583248,1.45118 -0.352592,0.86073 -0.526999,1.67891 -1.33296,2.31535 -1.500064,-0.26126 0.349522,0.0678 3.572685,0.26452 0.07849,0.005 -0.14933,-0.0476 -0.21657,-0.0843 -0.122499,-0.0669 -0.261462,-0.12336 -0.349716,-0.2249 -0.17339,-0.1995 -0.279587,-0.72079 -0.336698,-0.93117 -0.03591,-0.21278 -0.102233,-0.42318 -0.107733,-0.63834 -0.0061,-0.23963 0.04538,-0.47768 0.07311,-0.71608 0.125743,-1.08072 0.298993,-2.16758 0.764589,-3.17871 0.06828,-0.25824 0.120288,-0.52041 0.204846,-0.77472 0.499833,-1.50326 0.09909,0.0595 0.456166,-1.28835 0.04604,-0.1738 0.112508,-0.34595 0.123641,-0.52433 0.02204,-0.35316 -0.118224,-0.63926 -0.234453,-0.96643 -1.481352,-0.0359 -2.962568,-0.13913 -4.444056,-0.10795 -0.09135,0.002 -0.09929,0.13806 -0.152835,0.20465 -0.329135,0.40928 -0.7573,0.75196 -1.013371,1.20937 -1.044331,1.54057 0.341011,-0.54136 -0.702078,1.16268 -0.142591,0.23294 -0.335218,0.44077 -0.461854,0.68106 -0.130581,0.24776 -0.190578,0.52136 -0.305672,0.77526 -0.890887,1.9653 -0.01376,-0.26456 -0.794109,1.81268 -0.133846,0.31771 -0.275702,0.63279 -0.40154,0.95314 -0.120799,0.30753 -0.20288,0.62738 -0.338174,0.92998 -0.121742,0.27229 -0.291678,0.52513 -0.431059,0.79049 -0.09582,0.18244 -0.165386,0.37637 -0.274449,0.55269 -0.04505,0.0728 -0.276179,0.18449 -0.183573,0.18779 1.410505,0.0503 2.823045,-0.0289 4.234568,-0.0433 -0.01919,0.0542 -0.0035,0.13312 -0.05758,0.16258 -0.158337,0.0862 -0.218777,-0.089 -0.262111,-0.15503 -0.04962,-0.0755 -0.113357,-0.14452 -0.151231,-0.22539 -0.116243,-0.2482 -0.1708,-0.57525 -0.227809,-0.83144 -0.02716,-1.4549 0.02168,0.35692 -0.07392,-1.23146 -0.01455,-0.24171 -0.01299,-0.48399 -0.01984,-0.72597 -0.0075,-0.26486 -0.03257,-0.52975 -0.02324,-0.79457 0.0095,-0.2685 0.07496,-0.53413 0.07951,-0.80273 0.0042,-0.24921 -0.03554,-0.49744 -0.05331,-0.74616 0.02104,-0.33477 0.0735,-0.94965 0.04358,-1.29435 -0.01793,-0.20651 -0.09675,-0.4069 -0.107917,-0.61379 -0.01071,-0.19838 0.05536,-0.39631 0.04271,-0.5946 -0.0241,-0.37771 -0.221671,-0.73609 -0.210511,-1.11908 -1.489128,-0.12364 -2.972707,-0.32735 -4.467382,-0.37091 -0.148836,-0.005 -0.254086,0.14197 -0.366239,0.23006 -0.111571,0.0877 -0.205558,0.19216 -0.300983,0.29407 -0.463436,0.49488 -0.846104,1.04603 -1.240991,1.58485 -0.164255,0.26442 -0.343315,0.52184 -0.492766,0.79327 -0.463258,0.84138 -0.348219,0.85916 -0.855035,1.67457 -0.136884,0.22023 -0.737199,0.58202 -0.46231,0.6325 3.938485,0.72323 4.303464,-1.26152 3.734552,0.61701 -0.202568,-0.62678 -0.133032,-0.29325 -0.171985,-1.1312 -0.01517,-0.32622 -0.04918,-1.06077 -0.02646,-1.40272 0.01167,-0.17565 0.05048,-0.34899 0.07652,-0.52338 0.01544,-0.10339 0.03195,-0.20664 0.04792,-0.30996 0,-0.57811 -4.545797,-0.57811 -4.545797,0 z" />
      <path
         style="fill:#e7b32d;fill-opacity:0.501961;stroke:none;stroke-width:1.6;stroke-linejoin:round"
         id="path2418"
         d="m 19.383315,144.80097 c 0.07733,0.30764 0.08088,0.30013 0.141919,0.68554 0.02998,0.1893 0.04103,0.38167 0.0789,0.56955 0.0428,0.21234 0.10602,0.42007 0.162706,0.62914 0.17741,0.65431 0.149951,0.54243 0.361525,1.16012 0.08238,0.14529 0.146507,0.30257 0.247141,0.43588 0.367434,0.48672 0.783155,0.46304 1.477985,0.20187 0.229336,-0.0862 0.32763,-0.3647 0.480925,-0.55582 0.268929,-0.3353 0.892867,-1.19818 1.137807,-1.53354 0.165737,-0.24662 0.332508,-0.49256 0.497207,-0.73988 0.233653,-0.35086 0.500119,-0.87553 0.909255,-1.08639 0.187389,-0.0966 0.4095,-0.13303 0.620125,-0.12417 0.05769,0.002 -0.131063,0.10329 -0.09263,0.14639 0.145303,0.16292 0.363919,0.2412 0.545879,0.3618 0.140438,0.18323 0.302751,0.3516 0.421314,0.54969 0.276333,0.46168 0.383961,0.88727 0.524631,1.40071 0.07009,0.25582 0.138569,0.51225 0.196427,0.77112 0.02593,0.11598 0.227375,1.20802 0.256018,1.36251 0.05993,0.28704 0.130144,0.68533 0.233471,0.97004 0.04019,0.11074 0.093,0.21697 0.150738,0.31965 0.110599,0.19666 0.223813,0.35614 0.452527,0.43496 0.141768,0.0488 0.296985,0.0417 0.445476,0.0626 0.404263,-0.0616 0.828554,-0.0448 1.212785,-0.18476 0.345575,-0.12587 0.834691,-0.87785 0.985487,-1.12238 0.163302,-0.2648 0.306202,-0.54197 0.445381,-0.82021 0.324588,-0.64892 0.494641,-1.09715 0.769651,-1.766 0.353487,-0.92972 0.288798,-0.76765 0.641026,-1.66371 0.09099,-0.23149 0.173294,-0.46667 0.274528,-0.69388 0.08807,-0.19766 0.192627,-0.38759 0.292803,-0.57941 0.08106,-0.15521 0.150655,-0.31794 0.250837,-0.46155 0.07896,-0.11319 0.188253,-0.20187 0.282378,-0.3028 0.08636,-0.0388 0.353198,-0.10624 0.259072,-0.11634 -0.186698,-0.0201 -0.406489,-0.0279 -0.55695,0.0844 -0.07273,0.0543 0.158705,0.10003 0.207063,0.17684 0.07854,0.12477 0.119195,0.27038 0.163088,0.41112 0.169753,0.54436 0.170664,0.74148 0.253607,1.32918 0.102752,0.99179 0.06677,0.57909 0.141935,1.56083 0.01849,0.24159 0.02655,0.48416 0.05443,0.72484 0.04332,0.37389 0.134612,0.88033 0.255021,1.24397 0.05326,0.16085 0.131985,0.31211 0.197978,0.46817 0.142065,0.26283 0.241222,0.59671 0.498285,0.78045 0.356524,0.25482 0.898596,0.0927 1.255968,-0.005 0.133114,-0.0362 0.211209,-0.17749 0.316814,-0.26623 0.0975,-0.13026 0.205641,-0.25318 0.292505,-0.39076 0.164931,-0.26122 0.386382,-0.73485 0.492524,-1.02023 0.130624,-0.35121 0.241492,-0.80835 0.353696,-1.16583 0.05353,-0.17055 0.11527,-0.3384 0.172905,-0.50759 0.239075,-0.50096 0.116205,-0.27276 0.360405,-0.68895 0.0141,-0.11539 -0.801891,-0.21509 -0.815989,-0.0997 v 0 c -0.216961,0.44329 -0.108555,0.20208 -0.317784,0.72695 -0.05165,0.17167 -0.105742,0.34261 -0.154935,0.515 -0.118511,0.41529 -0.183038,0.74112 -0.347599,1.14274 -0.10547,0.25741 -0.357531,0.73237 -0.530963,0.95849 -0.09536,0.12432 -0.216364,0.22669 -0.324547,0.34004 -0.498444,0.3408 -0.341392,0.13673 0.267423,0.27693 0.06422,0.0148 -0.134846,0.0302 -0.197482,0.01 -0.06555,-0.0215 -0.116099,-0.077 -0.162843,-0.12768 -0.153956,-0.16706 -0.238609,-0.39099 -0.394251,-0.55592 -0.06903,-0.14786 -0.152779,-0.2897 -0.2071,-0.44356 -0.06409,-0.18155 -0.102115,-0.37135 -0.146705,-0.55865 -0.05143,-0.21605 -0.106708,-0.43173 -0.141311,-0.6511 -0.119623,-0.75842 -0.07983,-1.5315 -0.216767,-2.28815 -0.02427,-0.59147 -0.0029,-0.82193 -0.134193,-1.3816 -0.03864,-0.16474 -0.0825,-0.33078 -0.156852,-0.48277 -0.05841,-0.1194 -0.107663,-0.28809 -0.236415,-0.32114 -0.881376,-0.22624 -0.855366,-0.16326 -1.28922,0.18568 -0.09044,0.11278 -0.195192,0.21545 -0.271332,0.33834 -0.09409,0.15186 -0.162469,0.31837 -0.236331,0.48103 -0.192411,0.42375 -0.356317,0.852 -0.512262,1.29062 -0.577914,1.62551 0.05952,-0.0524 -0.605845,1.66047 -0.274517,0.66191 -0.442909,1.10417 -0.769229,1.74451 -0.138318,0.27143 -0.270993,0.54805 -0.443915,0.79886 -0.156097,0.22639 -0.337232,0.43752 -0.538059,0.62538 -0.154637,0.14465 -0.427539,0.17417 -0.520216,0.36457 -0.04497,0.0924 0.185654,0.088 0.278481,0.13203 -0.128655,0.003 -0.258968,0.029 -0.385963,0.008 -0.179533,-0.0294 -0.347766,-0.15865 -0.45111,-0.30212 -0.06414,-0.089 -0.111816,-0.18947 -0.155803,-0.29 -0.139128,-0.31797 -0.208286,-0.61146 -0.30393,-0.9474 -0.206302,-0.87721 -0.112468,-0.4226 -0.276764,-1.3648 -0.05821,-0.26299 -0.137961,-0.52075 -0.207004,-0.78112 -0.152041,-0.57335 -0.211909,-0.94009 -0.501462,-1.46602 -0.118724,-0.21565 -0.282661,-0.40311 -0.423992,-0.60466 -0.179298,-0.14921 -0.31483,-0.37941 -0.537894,-0.44763 -0.570981,-0.17463 -1.394495,-0.27246 -1.952598,0.0906 -0.192678,0.12534 -0.344396,0.3081 -0.486265,0.48896 -0.338154,0.43109 -0.515436,0.975 -0.900003,1.37539 -0.384959,0.52651 -0.719629,1.02648 -1.179199,1.49273 -0.161594,0.16394 -0.469227,0.22169 -0.528926,0.44401 -0.03448,0.12838 0.258573,0.22439 0.369222,0.15071 0.230859,-0.15372 -1.12642,-0.30507 -0.574118,-0.60224 -0.06738,-0.17477 -0.143502,-0.34641 -0.202134,-0.5243 -0.105103,-0.31889 -0.248551,-0.89083 -0.300316,-1.22169 -0.02932,-0.18736 -0.03545,-0.37763 -0.05433,-0.56632 -0.05733,-0.57316 -0.04385,-0.28206 -0.05343,-0.70618 -0.0066,-0.12591 -0.896849,-0.0797 -0.890312,0.0462 z" />
      <text
         id="text2380-5-4-0"
         y="148.77327"
         x="16.391336"
         style="font-style:normal;font-weight:normal;font-size:7.62017px;line-height:0.85;font-family:sans-serif;fill:#333333;fill-opacity:1;stroke:none;stroke-width:0.264583"
         xml:space="preserve"><tspan
           style="font-style:normal;font-variant:normal;font-weight:normal;font-stretch:normal;font-size:7.62017px;font-family:Courier;-inkscape-font-specification:Courier;fill:#333333;fill-opacity:1;stroke-width:0.264583"
           y="148.77327"
           x="16.391336"
           sodipodi:role="line"
           id="tspan2404-5-4">résumé</tspan></text>
    </g>
  </g>
</svg>
