<?xml version="1.0" encoding="UTF-8" standalone="no"?>
<svg
   xmlns:dc="http://purl.org/dc/elements/1.1/"
   xmlns:cc="http://creativecommons.org/ns#"
   xmlns:rdf="http://www.w3.org/1999/02/22-rdf-syntax-ns#"
   xmlns:svg="http://www.w3.org/2000/svg"
   xmlns="http://www.w3.org/2000/svg"
   xmlns:xlink="http://www.w3.org/1999/xlink"
   xmlns:sodipodi="http://sodipodi.sourceforge.net/DTD/sodipodi-0.dtd"
   xmlns:inkscape="http://www.inkscape.org/namespaces/inkscape"
   width="128.09097mm"
   height="40.810658mm"
   viewBox="0 0 128.09097 40.810658"
   version="1.1"
   id="svg10729"
   inkscape:version="1.0 (4035a4f, 2020-05-01)"
   sodipodi:docname="resume2.svg">
  <defs
     id="defs10723">
    <linearGradient
       id="linearGradient4292"
       inkscape:collect="always">
      <stop
         id="stop4288"
         offset="0"
         style="stop-color:#f0f02f;stop-opacity:1" />
      <stop
         id="stop4290"
         offset="1"
         style="stop-color:#e3e32d;stop-opacity:1" />
    </linearGradient>
    <linearGradient
       gradientUnits="userSpaceOnUse"
       y2="148.7168"
       x2="134.2612"
       y1="144.63002"
       x1="64.31736"
       id="linearGradient4294"
       xlink:href="#linearGradient4292"
       inkscape:collect="always" />
  </defs>
  <sodipodi:namedview
     id="base"
     pagecolor="#ffffff"
     bordercolor="#666666"
     borderopacity="1.0"
     inkscape:pageopacity="0.0"
     inkscape:pageshadow="2"
     inkscape:zoom="2.2659514"
     inkscape:cx="238.1823"
     inkscape:cy="76.239871"
     inkscape:document-units="mm"
     inkscape:current-layer="layer1"
     inkscape:document-rotation="0"
     showgrid="false"
     inkscape:window-width="1440"
     inkscape:window-height="900"
     inkscape:window-x="0"
     inkscape:window-y="0"
     inkscape:window-maximized="0" />
  <metadata
     id="metadata10726">
    <rdf:RDF>
      <cc:Work
         rdf:about="">
        <dc:format>image/svg+xml</dc:format>
        <dc:type
           rdf:resource="http://purl.org/dc/dcmitype/StillImage" />
        <dc:title />
      </cc:Work>
    </rdf:RDF>
  </metadata>
  <g
     inkscape:label="Layer 1"
     inkscape:groupmode="layer"
     id="layer1"
     transform="translate(-41.787844,-127.76134)">
    <path
       style="fill:#ffff00;stroke:#d9d5c3;stroke-width:0.4;stroke-linejoin:round;stroke-opacity:0.60000002;stroke-miterlimit:4;stroke-dasharray:none;paint-order:stroke markers fill"
       id="path2376"
       d="m 67.781005,142.2844 c 0.25214,1.05967 0.385367,1.49531 0.487397,2.72037 0.0609,0.73117 0.043,1.46678 0.0709,2.19994 0.0853,2.24251 0.14815,4.4845 0.22665,6.72729 0.19712,0.62491 0.29688,1.28935 0.59135,1.87471 2.80696,5.57994 8.92774,2.7451 15.84248,1.76816 1.0759,-0.15201 1.48999,-1.58261 2.20594,-2.4 0.79555,-0.90826 1.54283,-1.85781 2.32736,-2.77561 0.83144,-0.97267 1.68024,-1.93038 2.52036,-2.89557 4.24437,-4.61911 0.67803,-0.92756 5.14259,-5.05517 1.04777,-0.96869 2.45743,-2.501 3.611688,-3.42563 0.85918,-0.68826 1.62711,-1.08845 2.55554,-1.61779 0.28906,-0.12299 0.95655,-0.5155 1.33719,-0.29044 0.14452,0.0855 0.33471,0.47587 0.16682,0.47523 -4.53412,-0.0172 -9.093758,0.0412 -13.592278,-0.52612 -0.39671,-0.05 -0.0232,-0.80061 -0.0733,-1.19732 -0.004,-0.0355 -0.0573,-0.0427 -0.086,-0.064 -0.41195,1.69028 -0.6892,3.40448 -1.15617,5.08326 -0.23036,0.82814 -0.54708,1.63097 -0.76903,2.4614 -0.22299,0.83436 -0.36718,1.68789 -0.56465,2.52865 -0.19223,0.81839 -0.40291,1.63234 -0.60436,2.44851 -1.4557,5.24451 -0.004,-0.47089 -0.89134,4.54548 -0.11748,0.66433 -0.41311,1.29279 -0.49509,1.96243 -0.0786,0.64202 0.0412,1.29399 0.0173,1.94037 -0.21244,2.60332 -0.14921,1.32374 -0.19866,3.83828 0.12834,0.52901 0.25668,1.05801 0.38501,1.58701 0.12553,0.44524 0.26651,0.88638 0.37659,1.33569 0.1088,0.44408 -0.17168,1.26958 0.27963,1.34282 4.75413,0.77158 9.61169,1.44113 14.411418,1.04145 0.90912,-0.0757 0.95436,-1.55599 1.39049,-2.35723 0.60648,-1.11421 1.15732,-2.2578 1.73598,-3.38669 4.02816,-9.63428 -0.70869,1.64537 3.65262,-8.57359 0.65277,-1.5295 1.23025,-3.09207 1.93357,-4.59899 0.67494,-1.4461 1.48474,-2.82558 2.19798,-4.25318 4.87601,-9.75961 -1.01658,1.68589 3.38172,-6.79972 1.00151,-1.75971 1.39752,-2.63164 2.5942,-4.15695 0.30929,-0.39423 0.62406,-0.79539 1.01503,-1.10879 0.27691,-0.22197 1.30985,-0.47982 0.95509,-0.47045 -13.47941,0.35585 -14.82783,5.1293 -13.42042,0.50046 0.0469,0.54523 0.15209,1.08857 0.14077,1.63571 -0.0158,0.7644 -0.1514,1.52162 -0.22185,2.28294 -0.0788,0.85132 -0.1185,1.70672 -0.22581,2.55492 -0.29445,2.32739 -0.58593,3.35349 -1.04253,5.66971 -0.19934,1.01117 -0.38317,2.02534 -0.57476,3.03801 -0.49905,2.75563 -0.68818,5.55375 -1.14603,8.3151 -0.10129,0.61086 -0.42096,1.20693 -0.35756,1.82288 0.0866,0.84097 -0.052,2.38958 0.79319,2.40902 5.07611,0.1168 10.06312,-1.36231 15.09468,-2.04347 5.96039,-7.90322 -1.66187,2.30519 4.68262,-6.55621 0.87237,-1.21844 1.81493,-2.38528 2.69995,-3.59456 2.19892,-3.00461 2.2346,-3.28656 4.4418,-6.07704 0.57901,-0.73201 1.19893,-1.43073 1.79839,-2.1461 0.43382,-0.52651 0.84389,-1.07352 1.30146,-1.57953 0.1,-0.11054 1.39852,-1.56215 1.92421,-1.4442 0.20782,0.0466 0.26792,0.63298 0.055,0.63659 -14.44056,0.2445 -16.57389,3.19122 -13.46559,-0.79058 0.38649,1.77181 0.67423,3.58294 1.33499,5.28362 0.23974,0.61704 0.57313,1.19387 0.83509,1.8018 0.2632,0.61079 0.4932,1.23536 0.7398,1.85304 1.05571,1.93408 2.12908,3.88718 2.8084,5.99438 0.17346,0.5381 0.24529,1.10482 0.40724,1.6465 0.5875,1.60412 0.34064,0.83249 0.75914,2.30887 0.3048,0.47499 0.49394,1.04851 0.9144,1.42497 3.99828,3.57987 15.47253,0.10848 16.39566,-0.048 0.80687,-0.13675 1.20935,-1.10368 1.78922,-1.68116 1.91841,-1.91048 1.74028,-1.8183 3.40974,-3.95 1.37899,-1.85422 2.91236,-3.58444 4.5179,-5.24361 0.70777,-0.73141 1.2228,-1.38292 2.20137,-1.74921 0.31271,-0.11704 0.66256,-0.0833 0.99384,-0.12501 3.69087,3.04674 1.04053,0.71355 -12.4766,0.54896 -0.16234,-0.002 0.19246,-0.26472 0.31406,-0.3723 0.10374,-0.0918 0.40334,0.13018 0.4633,0.16798 0.48942,0.29583 0.18149,0.24301 0.1654,0.52857 -0.0151,0.26843 0.18854,1.138 0.16887,1.32336 -0.0355,0.33418 -0.19609,0.64287 -0.29414,0.96431 -0.6326,1.68639 -0.21547,0.38205 -0.58487,2.13134 -0.077,0.36478 -0.20696,0.71829 -0.26571,1.08647 -0.0537,0.33684 -0.006,0.68584 -0.0705,1.02087 -0.4332,2.26511 -0.25982,-0.24959 -0.33973,1.78442 -7.9e-4,0.73646 -0.0587,1.81402 0.24238,2.4826 0.21249,0.47187 0.44464,1.1911 0.96139,1.21904 1.82508,0.0987 11.28344,2.05579 15.10644,-1.1622 0.31632,-0.26626 0.55134,-0.61631 0.82701,-0.92446 2.04316,-1.5726 0.22255,-0.0524 1.96173,-1.85288 0.32713,-0.33865 0.72252,-0.60881 1.03635,-0.95983 0.27009,-0.3021 0.45724,-0.66982 0.70639,-0.98941 0.39022,-0.50055 0.82649,-0.96344 1.23667,-1.44776 0.12273,-0.1629 0.24547,-0.32581 0.3682,-0.48871 0.30417,-1.9946 -13.79979,-4.14539 -14.10396,-2.15079 v 0 c -0.0829,0.12979 -0.16582,0.25958 -0.24873,0.38938 -1.45179,1.32845 0.32992,-0.39202 -0.99732,1.20716 -0.22734,0.27393 -0.53276,0.4761 -0.76077,0.74947 -0.21728,0.26049 -0.31506,0.61853 -0.56841,0.8441 -0.63641,0.56661 -1.5654,0.73177 -2.17196,1.34802 -0.30362,0.15238 -0.58211,0.37153 -0.91086,0.45714 -0.28804,0.075 -1.19047,0.0108 -0.89283,0.0126 4.24123,0.0263 8.49955,-0.31945 12.72378,0.0607 0.35937,0.0323 -0.12412,0.71116 -0.16911,1.06917 -0.0317,0.25236 0.0605,0.53706 -0.0608,0.76059 -0.0492,0.0907 -0.1827,-0.0957 -0.27405,-0.14363 0.60779,-1.76933 -0.003,0.3048 0.2348,-1.6746 0.0407,-0.33844 0.19992,-0.65376 0.25697,-0.98984 0.0566,-0.33337 0.0354,-0.67622 0.0826,-1.01105 0.14298,-1.01335 0.22492,-1.09672 0.56073,-2.05803 0.0537,-0.34953 0.1232,-0.69699 0.16106,-1.04859 0.0366,-0.34021 -0.0142,-0.69111 0.0622,-1.02466 0.0769,-0.33575 0.33344,-0.61678 0.39146,-0.9563 0.052,-0.30428 -0.0495,-0.61541 -0.0703,-0.9234 -0.07,-1.03784 0.0144,-0.27169 -0.12276,-1.30861 -1.3314,-2.70957 0.80993,1.6418 -0.68948,-1.38089 -0.12401,-0.25001 -0.20046,-0.52831 -0.366,-0.75298 -0.22897,-0.31076 -0.41793,-0.81249 -0.80333,-0.83405 -13.45008,-0.75275 -10.63949,-3.1698 -14.61807,0.71625 -1.95651,1.77262 0.17191,-0.32425 -1.43539,1.82848 -0.34669,0.46434 -0.80558,0.83551 -1.16777,1.28788 -0.40583,0.50689 -0.73067,1.07491 -1.13239,1.58506 -4.05772,5.15291 1.01297,-1.67563 -2.89101,3.65732 -0.7875,0.84535 -2.26077,2.56658 -3.3168,3.17732 -0.62227,0.35988 -2.74617,0.65972 -2.03044,0.72659 3.7215,0.34773 7.4919,-0.22717 11.21238,0.13135 0.44017,0.0424 -0.63662,0.62669 -1.01768,0.85107 -0.17662,0.104 -0.40391,0.07 -0.60587,0.10493 -1.03095,-1.25351 -0.38161,-0.33726 -1.25628,-2.04949 -0.27762,-0.54346 -0.5936,-1.06712 -0.86143,-1.61547 -0.95959,-1.96467 -1.65369,-4.03287 -2.45864,-6.06175 -0.13139,-0.3016 -1.28968,-2.93552 -1.42281,-3.33281 -0.008,-0.0232 -0.62984,-2.57679 -0.648,-2.69729 -0.12097,-0.80256 -0.0244,-1.62811 -0.17727,-2.42841 -0.18866,-6.21397 0.44765,-2.57345 -14.26044,-2.49124 -0.34911,0.002 -0.19471,0.6735 -0.34274,0.98968 -0.13052,0.27879 -0.34179,0.51315 -0.48774,0.78419 -1.34304,2.49416 0.44273,-0.33046 -1.6615,2.80024 -0.44016,0.75038 -0.8857,1.49763 -1.32047,2.25115 -0.54353,0.94201 -1.04615,1.908 -1.61437,2.83533 -1.79229,2.92504 -2.61368,4.01211 -4.79598,6.76101 -0.87527,1.10252 -1.67218,2.28252 -2.68732,3.2578 -0.93568,0.89894 -2.08178,1.54938 -3.12267,2.32407 3.77304,0.35932 7.65096,0.12421 11.31911,1.07797 0.59706,0.15524 -0.23265,1.6452 -0.84956,1.64422 -0.55565,-7.9e-4 -0.26117,-1.09035 -0.26358,-1.646 -0.003,-0.76695 0.18465,-1.52317 0.24652,-2.28763 0.36313,-4.48628 -0.17544,-1.07838 0.76572,-5.77167 0.14843,-0.99664 0.26946,-1.99775 0.4453,-2.98992 0.17254,-0.97362 0.39755,-1.93721 0.59944,-2.90517 0.38298,-1.83626 0.74029,-3.6779 1.13617,-5.51142 0.18269,-0.84613 0.46408,-1.67293 0.58559,-2.52999 0.10322,-0.72815 0.0571,-1.46975 0.0856,-2.20462 0.0442,-7.3972 0.97005,-3.89001 -14.26876,-2.64335 -0.36632,0.03 -0.29327,0.67412 -0.44751,1.00773 -1.85732,4.01711 0.70802,-1.75441 -1.38129,3.37401 -0.34889,0.8564 -0.74829,1.69135 -1.12243,2.53703 -2.76983,7.74946 0.77002,-1.83474 -2.88798,6.91015 -0.58834,1.4065 -1.012198,2.87811 -1.601078,4.28438 -0.64032,1.52909 -1.3547,3.02684 -2.08393,4.51558 -2.00435,4.09194 -2.22388,4.28209 -4.49853,8.06992 -0.81242,0.82887 -1.48991,1.8161 -2.43726,2.48661 -0.4833,0.34208 -2.30016,0.34946 -1.71735,0.45395 4.20474,0.75386 8.48391,1.00788 12.724938,1.51956 0.16812,0.0204 -0.42341,0.10245 -0.50599,-0.0454 -0.41594,-0.74454 0.33715,-1.88434 -0.67533,-2.46779 -0.816188,-3.72138 -0.11826,0.55925 0.0424,-3.36627 0.0237,-0.57921 -0.271608,-1.1407 -0.255778,-1.72018 0.0171,-0.62631 0.259218,-1.22668 0.353238,-1.84613 0.79925,-5.26615 -0.401988,1.27338 0.66783,-4.28762 0.21677,-0.78194 0.44182,-1.56163 0.65033,-2.34581 0.21447,-0.80661 0.37934,-1.62668 0.61855,-2.42631 0.32673,-1.09222 1.25761,-3.62191 1.7113,-4.68806 0.46244,-1.08675 1.04527,-2.11946 1.49396,-3.21278 -0.0156,-0.33562 -0.141,-3.04451 -0.14475,-3.04521 -14.645938,-2.71503 -11.457698,-4.63057 -14.329308,-0.18403 -0.10415,0.16126 -0.19188,0.33593 -0.32029,0.47861 -0.20378,0.22642 -0.44659,0.41438 -0.66989,0.62156 -2.11881,1.9036 0.22962,-0.29386 -1.98628,2.10692 -0.50556,0.54774 -1.07409,1.03485 -1.58238,1.58006 -0.61918,0.66417 -1.22304,1.34359 -1.79825,2.04619 -3.85441,4.70801 0.22255,0.25238 -4.46394,5.15462 -1.54966,1.49612 -3.78123,3.81502 -5.64591,4.99353 -0.71002,0.44875 -3.14654,0.82597 -2.32103,0.98096 3.78429,0.71055 7.70824,0.25524 11.52705,0.74759 0.38867,0.0501 -0.62122,0.68477 -1.0057,0.60892 -0.40242,-0.0794 -0.51375,-0.63957 -0.77062,-0.95936 -0.0439,-0.61624 -0.0634,-1.23473 -0.13184,-1.84874 -0.0834,-0.74809 -0.29984,-1.48252 -0.32351,-2.23488 -0.024,-0.76322 0.10927,-1.52341 0.18134,-2.28361 0.0696,-0.7345 0.16287,-1.46658 0.24373,-2.19994 0.23141,-2.09875 0.0665,-1.17612 0.40077,-2.72037 0,-2.05683 -14.544007,-2.05683 -14.544007,0 z" />
    <path
       style="fill:url(#linearGradient4294);fill-opacity:1;stroke:none;stroke-width:1.6;stroke-linejoin:round"
       id="path2439"
       d="m 69.104732,147.03148 c 0.14485,0.96502 0.0978,1.94696 0.18264,2.91627 0.0515,0.588 0.37023,3.00524 0.48439,3.55073 0.12222,0.58401 0.31242,1.1517 0.46862,1.72755 0.18419,0.51541 0.31986,1.05084 0.55257,1.54623 0.21782,0.46366 0.47337,0.91599 0.7924,1.3168 0.55376,0.69571 1.37882,1.32295 2.2282,1.61305 0.42305,0.14449 0.87495,0.25349 1.32135,0.22948 1.25629,-0.0676 2.49388,-0.33447 3.74082,-0.5017 2.22405,-1.37512 1.35832,-0.67817 3.41482,-2.71086 1.48979,-1.47254 2.044,-1.98798 3.26388,-3.68765 0.51027,-0.71095 0.9473,-1.47183 1.43469,-2.19866 0.55845,-0.83282 1.13508,-1.6533 1.70263,-2.47995 1.88731,-2.46846 1.65615,-2.28083 3.69418,-4.51326 0.53639,-0.58755 1.083,-1.16621 1.64635,-1.72796 0.44472,-0.44346 0.88542,-0.89503 1.37659,-1.28641 0.32576,-0.25956 1.42947,-0.45979 1.06274,-0.65729 -0.52574,-0.28314 -1.17997,0.18428 -1.76995,0.27642 0.0384,0.28703 0.11267,0.57151 0.11525,0.86109 0.0161,1.8016 -0.19322,2.93322 -0.43022,4.7759 -0.1284,0.99839 -0.26131,1.99618 -0.39226,2.99423 -0.12937,0.986 -0.28695,1.9687 -0.38869,2.95793 -0.0993,0.96544 -0.14276,1.93581 -0.21415,2.90372 0.0326,1.81508 -0.15122,3.62818 -0.1347,5.44299 0.006,0.69118 0.073,1.38049 0.10836,2.07079 0.0275,0.53686 0.0289,1.07558 0.0802,1.6107 0.10462,1.09156 0.20554,1.29754 0.48503,2.30576 0.44099,0.72692 0.54633,1.07088 1.27003,1.57382 0.29623,0.20587 0.62254,0.38113 0.96879,0.48234 1.42285,0.4159 3.81389,-0.13195 4.802188,-0.54113 0.63258,-0.26188 0.98896,-0.94707 1.48344,-1.42063 0.52315,-0.89775 1.09969,-1.76646 1.56945,-2.69327 1.16562,-2.29972 2.27766,-5.10088 3.08155,-7.5453 0.41036,-1.2478 0.73022,-2.52356 1.09534,-3.78534 0.44307,-1.45717 0.84719,-2.92675 1.32921,-4.3715 0.51514,-1.54405 1.1075,-3.06125 1.66125,-4.59187 1.91285,-4.62713 1.3506,-3.50622 3.44048,-7.70824 0.4524,-0.90962 0.89595,-1.82458 1.38935,-2.71263 0.47849,-0.86121 1.40128,-2.38988 2.17067,-3.16016 0.23384,-0.2341 0.54228,-0.37929 0.81342,-0.56893 0.17293,0.0648 0.69628,0.14333 0.51881,0.19445 -0.65514,0.18873 -1.44375,-0.10504 -2.03106,0.24121 -0.23668,0.13952 0.29549,0.46776 0.39234,0.72486 0.14802,0.39295 0.23362,0.8068 0.33784,1.21355 0.44846,1.7501 0.32636,1.25114 0.53752,3.09222 0.0723,0.49719 0.14465,0.99437 0.21698,1.49155 0.0181,0.42077 0.002,0.84442 0.0543,1.2623 0.046,0.3668 0.14269,0.72607 0.23965,1.08278 0.13352,0.4912 0.35366,1.27131 0.79709,1.61768 0.25397,0.19837 0.59461,0.24872 0.89191,0.37308 1.13827,-0.10021 2.29843,-0.0569 3.4148,-0.30065 0.63658,-0.13899 1.99828,-1.29972 2.4722,-1.6496 0.4428,-0.3269 0.90229,-0.63077 1.34545,-0.9572 0.41272,-0.30401 0.80231,-0.63924 1.2218,-0.93385 0.38662,-0.27153 0.79626,-0.50871 1.19438,-0.76306 0.40671,0.0241 1.08245,-0.31115 1.22014,0.0723 0.12668,0.35278 -1.04506,0.0397 -1.04534,0.41451 -2.6e-4,0.42506 0.72763,0.44819 1.04449,0.73152 0.35602,0.31835 0.6808,0.67585 0.96154,1.06222 0.78103,1.07491 1.44061,2.57036 2.01,3.72597 1.20661,2.73204 1.21125,2.67537 2.34114,5.51683 0.37282,0.93756 0.70505,1.89124 1.09169,2.82319 0.60042,1.44723 1.5014,3.40108 2.275,4.79467 0.32259,0.58112 0.69701,1.13194 1.04551,1.69791 0.47235,0.30835 0.85453,0.88315 1.41706,0.92505 1.3823,0.10295 2.80038,-0.1095 4.12675,-0.51213 0.86143,-0.2615 1.55362,-0.91425 2.28788,-1.43512 2.09363,-1.4852 2.424,-2.00586 4.33749,-3.64828 0.63747,-0.54717 1.30022,-1.0642 1.95033,-1.59629 1.27353,-0.94604 2.31232,-2.12851 3.74829,-2.8376 0.20864,-0.10303 0.42779,-0.20265 0.65874,-0.23099 0.15698,-0.0193 0.62274,0.0784 0.46526,0.0931 -0.69782,0.065 -1.40111,0.0395 -2.10167,0.0592 0.12812,0.0951 0.26593,0.17837 0.38435,0.2853 0.60486,0.54616 0.47364,0.51465 0.98493,1.18473 0.16493,0.21615 0.34313,0.42186 0.51378,0.63353 0.17483,0.21684 0.34036,0.44139 0.52266,0.65198 0.20977,0.24232 0.43523,0.47061 0.65284,0.70592 0.54012,0.54723 1.19422,1.23555 1.78421,1.72664 1.26618,0.94288 0.68609,0.47741 1.75115,1.38275 0.0794,0.33695 2.46202,-0.22476 2.38258,-0.56171 v 0 c -0.35205,-0.2563 -1.49934,-1.08555 -1.78923,-1.32421 -0.78474,-0.64607 -1.02646,-0.93871 -1.71682,-1.6586 -0.55428,-0.65197 -1.08621,-1.3175 -1.62349,-1.98325 -0.17796,-0.22051 -0.36715,-0.43204 -0.53925,-0.65714 -0.1442,-0.18861 -0.26411,-0.39503 -0.40898,-0.58312 -0.13148,-0.17072 -0.27945,-0.3281 -0.41917,-0.49215 -0.93464,-0.11068 -1.86434,-0.27732 -2.80391,-0.33204 -0.39671,-0.0231 -0.79566,0.31412 -1.07218,0.52186 -1.21913,0.91594 -2.35494,1.94083 -3.48395,2.96299 -1.16192,1.08217 -2.59856,2.45482 -3.82215,3.44059 -0.75431,0.60771 -1.51495,1.2132 -2.33024,1.73627 -0.7487,0.48036 -1.66397,0.69883 -2.34925,1.26601 -0.15682,0.12979 0.29319,0.61268 0.0898,0.60404 -0.51759,-0.022 -0.93807,-0.43997 -1.40711,-0.65996 -0.40887,-0.5353 -0.86822,-1.03557 -1.22663,-1.6059 -0.88116,-1.40217 -1.62431,-3.24653 -2.26399,-4.74719 -0.39887,-0.93574 -0.78705,-1.876 -1.18014,-2.81419 -1.56312,-3.73067 -0.86685,-1.91039 -2.1418,-5.56374 -0.74861,-1.73798 -0.92471,-2.36792 -1.89676,-3.88542 -0.27169,-0.42414 -0.55884,-0.8434 -0.90078,-1.21324 -0.30979,-0.33506 -0.60821,-0.74609 -1.04192,-0.88797 -2.73414,-0.89444 -2.78219,-0.73229 -4.79479,-0.3611 -1.73677,1.25012 -0.53161,0.36936 -2.35076,1.73658 -0.88389,0.6643 -1.60981,1.25254 -2.58818,1.77726 -0.41398,0.22203 -1.24278,0.10254 -1.28886,0.57004 -0.0404,0.40996 0.80407,0.17964 1.20611,0.26946 -0.252,0.009 -0.52097,0.11882 -0.75599,0.0274 -0.42848,-0.16659 -0.72131,-0.98019 -0.82696,-1.31768 -0.10562,-0.33742 -0.1684,-0.687 -0.23797,-1.03365 -0.23969,-1.19419 -0.25264,-1.50225 -0.41016,-2.76198 -0.19965,-2.03572 -0.071,-1.19118 -0.43843,-3.14786 -0.0831,-0.44256 -0.14758,-0.88934 -0.25564,-1.32647 -0.0809,-0.32727 -0.0109,-0.80758 -0.31024,-0.9626 -2.21924,-1.14918 -2.18804,-1.02364 -3.49496,-0.4543 -0.21751,0.24111 -0.46629,0.45732 -0.65253,0.72333 -0.48045,0.68627 -1.51811,2.7181 -1.79518,3.29163 -1.65307,3.4218 -3.00862,6.97574 -4.39112,10.51189 -0.57469,1.53459 -1.1863,3.05587 -1.72409,4.60379 -0.50169,1.44404 -0.92463,2.91426 -1.39341,4.36932 -0.40315,1.25135 -0.80031,2.50476 -1.22235,3.74987 -0.43565,1.28526 -0.81066,2.59566 -1.35056,3.84073 -1.3362,3.0814 -1.85402,3.56219 -3.65773,6.09024 -0.551938,0.40002 -1.103878,0.80005 -1.655818,1.2001 0.30262,0.15573 1.02183,0.14652 0.90786,0.46722 -0.12198,0.34319 -0.73086,0.1002 -1.09158,0.0497 -0.38804,-0.0543 -1.40743,-0.52501 -1.69027,-0.81823 -0.19108,-0.19809 -0.25926,-0.48556 -0.3889,-0.72834 -0.13327,-0.31443 -0.29845,-0.61717 -0.39981,-0.94329 -0.12315,-0.39622 -0.20471,-0.80534 -0.27096,-1.21494 -0.21796,-1.34757 -0.20794,-2.24322 -0.29654,-3.64298 -0.2372,-3.74761 -0.20023,-1.39659 -0.11716,-5.39275 0.0674,-0.96009 0.10135,-1.92312 0.20223,-2.88027 0.10396,-0.98638 0.27561,-1.96444 0.41194,-2.94687 0.13843,-0.99759 0.2531,-1.9987 0.41233,-2.99318 0.0776,-0.48435 0.80717,-4.17467 0.84214,-4.90873 0.026,-0.54502 -0.10462,-1.08625 -0.15694,-1.62938 -0.96463,-0.002 -1.94803,-0.19506 -2.89389,-0.006 -0.40308,0.0807 -0.65712,0.49654 -0.95783,0.77682 -0.4531,0.42233 -0.88569,0.8673 -1.30006,1.32769 -0.51829,0.57586 -1.00184,1.18211 -1.49592,1.77888 -1.92702,2.32752 -1.70629,2.08519 -3.62833,4.56302 -0.59692,0.82491 -1.20601,1.64115 -1.79075,2.47473 -0.49874,0.71101 -0.93515,1.46596 -1.45928,2.15846 -0.48809,0.64488 -1.02683,1.25081 -1.5727,1.84757 -1.04393,1.14123 -2.31374,2.40936 -3.60811,3.27421 -0.53235,0.3557 -1.13957,0.58397 -1.70936,0.87596 0.22796,0.13096 0.9064,0.25288 0.68388,0.39287 -0.35235,0.22166 -0.84054,0.0462 -1.24824,-0.0378 -0.78765,-0.16234 -1.68379,-0.696 -2.22193,-1.28274 -0.77366,-0.84352 -0.96669,-1.62739 -1.38103,-2.67131 -0.23093,-0.9805 -0.60999,-2.47366 -0.73061,-3.46839 -0.068,-0.56072 -0.0721,-1.12761 -0.0875,-1.69223 -0.009,-0.31567 -0.004,-1.91517 0.0371,-2.37229 0.016,-0.1775 0.0675,-0.34998 0.10127,-0.52497 0,-0.38173 -2.69922,-0.38173 -2.69922,0 z" />
    <text
       id="text2508-0"
       y="151.94731"
       x="40.847332"
       style="font-style:normal;font-weight:normal;font-size:15.875px;line-height:1.25;font-family:sans-serif;fill:#333333;fill-opacity:1;stroke:none;stroke-width:0.264583"
       xml:space="preserve"><tspan
         style="font-style:italic;font-variant:normal;font-weight:500;font-stretch:normal;font-size:15.875px;font-family:Courier;-inkscape-font-specification:'Courier, Medium Italic';font-variant-ligatures:normal;font-variant-caps:normal;font-variant-numeric:normal;font-variant-east-asian:normal;fill:#333333;fill-opacity:1;stroke-width:0.264583"
         y="151.94731"
         x="40.847332"
         id="tspan2506-8"
         sodipodi:role="line">résumé</tspan></text>
  </g>
</svg>
