<?xml version="1.0" encoding="UTF-8" standalone="no"?>
<svg
   xmlns:dc="http://purl.org/dc/elements/1.1/"
   xmlns:cc="http://creativecommons.org/ns#"
   xmlns:rdf="http://www.w3.org/1999/02/22-rdf-syntax-ns#"
   xmlns:svg="http://www.w3.org/2000/svg"
   xmlns="http://www.w3.org/2000/svg"
   xmlns:xlink="http://www.w3.org/1999/xlink"
   xmlns:sodipodi="http://sodipodi.sourceforge.net/DTD/sodipodi-0.dtd"
   xmlns:inkscape="http://www.inkscape.org/namespaces/inkscape"
   width="165.52631mm"
   height="35.05143mm"
   viewBox="0 0 165.52631 35.05143"
   version="1.1"
   id="svg9423"
   inkscape:version="1.0 (4035a4f, 2020-05-01)"
   sodipodi:docname="writings2.svg">
  <defs
     id="defs9417">
    <linearGradient
       id="linearGradient5444"
       inkscape:collect="always">
      <stop
         id="stop5440"
         offset="0"
         style="stop-color:#f0f02f;stop-opacity:1" />
      <stop
         id="stop5442"
         offset="1"
         style="stop-color:#e3e32d;stop-opacity:1" />
    </linearGradient>
    <linearGradient
       gradientUnits="userSpaceOnUse"
       y2="76.668159"
       x2="156.29181"
       y1="75.751411"
       x1="79.932625"
       id="linearGradient5446"
       xlink:href="#linearGradient5444"
       inkscape:collect="always" />
  </defs>
  <sodipodi:namedview
     id="base"
     pagecolor="#ffffff"
     bordercolor="#666666"
     borderopacity="1.0"
     inkscape:pageopacity="0.0"
     inkscape:pageshadow="2"
     inkscape:zoom="1.7534851"
     inkscape:cx="403.73797"
     inkscape:cy="66.238922"
     inkscape:document-units="mm"
     inkscape:current-layer="layer1"
     inkscape:document-rotation="0"
     showgrid="false"
     inkscape:window-width="1440"
     inkscape:window-height="900"
     inkscape:window-x="0"
     inkscape:window-y="0"
     inkscape:window-maximized="0" />
  <metadata
     id="metadata9420">
    <rdf:RDF>
      <cc:Work
         rdf:about="">
        <dc:format>image/svg+xml</dc:format>
        <dc:type
           rdf:resource="http://purl.org/dc/dcmitype/StillImage" />
        <dc:title />
      </cc:Work>
    </rdf:RDF>
  </metadata>
  <g
     inkscape:label="Layer 1"
     inkscape:groupmode="layer"
     id="layer1"
     transform="translate(-30.629702,-56.557617)">
    <path
       style="fill:#ffff00;stroke:#d9d5c3;stroke-width:0.4;stroke-linejoin:round;stroke-opacity:0.60000002;stroke-miterlimit:4;stroke-dasharray:none;paint-order:stroke markers fill"
       id="path2366"
       d="m 91.522456,65.596787 c -0.59154,0.940335 -0.34709,0.473054 -0.78625,2.534752 -0.79849,3.7486 -0.0439,0.87225 -0.59364,4.78374 -0.53873,3.83345 -0.6144,0.85595 -0.2841,4.41818 -0.0248,0.55284 -0.12836,1.10777 -0.0743,1.65852 0.62702,6.39399 7.84367,2.72692 15.310814,1.73149 0.76631,-0.10215 0.54599,-1.44768 0.86412,-2.15229 0.87251,-1.93247 1.39389,-2.6993 2.48689,-4.56004 1.5103,-2.80765 2.63811,-5.89229 4.80837,-8.290556 0.49096,-0.542536 1.40955,-1.302557 2.00769,-1.812158 0.25604,-0.05691 0.5522,-0.31963 0.76813,-0.170725 0.27821,0.191852 0.69693,0.938059 0.35914,0.948092 -4.31405,0.128141 -8.61923,-0.548386 -12.9351,-0.574548 -0.25359,-0.0016 0.44082,0.283657 0.57376,0.499618 0.50366,0.81819 0.91176,2.435675 1.16566,3.283067 0.0289,0.67726 0.0149,1.35773 0.0867,2.03179 0.0753,0.70611 0.29549,1.39304 0.35382,2.10075 0.061,0.74062 -0.006,1.48631 0.003,2.22938 0.009,0.71477 0.0493,1.42904 0.0514,2.14386 0.004,1.21559 -0.0664,2.79857 -0.11128,4.01785 0.2673,1.32966 0.14078,2.70532 0.35774,4.0396 0.1004,0.61746 0.34056,1.20543 0.45927,1.81963 0.10061,0.52056 0.0683,1.06405 0.19747,1.57828 0.12769,0.50849 0.97503,2.27042 1.17469,2.70029 4.91536,-0.45267 9.95993,-0.15029 14.74606,-1.358 0.8438,-0.21292 0.46202,-1.67873 0.6531,-2.52774 0.4672,-2.07581 0.75646,-4.32698 1.29107,-6.37841 0.38222,-1.46663 2.04267,-6.47146 2.50361,-7.88179 0.20078,-0.48855 2.53267,-6.259163 2.95117,-6.928588 0.57099,-0.913339 1.48091,-1.572747 2.11238,-2.445361 0.60315,-0.833464 0.81794,-2.758223 2.53056,-2.345394 0.49931,0.120359 0.65593,0.79053 0.98389,1.185796 -4.33323,-0.234751 -8.66181,-0.82573 -12.9997,-0.704257 -0.37501,0.0105 0.32568,0.687097 0.38522,1.0575 0.12444,0.77411 0.11997,1.563637 0.16197,2.346558 0.11813,2.202426 0.22815,4.453626 0.057,6.657376 -0.0883,1.13694 -0.30527,2.2602 -0.45791,3.39031 -0.0223,1.95356 -0.23611,3.28864 0.406,5.13067 0.23521,0.67478 0.28593,1.83214 0.99752,1.89758 4.95041,0.45526 9.99538,0.32961 14.90754,-0.4349 0.86424,-0.13451 1.00962,-1.42899 1.5395,-2.12486 0.592,-0.77745 1.21687,-1.52933 1.8253,-2.294 1.80936,-2.29372 3.34952,-4.80247 5.51782,-6.79413 0.60887,-0.55927 1.26911,-1.06386 1.9507,-1.53177 1.47173,-1.010312 2.0102,-1.148936 3.59068,-1.813344 0.46502,-0.09498 2.31985,-0.502296 2.90177,-0.524409 0.39176,-0.0149 1.56363,0.09637 1.17164,0.102512 -4.21737,0.06613 -8.44025,0.277043 -12.65342,0.07753 -0.22645,-0.01072 -0.0908,-0.457177 -0.0429,-0.678768 0.0159,-0.0734 0.10272,0.109548 0.15408,0.164322 -0.2605,1.962937 0.0672,0.05982 -0.66097,2.463227 -0.18617,0.6145 -0.365,1.23406 -0.47637,1.86641 -0.11925,0.67707 -0.0609,1.38107 -0.21364,2.05139 -1.12514,4.93811 -0.44564,-1.00824 -0.86947,3.94818 -0.66106,4.901 -0.11246,-0.68657 0.0464,4.16281 0.0193,0.59077 -0.24167,1.17161 -0.20396,1.7615 0.0225,0.35164 0.80587,2.90325 0.99994,3.15156 0.48453,0.6199 1.22081,0.99288 1.83121,1.48933 5.0081,0.0927 10.01754,0.427 15.02427,0.27808 0.72742,-0.0216 1.37576,-0.48162 2.03699,-0.78554 1.89312,-0.87014 2.99044,-1.53107 4.5692,-2.92546 1.15185,-1.01733 2.95293,-3.10512 3.9632,-4.23699 2.333,-2.66049 1.41138,-1.42956 3.2571,-4.1864 0.42062,-0.62825 0.85735,-1.24638 1.25345,-1.89037 0.36003,-0.58534 0.63919,-1.21897 1.01351,-1.79529 0.37424,-0.57621 0.8285,-1.09652 1.22782,-1.65564 0.35634,-0.49896 0.69251,-1.01202 1.03876,-1.51803 0.27243,-0.423508 0.48903,-0.888656 0.81728,-1.270537 0.49026,-0.570365 1.30553,-1.093007 1.97482,-1.441172 0.23791,-0.123764 0.47795,-0.258937 0.7401,-0.315473 0.25352,-0.05468 0.64764,0.106645 0.88127,0.183864 4.10148,3.177288 -0.0334,1.061278 -12.94424,0.14106 -0.22982,-0.01638 -0.2438,-1.15779 -0.0328,-1.23349 0.15521,-0.05568 0.16784,0.283898 0.25176,0.425847 -0.0222,0.428487 -0.006,0.860713 -0.0667,1.285465 -0.29313,2.051956 -0.45638,1.669642 -0.88948,3.757866 -0.3768,1.81677 -0.29674,2.15896 -0.42388,3.98713 -0.0405,0.58297 -0.0949,1.1649 -0.14236,1.74735 -0.0102,0.21331 -0.13739,2.35205 -0.0647,2.67268 1.39372,6.14783 7.96607,2.35176 15.15355,1.48086 0.57546,-0.0697 0.40681,-1.08944 0.68146,-1.59991 0.26781,-0.49777 0.62601,-0.94131 0.93902,-1.41197 1.8116,-3.58206 -0.46045,0.72808 1.5364,-2.52428 0.18869,-0.30733 0.28657,-0.66351 0.4654,-0.97668 0.1471,-0.25761 0.36831,-0.46884 0.50913,-0.72995 0.60521,-1.12226 -0.17537,-0.12574 0.40544,-0.8174 0.096,-0.0722 0.17323,-0.18086 0.28786,-0.2167 0.0437,-0.0137 0.057,0.0757 0.0979,0.0961 0.11604,0.0577 0.31321,0.0151 0.36493,0.13394 0.0434,0.0996 -0.1655,0.15811 -0.19192,0.26351 -0.0135,0.0541 0.0738,0.0874 0.0906,0.14061 0.047,0.14872 0.0657,0.30497 0.0986,0.45745 1.42813,4.74581 0.32585,0.72109 -13.80323,-0.17536 -0.1309,-0.008 0.091,-0.25423 0.0812,-0.38503 -0.007,-0.0897 -0.16628,-0.15649 -0.12779,-0.23785 0.033,-0.0697 0.14594,0.0895 0.16233,0.16484 0.0132,0.0608 -0.0607,0.10854 -0.0911,0.16282 4.34104,2.85741 1.6808,1.21884 14.56001,1.06348 0.33558,-0.004 0.21549,-0.64046 0.38385,-0.93078 0.20304,-0.35012 0.9105,-0.93131 1.1624,-1.16209 0.23618,-0.21636 0.46899,-0.43636 0.70349,-0.65454 0.32105,-0.41101 0.7288,-0.95029 1.08354,-1.33982 0.16129,-0.1771 0.3514,-0.32705 0.5078,-0.50848 0.13075,-0.15167 0.19434,-0.36273 0.35088,-0.4876 1.00146,-0.798886 0.28823,0.13599 0.67829,-0.412571 3.22431,-4.104031 0.29272,-0.27963 -14.71983,-2.82684 -0.0531,-0.009 -0.0613,0.09081 -0.076,0.142635 -0.033,0.11652 -0.0346,0.240292 -0.0658,0.357335 -0.10934,0.411102 -0.33182,0.744027 -0.53164,1.125228 -0.28079,1.089078 -0.24711,1.266632 -0.86797,2.284763 -0.24716,0.40532 -0.56032,0.76649 -0.84048,1.14974 -0.25164,2.01856 14.02171,3.79788 14.27335,1.77932 v 0 c 0.12547,-0.40206 0.18682,-0.8301 0.37641,-1.2062 0.34757,-0.68946 1.01493,-1.18417 1.29967,-1.91737 0.194,-0.16062 0.3928,-0.31562 0.58201,-0.48186 0.0724,-0.06359 0.11085,-0.175216 0.20184,-0.206831 0.0573,-0.01992 0.10294,0.07887 0.16362,0.07986 0.0262,5.29e-4 0.0416,-0.07178 0.0159,-0.07694 -14.25943,-2.863736 -19.23838,-1.912694 -14.28971,-2.841165 -0.27385,0.201309 -0.18011,0.0602 -0.21336,0.461249 -0.15866,0.149746 -0.42032,0.139311 -0.59814,0.265723 -0.60045,0.426876 -0.74161,1.310227 -1.55369,1.504384 -0.15716,0.116044 -1.38817,1.07777 -1.66498,0.859 -0.17726,-0.140095 -0.46875,-0.633482 -0.24281,-0.632842 14.0275,0.03985 14.06694,-3.945387 13.87833,1.008042 0.0206,0.0453 -0.0684,0.16091 -0.0924,0.1173 -0.056,-0.10194 -0.0654,-0.867659 -0.25241,-0.881034 -13.81753,-0.988353 -10.55908,-3.547425 -14.5343,-0.273259 -0.0979,0.173109 -0.18393,0.35347 -0.29366,0.519324 -0.0748,0.113029 -0.19651,0.193509 -0.2579,0.314339 -0.0911,0.17926 -0.11174,0.38754 -0.19237,0.57175 -0.0583,0.13326 -0.1696,0.23995 -0.22226,0.37554 -0.0876,0.22554 -0.0699,0.4835 -0.18435,0.70205 -0.0294,0.14165 -0.0664,0.28193 -0.0882,0.42495 -0.0253,0.16619 -0.0142,0.33791 -0.0527,0.50152 -0.0562,0.23836 -0.14707,0.4673 -0.2299,0.69775 -0.11039,0.30714 -0.20484,0.62208 -0.3496,0.9146 -0.31179,0.63003 -1.01143,1.64546 -1.38937,2.21678 -0.29627,0.32815 -0.52066,0.73965 -0.88881,0.98444 -0.25448,0.16922 -1.1996,0.18493 -0.89444,0.20131 4.44695,0.23881 8.93407,-0.0939 13.35188,0.46767 0.40884,0.052 -0.057,0.89935 -0.35465,1.18444 -0.43261,0.4144 -0.29456,-2.87492 -0.30303,-1.77148 -0.0585,-0.50043 -0.1957,-0.99786 -0.17547,-1.50129 0.0239,-0.59384 0.2048,-1.17086 0.30639,-1.75643 0.11254,-0.64875 0.23054,-1.2966 0.33601,-1.94654 0.10676,-0.65792 0.14089,-1.32975 0.30063,-1.97685 1.87014,-7.575491 -0.35308,3.19284 1.02686,-3.750775 0.37186,-2.069018 0.39988,-0.998942 -0.12855,-3.060081 -0.0888,-0.346305 0.0973,-1.00648 -0.25856,-1.040887 -4.66067,-0.450646 -9.36094,-0.29016 -14.04307,-0.341955 -0.19649,-0.0021 -0.39233,0.07995 -0.56121,0.180403 -0.15596,0.09277 -0.25769,0.255556 -0.38654,0.383334 -1.5558,1.056751 0.22685,-0.283729 -1.0984,1.174054 -0.23904,0.262948 -0.60233,0.397187 -0.82759,0.672039 -0.23515,0.286927 -0.34613,0.656341 -0.52668,0.980419 -0.89098,1.599316 -0.51743,0.98775 -1.7929,2.581539 -0.72274,1.155904 -1.32493,2.06592 -1.95014,3.2828 -0.29298,0.57025 -0.48766,1.19034 -0.81058,1.74418 -0.36312,0.6228 -0.82355,1.18354 -1.23967,1.77225 -1.75263,2.47949 -0.90412,1.3985 -3.07431,3.76862 -0.56018,0.62098 -1.06044,1.30178 -1.68054,1.86294 -1.21248,1.09722 -2.74562,2.02328 -4.26235,2.63097 -0.67399,0.27003 -1.37108,0.5094 -2.08927,0.61608 -0.77788,0.11554 -1.57256,0.0297 -2.35884,0.0446 3.6858,0.1484 7.37159,0.2968 11.05738,0.44519 -0.32441,0.23644 -0.59359,0.57884 -0.97322,0.70932 -0.68236,0.23454 -0.97166,-1.0675 -1.0271,-1.25177 -0.48629,-1.61638 -0.39656,-3.29798 -0.34837,-4.96097 0.44014,-2.54108 0.1357,-0.98114 0.7332,-3.59506 0.14589,-0.63821 0.24037,-1.28976 0.43014,-1.91632 0.18906,-0.62424 0.49138,-1.20911 0.70329,-1.82597 0.29185,-0.84955 0.78281,-2.682876 1.0203,-3.544238 0.008,-0.343188 0.30193,-4.076539 -0.57865,-4.219784 -3.05401,-0.4968 -10.77578,-1.802069 -15.45728,0.09767 -0.32551,0.132093 -2.93121,1.382191 -3.01599,1.422627 -0.49506,0.370726 -1.00591,0.721252 -1.48518,1.112179 -1.02171,0.833377 -2.81099,2.46172 -3.66011,3.398898 -0.63903,0.705308 -1.18091,1.493338 -1.79554,2.220008 -0.66796,0.78973 -1.36759,1.55213 -2.05139,2.3282 -0.63807,0.75726 -1.27614,1.51452 -1.91421,2.27179 -0.63714,0.62459 -1.20408,1.32996 -1.91142,1.87378 -0.51882,0.3989 -2.3766,0.8198 -1.73093,0.92658 4.00475,0.66235 8.13005,0.24383 12.15136,0.79685 0.4219,0.058 -0.65094,0.88282 -1.04847,0.73006 -0.89814,-0.34514 -1.10623,-3.94179 -1.11977,-4.03748 -0.1914,-3.48374 -0.32696,-3.20361 0.11234,-6.76237 0.21938,-1.777176 0.8243,-4.384343 0.93299,-6.219596 0.0519,-0.87616 0.76929,-2.335017 -0.0565,-2.632477 -4.55171,-1.639673 -9.52724,-1.690592 -14.29086,-2.535889 -0.44575,0.388078 -0.95626,0.712407 -1.33725,1.164231 -0.3843,0.45575 -0.62707,1.014145 -0.9317,1.526587 -2.18665,3.678455 -0.41212,0.530281 -2.32166,4.955905 -2.68888,6.231819 -0.65573,0.401625 -2.81114,7.223919 -0.45665,1.34699 -0.92925,2.68867 -1.36993,4.04097 -0.42403,1.30118 -0.75456,2.63338 -1.224,3.91887 -0.41862,1.14631 -0.94658,2.24978 -1.43682,3.36734 -0.3675,0.83776 -0.70094,1.69359 -1.13623,2.49821 -0.27633,0.51079 -1.56533,1.34988 -0.99059,1.43321 4.34107,0.62943 8.77017,0.2204 13.15526,0.33059 -0.21805,0.22462 -0.34525,0.72473 -0.65413,0.67385 -0.33252,-0.0548 -0.36489,-0.56787 -0.51971,-0.86722 -0.21753,-0.42059 -0.43849,-0.84296 -0.59578,-1.28959 -0.28,-0.79507 -0.63693,-2.49985 -0.68077,-3.31915 -0.033,-0.61596 0.0501,-1.23267 0.0751,-1.84901 -0.013,-0.65136 0.004,-1.30399 -0.0391,-1.95408 -0.0948,-1.44449 -0.3767,-2.85653 -0.45515,-4.30297 -0.0422,-0.77753 -0.0156,-1.55728 -0.0179,-2.33595 -0.002,-0.75067 0.0734,-1.50453 0.004,-2.25203 -0.0689,-0.74625 -0.27759,-1.47294 -0.41638,-2.209406 -0.13261,-1.448459 -0.21519,-2.848552 -0.52234,-4.274783 -0.14266,-0.662483 0.10939,-1.794976 -0.54847,-1.957623 -16.45328,-4.067831 -10.98557,-5.079733 -15.3883,-0.706012 -0.29885,0.296876 -0.62502,0.564909 -0.93753,0.847365 -0.14273,0.383882 -0.23296,0.79161 -0.42818,1.151642 -0.59616,1.099439 -1.562574,1.973103 -2.044504,3.146036 -0.37149,0.687673 -0.642,1.426083 -0.99994,2.120913 -2.96619,5.757978 0.35468,-1.177205 -2.38961,4.669448 -1.16023,1.96815 -1.23466,2.43561 -2.90887,3.97553 -0.32072,0.295 -1.52581,0.65323 -1.09445,0.71497 4.3194,0.6182 8.721384,0.46457 13.052254,0.99644 0.25644,0.0315 -0.33715,0.6721 -0.55798,0.53798 -0.33378,-0.20272 -0.25373,-0.73869 -0.3806,-1.10803 -0.0357,-1.00354 -0.14668,-3.03687 -0.007,-3.98863 0.10418,-0.70787 0.32811,-1.39538 0.56139,-2.07178 0.17172,-0.49787 0.25662,-1.08979 0.64985,-1.44013 0.26483,-0.23595 0.70179,0.4748 1.03842,0.23235 0.64499,-1.99798 -13.482864,-6.558772 -14.127854,-4.560795 z" />
    <path
       style="fill:url(#linearGradient5446);fill-opacity:1;stroke:none;stroke-width:1.6;stroke-linejoin:round"
       id="path2435"
       d="m 91.852936,71.323889 c 0.65103,3.06713 0.14697,0.48553 0.71969,4.26284 0.13488,0.88957 0.30305,1.77389 0.43718,2.66358 0.13541,0.89821 0.18549,2.92815 0.90607,3.8261 0.23616,0.29428 0.66243,0.36147 0.99364,0.54221 1.13946,-0.17461 2.33784,-0.12219 3.41837,-0.52382 0.4487,-0.16679 1.956824,-2.38887 2.109614,-2.63174 1.11704,-1.77576 0.98586,-1.89424 1.99135,-3.80654 0.38306,-0.72853 0.80626,-1.43523 1.2094,-2.15284 0.69495,-1.24931 1.74718,-3.18907 2.52588,-4.40145 0.41307,-0.64311 0.86487,-1.26072 1.31387,-1.879284 0.6119,-0.842965 1.46566,-1.961872 2.19362,-2.739464 0.30976,-0.330888 0.65419,-0.62753 0.98128,-0.941295 1.26714,-0.589454 1.31731,-0.779449 2.79253,-0.755422 0.21039,0.0034 -0.75293,0.0274 -0.60572,0.177755 0.3368,0.343998 0.96158,0.25278 1.33031,0.562319 1.1207,0.940827 1.11005,2.199785 1.40382,3.522654 -0.0143,0.956737 -0.01,1.913937 -0.0428,2.870197 -0.0373,1.07635 -0.0873,2.15267 -0.1685,3.2266 -0.22416,2.96482 -0.47489,3.76311 -0.53504,6.72738 -0.0431,2.12284 0.10964,3.54504 0.26733,5.61725 0.0668,0.67282 0.1148,1.34777 0.20048,2.01845 0.0657,0.5145 0.10856,1.03724 0.25354,1.53526 0.20852,0.71625 0.68308,1.53605 1.25766,2.03258 0.25354,0.2191 0.53328,0.4806 0.86722,0.50844 1.0902,0.0909 2.18526,-0.10861 3.27789,-0.16292 0.34264,-0.34582 0.73286,-0.65024 1.02791,-1.03745 0.40466,-0.53106 0.72501,-1.12206 1.0584,-1.70052 0.92053,-1.59716 1.36796,-2.54649 2.08501,-4.26245 0.34862,-0.83425 0.63495,-1.69396 0.99339,-2.52405 0.37899,-0.87769 0.81186,-1.73112 1.21779,-2.59669 0.33653,-0.66933 1.73612,-3.4849 2.17812,-4.25181 0.30028,-0.52102 0.6129,-1.03793 0.97613,-1.5172 0.46075,-0.60795 1.33851,-1.51812 2.05314,-1.88443 0.35675,-0.18287 0.76698,-0.23369 1.15047,-0.35054 0.33384,0.008 1.23562,-0.21426 1.00152,0.0239 -0.32722,0.33286 -1.10401,-0.0519 -1.35855,0.33932 -0.17885,0.27489 0.48701,0.44892 0.66764,0.72264 0.65634,0.99459 0.76368,2.26033 0.94795,3.39969 0.0188,1.61037 -0.0365,0.72995 0.1522,2.26914 0.039,0.31783 0.0606,0.63804 0.11207,0.95408 0.0511,0.31333 0.20129,1.0313 0.38937,1.33566 0.10532,0.17045 0.27134,0.29488 0.40702,0.44232 1.20439,-0.32662 2.54143,-0.34065 3.61319,-0.97987 0.81709,-0.48733 1.18396,-1.48956 1.77595,-2.23432 0.74434,-0.93642 1.50238,-1.8621 2.23306,-2.80923 0.75708,-0.98136 1.4636,-2.00133 2.22975,-2.97563 0.34548,-0.43933 3.64827,-4.399831 4.16072,-5.015162 1.28986,-1.310719 1.84088,-1.939787 3.18469,-3.075715 0.35722,-0.301956 0.72005,-0.600636 1.11213,-0.855694 0.27827,-0.181023 0.58077,-0.326213 0.89007,-0.446783 0.19773,-0.07708 0.83276,-0.138097 0.62059,-0.14209 -0.63564,-0.01196 -1.26907,0.07862 -1.9036,0.117936 0.27421,0.06716 0.43876,0.06127 0.63014,0.316571 0.093,0.124061 0.12425,0.284141 0.18905,0.425 0.10172,0.221118 0.23522,0.429414 0.3105,0.660871 0.14238,0.437716 0.40905,2.11092 0.45324,2.366232 0.30062,1.850214 0.28839,3.726454 0.39922,5.592054 0.0339,0.57038 0.0359,1.14483 0.12052,1.70991 0.13433,0.89731 0.73418,3.13011 0.95059,3.9714 0.51878,1.88488 1.2273,3.71516 2.15544,5.43702 0.30202,0.5603 0.89856,1.59293 1.41633,2.05549 0.2318,0.20708 0.53139,0.32264 0.79708,0.48397 1.12072,-0.0468 2.27104,0.11979 3.36214,-0.14035 0.51087,-0.12181 0.86062,-0.60671 1.24989,-0.95926 0.96118,-0.8705 1.50568,-1.61401 2.24109,-2.6756 0.49795,-0.71881 1.48011,-2.29693 1.9425,-3.0313 1.27232,-2.0542 1.11959,-1.94038 2.74032,-3.94794 0.58015,-0.71863 1.17624,-1.42521 1.79844,-2.10775 0.8187,-0.89808 2.4347,-2.54094 3.47153,-3.30146 0.46317,-0.33973 0.99288,-0.57788 1.48932,-0.86682 0.41964,-0.10623 1.3787,0.0973 1.25891,-0.31869 -0.12146,-0.421796 -0.97842,-0.14332 -1.30871,0.14576 -0.21745,0.19032 0.56716,0.14177 0.81967,0.28226 0.34252,0.19058 0.96615,0.84952 1.20107,1.14756 0.16448,0.20867 0.29603,0.4413 0.44404,0.66195 0.15661,0.21027 0.31322,0.42054 0.46982,0.6308 0.11807,0.18967 0.2234,0.38788 0.35421,0.56899 0.1221,0.16905 0.26942,0.31839 0.4026,0.47886 0.0623,0.0751 0.53362,0.66653 0.63694,0.74662 0.13958,0.10818 0.30927,0.17055 0.46391,0.25583 0.99223,0.0153 1.98724,0.12158 2.97669,0.0458 0.2089,-0.016 0.36754,-0.20197 0.54368,-0.31541 0.18931,-0.12193 0.36728,-0.26063 0.55158,-0.39 0.8331,-0.58481 0.29513,-0.19404 1.06742,-0.76551 0.0815,-0.34964 -2.39082,-0.926 -2.47233,-0.57636 v 0 c -0.49974,0.35478 -1.00967,0.76426 -1.59269,0.97671 -0.80689,0.29403 -2.08172,0.0266 1.41557,0.25045 -0.37026,-0.0555 -0.4218,-0.0185 -0.75053,-0.29454 -0.12572,-0.10557 -0.21075,-0.2521 -0.32449,-0.37048 -0.14504,-0.15096 -0.31543,-0.27753 -0.45119,-0.43689 -0.31417,-0.36879 -0.51837,-0.82297 -0.84678,-1.18121 -0.17215,-0.23252 -0.34463,-0.46478 -0.51645,-0.69754 -0.44234,-0.59921 -0.62479,-0.93247 -1.22982,-1.40398 -0.26595,-0.207263 -0.52499,-0.493685 -0.85991,-0.532687 -2.71403,-0.316082 -2.61768,-0.189391 -4.44664,0.536607 -0.45367,0.32698 -0.93304,0.62098 -1.36101,0.98095 -0.55242,0.46465 -1.06413,0.97635 -1.57379,1.48753 -1.51973,1.52424 -2.22889,2.35544 -3.60716,4.03756 -1.57074,1.91701 -1.6311,2.04897 -3.02798,3.9526 -0.56558,0.90216 -1.30338,2.11221 -1.92873,2.98028 -0.33015,0.45828 -0.65282,0.92643 -1.03939,1.33823 -0.38974,0.41519 -0.82467,0.78932 -1.27946,1.132 -0.36962,0.27851 -1.24145,0.26523 -1.18439,0.72451 0.0548,0.44086 0.87125,0.17428 1.30688,0.26142 -0.28241,-0.0892 -0.59406,-0.11403 -0.84723,-0.26773 -0.55004,-0.33392 -1.29141,-1.3578 -1.5768,-1.83577 -0.29019,-0.486 -0.52192,-1.00501 -0.76058,-1.51829 -0.89215,-1.91875 -0.76647,-1.74715 -1.43484,-3.79951 -0.41086,-1.71627 -0.566,-2.17031 -0.80223,-3.88507 -0.1496,-1.08598 -0.21671,-2.39302 -0.29691,-3.4813 -0.0469,-0.63594 -0.10839,-1.27086 -0.14636,-1.9074 -0.0383,-0.641991 -0.0549,-1.285093 -0.0824,-1.927639 -0.14559,-1.894321 -0.008,-0.990272 -0.32513,-2.490269 -0.13331,-0.630528 -0.2314,-1.331457 -0.68934,-1.832176 -0.12796,-0.139906 -0.29996,-0.231978 -0.44993,-0.347969 -0.9721,0.02331 -1.94873,-0.0267 -2.9163,0.06989 -0.42017,0.04195 -1.13453,0.649245 -1.38741,0.858941 -0.358,0.296849 -0.716,0.595185 -1.04929,0.919525 -1.0608,1.032293 -1.89495,2.058185 -2.86955,3.187475 -0.60766,0.775771 -1.21811,1.549352 -1.82296,2.327312 -0.70752,0.91001 -1.39872,1.83275 -2.11412,2.73656 -0.78278,0.98893 -1.58101,1.96557 -2.38016,2.94132 -0.76065,0.92874 -1.48197,1.89265 -2.29915,2.77206 -0.67803,0.72966 -1.84832,1.10598 -2.1779,2.04592 -0.15896,0.45331 0.77418,0.56893 1.16126,0.85339 -0.12818,-0.004 -0.28424,0.0671 -0.38456,-0.0128 -0.20277,-0.1615 -0.37578,-1.06248 -0.4064,-1.19852 -0.0684,-0.30379 -0.14983,-0.60576 -0.19116,-0.91439 -0.10122,-0.7558 -0.0403,-1.52826 -0.20006,-2.27888 -0.0892,-0.61055 -0.26536,-1.99514 -0.45695,-2.58818 -0.12847,-0.39769 -0.31599,-0.77589 -0.51773,-1.1419 -0.19135,-0.34719 -0.28965,-0.84363 -0.65772,-0.99085 -2.14754,-0.85892 -2.61426,-0.66636 -4.27539,-0.39674 -0.92699,0.441 -1.52236,0.63169 -2.27294,1.40451 -0.35247,0.36292 -0.62056,0.80132 -0.88882,1.23025 -1.15987,1.85458 -1.84027,3.9502 -2.90424,5.8555 -1.81802,4.13486 -0.44107,1.10322 -2.37147,5.10206 -0.5926,1.22756 -1.36706,3.00162 -2.09482,4.17932 -0.33229,0.53772 -0.67225,1.08302 -1.11609,1.53309 -0.30699,0.31129 -0.73341,0.47613 -1.10011,0.7142 0.45359,0.0954 0.89725,0.28528 1.36077,0.28631 0.27725,5.3e-4 -0.54344,-0.14277 -0.78142,-0.28503 -0.29819,-0.17825 -0.58727,-0.39156 -0.80427,-0.66285 -0.91741,-1.14694 -1.0135,-3.15046 -1.337,-4.50056 -0.23754,-2.43246 -0.35591,-2.98426 -0.31047,-5.5494 0.0433,-2.44671 0.26923,-4.27248 0.50456,-6.71009 0.10505,-1.08809 0.25239,-2.17293 0.3149,-3.26428 0.0566,-0.98778 0.028,-1.97859 0.042,-2.967885 -0.20604,-1.596316 -0.0577,-2.839802 -1.24616,-4.07126 -1.21739,-1.261391 -3.79846,-0.933392 -5.08668,-0.889601 -0.5622,0.0191 -1.13242,0.11452 -1.65782,0.315476 -0.45258,0.173098 -0.81512,0.524158 -1.22267,0.786236 -0.33097,0.336447 -0.68385,0.652669 -0.99292,1.009338 -0.89086,1.028049 -1.21311,1.652786 -1.98359,2.813018 -1.36746,2.059168 -2.80303,4.082958 -3.8687,6.324518 -0.27976,0.50165 -1.993754,3.58721 -2.328724,4.14206 -0.56926,0.94293 -1.42355,2.26263 -2.18808,3.09493 -0.31464,0.34254 -1.09324,0.46663 -1.04127,0.92883 0.0476,0.42381 0.79775,0.30189 1.19662,0.45283 -0.31817,-0.0326 -0.69179,0.0846 -0.95452,-0.0978 -1.2049,-0.83655 -1.09122,-2.3263 -1.27007,-3.5815 -0.32361,-2.27116 -0.59319,-4.56232 -0.45656,-6.86115 0,-0.37983 -2.68582,-0.37983 -2.68582,0 z" />
    <text
       id="text2508-7"
       y="76.311768"
       x="29.403286"
       style="font-style:normal;font-weight:normal;font-size:15.875px;line-height:1.25;font-family:sans-serif;letter-spacing:-0.264583px;word-spacing:-2.64583px;fill:#333333;fill-opacity:1;stroke:none;stroke-width:0.264583"
       xml:space="preserve"><tspan
         style="font-style:italic;font-variant:normal;font-weight:500;font-stretch:normal;font-size:15.875px;font-family:Courier;-inkscape-font-specification:'Courier, Medium Italic';font-variant-ligatures:normal;font-variant-caps:normal;font-variant-numeric:normal;font-variant-east-asian:normal;fill:#333333;fill-opacity:1;stroke-width:0.264583"
         y="76.311768"
         x="29.403286"
         id="tspan2506-0"
         sodipodi:role="line">writing samples</tspan></text>
  </g>
</svg>
