<?xml version="1.0" encoding="UTF-8" standalone="no"?>
<svg
   xmlns:dc="http://purl.org/dc/elements/1.1/"
   xmlns:cc="http://creativecommons.org/ns#"
   xmlns:rdf="http://www.w3.org/1999/02/22-rdf-syntax-ns#"
   xmlns:svg="http://www.w3.org/2000/svg"
   xmlns="http://www.w3.org/2000/svg"
   xmlns:sodipodi="http://sodipodi.sourceforge.net/DTD/sodipodi-0.dtd"
   xmlns:inkscape="http://www.inkscape.org/namespaces/inkscape"
   sodipodi:docname="writings1.svg"
   inkscape:version="1.0 (4035a4f, 2020-05-01)"
   id="svg8803"
   version="1.1"
   viewBox="0 0 61.1689 10.504606"
   height="10.504606mm"
   width="61.1689mm">
  <defs
     id="defs8797" />
  <sodipodi:namedview
     inkscape:window-maximized="0"
     inkscape:window-y="23"
     inkscape:window-x="0"
     inkscape:window-height="855"
     inkscape:window-width="1252"
     showgrid="false"
     inkscape:document-rotation="0"
     inkscape:current-layer="layer1"
     inkscape:document-units="mm"
     inkscape:cy="496.99408"
     inkscape:cx="-27.262375"
     inkscape:zoom="0.35"
     inkscape:pageshadow="2"
     inkscape:pageopacity="0.0"
     borderopacity="1.0"
     bordercolor="#666666"
     pagecolor="#ffffff"
     id="base" />
  <metadata
     id="metadata8800">
    <rdf:RDF>
      <cc:Work
         rdf:about="">
        <dc:format>image/svg+xml</dc:format>
        <dc:type
           rdf:resource="http://purl.org/dc/dcmitype/StillImage" />
        <dc:title></dc:title>
      </cc:Work>
    </rdf:RDF>
  </metadata>
  <g
     transform="translate(-113.0465,-16.670316)"
     id="layer1"
     inkscape:groupmode="layer"
     inkscape:label="Layer 1">
    <g
       transform="translate(105.15608,-54.656586)"
       id="g8782">
      <path
         style="fill:#ffff00;stroke:none;stroke-width:1.6;stroke-linejoin:round"
         id="path2344"
         d="m 21.066243,72.555927 c 0.01363,0.312479 0.0392,0.97525 0.06866,1.241164 0.03126,0.282209 0.136499,0.563057 0.128572,0.84562 -0.0081,0.288557 -0.146824,0.573538 -0.176479,0.861789 -0.05275,0.512846 0.02577,0.96247 0.08615,1.470508 -0.131046,0.667877 -0.176064,0.369164 0.05816,0.957274 0.04844,0.121636 -0.111578,0.343854 0.148881,0.364608 2.276348,0.181334 4.624706,0.338449 6.914205,0.198046 0.486245,-0.02987 0.302511,-0.437191 0.479216,-0.651435 0.178424,-0.216328 0.390302,-0.426266 0.585455,-0.639398 0.434938,-0.490126 0.860029,-0.961518 1.271519,-1.456304 0.188084,-0.226156 0.31062,-0.465544 0.546505,-0.68165 0.214636,-0.196636 0.544142,-0.360988 0.795517,-0.547831 0.752129,-0.559049 0.12909,-0.301595 1.125671,-0.612184 1.586673,0.945292 -0.02364,-0.111398 -5.729004,0.16938 -0.251295,0.01236 0.350068,0.177348 0.447687,0.286495 0.155683,0.174069 0.200972,0.365531 0.299158,0.548568 0.462972,0.863074 0.304087,0.554964 0.714481,1.450434 0.533765,1.26726 0.06754,0.215633 0.64683,1.387763 0.190219,0.384896 0.204817,0.586554 0.568983,0.927101 0.106919,0.09999 0.15614,0.287578 0.394363,0.280049 2.290804,-0.0724 4.534848,-0.338331 6.802273,-0.507497 0.09983,-0.875133 0.327571,-1.745 0.813902,-2.593121 0.179453,-0.312944 0.406617,-0.619533 0.627636,-0.926601 0.20132,-0.27968 0.392211,-0.561771 0.639158,-0.833325 0.212426,-0.233589 0.490858,-0.452757 0.736286,-0.679143 0.554449,-0.355223 1.195634,-0.865339 2.07535,-1.080312 0.159927,-0.03911 0.341818,-0.07543 0.521464,-0.06779 0.150515,0.0069 0.543053,0.104521 0.39199,0.106729 -2.079469,0.03042 -4.160852,-0.01417 -6.241277,-0.02125 0.09161,-0.0107 0.208539,-0.06355 0.274835,-0.03209 0.187761,0.08915 0.286289,0.60892 0.300986,0.651491 0.05871,0.170055 0.168728,0.336901 0.193686,0.508761 0.02116,0.145751 -0.104861,1.14677 -0.115488,1.239115 0.236383,2.380266 -0.04869,-1.035685 -0.02611,1.60507 0.0024,0.292454 0.122494,0.583269 0.115358,0.875702 -0.0071,0.291606 -0.149516,0.580136 -0.157997,0.871729 -0.01679,0.577434 0.169399,1.026489 0.345423,1.591463 0.07293,0.523166 0.04957,1.110742 0.670359,1.57648 0.168941,0.126748 0.308662,0.330761 0.627255,0.338561 6.845483,0.167575 5.774815,0.712225 7.473434,-0.630195 0.157528,-0.179765 0.343814,-0.354564 0.472589,-0.539281 0.152919,-0.219356 0.262291,-0.445019 0.370555,-0.670134 0.226727,-0.471413 0.458642,-1.100351 0.576226,-1.579259 0.06308,-0.25694 0.07178,-0.516401 0.136051,-0.773279 0.05832,-0.233081 0.154336,-0.463752 0.231503,-0.695638 0.416984,-0.536162 1.076626,-1.545343 2.352131,-1.792142 0.108899,-0.02105 0.233872,-0.01361 0.350807,-0.02035 1.112062,1.042402 0.395602,0.237276 -5.99052,0.09125 -0.07409,-0.0014 0.126124,-0.05098 0.199575,-0.04612 0.06714,0.0049 0.117959,0.03876 0.141092,0.06862 0.04736,0.06112 0.04129,0.128581 0.0616,0.192892 0.03019,0.09566 0.05991,0.191344 0.08986,0.287023 0.197889,0.342374 0.106227,0.696055 0.14964,1.04452 0.02771,0.222434 0.146581,0.441679 0.155815,0.664452 0.0038,0.09446 -0.03453,0.188267 -0.05179,0.282404 0.05061,0.164136 -0.01962,0.333135 0.02916,0.497432 0.07623,0.256739 0.180661,0.204756 0.207862,0.463405 0.04401,0.418514 -0.152585,0.0021 0.05366,0.361641 0.147518,0.278153 0.03224,0.02973 0.103234,0.264838 0.009,0.02959 0.03986,0.05807 0.03742,0.08799 -0.0033,0.04084 -0.07977,0.08091 -0.05437,0.120052 0.119696,0.184419 0.24854,-0.03827 0.127223,0.11794 0.178498,0.08834 -0.02059,-0.02125 0.169861,0.175632 1.058782,1.094447 3.242903,0.371852 6.85297,0.25626 0.227962,-0.0073 0.223151,-0.186808 0.34,-0.278764 0.1438,-0.113175 0.294564,-0.224364 0.441844,-0.336553 1.001456,-0.593493 1.083064,-1.379712 1.754983,-2.045095 0.171699,-0.170027 0.413297,-0.32255 0.619944,-0.483825 0.09653,-0.422654 -6.284679,-0.742301 -6.3812,-0.319647 v 0 c -0.106757,0.172451 -0.168109,0.352549 -0.320274,0.51736 -0.180155,0.195122 -0.454561,0.368101 -0.67002,0.5552 -0.476816,0.414076 -0.876446,0.853663 -1.534005,1.216152 -0.152555,0.02257 -0.298785,0.07646 -0.457663,0.06765 -0.09235,-0.0056 -0.265948,-0.101812 -0.172964,-0.102521 10.491499,-0.08007 6.24515,-0.902152 6.194317,0.24664 -0.0015,0.03487 0.05014,0.06835 0.03974,0.102867 -0.0033,0.01084 -0.04623,-0.0035 -0.06936,-0.0049 -0.01448,-0.0056 -0.03693,-0.0079 -0.04343,-0.01597 -0.0067,-0.0083 0.02524,-0.02119 0.0096,-0.02598 -0.02168,-0.0069 -0.06268,0.01507 -0.07731,0.0049 -0.01627,-0.01118 -0.07269,-0.272776 -0.167394,-0.261878 -0.05272,-0.07383 -0.196572,-0.260052 -0.198678,-0.332997 -0.0019,-0.06765 0.0962,-0.132123 0.08086,-0.199401 -0.01693,-0.07422 -0.120897,-0.138194 -0.173877,-0.20859 -0.215577,-0.286446 -0.177451,-0.169249 -0.05086,-0.471983 -0.09652,-0.317139 -0.202625,-0.636126 -0.209029,-0.957343 -0.0024,-0.119309 0.03996,-0.238485 0.0289,-0.357682 -0.02274,-0.245265 -0.173423,-0.485528 -0.175003,-0.731903 0.05001,-0.408526 0.06717,-0.582887 -0.261845,-0.971742 -0.08216,-0.09712 -0.05857,-0.268262 -0.278772,-0.284869 -6.320184,-0.476769 -5.051281,-0.91071 -7.136549,-0.03904 -0.667892,0.30181 -0.251185,0.07209 -0.729635,0.463974 -0.145131,0.118878 -0.331648,0.226865 -0.457905,0.350376 -0.537819,0.526104 -0.653353,1.119598 -1.113519,1.658622 -0.452646,1.186618 -0.123023,0.2543 -0.485914,1.491012 -0.07716,0.262941 -0.351518,1.186028 -0.523999,1.462881 -0.242082,0.388571 -0.525533,0.565745 -0.949978,0.890858 -2.39193,0.569329 -0.03915,-0.04563 5.203127,0.216557 0.204683,0.01028 -0.262249,0.186107 -0.468022,0.188684 -0.530856,0.0069 -0.705898,-0.571871 -0.735785,-0.628924 -0.10317,-0.196942 -0.177884,-0.396926 -0.266827,-0.595397 -0.181329,-0.578594 -0.32293,-0.917036 -0.355164,-1.512342 -0.03316,-0.612483 0.100813,-1.115917 0.143989,-1.727754 0.02008,-0.284578 -0.0099,-0.569766 0.02013,-0.854149 0.02673,-0.252898 0.100111,-0.50424 0.150166,-0.756359 0.163404,-1.108374 0.09007,-0.285974 0.06846,-1.29796 -0.0033,-0.153232 0.03533,-0.893206 -0.01947,-1.064934 -0.06939,-0.21744 -0.462201,-0.681601 -0.621653,-0.88335 -2.228059,-0.05494 -4.453047,-0.16827 -6.684177,-0.164748 -0.226891,3.54e-4 -0.781575,0.342339 -0.882576,0.400601 -0.185931,0.107257 -0.388323,0.209013 -0.551915,0.323974 -0.120464,0.08466 -1.248878,1.035991 -1.260867,1.046041 -0.227622,0.249731 -0.490775,0.492994 -0.682864,0.749184 -0.395454,0.527432 -0.759543,1.330258 -1.074054,1.860739 -0.192155,0.324099 -0.443997,0.640287 -0.620554,0.966324 -0.15277,0.282112 -0.198298,0.575907 -0.366332,0.856108 -0.120135,0.200325 -0.329788,0.386438 -0.49468,0.579657 2.11151,0.03841 4.225355,0.05494 6.334529,0.115218 0.166424,0.0049 -0.339061,0.08732 -0.487739,0.05195 -0.170516,-0.04056 -0.189412,-0.155629 -0.280029,-0.234492 -0.178713,-0.155538 -0.405568,-0.30158 -0.527901,-0.468648 -0.319714,-0.436636 -0.226161,-0.926032 -0.672812,-1.34845 -0.08951,-0.254654 -0.182692,-0.509025 -0.268544,-0.763957 -0.08264,-0.245403 -0.137206,-0.493008 -0.236943,-0.737022 -0.08804,-0.215397 -0.221321,-0.42621 -0.32589,-0.639982 -0.09337,-0.190892 0.132049,-0.516832 -0.267919,-0.573954 -6.326754,-0.903534 -5.464395,-1.218729 -7.372748,-0.152197 -0.826991,0.568162 -0.246888,0.109313 -0.877085,0.827811 -0.178137,0.203096 -0.39372,0.398648 -0.574584,0.601223 -0.202266,0.226539 -0.375376,0.458606 -0.57448,0.685762 -0.598296,0.682594 -0.682733,0.745357 -1.34473,1.403578 -0.221061,0.171229 -0.375829,0.365615 -0.663182,0.5137 -0.117942,0.06078 -0.668701,0.07141 -0.495164,0.08324 1.997472,0.136111 4.01809,0.183954 6.02301,0.293427 0.117913,0.0069 -0.276344,0.05793 -0.35447,0.01611 -0.227739,-0.122024 -0.263258,-0.753233 -0.273314,-0.812384 -0.02621,-0.22169 -0.04417,-0.443623 -0.07862,-0.665056 -0.04125,-0.265178 -0.142209,-0.528744 -0.14839,-0.794602 -0.0067,-0.287197 0.06785,-0.573566 0.109921,-0.860102 0.04127,-0.281056 0.08121,-0.562237 0.140114,-0.842599 0.299291,-1.424276 0.115368,-0.128782 0.252148,-1.225042 0.0084,-0.438615 -6.613951,-0.466301 -6.62231,-0.02771 z" />
      <path
         style="fill:#e7b32d;fill-opacity:0.501961;stroke:none;stroke-width:1.6;stroke-linejoin:round"
         id="path2414"
         d="m 21.239293,72.867371 c 0.09441,0.482944 0.125409,0.975465 0.190992,1.462395 0.03249,0.24125 0.07442,0.481131 0.110275,0.721901 0.03659,0.24575 0.06328,0.493084 0.107056,0.737661 0.04259,0.23795 0.101279,0.47274 0.151919,0.709113 0.05624,0.218704 0.09974,0.441074 0.168721,0.656096 0.184261,0.574392 0.463856,1.134573 0.938203,1.526221 0.138497,0.114349 0.291667,0.214765 0.456307,0.286536 0.164877,0.07188 0.347478,0.09307 0.521217,0.139611 0.700958,-0.05223 1.098083,0.02577 1.673321,-0.276048 0.488208,-0.256134 0.633528,-0.540107 0.974797,-1.011493 0.168777,-0.233123 1.167732,-1.706479 1.317926,-1.927411 0.308571,-0.41102 0.884209,-1.194106 1.236107,-1.605633 0.316435,-0.370053 0.508651,-0.617303 0.962461,-0.78833 0.117181,-0.04418 0.296924,-0.150162 0.372314,-0.05015 0.06787,0.09002 -0.208291,0.08639 -0.312434,0.129588 0.114253,0.09451 0.239717,0.17691 0.342762,0.283529 0.243632,0.252092 0.422111,0.544233 0.580084,0.854559 0.0765,0.15028 0.136126,0.308568 0.205549,0.462245 0.40785,0.902839 0.02581,0.03438 0.426966,0.95519 0.235497,0.468017 0.436603,0.95228 0.635635,1.436571 0.05466,0.133005 0.106983,0.266963 0.16137,0.400079 0.04314,0.105598 0.07842,0.214946 0.131219,0.316056 0.04018,0.07695 0.09755,0.143633 0.146331,0.215453 0.329631,0.02028 0.66351,0.117315 0.988895,0.06085 0.135282,-0.02348 0.794654,-0.714975 0.821836,-0.74214 0.342097,-0.341937 0.680429,-0.687644 1.024265,-1.027837 0.166684,-0.164915 0.336134,-0.327017 0.504199,-0.490521 0.279554,-0.266081 0.621112,-0.611469 0.939323,-0.838917 0.138141,-0.09874 0.276653,-0.207799 0.438437,-0.259364 0.135174,-0.04306 0.307529,-0.09501 0.425325,-0.01591 0.07366,0.04945 -0.250915,0.07647 -0.214594,0.157399 0.09353,0.208416 0.331328,0.314576 0.496992,0.471865 0.163119,0.241715 0.333555,0.478644 0.489356,0.725144 0.162157,0.256551 0.319066,0.516742 0.464106,0.783351 0.255436,0.469538 0.425762,0.942722 0.726214,1.387554 0.388923,0.575816 0.673694,0.815433 1.163496,1.309656 0.591276,0.507525 0.662777,0.60874 1.308054,1.013716 0.184752,0.115954 0.369507,0.236728 0.571959,0.317917 0.565796,0.2269 1.25241,0.199658 1.825856,0.07304 0.234643,-0.05182 0.4236,-0.227004 0.6354,-0.340499 0.196642,-0.162351 0.405166,-0.311291 0.589926,-0.487041 0.368965,-0.350973 0.885132,-0.97077 1.186486,-1.371551 0.180756,-0.240395 0.344932,-0.49282 0.51586,-0.7403 0.563905,-0.816454 0.386496,-0.553444 0.897142,-1.362639 0.328133,-0.458536 0.574069,-0.989927 1.005847,-1.367849 0.128939,-0.112856 0.275247,-0.204492 0.418461,-0.298574 0.431735,-0.283612 0.446098,-0.26913 0.91259,-0.483776 0.417936,-0.156573 0.414985,-0.186024 0.851707,-0.233734 0.110254,-0.01202 0.441928,-0.02841 0.332587,-0.0098 -0.351554,0.0598 -0.641588,-0.01681 -0.216749,0.06807 0.03386,0.10036 0.743496,-0.139076 0.709635,-0.23943 v 0 c -0.07391,-0.02389 -0.144347,-0.06501 -0.221739,-0.07159 -0.54021,-0.04591 -0.820363,-0.07483 -1.276844,0.01986 -0.136692,0.02834 -0.274197,0.05598 -0.406695,0.09996 -0.14684,0.04869 -0.285959,0.118183 -0.428938,0.177279 -0.155685,0.0774 -0.315306,0.147355 -0.467055,0.232219 -0.2724,0.152343 -0.650268,0.399052 -0.8792,0.614505 -0.42389,0.39894 -0.652464,0.924705 -0.965786,1.404634 -0.478198,0.843452 -0.272701,0.521923 -0.84796,1.359749 -0.168496,0.245403 -0.329306,0.496516 -0.509841,0.733202 -0.315582,0.413742 -0.808934,0.985196 -1.210096,1.327584 -0.195229,0.16663 -0.417903,0.298122 -0.626855,0.447179 -0.213396,0.0943 -0.442056,0.159719 -0.640191,0.282904 -0.02797,0.01736 0.07225,0.09178 0.03933,0.09064 -0.433006,-0.015 -0.814927,-0.183558 -1.185292,-0.393259 -0.537186,-0.304144 -0.851599,-0.589638 -1.336268,-0.977417 -0.588154,-0.597438 -0.643469,-0.600717 -1.111499,-1.276393 -0.393238,-0.567696 -0.454219,-0.762187 -0.79061,-1.37874 -0.3757,-0.688588 -0.499226,-0.885475 -0.894247,-1.555233 -0.153539,-0.184502 -0.244531,-0.448999 -0.460616,-0.553513 -0.334395,-0.161741 -1.107863,-0.309402 -1.54735,-0.111286 -0.15192,0.06849 -0.275514,0.187878 -0.40742,0.289717 -0.490692,0.378833 -0.489281,0.406206 -0.937304,0.852142 -0.710425,0.737758 -0.246433,0.268505 -1.008883,1.007326 -0.172401,0.167061 -0.337257,0.342116 -0.515451,0.502982 -0.157419,0.142111 -0.313711,0.288085 -0.49053,0.405185 -0.125329,0.083 -0.441262,0.04362 -0.408796,0.190392 0.03471,0.156899 0.314856,0.06439 0.472283,0.09662 -0.05391,-0.05675 -0.118403,-0.105035 -0.161707,-0.170228 -0.07258,-0.109258 -0.299474,-0.620311 -0.338731,-0.708815 -0.0686,-0.154642 -0.131989,-0.31159 -0.202226,-0.465495 -0.412009,-0.90284 -0.05789,-0.05633 -0.427988,-0.970944 -0.05389,-0.124629 -0.360559,-0.837194 -0.420506,-0.962309 -0.07598,-0.158581 -0.160296,-0.313049 -0.242405,-0.468545 -0.144885,-0.274381 -0.346844,-0.670418 -0.543482,-0.914696 -0.103919,-0.129095 -0.233859,-0.234887 -0.35079,-0.352327 -0.349944,-0.05084 -0.696328,-0.143723 -1.049836,-0.152454 -0.137722,-0.0035 -0.276164,0.04959 -0.396454,0.116745 -0.331302,0.18494 -0.617841,0.586054 -0.836193,0.86486 -0.483681,0.617602 -0.720367,0.963678 -1.190537,1.619079 -0.226727,0.326947 -0.446584,0.65877 -0.680182,0.980848 -0.418473,0.576976 -0.790936,1.102039 -1.331003,1.566708 -1.255864,1.080521 0.428613,-0.525688 -0.902076,0.428516 -0.04091,0.02931 0.07987,0.06133 0.119807,0.09196 -0.172201,-0.02903 -0.351246,-0.03098 -0.516601,-0.08716 -0.539386,-0.183217 -0.875979,-0.632147 -1.135547,-1.111715 -0.09965,-0.184099 -0.194564,-0.372352 -0.263905,-0.569877 -0.0736,-0.209646 -0.108703,-0.430878 -0.163054,-0.646316 -0.05594,-0.233568 -0.121635,-0.465017 -0.167821,-0.700709 -0.04748,-0.242319 -0.07824,-0.487639 -0.112953,-0.732111 -0.10143,-0.71433 -0.194272,-1.442656 -0.111615,-2.163994 0,-0.116252 -0.822051,-0.116252 -0.822051,0 z" />
      <text
         id="text2380-5"
         y="78.195724"
         x="7.9574246"
         style="font-style:normal;font-weight:normal;font-size:6.86094px;line-height:0.85;font-family:sans-serif;fill:#333333;fill-opacity:1;stroke:none;stroke-width:0.264583"
         xml:space="preserve"><tspan
           style="font-style:normal;font-variant:normal;font-weight:normal;font-stretch:normal;font-size:6.86094px;font-family:Courier;-inkscape-font-specification:Courier;fill:#333333;fill-opacity:1;stroke-width:0.264583"
           y="78.195724"
           x="7.9574246"
           sodipodi:role="line"
           id="tspan2404">writing samples</tspan></text>
    </g>
  </g>
</svg>
