<?xml version="1.0" encoding="UTF-8" standalone="no"?>
<svg
   xmlns:dc="http://purl.org/dc/elements/1.1/"
   xmlns:cc="http://creativecommons.org/ns#"
   xmlns:rdf="http://www.w3.org/1999/02/22-rdf-syntax-ns#"
   xmlns:svg="http://www.w3.org/2000/svg"
   xmlns="http://www.w3.org/2000/svg"
   xmlns:sodipodi="http://sodipodi.sourceforge.net/DTD/sodipodi-0.dtd"
   xmlns:inkscape="http://www.inkscape.org/namespaces/inkscape"
   sodipodi:docname="writings1.svg"
   inkscape:version="1.0 (4035a4f, 2020-05-01)"
   id="svg8803"
   version="1.1"
   viewBox="0 0 61.1689 10.504606"
   height="10.504606mm"
   width="61.1689mm">
  <defs
     id="defs8797" />
  <sodipodi:namedview
     inkscape:window-maximized="0"
     inkscape:window-y="0"
     inkscape:window-x="0"
     inkscape:window-height="900"
     inkscape:window-width="1440"
     showgrid="false"
     inkscape:document-rotation="0"
     inkscape:current-layer="layer1"
     inkscape:document-units="mm"
     inkscape:cy="19.851224"
     inkscape:cx="115.59477"
     inkscape:zoom="4.7450243"
     inkscape:pageshadow="2"
     inkscape:pageopacity="0.0"
     borderopacity="1.0"
     bordercolor="#666666"
     pagecolor="#ffffff"
     id="base" />
  <metadata
     id="metadata8800">
    <rdf:RDF>
      <cc:Work
         rdf:about="">
        <dc:format>image/svg+xml</dc:format>
        <dc:type
           rdf:resource="http://purl.org/dc/dcmitype/StillImage" />
        <dc:title />
      </cc:Work>
    </rdf:RDF>
  </metadata>
  <g
     transform="translate(-113.0465,-16.670316)"
     id="layer1"
     inkscape:groupmode="layer"
     inkscape:label="Layer 1">
    <path
       d="m 126.22232,17.899341 c 0.0136,0.312479 0.0392,0.97525 0.0687,1.241164 0.0313,0.282209 0.1365,0.563057 0.12858,0.84562 -0.008,0.288557 -0.14683,0.573538 -0.17648,0.861789 -0.0528,0.512846 0.0258,0.96247 0.0861,1.470508 -0.13105,0.667877 -0.17607,0.369164 0.0582,0.957274 0.0484,0.121636 -0.11158,0.343854 0.14888,0.364608 2.27634,0.181334 4.6247,0.338449 6.9142,0.198046 0.48625,-0.02987 0.30251,-0.437191 0.47922,-0.651435 0.17842,-0.216328 0.3903,-0.426266 0.58545,-0.639398 0.43494,-0.490126 0.86003,-0.961518 1.27152,-1.456304 0.18809,-0.226156 0.31062,-0.465544 0.54651,-0.68165 0.21463,-0.196636 0.54414,-0.360988 0.79551,-0.547831 0.75213,-0.559049 0.12909,-0.301595 1.12567,-0.612184 1.58668,0.945292 -0.0236,-0.111398 -5.729,0.16938 -0.25129,0.01236 0.35007,0.177348 0.44769,0.286495 0.15568,0.174069 0.20097,0.365531 0.29916,0.548568 0.46297,0.863074 0.30408,0.554964 0.71448,1.450434 0.53376,1.26726 0.0675,0.215633 0.64683,1.387763 0.19022,0.384896 0.20481,0.586554 0.56898,0.927101 0.10692,0.09999 0.15614,0.287578 0.39436,0.280049 2.29081,-0.0724 4.53485,-0.338331 6.80228,-0.507497 0.0998,-0.875133 0.32757,-1.745 0.8139,-2.593121 0.17945,-0.312944 0.40661,-0.619533 0.62763,-0.926601 0.20132,-0.27968 0.39221,-0.561771 0.63916,-0.833325 0.21243,-0.233589 0.49086,-0.452757 0.73629,-0.679143 0.55445,-0.355223 1.19563,-0.865339 2.07535,-1.080312 0.15993,-0.03911 0.34182,-0.07543 0.52146,-0.06779 0.15052,0.0069 0.54305,0.104521 0.39199,0.106729 -2.07947,0.03042 -4.16085,-0.01417 -6.24128,-0.02125 0.0916,-0.0107 0.20854,-0.06355 0.27484,-0.03209 0.18776,0.08915 0.28629,0.60892 0.30099,0.651491 0.0587,0.170055 0.16872,0.336901 0.19368,0.508761 0.0212,0.145751 -0.10486,1.14677 -0.11549,1.239115 0.23639,2.380266 -0.0487,-1.035685 -0.0261,1.60507 0.002,0.292454 0.1225,0.583269 0.11536,0.875702 -0.007,0.291606 -0.14951,0.580136 -0.158,0.871729 -0.0168,0.577434 0.1694,1.026489 0.34543,1.591463 0.0729,0.523166 0.0496,1.110742 0.67036,1.57648 0.16894,0.126748 0.30866,0.330761 0.62725,0.338561 6.84548,0.167575 5.77482,0.712225 7.47344,-0.630195 0.15752,-0.179765 0.34381,-0.354564 0.47258,-0.539281 0.15292,-0.219356 0.2623,-0.445019 0.37056,-0.670134 0.22673,-0.471413 0.45864,-1.100351 0.57623,-1.579259 0.0631,-0.25694 0.0718,-0.516401 0.13605,-0.773279 0.0583,-0.233081 0.15433,-0.463752 0.2315,-0.695638 0.41698,-0.536162 1.07663,-1.545343 2.35213,-1.792142 0.1089,-0.02105 0.23387,-0.01361 0.35081,-0.02035 1.11206,1.042402 0.3956,0.237276 -5.99052,0.09125 -0.0741,-0.0014 0.12612,-0.05098 0.19957,-0.04612 0.0671,0.0049 0.11796,0.03876 0.14109,0.06862 0.0474,0.06112 0.0413,0.128581 0.0616,0.192892 0.0302,0.09566 0.0599,0.191344 0.0899,0.287023 0.19789,0.342374 0.10623,0.696055 0.14964,1.04452 0.0277,0.222434 0.14659,0.441679 0.15582,0.664452 0.004,0.09446 -0.0345,0.188267 -0.0518,0.282404 0.0506,0.164136 -0.0196,0.333135 0.0292,0.497432 0.0762,0.256739 0.18066,0.204756 0.20786,0.463405 0.044,0.418514 -0.15258,0.0021 0.0537,0.361641 0.14752,0.278153 0.0322,0.02973 0.10324,0.264838 0.009,0.02959 0.0399,0.05807 0.0374,0.08799 -0.003,0.04084 -0.0798,0.08091 -0.0544,0.120052 0.11969,0.184419 0.24854,-0.03827 0.12722,0.11794 0.1785,0.08834 -0.0206,-0.02125 0.16986,0.175632 1.05878,1.094447 3.2429,0.371852 6.85297,0.25626 0.22796,-0.0073 0.22315,-0.186808 0.34,-0.278764 0.1438,-0.113175 0.29456,-0.224364 0.44184,-0.336553 1.00146,-0.593493 1.08307,-1.379712 1.75499,-2.045095 0.1717,-0.170027 0.41329,-0.32255 0.61994,-0.483825 0.0965,-0.422654 -6.28468,-0.742301 -6.3812,-0.319647 v 0 c -0.10676,0.172451 -0.16811,0.352549 -0.32027,0.51736 -0.18016,0.195122 -0.45456,0.368101 -0.67002,0.5552 -0.47682,0.414076 -0.87645,0.853663 -1.53401,1.216152 -0.15255,0.02257 -0.29878,0.07646 -0.45766,0.06765 -0.0924,-0.0056 -0.26595,-0.101812 -0.17297,-0.102521 10.4915,-0.08007 6.24515,-0.902152 6.19432,0.24664 -0.001,0.03487 0.0501,0.06835 0.0397,0.102867 -0.003,0.01084 -0.0462,-0.0035 -0.0694,-0.0049 -0.0145,-0.0056 -0.0369,-0.0079 -0.0434,-0.01597 -0.007,-0.0083 0.0252,-0.02119 0.01,-0.02598 -0.0217,-0.0069 -0.0627,0.01507 -0.0773,0.0049 -0.0163,-0.01118 -0.0727,-0.272776 -0.16739,-0.261878 -0.0527,-0.07383 -0.19657,-0.260052 -0.19868,-0.332997 -0.002,-0.06765 0.0962,-0.132123 0.0809,-0.199401 -0.0169,-0.07422 -0.1209,-0.138194 -0.17388,-0.20859 -0.21557,-0.286446 -0.17745,-0.169249 -0.0509,-0.471983 -0.0965,-0.317139 -0.20262,-0.636126 -0.20903,-0.957343 -0.002,-0.119309 0.04,-0.238485 0.0289,-0.357682 -0.0227,-0.245265 -0.17342,-0.485528 -0.175,-0.731903 0.05,-0.408526 0.0672,-0.582887 -0.26184,-0.971742 -0.0822,-0.09712 -0.0586,-0.268262 -0.27878,-0.284869 -6.32018,-0.476769 -5.05128,-0.91071 -7.13655,-0.03904 -0.66789,0.30181 -0.25118,0.07209 -0.72963,0.463974 -0.14513,0.118878 -0.33165,0.226865 -0.45791,0.350376 -0.53781,0.526104 -0.65335,1.119598 -1.11351,1.658622 -0.45265,1.186618 -0.12303,0.2543 -0.48592,1.491012 -0.0772,0.262941 -0.35152,1.186028 -0.524,1.462881 -0.24208,0.388571 -0.52553,0.565745 -0.94998,0.890858 -2.39193,0.569329 -0.0391,-0.04563 5.20313,0.216557 0.20468,0.01028 -0.26225,0.186107 -0.46802,0.188684 -0.53086,0.0069 -0.7059,-0.571871 -0.73578,-0.628924 -0.10318,-0.196942 -0.17789,-0.396926 -0.26683,-0.595397 -0.18133,-0.578594 -0.32293,-0.917036 -0.35517,-1.512342 -0.0332,-0.612483 0.10082,-1.115917 0.14399,-1.727754 0.0201,-0.284578 -0.01,-0.569766 0.0201,-0.854149 0.0267,-0.252898 0.10011,-0.50424 0.15017,-0.756359 0.1634,-1.108374 0.0901,-0.285974 0.0685,-1.29796 -0.003,-0.153232 0.0353,-0.893206 -0.0195,-1.064934 -0.0694,-0.21744 -0.4622,-0.681601 -0.62165,-0.88335 -2.22806,-0.05494 -4.45305,-0.16827 -6.68418,-0.164748 -0.22689,3.54e-4 -0.78158,0.342339 -0.88258,0.400601 -0.18593,0.107257 -0.38832,0.209013 -0.55191,0.323974 -0.12047,0.08466 -1.24888,1.035991 -1.26087,1.046041 -0.22762,0.249731 -0.49077,0.492994 -0.68286,0.749184 -0.39546,0.527432 -0.75955,1.330258 -1.07406,1.860739 -0.19215,0.324099 -0.44399,0.640287 -0.62055,0.966324 -0.15277,0.282112 -0.1983,0.575907 -0.36633,0.856108 -0.12014,0.200325 -0.32979,0.386438 -0.49468,0.579657 2.11151,0.03841 4.22535,0.05494 6.33453,0.115218 0.16642,0.0049 -0.33907,0.08732 -0.48774,0.05195 -0.17052,-0.04056 -0.18942,-0.155629 -0.28003,-0.234492 -0.17872,-0.155538 -0.40557,-0.30158 -0.5279,-0.468648 -0.31972,-0.436636 -0.22616,-0.926032 -0.67281,-1.34845 -0.0895,-0.254654 -0.1827,-0.509025 -0.26855,-0.763957 -0.0826,-0.245403 -0.13721,-0.493008 -0.23694,-0.737022 -0.088,-0.215397 -0.22132,-0.42621 -0.32589,-0.639982 -0.0934,-0.190892 0.13205,-0.516832 -0.26792,-0.573954 -6.32675,-0.903534 -5.4644,-1.218729 -7.37275,-0.152197 -0.82699,0.568162 -0.24689,0.109313 -0.87708,0.827811 -0.17814,0.203096 -0.39372,0.398648 -0.57459,0.601223 -0.20226,0.226539 -0.37537,0.458606 -0.57448,0.685762 -0.59829,0.682594 -0.68273,0.745357 -1.34473,1.403578 -0.22106,0.171229 -0.37583,0.365615 -0.66318,0.5137 -0.11794,0.06078 -0.6687,0.07141 -0.49516,0.08324 1.99747,0.136111 4.01809,0.183954 6.02301,0.293427 0.11791,0.0069 -0.27635,0.05793 -0.35447,0.01611 -0.22774,-0.122024 -0.26326,-0.753233 -0.27332,-0.812384 -0.0262,-0.22169 -0.0442,-0.443623 -0.0786,-0.665056 -0.0412,-0.265178 -0.14221,-0.528744 -0.14839,-0.794602 -0.007,-0.287197 0.0679,-0.573566 0.10992,-0.860102 0.0413,-0.281056 0.0812,-0.562237 0.14012,-0.842599 0.29929,-1.424276 0.11537,-0.128782 0.25215,-1.225042 0.008,-0.438615 -6.61396,-0.466301 -6.62231,-0.02771 z"
       id="path2344"
       style="fill:#ffff00;stroke:#d9d5c3;stroke-width:0.3;stroke-linejoin:round;stroke-opacity:0.60000002;stroke-miterlimit:4;stroke-dasharray:none;paint-order:stroke markers fill" />
    <text
       xml:space="preserve"
       style="font-style:normal;font-weight:normal;font-size:6.86094px;line-height:0.85;font-family:sans-serif;fill:#333333;fill-opacity:1;stroke:none;stroke-width:0.264583"
       x="113.1135"
       y="23.539139"
       id="text2380-5"><tspan
         id="tspan2404"
         sodipodi:role="line"
         x="113.1135"
         y="23.539139"
         style="font-style:normal;font-variant:normal;font-weight:normal;font-stretch:normal;font-size:6.86094px;font-family:Courier;-inkscape-font-specification:Courier;fill:#333333;fill-opacity:1;stroke-width:0.264583">writing samples</tspan></text>
  </g>
</svg>
